<svg width="84" height="18" viewBox="0 0 84 18" fill="none" xmlns="http://www.w3.org/2000/svg">
<g clip-path="url(#clip0)">
<path d="M6.42007e-05 7.60795C0.21472 7.48303 0.168308 7.23915 0.208918 7.0488C0.671047 4.88193 1.89779 2.96658 3.65348 1.67071C5.40916 0.374835 7.56994 -0.210145 9.7207 0.0281508C11.8715 0.266447 13.8605 1.31121 15.3056 2.96172C16.7508 4.61224 17.5502 6.75208 17.5502 8.97015C17.5502 11.1882 16.7508 13.3281 15.3056 14.9786C13.8605 16.6291 11.8715 17.6738 9.7207 17.9121C7.56994 18.1504 5.40916 17.5655 3.65348 16.2696C1.89779 14.9737 0.671047 13.0584 0.208918 10.8915C0.168308 10.719 0.208918 10.4989 -0.0057373 10.3978L6.42007e-05 7.60795ZM11.487 9.18429C11.8136 9.07254 12.1006 8.864 12.3115 8.58503C12.5225 8.30606 12.648 7.9692 12.6722 7.61707C12.6965 7.26493 12.6183 6.91334 12.4476 6.60678C12.2769 6.30021 12.0214 6.05243 11.7133 5.8948C11.3884 5.72229 10.8721 5.6866 10.7851 5.35349C10.7686 4.95445 10.8504 4.55759 11.0229 4.19949C11.1099 3.91397 11.0519 3.795 10.7677 3.70577C10.3209 3.56896 10.0135 3.56896 9.99026 4.1638C9.96402 4.35122 9.92328 4.53621 9.86843 4.71701C9.7872 5.1334 9.49133 4.98469 9.25347 4.96684C8.86476 4.96684 9.06202 4.68726 9.09682 4.50881C9.15484 4.22329 9.22446 3.91397 9.29408 3.65223C9.32308 3.53327 9.3869 3.43214 9.23606 3.33102C9.15583 3.25613 9.05672 3.20581 8.94999 3.18578C8.84326 3.16575 8.7332 3.1768 8.63229 3.21769C8.53139 3.25858 8.44369 3.32767 8.37915 3.4171C8.31462 3.50653 8.27583 3.61272 8.26721 3.72362C8.2266 3.90802 8.16858 4.08647 8.13958 4.27682C8.08156 4.63968 7.93072 4.77649 7.55943 4.63968C7.18873 4.51492 6.81093 4.41361 6.42813 4.33631C6.3005 4.33631 6.16706 4.24708 6.04523 4.41958C5.96819 4.50922 5.91474 4.61752 5.88994 4.73426C5.86514 4.85099 5.86981 4.97228 5.9035 5.08665C5.9372 5.20101 5.9988 5.30467 6.08249 5.3878C6.16617 5.47092 6.26917 5.53078 6.38172 5.56169C6.90386 5.6866 6.96187 5.97213 6.86905 6.43611C6.55577 7.67338 6.23668 8.91661 5.95821 10.1658C5.85378 10.6298 5.67974 10.8499 5.19821 10.6655C4.46722 10.3859 4.52524 11.0997 4.386 11.4328C4.18875 11.9087 4.68768 11.7659 4.87913 11.8195C6.12645 12.1764 6.13226 12.1645 5.88859 13.4791C5.88859 13.6099 5.74936 13.723 5.94661 13.8538C6.41653 14.1572 6.77042 14.0382 6.89805 13.491C6.95027 13.2887 6.99668 13.0805 7.03729 12.8961C7.0779 12.7117 7.15332 12.45 7.51882 12.5452C7.88431 12.6403 7.93072 12.789 7.80889 13.14C7.68706 13.491 7.71027 13.6813 7.61744 13.9371C7.52462 14.1929 7.61744 14.3059 7.87851 14.4011C8.32522 14.5498 8.56889 14.5022 8.6327 13.9787C8.67435 13.7296 8.73053 13.4833 8.80095 13.2411C8.85316 13.0329 8.94599 12.8902 9.18965 12.9853C9.66384 13.1072 10.16 13.1072 10.6342 12.9853C11.6553 12.8545 12.1368 12.1645 12.3747 11.2008C12.4843 10.8114 12.4552 10.3946 12.2925 10.0252C12.1299 9.65572 11.8444 9.35765 11.487 9.18429Z" fill="#898C9A"/>
<path d="M84.0001 10.5227C83.7564 10.7071 83.797 11.0045 83.739 11.2603C83.2807 13.2054 82.8166 15.1506 82.3814 17.1017C82.2886 17.5359 82.1146 17.6965 81.6853 17.6549C80.786 17.6132 79.881 17.6549 78.947 17.6549C79.4633 15.3885 79.968 13.1935 80.4553 10.9986C80.5606 10.568 80.6228 10.1275 80.641 9.68396C80.6659 9.49873 80.6499 9.31013 80.5943 9.13207C80.5386 8.95401 80.4447 8.79103 80.3194 8.65516C80.1941 8.51928 80.0407 8.41398 79.8704 8.34701C79.7002 8.28004 79.5174 8.25312 79.3357 8.26823C78.0245 8.19685 77.9085 8.26823 77.5952 9.57094C77.0151 12.0752 76.4349 14.5676 75.8548 17.0779C75.7503 17.5538 75.5647 17.6727 75.118 17.6727C74.3986 17.637 73.6734 17.6727 72.954 17.6727C72.5479 17.6727 72.4087 17.5894 72.5189 17.1493C73.3543 13.6456 74.1723 10.142 74.9961 6.63835C75.0425 6.43611 75.0948 6.2517 75.3384 6.16842C77.1692 5.5035 79.1291 5.29949 81.0529 5.57358C81.7482 5.63728 82.403 5.93683 82.9136 6.42486C83.4243 6.91289 83.7617 7.56154 83.8724 8.26823C83.8724 8.32176 83.942 8.3634 83.9769 8.40504L84.0001 10.5227Z" fill="#898C9A"/>
<path d="M24.0124 5.75801C24.8088 5.46384 25.6633 5.37398 26.5013 5.49628C28.2417 5.79965 29.402 7.09641 29.7443 9.15458C30.0478 11.0485 29.6401 12.99 28.6035 14.5882C27.5669 16.1863 25.9783 17.3225 24.1575 17.7679C22.2284 18.1635 20.2292 17.9839 18.3966 17.2504C18.0543 17.1314 17.9673 16.953 18.0543 16.5961C19.2726 11.3932 20.4813 6.18828 21.6802 0.981409C21.7557 0.654245 21.8659 0.487688 22.2256 0.446049C23.1016 0.333029 23.966 0.178369 24.8421 0.0237094C25.1901 -0.0417235 25.2133 0.071297 25.1379 0.386565C24.7666 1.93911 24.4069 3.4976 24.0472 5.0561C24.0008 5.25834 23.9834 5.46654 23.9486 5.65094L23.8906 5.71637L24.0124 5.75801ZM26.5477 10.5168C26.5601 10.1446 26.5131 9.77289 26.4085 9.41631C26.3527 9.06939 26.171 8.75695 25.8998 8.54178C25.6286 8.3266 25.288 8.22464 24.9465 8.25636C24.5357 8.25114 24.1278 8.32792 23.7456 8.4824C23.5707 8.54179 23.415 8.64913 23.2953 8.79278C23.1757 8.93643 23.0966 9.11092 23.0668 9.29734C22.7419 10.8142 22.359 12.3251 22.0109 13.836C21.686 15.222 21.8427 15.3885 23.2582 15.1387C25.0973 14.8175 26.5361 12.8426 26.5477 10.5168Z" fill="#898C9A"/>
<path d="M66.3287 10.3443C66.2243 13.1876 65.3251 15.6265 62.8478 17.1612C62.1317 17.6052 61.3289 17.8817 60.4966 17.9712C59.6643 18.0606 58.8229 17.9608 58.0326 17.6787C56.4488 17.1612 55.6424 15.9299 55.3349 14.3C55.061 12.7349 55.2507 11.1216 55.8794 9.66798C56.5081 8.21441 57.547 6.98724 58.8622 6.14469C59.5636 5.71775 60.3473 5.45244 61.1588 5.36718C61.9703 5.28193 62.7901 5.37876 63.5614 5.65097C65.3715 6.24581 66.1315 7.69723 66.3519 9.52341C66.3616 9.79726 66.3539 10.0715 66.3287 10.3443ZM63.1089 10.5703C63.1089 10.3621 63.0625 10.1123 63.0277 9.86247C62.7898 8.26828 61.4497 7.70318 60.1733 8.67278C59.8079 8.94888 59.5018 9.29918 59.2741 9.70186C58.5916 10.8679 58.3327 12.2435 58.5431 13.5862C58.7578 14.9781 59.8717 15.5373 61.0958 14.877C61.58 14.5948 61.9809 14.1838 62.2561 13.6873C62.7971 12.7408 63.0909 11.6672 63.1089 10.5703Z" fill="#898C9A"/>
<path d="M42.5077 2.15918C42.2583 3.20611 42.0378 4.16381 41.7709 5.11556C41.6607 5.5379 41.7071 5.7104 42.2002 5.7104C43.2271 5.67471 44.254 5.7104 45.3273 5.7104C45.1242 6.56698 44.9153 7.35812 44.7471 8.15521C44.6833 8.46453 44.5092 8.48833 44.2656 8.48833C43.3373 8.48833 42.4149 8.48833 41.4867 8.48833C41.1502 8.48833 40.9703 8.55376 40.9065 8.92851C40.6106 10.3086 40.2683 11.6767 39.9783 13.0508C39.6592 14.5557 40.1639 15.1625 41.6491 15.1268C42.1032 15.1302 42.5545 15.0537 42.9834 14.9008C43.4476 14.7223 43.5636 14.9008 43.5636 15.3409C43.5636 15.6384 43.5984 15.9358 43.6274 16.2273C43.7492 17.3872 43.7434 17.3694 42.6121 17.6906C41.5527 17.9652 40.4516 18.0278 39.3691 17.875C37.5474 17.6489 36.567 16.4711 36.5728 14.5676C36.6665 13.096 36.9195 11.6396 37.327 10.2253C37.8433 7.92322 38.4003 5.63902 38.905 3.33697C38.9183 3.14342 39.0031 2.96238 39.1422 2.83082C39.2813 2.69926 39.4642 2.62711 39.6534 2.62911C40.6106 2.49229 41.4867 2.31979 42.5077 2.15918Z" fill="#898C9A"/>
<path d="M45.2113 12.813C45.2113 9.12492 47.3462 6.26967 50.6183 5.53801C52.014 5.22634 53.4669 5.32112 54.8128 5.81164C55.2711 5.97224 55.4567 6.1388 55.1841 6.64442C54.9144 7.19164 54.6743 7.75363 54.4647 8.32783C54.3486 8.6193 54.2152 8.71448 53.8845 8.58361C53.4698 8.39679 53.0257 8.28798 52.5734 8.2624C50.334 8.15532 48.8488 9.45209 48.6458 11.766C48.5572 12.4373 48.6066 13.1201 48.7908 13.7707C48.8925 14.1477 49.1123 14.4801 49.4163 14.7165C49.7203 14.953 50.0917 15.0804 50.4732 15.0793C51.259 15.1485 52.0501 15.0451 52.7938 14.7759C53.1071 14.6629 53.229 14.6867 53.2464 15.0615C53.2464 15.692 53.3392 16.3225 53.4204 16.9471C53.4379 17.0014 53.4438 17.059 53.4377 17.1158C53.4316 17.1727 53.4136 17.2275 53.385 17.2766C53.3563 17.3257 53.3178 17.3679 53.2718 17.4003C53.2259 17.4328 53.1737 17.4547 53.1187 17.4646C51.5908 18.0661 49.9147 18.1475 48.3383 17.6966C46.3078 17.078 45.1997 15.3173 45.2113 12.813Z" fill="#898C9A"/>
<path d="M36.1898 5.69254C35.2732 9.60662 34.374 13.4553 33.4863 17.298C33.4225 17.5537 33.3123 17.6489 33.0686 17.643C32.2061 17.643 31.3417 17.643 30.4753 17.643C30.2027 17.643 30.1273 17.5775 30.1969 17.2801C31.0748 13.5405 31.9451 9.79498 32.8075 6.0435C32.8482 5.85315 32.8772 5.68659 33.1382 5.69254C34.1419 5.70443 35.1456 5.69254 36.1898 5.69254Z" fill="#898C9A"/>
<path d="M68.191 17.6431C67.7732 17.6015 67.0713 17.8691 66.8044 17.542C66.5375 17.2148 66.9262 16.5664 67.0423 16.0608C67.7907 12.7832 68.5565 9.51752 69.299 6.22803C69.3861 5.84138 69.5079 5.63319 69.9372 5.68078C70.6753 5.72538 71.4153 5.72538 72.1534 5.68078C72.6697 5.65103 72.7335 5.83544 72.6175 6.27562C71.9735 8.95242 71.3528 11.6292 70.7262 14.3179C70.5058 15.2578 70.2621 16.1976 70.0706 17.1434C69.9952 17.542 69.827 17.6669 69.4557 17.6372C69.0844 17.6074 68.6725 17.6431 68.191 17.6431Z" fill="#898C9A"/>
<path d="M35.4995 0.237787C35.7314 0.215465 35.9653 0.24435 36.1854 0.322497C36.4054 0.400645 36.6066 0.52624 36.7754 0.690826C36.9442 0.855411 37.0766 1.05517 37.1637 1.27663C37.2509 1.4981 37.2907 1.73615 37.2806 1.97473C37.245 2.58072 36.985 3.14986 36.5536 3.56566C36.1221 3.98145 35.552 4.21244 34.96 4.21135C34.7297 4.23247 34.4978 4.20223 34.28 4.1227C34.0622 4.04317 33.8639 3.91624 33.6985 3.75064C33.5331 3.58504 33.4047 3.38468 33.322 3.16335C33.2393 2.94202 33.2044 2.70496 33.2195 2.46845C33.2407 1.86517 33.4909 1.29424 33.9169 0.877499C34.3428 0.460755 34.9108 0.23119 35.4995 0.237787Z" fill="#898C9A"/>
<path d="M71.5616 4.2114C71.3302 4.23712 71.0961 4.21153 70.8751 4.13637C70.6542 4.0612 70.4515 3.93823 70.281 3.77577C70.1104 3.61331 69.9759 3.41516 69.8866 3.19474C69.7973 2.97433 69.7552 2.7368 69.7632 2.49825C69.7783 1.89334 70.0233 1.31844 70.446 0.896157C70.8687 0.473876 71.4356 0.237641 72.0258 0.23784C72.2572 0.212382 72.4913 0.237866 72.7124 0.312592C72.9335 0.387317 73.1365 0.509562 73.3078 0.671158C73.4792 0.832755 73.6149 1.02998 73.706 1.24966C73.797 1.46934 73.8413 1.70642 73.8358 1.94504C73.808 2.54816 73.5575 3.11786 73.1352 3.53869C72.7129 3.95952 72.1504 4.2 71.5616 4.2114Z" fill="#898C9A"/>
<path d="M9.13169 11.5517C7.53048 11.5517 7.43185 11.397 7.80895 9.86231C8.0062 9.05332 8.0062 9.04738 8.81841 9.26747C9.19616 9.35952 9.55806 9.50995 9.89169 9.7136C10.0932 9.80544 10.2579 9.96542 10.3582 10.1668C10.4585 10.3682 10.4884 10.5988 10.4428 10.82C10.3939 11.0491 10.2633 11.2512 10.0765 11.3866C9.88972 11.522 9.66033 11.5808 9.43337 11.5517H9.13169Z" fill="#898C9A"/>
<path d="M9.51451 8.36341C9.17222 8.18496 8.49344 8.48238 8.30199 7.87564C8.15115 7.38786 8.74291 6.18033 8.98077 6.19223C9.84519 6.22792 10.7734 6.88225 10.7502 7.4414C10.727 8.00055 10.3325 8.37531 9.51451 8.36341Z" fill="#898C9A"/>
</g>
<defs>
<clipPath id="clip0">
<rect width="84" height="18" fill="white"/>
</clipPath>
</defs>
</svg>
