<svg width="110" height="14" viewBox="0 0 110 14" fill="none" xmlns="http://www.w3.org/2000/svg">
<g clip-path="url(#clip0)">
<path d="M25.0208 13.8066C24.3355 13.8066 23.6502 13.8066 22.9706 13.7404C22.2566 13.6943 21.5468 13.5983 20.8469 13.4532V1.65675C21.4768 1.5485 22.1119 1.47109 22.7498 1.42479C23.4331 1.36957 24.0731 1.34195 24.6696 1.34195C25.4058 1.33615 26.1411 1.39343 26.867 1.51316C27.4717 1.59633 28.0566 1.78331 28.5944 2.06543C29.0601 2.31929 29.4503 2.68652 29.7271 3.1313C30.0094 3.62922 30.1502 4.1917 30.1348 4.76049C30.1363 5.2385 30.0015 5.7075 29.7455 6.11513C29.4894 6.52277 29.1223 6.853 28.685 7.06898C29.3593 7.26952 29.9366 7.70103 30.3104 8.28397C30.5955 8.79198 30.7455 9.36163 30.7465 9.94077C30.7817 10.5022 30.6679 11.063 30.4159 11.569C30.1639 12.075 29.7823 12.509 29.308 12.8291C28.3169 13.5139 26.918 13.8066 25.0208 13.8066ZM23.5936 6.25714H24.9698C25.6091 6.30377 26.2502 6.19167 26.8331 5.9313C27.0191 5.82741 27.171 5.67418 27.2713 5.48941C27.3715 5.30464 27.416 5.09593 27.3994 4.88752C27.416 4.67911 27.3715 4.47039 27.2713 4.28562C27.171 4.10086 27.0191 3.94762 26.8331 3.84373C26.2981 3.61719 25.7164 3.51509 25.134 3.5455C24.8962 3.5455 24.6357 3.5455 24.3582 3.5455C24.1102 3.5475 23.8626 3.56225 23.6163 3.58969V6.2461L23.5936 6.25714ZM23.5936 8.35576V11.5147C23.7975 11.5147 24.024 11.5589 24.2619 11.57C24.4997 11.581 24.7716 11.57 25.0604 11.57C25.7601 11.5972 26.4575 11.4766 27.1049 11.2165C27.3524 11.1066 27.5594 10.9255 27.6981 10.6974C27.8369 10.4693 27.9006 10.2052 27.8808 9.94077C27.9021 9.70171 27.8526 9.46171 27.7381 9.24928C27.6237 9.03684 27.4491 8.8609 27.2352 8.74235C26.6566 8.46658 26.0148 8.34104 25.3719 8.37785H23.5993L23.5936 8.35576Z" fill="#898C9A"/>
<path d="M34.7619 1.72866C34.7727 1.94119 34.7352 2.15342 34.6519 2.35012C34.5687 2.54682 34.4419 2.72311 34.2805 2.86634C33.969 3.13803 33.5657 3.28823 33.1478 3.28823C32.7299 3.28823 32.3266 3.13803 32.0151 2.86634C31.8544 2.72263 31.7279 2.54626 31.6448 2.34968C31.5616 2.1531 31.5237 1.9411 31.5337 1.72866C31.5216 1.51518 31.5586 1.30176 31.6419 1.10398C31.7251 0.9062 31.8527 0.729052 32.0151 0.58547C32.3266 0.313779 32.7299 0.163574 33.1478 0.163574C33.5657 0.163574 33.969 0.313779 34.2805 0.58547C34.442 0.729779 34.5689 0.90705 34.6521 1.10465C34.7353 1.30225 34.7728 1.51532 34.7619 1.72866ZM34.5014 13.6742H31.8112V4.41821H34.5014V13.6742Z" fill="#898C9A"/>
<path d="M35.9512 2.09855L38.6413 1.65674V4.41808H41.8751V6.62715H38.6413V9.88553C38.6207 10.3429 38.7221 10.7977 38.9358 11.2055C39.0727 11.3861 39.257 11.5275 39.4692 11.615C39.6814 11.7024 39.9138 11.7326 40.1421 11.7025C40.441 11.6926 40.7385 11.6574 41.0312 11.5976C41.318 11.5479 41.6002 11.4759 41.8751 11.3822L42.2545 13.4256C41.9026 13.5627 41.5411 13.6753 41.1728 13.7625C40.6908 13.8631 40.1989 13.9113 39.706 13.906C39.0832 13.9225 38.4627 13.8251 37.8767 13.6189C37.4333 13.446 37.0432 13.1645 36.744 12.8015C36.4463 12.4351 36.2407 12.0057 36.1437 11.5479C36.0219 11.0037 35.963 10.448 35.9682 9.89106V2.09855H35.9512Z" fill="#898C9A"/>
<path d="M42.2545 9.04075C42.2554 8.40626 42.3684 7.77666 42.5886 7.1796C42.7982 6.60119 43.129 6.07167 43.56 5.62478C43.991 5.17789 44.5127 4.82342 45.0919 4.58394C45.7409 4.31312 46.4419 4.18129 47.1477 4.19736C48.0473 4.18566 48.9392 4.36074 49.7641 4.71097L49.1978 6.80958C48.9238 6.71193 48.6439 6.63077 48.3596 6.56659C48.0292 6.4911 47.6909 6.45402 47.3515 6.45613C47.0187 6.43368 46.6851 6.4874 46.3773 6.61302C46.0695 6.73863 45.7961 6.93265 45.5789 7.1796C45.1756 7.73236 44.976 8.40195 45.0126 9.07941C44.9749 9.76901 45.1742 10.4511 45.5789 11.0179C45.8236 11.268 46.124 11.4598 46.457 11.5786C46.7899 11.6973 47.1463 11.7398 47.4988 11.7027C47.8392 11.6963 48.1784 11.6611 48.5125 11.5978C48.8659 11.5422 49.2117 11.4477 49.5433 11.3161L49.9227 13.4699C49.5425 13.6187 49.1478 13.7297 48.7447 13.8013C48.232 13.9013 47.7101 13.9494 47.1873 13.9449C46.4143 13.9648 45.6448 13.8372 44.9219 13.5693C44.3324 13.3419 43.8023 12.9891 43.3702 12.5366C42.9611 12.0948 42.6609 11.5678 42.4924 10.9958C42.3276 10.3567 42.2477 9.69967 42.2545 9.04075Z" fill="#898C9A"/>
<path d="M59.1937 9.02409C59.2108 9.7091 59.1113 10.3921 58.8992 11.0454C58.7016 11.6199 58.3811 12.147 57.959 12.5917C57.5459 13.0224 57.0441 13.363 56.4866 13.5913C55.2528 14.0552 53.8862 14.0552 52.6524 13.5913C52.0949 13.363 51.5931 13.0224 51.18 12.5917C50.745 12.1486 50.4094 11.622 50.1945 11.0454C49.951 10.3983 49.8301 9.71337 49.8377 9.02409C49.8313 8.34569 49.9522 7.67187 50.1945 7.03592C50.4023 6.47007 50.7301 5.95332 51.1566 5.51938C51.583 5.08544 52.0985 4.74408 52.6694 4.51758C53.8798 4.05371 55.2253 4.05371 56.4356 4.51758C56.9923 4.74704 57.4924 5.08971 57.9024 5.52271C58.3235 5.96483 58.649 6.48509 58.8595 7.05249C59.084 7.68664 59.197 8.35322 59.1937 9.02409ZM56.4469 9.02409C56.4871 8.35398 56.3129 7.68824 55.9485 7.11876C55.7827 6.9059 55.5685 6.73332 55.3229 6.61452C55.0773 6.49571 54.8069 6.43389 54.5327 6.43389C54.2585 6.43389 53.9881 6.49571 53.7425 6.61452C53.4968 6.73332 53.2827 6.9059 53.1168 7.11876C52.7529 7.68883 52.5751 8.35329 52.6071 9.02409C52.5705 9.70231 52.7484 10.3752 53.1168 10.9515C53.2784 11.1705 53.4911 11.3488 53.7372 11.4718C53.9834 11.5948 54.2561 11.659 54.5327 11.659C54.8093 11.659 55.082 11.5948 55.3281 11.4718C55.5743 11.3488 55.787 11.1705 55.9485 10.9515C56.309 10.3723 56.4827 9.70075 56.4469 9.02409Z" fill="#898C9A"/>
<path d="M63.2204 1.72866C63.2313 1.94171 63.1933 2.15445 63.109 2.3513C63.0247 2.54815 62.8964 2.72412 62.7333 2.86634C62.4218 3.13803 62.0186 3.28823 61.6006 3.28823C61.1827 3.28823 60.7795 3.13803 60.468 2.86634C60.3065 2.72291 60.1792 2.54672 60.0951 2.35017C60.0109 2.15362 59.972 1.94148 59.9809 1.72866C59.9699 1.5148 60.0079 1.30123 60.0922 1.10348C60.1764 0.905736 60.3048 0.728778 60.468 0.58547C60.7795 0.313779 61.1827 0.163574 61.6006 0.163574C62.0186 0.163574 62.4218 0.313779 62.7333 0.58547C62.8965 0.728778 63.0249 0.905736 63.1091 1.10348C63.1934 1.30123 63.2314 1.5148 63.2204 1.72866ZM62.9712 13.6742H60.2811V4.41821H62.9712V13.6742Z" fill="#898C9A"/>
<path d="M64.5004 4.72195C65.0788 4.56354 65.6671 4.44179 66.2617 4.35745C67.0114 4.24568 67.7686 4.18845 68.527 4.18625C69.2112 4.16514 69.8933 4.27006 70.5375 4.49552C71.0303 4.67246 71.4675 4.97124 71.8061 5.36258C72.1357 5.75363 72.37 6.21248 72.4914 6.70459C72.6311 7.26862 72.6977 7.84749 72.6896 8.42767V13.6687H69.9995V8.74799C70.0513 8.12854 69.932 7.50686 69.654 6.94759C69.5056 6.75949 69.3096 6.61223 69.0852 6.52026C68.8608 6.42828 68.6158 6.39474 68.3741 6.42294C68.1704 6.41242 67.9662 6.41242 67.7625 6.42294C67.5473 6.42294 67.3547 6.45607 67.1961 6.48369V13.6632H64.506V4.72195H64.5004Z" fill="#898C9A"/>
<path d="M80.0406 13.9171C78.0018 13.9171 76.4557 13.3648 75.391 12.2603C74.3263 11.1558 73.7939 9.59285 73.7939 7.55498C73.7809 6.63245 73.9481 5.71593 74.2866 4.85439C74.5833 4.10066 75.0386 3.41588 75.6232 2.84413C76.1978 2.29449 76.8875 1.87249 77.645 1.60705C78.4617 1.31798 79.3248 1.17396 80.1935 1.18181C80.6795 1.17554 81.165 1.21437 81.6434 1.29778C82.0271 1.35894 82.4057 1.44754 82.776 1.56287C83.0552 1.64435 83.3278 1.74587 83.5916 1.86662L84.0616 2.11514L83.2461 4.32421C82.8188 4.10805 82.3688 3.93769 81.9039 3.81612C81.3353 3.66722 80.7482 3.59658 80.1596 3.60626C79.7277 3.60676 79.2989 3.6777 78.891 3.81612C78.4752 3.95878 78.0977 4.19096 77.7866 4.49541C77.4464 4.84301 77.1857 5.25716 77.022 5.71041C76.8155 6.28872 76.7177 6.89861 76.7332 7.5108C76.7332 8.04072 76.7959 8.56887 76.9201 9.08476C77.033 9.53936 77.2412 9.96622 77.5317 10.3384C77.8321 10.7054 78.2214 10.9939 78.6644 11.1779C79.1875 11.3987 79.7541 11.5043 80.3238 11.4871C80.7026 11.4893 81.0811 11.4653 81.4565 11.4153C81.7509 11.378 82.0423 11.3208 82.3286 11.2441C82.5567 11.189 82.7801 11.117 82.9969 11.0287C83.1895 10.9459 83.365 10.8631 83.518 10.8023L84.2995 13.0114C83.7662 13.2992 83.1944 13.5129 82.6005 13.6465C81.7627 13.8438 80.9023 13.9348 80.0406 13.9171Z" fill="#898C9A"/>
<path d="M88.4679 4.15858C89.1388 4.14366 89.808 4.23315 90.4501 4.42367C90.9412 4.56456 91.3874 4.82492 91.747 5.18028C92.0693 5.5196 92.3008 5.93124 92.4209 6.3787C92.5552 6.88917 92.6199 7.41466 92.6135 7.94162V13.4036C92.2227 13.4864 91.696 13.5858 91.0107 13.6907C90.1861 13.8128 89.3528 13.87 88.5188 13.8619C87.9576 13.8689 87.3973 13.8152 86.8481 13.7018C86.3885 13.608 85.9507 13.432 85.5569 13.1826C85.1993 12.9468 84.9121 12.6229 84.7244 12.2438C84.5182 11.7964 84.4195 11.3091 84.4355 10.8189C84.4203 10.3398 84.5356 9.86531 84.7697 9.44379C84.9801 9.07295 85.2867 8.76252 85.6588 8.54359C86.0526 8.30896 86.486 8.14441 86.9387 8.0576C87.4323 7.95644 87.9352 7.90463 88.4395 7.90296C88.7907 7.90296 89.1022 7.90296 89.3683 7.94714C89.5911 7.96483 89.8113 8.00556 90.0253 8.06864V7.82012C90.035 7.623 90.0028 7.42606 89.9307 7.24167C89.8585 7.05729 89.7481 6.88945 89.6062 6.74872C89.1985 6.43281 88.6798 6.28601 88.162 6.34004C87.7089 6.33996 87.2565 6.37319 86.8085 6.43945C86.4123 6.48669 86.0228 6.57747 85.6475 6.71006L85.302 4.59487L85.8684 4.44024C86.1006 4.38501 86.3611 4.34083 86.6386 4.29665C86.9161 4.25247 87.2049 4.22485 87.5108 4.19172C87.8166 4.15858 88.1507 4.15858 88.4679 4.15858ZM88.6774 11.8351C88.9493 11.8351 89.1984 11.8351 89.4363 11.8351C89.6262 11.83 89.8155 11.8115 90.0026 11.7799V9.76963C89.8894 9.74201 89.7308 9.72545 89.5099 9.69783C89.3219 9.67681 89.1328 9.66575 88.9436 9.6647C88.705 9.66566 88.4668 9.68042 88.23 9.70888C88.0316 9.72951 87.8392 9.78766 87.6637 9.88008C87.4917 9.95189 87.3457 10.0724 87.2448 10.226C87.1438 10.3796 87.0924 10.5592 87.0973 10.7416C87.0789 10.908 87.1089 11.0761 87.1841 11.2265C87.2592 11.377 87.3764 11.5037 87.5221 11.5921C87.8778 11.7729 88.2769 11.8569 88.6774 11.8351Z" fill="#898C9A"/>
<path d="M96.776 11.7909C97.1316 11.8144 97.4884 11.7655 97.8237 11.6473C97.9261 11.5964 98.0102 11.5163 98.0649 11.4176C98.1195 11.319 98.142 11.2065 98.1295 11.095C98.1207 10.9766 98.0792 10.8628 98.0094 10.7655C97.9396 10.6683 97.8441 10.5913 97.7331 10.5428C97.3488 10.32 96.9428 10.135 96.5211 9.99049C96.1347 9.85091 95.7566 9.69051 95.3884 9.51002C95.0665 9.36082 94.7719 9.1612 94.5163 8.91909C94.2698 8.68701 94.0768 8.40652 93.9499 8.09621C93.8112 7.72878 93.7459 7.33887 93.7574 6.94749C93.7429 6.55205 93.8252 6.15893 93.9976 5.8007C94.1699 5.44247 94.4273 5.12943 94.7485 4.88753C95.5436 4.3393 96.506 4.07059 97.4782 4.1254C98.0352 4.12458 98.5909 4.17637 99.1376 4.28004C99.567 4.35214 99.9895 4.45928 100.401 4.60035L99.9248 6.64927C99.5917 6.53358 99.2512 6.43949 98.9054 6.36761C98.5004 6.27811 98.086 6.23547 97.6708 6.24059C96.8269 6.24059 96.4078 6.46702 96.4078 6.9254C96.4092 7.02185 96.4283 7.11726 96.4645 7.20706C96.5156 7.3019 96.5895 7.38335 96.6797 7.44453C96.8217 7.53735 96.9714 7.61862 97.1271 7.68753C97.3589 7.79692 97.5972 7.89281 97.8407 7.97471C98.3436 8.15205 98.8337 8.36239 99.3075 8.6043C99.6432 8.7799 99.9489 9.00534 100.214 9.27254C100.428 9.50431 100.59 9.77704 100.689 10.0733C100.786 10.4055 100.832 10.7498 100.825 11.095C100.849 11.5003 100.764 11.9045 100.578 12.2678C100.392 12.631 100.112 12.9407 99.7662 13.166C98.8656 13.6855 97.826 13.9299 96.7816 13.8674C96.0754 13.8798 95.3702 13.8113 94.6805 13.6631C94.2829 13.5679 93.8915 13.4499 93.5082 13.3096L93.9669 11.1723C94.4247 11.3487 94.8963 11.4891 95.3771 11.5921C95.8335 11.7128 96.3032 11.7796 96.776 11.7909Z" fill="#898C9A"/>
<path d="M101.811 13.6742V0.425247L104.501 0V4.41815C104.733 4.35187 104.965 4.29112 105.197 4.24694C105.47 4.19635 105.747 4.17047 106.024 4.16963C106.678 4.14976 107.33 4.25289 107.944 4.47337C108.421 4.65805 108.842 4.95838 109.167 5.34596C109.481 5.7403 109.703 6.19628 109.819 6.68245C109.95 7.24951 110.011 7.82985 110 8.41105V13.6465H107.31V8.74793C107.36 8.13029 107.247 7.51048 106.981 6.94753C106.842 6.76134 106.654 6.61466 106.437 6.52249C106.22 6.43031 105.982 6.39594 105.747 6.42288C105.519 6.41843 105.291 6.43881 105.067 6.48363C104.876 6.51985 104.687 6.56594 104.501 6.6217V13.6686H101.811V13.6742Z" fill="#898C9A"/>
<path d="M8.94248 7.73178C8.89708 7.59258 8.80541 7.4721 8.68197 7.38937H8.49508C8.206 7.27892 7.88787 7.26341 7.58893 7.34519L6.59784 7.58819L7.02826 9.24499L8.01935 8.99095C8.3206 8.92118 8.59072 8.75848 8.78957 8.52704H8.89718C8.96581 8.394 8.98769 8.24264 8.95947 8.09627L8.94248 7.73178Z" fill="#898C9A"/>
<path d="M7.09049 0.165771C5.68699 0.165771 4.31501 0.571618 3.14804 1.33199C1.98107 2.09236 1.07153 3.1731 0.534434 4.43755C-0.0026626 5.702 -0.143192 7.09337 0.130618 8.4357C0.404427 9.77804 1.08028 11.011 2.0727 11.9788C3.06513 12.9466 4.32955 13.6056 5.70609 13.8727C7.08262 14.1397 8.50943 14.0026 9.8061 13.4789C11.1028 12.9551 12.211 12.0682 12.9908 10.9302C13.7705 9.79222 14.1867 8.45432 14.1867 7.08569C14.1867 5.25042 13.4391 3.49031 12.1083 2.19257C10.7775 0.894833 8.97253 0.165771 7.09049 0.165771ZM10.3696 8.28411C10.3696 8.28411 10.3696 8.28411 10.3696 8.31173H10.3413C10.0367 8.74049 9.58122 9.04515 9.06135 9.16774L8.7442 9.25058L9.07268 10.4877L8.31945 10.6754L7.99097 9.44388L7.39065 9.59299L7.71347 10.8301L6.796 11.3326L6.46752 10.1011L4.92141 10.4932L4.88743 9.55985L5.45377 9.42179C5.52058 9.40489 5.57779 9.36284 5.61283 9.30485C5.64787 9.24687 5.65788 9.17769 5.64067 9.11252L4.77417 5.79891C4.74748 5.70146 4.6828 5.61804 4.59392 5.56645C4.50504 5.51486 4.39901 5.49919 4.29844 5.52277L3.66981 5.68293L3.44893 4.90976L5.00637 4.51765L4.67789 3.3137L5.43678 3.09832L5.7596 4.32435L6.36558 4.17524L6.0371 2.94368L6.796 2.76143L7.11881 3.99851H7.24907C7.70835 3.87591 8.19773 3.92108 8.62527 4.12553H8.88012C9.07937 4.28456 9.22532 4.49804 9.29921 4.73855C9.30139 4.74763 9.30139 4.75708 9.29921 4.76617C9.35054 5.01223 9.32691 5.26755 9.23125 5.50068H9.1463C9.09583 5.57669 9.03696 5.64707 8.97074 5.71055C9.19809 5.7424 9.41828 5.81148 9.62203 5.91488H9.91652C10.1428 6.0919 10.3071 6.33314 10.3866 6.60522V6.64388V6.67701C10.5578 6.91247 10.6483 7.19464 10.6452 7.48325C10.6422 7.77186 10.5457 8.05215 10.3696 8.28411Z" fill="#898C9A"/>
<path d="M7.86073 6.03084H7.92869C7.98382 5.90744 7.99769 5.77025 7.96833 5.63873V5.43991C7.92978 5.31085 7.84804 5.19809 7.73613 5.1196H7.58888C7.3617 4.97944 7.08932 4.92631 6.82433 4.97048L5.98615 5.18035L6.38258 6.67699L7.2151 6.46161C7.47788 6.40159 7.70816 6.24794 7.86073 6.03084Z" fill="#898C9A"/>
</g>
<defs>
<clipPath id="clip0">
<rect width="110" height="14" fill="white"/>
</clipPath>
</defs>
</svg>
