<svg width="79" height="24" viewBox="0 0 79 24" fill="none" xmlns="http://www.w3.org/2000/svg">
<path d="M79 19.0822C78.9534 19.046 78.9098 19.0062 78.8694 18.9631L69.7289 8.63763L69.5918 8.4854V18.2284H68.286V4.95093L77.6811 15.5411V5.79152H79V19.0822Z" fill="#898C9A"/>
<path d="M22.5183 7.80364L9.40818 24L0 0L0.927107 0.17209L4.92281 0.913403L9.49306 1.77386L14.4224 2.69388L17.7521 3.31605C17.8165 3.33109 17.8767 3.36048 17.9284 3.4021L21.6499 6.99614L22.5183 7.80364ZM9.34942 20.4324C9.34942 20.4324 9.34942 20.3861 9.34942 20.3662L9.50612 19.0425L9.92397 15.8853L10.2961 12.7678C10.4136 11.7882 10.5246 10.7821 10.6487 9.82239C10.6565 9.77925 10.6514 9.73471 10.6339 9.69457C10.6165 9.65443 10.5875 9.62055 10.5507 9.59735L2.61157 2.94539C2.57098 2.90652 2.52731 2.8711 2.48099 2.83949L9.34942 20.4324ZM10.6552 20.4324L20.1091 8.79647C19.8481 8.8146 19.5886 8.84998 19.3321 8.90237L14.4877 9.79592L11.9675 10.2526C11.8826 10.2526 11.8369 10.3056 11.8304 10.3982C11.7912 10.7623 11.7455 11.1263 11.7064 11.4837L11.393 14.0982C11.2755 15.0579 11.1645 16.011 11.0535 16.9641C10.9425 17.9173 10.838 18.7181 10.7336 19.6117C10.7009 19.8566 10.6683 20.1611 10.6421 20.4391L10.6552 20.4324ZM11.2363 8.51848L16.244 4.28902L3.39504 1.91285L11.2363 8.51848ZM17.6281 4.79868L12.9207 8.76999L20.3572 7.40651L17.6281 4.79868Z" fill="#898C9A"/>
<path d="M41.7198 7.14837V18.2284H40.4141V5.7915H47.4196C48.343 5.79383 49.2333 6.14052 49.9208 6.76548C50.6083 7.39045 51.045 8.25001 51.1476 9.18036C51.2298 10.0175 51.0394 10.8588 50.6056 11.576C50.1717 12.2931 49.5183 12.8465 48.745 13.1517L48.6013 13.2113L51.2129 18.2019H50.1944C50.0312 18.2019 49.8288 18.2548 49.7047 18.2019C49.5807 18.1489 49.5284 17.9173 49.4501 17.7717C48.7188 16.3685 47.9811 14.9586 47.2564 13.5554C47.237 13.508 47.2029 13.4682 47.1594 13.442C47.1159 13.4158 47.0652 13.4045 47.0148 13.4098H44.1094V18.2085H42.8036V12.086H47.3739C48.0018 12.0778 48.6022 11.8239 49.0499 11.3775C49.4976 10.9311 49.7579 10.3266 49.7764 9.69029C49.7949 9.05397 49.5703 8.43499 49.1494 7.96258C48.7285 7.49016 48.1438 7.20083 47.5175 7.15499H41.7198V7.14837Z" fill="#898C9A"/>
<path d="M65.7463 12.0198C65.745 13.2523 65.3826 14.4567 64.7051 15.4801C64.0276 16.5035 63.0655 17.2998 61.941 17.7681C60.8164 18.2364 59.5799 18.3556 58.3885 18.1104C57.197 17.8653 56.1042 17.2669 55.2487 16.3912C54.3931 15.5155 53.8134 14.402 53.5831 13.1918C53.3527 11.9816 53.4821 10.7293 53.9549 9.59382C54.4276 8.4583 55.2223 7.4907 56.2383 6.81375C57.2542 6.13679 58.4456 5.781 59.6613 5.79149C61.2816 5.80373 62.8312 6.46575 63.9715 7.63284C65.1117 8.79994 65.7498 10.3772 65.7463 12.0198ZM59.6156 16.8913C60.5686 16.8913 61.5002 16.6048 62.2926 16.0681C63.0849 15.5314 63.7025 14.7685 64.0672 13.8759C64.4319 12.9833 64.5273 12.0012 64.3414 11.0536C64.1555 10.1061 63.6966 9.23572 63.0227 8.55258C62.3489 7.86944 61.4903 7.40421 60.5556 7.21574C59.621 7.02726 58.6522 7.12399 57.7717 7.4937C56.8913 7.86342 56.1388 8.4895 55.6093 9.29279C55.0799 10.0961 54.7973 11.0405 54.7973 12.0066C54.799 13.3016 55.3072 14.543 56.2105 15.4587C57.1137 16.3744 58.3383 16.8896 59.6156 16.8913Z" fill="#898C9A"/>
<path d="M26.9644 7.11528V5.7915H37.7045V7.11528H26.9644Z" fill="#898C9A"/>
<path d="M30.4901 18.2217V9.51123H31.7959V18.2217H30.4901Z" fill="#898C9A"/>
<path d="M32.8797 9.49805H34.1855V18.2217H32.8797V9.49805Z" fill="#898C9A"/>
<path d="M71.9684 18.2283H70.6626V11.5234C70.682 11.5602 70.7038 11.5956 70.7279 11.6293L71.8704 12.92C71.918 12.9753 71.9456 13.0453 71.9488 13.1186V18.1291C71.9749 18.1423 71.9684 18.182 71.9684 18.2283Z" fill="#898C9A"/>
<path d="M59.6156 12.9067C59.4392 12.9093 59.266 12.8586 59.1181 12.761C58.9703 12.6634 58.8544 12.5233 58.7854 12.3587C58.7164 12.1941 58.6973 12.0124 58.7306 11.8367C58.7639 11.661 58.8481 11.4994 58.9724 11.3725C59.0967 11.2455 59.2555 11.159 59.4285 11.1239C59.6015 11.0888 59.7809 11.1068 59.9438 11.1756C60.1067 11.2443 60.2457 11.3607 60.3431 11.5099C60.4405 11.6591 60.4918 11.8343 60.4905 12.0131C60.4914 12.1302 60.4694 12.2462 60.4258 12.3546C60.3822 12.463 60.3179 12.5615 60.2366 12.6446C60.1553 12.7276 60.0585 12.7936 59.952 12.8385C59.8454 12.8835 59.7311 12.9067 59.6156 12.9067Z" fill="#898C9A"/>
</svg>
