<svg width="76" height="22" viewBox="0 0 76 22" fill="none" xmlns="http://www.w3.org/2000/svg">
<g clip-path="url(#clip0)">
<path d="M27.6869 8.34079C27.3376 8.25246 26.9776 8.21468 26.6178 8.22859C25.3333 8.22859 23.9746 9.23097 23.9746 10.5251V16.6067H21.0492V5.75256H23.8261V6.82974C24.2284 6.40177 24.7165 6.06501 25.2581 5.84188C25.7996 5.61874 26.3821 5.51434 26.9667 5.53563C27.3974 5.53563 27.6127 5.61043 27.9691 5.61043L27.6869 8.34079ZM30.9687 9.42632e-05C31.3276 0.0305799 31.67 0.165619 31.954 0.388747C32.2381 0.611875 32.4516 0.913452 32.5685 1.25671C32.6854 1.59996 32.7006 1.97007 32.6124 2.3219C32.5241 2.67373 32.3361 2.99209 32.0714 3.23815C31.8066 3.48421 31.4765 3.64736 31.1213 3.70768C30.7662 3.76801 30.4012 3.72292 30.071 3.57791C29.7408 3.4329 29.4597 3.19423 29.2618 2.89101C29.0639 2.58778 28.9579 2.2331 28.9566 1.87021C28.9853 1.3563 29.2114 0.873815 29.5869 0.524804C29.9624 0.175793 30.4579 -0.0123766 30.9687 9.42632e-05ZM32.3943 16.6067H29.4689V5.75256H32.3943V16.6067ZM40.9624 5.53563C39.8269 5.53936 38.7237 5.91771 37.8218 6.61281V5.75256H34.9632V22.0001H37.8663V15.8212C38.7145 16.4855 39.762 16.839 40.8362 16.8236C41.604 16.8246 42.3629 16.6587 43.0612 16.3372C43.7596 16.0158 44.3808 15.5464 44.8827 14.961C45.7825 13.9019 46.2659 12.5473 46.2415 11.1534C46.2662 10.4344 46.1487 9.71757 45.8958 9.04472C45.6429 8.37187 45.2596 7.75646 44.7683 7.23431C44.277 6.71216 43.6874 6.29373 43.034 6.00338C42.3807 5.71303 41.6764 5.55657 40.9624 5.54311V5.53563ZM40.6061 14.1681C40.2113 14.1861 39.8171 14.1211 39.4486 13.9772C39.0802 13.8332 38.7455 13.6134 38.4661 13.3319C38.1867 13.0503 37.9685 12.7132 37.8256 12.342C37.6827 11.9708 37.6182 11.5736 37.6361 11.1759C37.6182 10.7781 37.6827 10.381 37.8256 10.0098C37.9685 9.63856 38.1867 9.30143 38.4661 9.01989C38.7455 8.73835 39.0802 8.51859 39.4486 8.37461C39.8171 8.23064 40.2113 8.16562 40.6061 8.18371C40.9835 8.19626 41.3547 8.28364 41.6986 8.44086C42.0424 8.59806 42.3522 8.82202 42.6101 9.09991C42.868 9.37781 43.069 9.70419 43.2016 10.0604C43.3342 10.4166 43.3958 10.7957 43.3829 11.1759C43.407 11.9432 43.1283 12.6889 42.6078 13.2497C42.0874 13.8105 41.3676 14.1407 40.6061 14.1681ZM60.9425 0.650893H63.853V16.6067H60.9425V0.650893ZM75.6436 14.8637C75.0748 15.4806 74.3853 15.9719 73.6185 16.3067C72.8517 16.6415 72.0244 16.8124 71.1887 16.8087C70.4394 16.8438 69.691 16.721 68.9915 16.4482C68.292 16.1753 67.6567 15.7583 67.1263 15.2239C66.5958 14.6895 66.182 14.0494 65.9111 13.3447C65.6403 12.6399 65.5184 11.8859 65.5533 11.131C65.5533 8.13882 67.6174 5.45334 70.8323 5.45334C73.8022 5.45334 75.9703 7.96677 75.9703 10.9889C75.9824 11.2776 75.9575 11.5668 75.896 11.8491H68.3599C68.4279 12.5832 68.7749 13.2625 69.3283 13.7448C69.8818 14.2271 70.5989 14.4753 71.3298 14.4374C72.3536 14.3907 73.3219 13.955 74.0398 13.218L75.6436 14.8637ZM72.9261 9.76208C72.8647 9.2323 72.6137 8.74326 72.22 8.3866C71.8264 8.02995 71.3171 7.83015 70.7878 7.82464C70.236 7.80464 69.6966 7.99177 69.2741 8.34975C68.8516 8.70773 68.576 9.21104 68.5009 9.76208H72.9261ZM53.9484 5.53563C52.8128 5.53936 51.7097 5.91771 50.8077 6.61281V5.75256H48.0234V22.0001H50.9488V15.8212C51.7842 16.4775 52.8148 16.8306 53.8741 16.8236C54.6406 16.8235 55.3981 16.6571 56.0951 16.3357C56.7921 16.0143 57.4122 15.5454 57.9132 14.961C58.813 13.9019 59.2964 12.5473 59.2719 11.1534C59.2939 9.69616 58.7438 8.2891 57.7412 7.23842C56.7387 6.18773 55.3649 5.57844 53.9187 5.54311L53.9484 5.53563ZM53.5623 14.1681C53.1675 14.1861 52.7733 14.1211 52.4049 13.9772C52.0364 13.8332 51.7018 13.6134 51.4223 13.3319C51.1429 13.0503 50.9248 12.7132 50.7819 12.342C50.639 11.9708 50.5744 11.5736 50.5924 11.1759C50.5744 10.7781 50.639 10.381 50.7819 10.0098C50.9248 9.63856 51.1429 9.30143 51.4223 9.01989C51.7018 8.73835 52.0364 8.51859 52.4049 8.37461C52.7733 8.23064 53.1675 8.16562 53.5623 8.18371C54.3251 8.20909 55.0468 8.53845 55.5689 9.09946C56.0909 9.66047 56.3706 10.4073 56.3466 11.1759C56.3706 11.9445 56.0909 12.6913 55.5689 13.2523C55.0468 13.8133 54.3251 14.1427 53.5623 14.1681Z" fill="#898C9A"/>
<path d="M11.2789 1.79528C10.6917 2.13948 10.2043 2.63287 9.86559 3.22619C9.52684 3.8195 9.34852 4.49198 9.34844 5.17645C9.38973 5.91513 9.61163 6.63208 9.9944 7.26349C10.0964 7.43683 10.1626 7.62915 10.1891 7.82891C10.2155 8.02867 10.2016 8.23175 10.1482 8.42597C10.0948 8.62018 10.003 8.80153 9.87837 8.95912C9.75369 9.11671 9.5987 9.2473 9.42269 9.34305C9.07159 9.54074 8.65733 9.59114 8.26962 9.48334C7.8819 9.37553 7.55194 9.1182 7.35118 8.76706C6.9239 8.15328 6.39377 7.61917 5.78455 7.18869C5.20375 6.83339 4.5373 6.64551 3.85782 6.64551C3.17834 6.64551 2.5119 6.83339 1.93109 7.18869C1.35089 7.53489 0.870168 8.02735 0.536251 8.61759C0.202334 9.20783 0.0267334 9.8755 0.0267334 10.5549C0.0267334 11.2343 0.202334 11.9019 0.536251 12.4922C0.870168 13.0824 1.35089 13.5749 1.93109 13.9211C2.5119 14.2764 3.17834 14.4643 3.85782 14.4643C4.5373 14.4643 5.20375 14.2764 5.78455 13.9211C6.41616 13.5417 6.93037 12.9926 7.26951 12.3352C7.36451 12.1569 7.49444 11.9998 7.65143 11.8735C7.80843 11.7472 7.98923 11.6544 8.18289 11.6005C8.37655 11.5467 8.57904 11.533 8.77811 11.5603C8.97717 11.5875 9.16867 11.6552 9.34102 11.7592C9.67708 11.973 9.92191 12.3054 10.0276 12.6913C10.1334 13.0773 10.0924 13.4891 9.91273 13.8463C9.55106 14.4825 9.35443 15.2003 9.34102 15.9333C9.3424 16.6165 9.52133 17.2875 9.86001 17.8793C10.1987 18.4712 10.6853 18.9635 11.2715 19.307C11.8523 19.6623 12.5187 19.8502 13.1982 19.8502C13.8777 19.8502 14.5441 19.6623 15.1249 19.307C15.7051 18.9608 16.1858 18.4683 16.5198 17.8781C16.8537 17.2879 17.0293 16.6202 17.0293 15.9408C17.0293 15.2614 16.8537 14.5938 16.5198 14.0035C16.1858 13.4133 15.7051 12.9208 15.1249 12.5746C14.4644 12.2242 13.7253 12.0516 12.9792 12.0734C12.5853 12.0734 12.2076 11.9158 11.9291 11.6352C11.6507 11.3547 11.4942 10.9741 11.4942 10.5773C11.4942 10.1805 11.6507 9.8 11.9291 9.51943C12.2076 9.23886 12.5853 9.08124 12.9792 9.08124C13.7245 9.09462 14.4615 8.92247 15.1249 8.58005C15.7051 8.23385 16.1858 7.74139 16.5198 7.15115C16.8537 6.56091 17.0293 5.89323 17.0293 5.21385C17.0293 4.53446 16.8537 3.86679 16.5198 3.27655C16.1858 2.68631 15.7051 2.19385 15.1249 1.84765C14.5409 1.50051 13.8724 1.32436 13.1945 1.33898C12.5202 1.32696 11.8554 1.50023 11.2715 1.84017" fill="#898C9A"/>
</g>
<defs>
<clipPath id="clip0">
<rect width="76" height="22" fill="white"/>
</clipPath>
</defs>
</svg>
