<svg width="84" height="21" viewBox="0 0 84 21" fill="none" xmlns="http://www.w3.org/2000/svg">
<g clip-path="url(#clip0)">
<path d="M83.8826 17.9948C82.5862 18.1088 82.5862 18.1088 82.5862 16.8791V12.5963C82.5987 12.0267 82.5132 11.459 82.333 10.9168C82.17 10.4218 81.8338 9.99786 81.3828 9.71848C80.9317 9.4391 80.3942 9.32192 79.8635 9.38726C77.8386 9.55522 76.7211 10.7189 76.7088 12.7043C76.7088 14.2999 76.7088 15.8894 76.7088 17.5029C76.7088 17.9348 76.5853 18.1028 76.1531 18.0308C76.0366 18.0128 75.9178 18.0128 75.8012 18.0308C75.3814 18.0908 75.2826 17.9228 75.2826 17.5269C75.2826 15.0077 75.2826 12.4824 75.2826 9.9631C75.3043 9.62152 75.3043 9.27897 75.2826 8.93739C75.2147 8.38555 75.3752 8.18161 75.9988 8.1996C76.6223 8.2176 76.789 8.33756 76.7026 8.89541C76.6842 9.10497 76.6842 9.31567 76.7026 9.52523C76.8446 9.6092 76.9002 9.52523 76.9495 9.49523C77.4265 8.89769 78.0759 8.45184 78.8149 8.21465C79.5539 7.97745 80.3489 7.95969 81.0983 8.16361C82.6479 8.46953 83.469 9.51323 83.8271 10.9588C83.858 11.0788 83.8271 11.2407 83.9814 11.2947V11.6366C83.79 11.8046 83.8703 12.0265 83.8703 12.2365C83.8827 14.1559 83.8826 16.0754 83.8826 17.9948Z" fill="#898C9A"/>
<path d="M83.8827 17.9949C83.8827 16.0695 83.8827 14.15 83.8827 12.2246C83.8827 12.0266 83.8024 11.8047 83.9938 11.6248V18.0249L83.8827 17.9949Z" fill="#898C9A"/>
<path d="M-0.00148779 11.5287C-0.0922543 10.1323 0.0707518 8.73134 0.480065 7.38989C1.99263 3.32305 4.88812 0.851757 9.30852 0.107969C10.1296 0 10.9384 0.0779777 11.7286 0C12.7791 0.17737 13.8118 0.442273 14.8155 0.791774C16.4757 1.44264 17.9425 2.48565 19.083 3.82631C20.2236 5.16698 21.0019 6.76292 21.3473 8.46958C21.8426 10.6094 21.5748 12.8492 20.588 14.8218C19.4768 17.2074 17.4789 19.0971 14.9945 20.1123C13.4879 20.7781 11.838 21.0806 10.1852 20.994C7.77688 20.8573 5.48929 19.9238 3.70276 18.3488C1.91464 16.8591 0.683885 14.8366 0.202246 12.5964L-0.00148779 11.5287ZM5.44376 12.9563C5.78734 12.9061 6.12194 12.8092 6.43773 12.6684C6.54269 12.6684 6.65999 12.5304 6.75877 12.6384C6.85755 12.7464 6.75877 12.8483 6.75877 12.9563C6.51799 13.856 6.29574 14.7558 6.02409 15.6435C5.88827 16.0994 5.99322 16.2434 6.48712 16.2434C9.42171 16.2434 12.3542 16.2434 15.2847 16.2434C15.7477 16.2434 15.9515 16.1054 16.0194 15.6435C16.0806 15.2496 16.1862 14.8634 16.3342 14.4919C16.5256 14.012 16.3342 13.892 15.8836 13.892C14.2413 13.892 12.5991 13.892 10.9446 13.892C10.5124 13.892 10.3766 13.7601 10.5001 13.3522C10.6554 12.9104 10.7731 12.457 10.852 11.9966C10.8683 11.6449 11.0126 11.3102 11.259 11.0521C11.5054 10.794 11.8381 10.6292 12.1978 10.587C12.4448 10.533 12.7535 10.491 12.8152 10.1731C12.8769 9.85518 13.0313 9.40531 13.1177 9.01542C13.1795 8.7395 13.0745 8.61354 12.7658 8.7335C12.4571 8.85347 12.0497 8.97943 11.6113 9.12939C12.0003 7.6958 12.3398 6.35818 12.7164 5.02656C12.8523 4.5527 12.7164 4.42673 12.2287 4.42673C11.352 4.42673 10.4692 4.46272 9.59252 4.42673C9.09244 4.42673 8.9134 4.60668 8.80228 5.02656C8.35777 6.75407 7.87004 8.46958 7.43788 10.1971C7.34527 10.545 7.1971 10.7969 6.86372 10.8269C6.49612 10.8729 6.15923 11.05 5.9185 11.3238C5.67776 11.5976 5.55037 11.9485 5.56106 12.3085C5.53388 12.5263 5.49473 12.7425 5.44376 12.9563Z" fill="#898C9A"/>
<path d="M43.4014 13.7961C42.1666 13.7961 40.9319 13.7961 39.6971 13.7961C39.123 13.7961 39.0797 13.994 39.2279 14.4259C39.3983 15.0172 39.7335 15.5514 40.1965 15.9694C40.6595 16.3875 41.2323 16.6733 41.8517 16.7952C42.5072 16.97 43.1995 16.9661 43.8528 16.7842C44.5062 16.6022 45.0954 16.2491 45.556 15.7635C45.7546 15.5478 46.0222 15.4034 46.3156 15.3533C46.609 15.3033 46.9111 15.3506 47.1735 15.4876C47.4328 15.6315 47.26 15.7695 47.1735 15.9015C46.8409 16.4626 46.3912 16.9499 45.8532 17.3322C45.3152 17.7144 44.7008 17.983 44.0496 18.1208C42.8007 18.4557 41.4669 18.3096 40.3261 17.7129C39.1852 17.1163 38.3253 16.115 37.9252 14.9177C37.0424 12.1585 38.2771 9.36333 40.7466 8.39761C41.5405 8.05937 42.4111 7.92717 43.2733 8.01392C44.1355 8.10067 44.9597 8.4034 45.6653 8.8925C46.371 9.3816 46.9339 10.0403 47.2989 10.8042C47.6639 11.568 47.8185 12.4109 47.7477 13.2502C47.7477 13.6281 47.618 13.7841 47.1982 13.7721C45.9449 13.7961 44.6732 13.7961 43.4014 13.7961ZM42.6605 12.5364C43.6977 12.5364 44.7349 12.5364 45.7474 12.5364C46.1857 12.5364 46.2907 12.4105 46.1981 12.0086C46.0177 11.2522 45.5764 10.5785 44.9475 10.0994C44.3186 9.62041 43.5399 9.36488 42.7408 9.37533C41.9238 9.36608 41.1274 9.6244 40.4801 10.1086C39.8327 10.5929 39.372 11.2748 39.1723 12.0446C39.0797 12.4464 39.2094 12.5364 39.5983 12.5304C40.6293 12.5244 41.648 12.5364 42.6605 12.5364Z" fill="#898C9A"/>
<path d="M69.2385 13.1603C69.2548 13.8361 69.1291 14.5081 68.869 15.1352C68.609 15.7623 68.22 16.3312 67.726 16.8073C67.2319 17.2834 66.6432 17.6566 65.9956 17.9041C65.3481 18.1516 64.6555 18.2682 63.96 18.2468C63.2589 18.2618 62.562 18.1379 61.9118 17.8829C61.2615 17.6278 60.6715 17.2468 60.1777 16.763C59.6839 16.2793 59.2966 15.703 59.0393 15.0692C58.7821 14.4354 58.6603 13.7573 58.6814 13.0763C58.6687 12.3998 58.7993 11.7279 59.065 11.1025C59.3308 10.477 59.726 9.9113 60.2262 9.44049C60.7264 8.96968 61.3209 8.60381 61.9728 8.3656C62.6247 8.12738 63.32 8.02191 64.0155 8.05573C64.7116 8.0284 65.4059 8.14197 66.0544 8.38922C66.7028 8.63648 67.2913 9.01202 67.7824 9.49202C68.2736 9.97201 68.6566 10.546 68.9073 11.1775C69.158 11.8089 69.2708 12.4842 69.2385 13.1603ZM63.9785 16.8852C64.4924 16.8984 65.0038 16.8098 65.4814 16.625C65.959 16.4401 66.3929 16.1628 66.7567 15.8098C67.1205 15.4569 67.4067 15.0358 67.5977 14.572C67.7887 14.1083 67.8807 13.6116 67.868 13.1123C67.868 12.1085 67.4575 11.1458 66.7269 10.4359C65.9964 9.72614 65.0055 9.32737 63.9723 9.32737C62.9391 9.32737 61.9483 9.72614 61.2177 10.4359C60.4871 11.1458 60.0767 12.1085 60.0767 13.1123C60.0648 13.6124 60.1577 14.1097 60.3498 14.5739C60.5419 15.0381 60.8292 15.4595 61.1941 15.8124C61.5591 16.1653 61.9942 16.4424 62.4728 16.6268C62.9515 16.8113 63.4638 16.8992 63.9785 16.8852Z" fill="#898C9A"/>
<path d="M49.0442 13.1184C49.0813 11.1029 49.9086 9.51938 51.8286 8.60764C52.7316 8.16042 53.7444 7.96515 54.7547 8.0435C55.765 8.12186 56.7332 8.47078 57.5517 9.05151C57.8727 9.25546 57.9406 9.4474 57.6011 9.69333C57.4896 9.77174 57.3916 9.86691 57.3109 9.97525C57.0825 10.2812 56.8787 10.2632 56.5453 10.0592C54.0758 8.52367 50.884 9.7953 50.4827 12.4585C50.3261 13.1811 50.402 13.933 50.7002 14.6123C50.9984 15.2915 51.5044 15.8652 52.1496 16.2555C52.7968 16.6748 53.5573 16.8986 54.3351 16.8986C55.113 16.8986 55.8735 16.6748 56.5207 16.2555C56.6812 16.1595 56.8232 15.8656 57.0578 16.0635C57.3512 16.3106 57.618 16.5859 57.8542 16.8853C57.9344 16.9932 57.7245 17.0952 57.6258 17.1732C54.6377 19.3806 49.9209 18.0609 49.1554 14.252C49.0687 13.8803 49.0313 13.4993 49.0442 13.1184Z" fill="#898C9A"/>
<path d="M34.8569 6.40614C34.8786 6.82376 34.8786 7.24217 34.8569 7.65979C34.8014 8.15764 35.0174 8.25961 35.4743 8.25961C35.8447 8.22362 36.2213 8.25961 36.5917 8.25961C37.0918 8.21763 36.9992 8.55953 36.9745 8.82345C36.9498 9.08738 37.2029 9.52525 36.5979 9.50726C36.1843 9.50726 35.7768 9.53725 35.3632 9.50726C34.9495 9.47727 34.8446 9.62722 34.8446 10.0171C34.8446 12.5244 34.8446 15.0257 34.8446 17.527C34.8446 18.1268 34.5297 18.0788 34.1346 18.0788C33.7395 18.0788 33.3999 18.1808 33.4061 17.545C33.4493 15.0617 33.4061 12.5784 33.437 10.0951C33.437 9.60923 33.2888 9.44728 32.8196 9.49526C32.6035 9.52525 32.3874 9.49526 32.2022 9.49526C31.696 9.56124 31.5848 9.33931 31.5848 8.89543C31.5848 8.45156 31.7515 8.22962 32.2763 8.24762C33.4617 8.28361 33.4617 8.24762 33.4617 7.09595C33.4617 6.39415 33.4617 5.69235 33.4617 4.99055C33.4617 4.67264 33.5481 4.53468 33.8876 4.57067C34.0435 4.58866 34.201 4.58866 34.3569 4.57067C34.7643 4.51668 34.9125 4.66664 34.8816 5.06853C34.8508 5.47041 34.8569 5.95027 34.8569 6.40614Z" fill="#898C9A"/>
<path d="M24.658 10.3889C24.658 8.0556 24.658 5.72227 24.658 3.38893C24.658 2.7891 24.9358 2.83109 25.3309 2.86108C25.726 2.89107 26.0903 2.69313 26.0841 3.36494C26.0841 8.09159 26.0841 12.8122 26.0841 17.5389C26.0841 17.9408 25.9668 18.0547 25.5593 18.0427C24.6765 18.0427 24.6765 18.0427 24.6765 17.161V10.3889H24.658Z" fill="#898C9A"/>
<path d="M28.7511 13.1543C28.7511 11.7087 28.7511 10.2691 28.7511 8.82953C28.7511 8.37965 28.8438 8.19371 29.3685 8.2297C30.2822 8.27768 30.1649 8.13372 30.1711 9.03347C30.1711 11.8227 30.1711 14.6059 30.1711 17.3891C30.1711 17.9889 29.9735 18.0669 29.4426 18.0549C28.9117 18.0429 28.7141 17.9949 28.7326 17.3951C28.782 15.9975 28.7511 14.5759 28.7511 13.1543Z" fill="#898C9A"/>
<path d="M71.2882 13.1242C71.2882 11.6606 71.2882 10.203 71.2882 8.74546C71.2882 8.14563 71.6154 8.2296 71.9858 8.2296C72.3563 8.2296 72.6835 8.15163 72.6773 8.74546C72.6773 11.6606 72.6773 14.5818 72.6773 17.503C72.6773 17.9168 72.5909 18.0608 72.134 18.0428C71.3067 18.0428 71.3067 18.0428 71.3067 17.215L71.2882 13.1242Z" fill="#898C9A"/>
<path d="M71.9921 3.515C72.1329 3.50766 72.2737 3.5283 72.4061 3.57564C72.5384 3.62299 72.6594 3.69605 72.7617 3.79037C72.8639 3.88469 72.9453 3.99827 73.0009 4.12419C73.0565 4.25011 73.085 4.38571 73.0848 4.52272C73.0658 4.78947 72.9416 5.0388 72.738 5.21872C72.5344 5.39864 72.2672 5.49526 71.9921 5.48844C71.7177 5.4983 71.4504 5.40336 71.2472 5.22395C71.0441 5.04455 70.9214 4.79497 70.9055 4.52871C70.9027 4.39125 70.9292 4.2547 70.9834 4.12768C71.0375 4.00066 71.1182 3.88592 71.2203 3.79068C71.3224 3.69545 71.4436 3.62179 71.5765 3.57434C71.7093 3.5269 71.8508 3.50669 71.9921 3.515Z" fill="#898C9A"/>
<path d="M28.3992 4.48082C28.3992 4.2056 28.5117 3.94166 28.712 3.74705C28.9123 3.55244 29.184 3.44312 29.4673 3.44312C29.7505 3.44312 30.0222 3.55244 30.2225 3.74705C30.4228 3.94166 30.5353 4.2056 30.5353 4.48082C30.5338 4.6126 30.505 4.74274 30.4507 4.86351C30.3964 4.98428 30.3177 5.09322 30.2192 5.18386C30.1208 5.27449 30.0046 5.34498 29.8775 5.39114C29.7504 5.43729 29.6151 5.45818 29.4796 5.45254C29.3415 5.46426 29.2024 5.44778 29.0712 5.40414C28.94 5.3605 28.8197 5.29068 28.7179 5.19916C28.6162 5.10765 28.5352 4.99646 28.4804 4.87275C28.4255 4.74903 28.3978 4.61553 28.3992 4.48082Z" fill="#898C9A"/>
</g>
<defs>
<clipPath id="clip0">
<rect width="84" height="21" fill="white"/>
</clipPath>
</defs>
</svg>
