<svg width="78" height="29" viewBox="0 0 78 29" fill="none" xmlns="http://www.w3.org/2000/svg">
<g clip-path="url(#clip0)">
<path d="M3.49408 22.5271L4.71702 16.8431C5.25278 14.4419 5.88172 12.0407 6.28937 9.61628C6.61027 8.59439 7.15983 7.65835 7.89665 6.87868C9.23606 4.94148 10.6686 3.07388 12.0546 1.15988C12.1944 0.974281 12.3225 0.788681 12.4623 0.614681C13.0912 -0.220519 13.5105 -0.220519 14.1394 0.614681C15.968 3.07388 17.785 5.55628 19.6135 8.01548C20.1049 8.85486 20.4144 9.7874 20.522 10.7531C21.1859 13.6995 21.8265 16.6575 22.4671 19.6039C22.5504 20.566 22.7579 21.5134 23.0843 22.4227C23.294 22.8519 22.9562 23.1071 22.6418 23.2579C21.6401 23.7335 20.7666 24.4179 19.7766 24.9167C18.4124 25.6961 17.1013 26.5641 15.8516 27.5151C15.1385 27.8496 14.4696 28.2704 13.8599 28.7679C13.429 29.2435 12.9049 28.8839 12.5671 28.6519C10.3192 27.1323 7.9083 25.8679 5.69537 24.2671C5.14217 23.8995 4.56208 23.5738 3.95996 23.2927C3.6455 23.1303 3.4242 22.9215 3.49408 22.5271ZM9.21276 14.4071C9.29429 14.6623 9.36417 14.8363 9.42241 15.0219L11.0297 20.1027C11.7285 22.2951 11.7285 22.2835 14.0579 22.3299C14.1795 22.3605 14.3062 22.3647 14.4295 22.3422C14.5528 22.3197 14.6698 22.2711 14.7726 22.1996C14.8754 22.128 14.9615 22.0353 15.025 21.9277C15.0886 21.8201 15.1282 21.7001 15.1411 21.5759C15.805 19.3835 16.5154 17.2143 17.2492 15.0335C17.3165 14.8076 17.3357 14.5702 17.3056 14.3365C17.2755 14.1028 17.1968 13.878 17.0745 13.6763C16.4572 12.3887 15.6303 11.2287 14.9198 9.99908C14.6224 9.24568 14.2311 8.5325 13.7551 7.87628C13.5804 7.70228 13.5804 7.26148 13.2892 7.35428C12.998 7.44708 12.9515 7.77188 12.8 8.00388C11.9615 9.27988 11.4024 10.6719 10.5405 11.9131C10.0467 12.7124 9.61073 13.5459 9.23606 14.4071H9.21276ZM8.81677 13.1891C9.85335 11.4143 10.7968 9.82508 11.7052 8.21268C12.2093 7.5139 12.5767 6.72686 12.7884 5.89268C12.9017 4.50355 12.9212 3.10841 12.8466 1.71668C12.6253 1.83268 12.4739 1.86748 12.4157 1.96028L7.69865 8.61868C7.6178 8.71361 7.56603 8.82967 7.54951 8.95306C7.53299 9.07645 7.55242 9.20197 7.60548 9.31468C8.02477 10.5211 8.39747 11.7507 8.84006 13.1891H8.81677ZM17.7384 13.1079C18.1693 11.7855 18.5537 10.5791 18.973 9.37268C19.1127 8.97828 18.973 8.71148 18.74 8.39828C17.9419 7.14047 17.0789 5.92471 16.1544 4.75588C15.4697 3.65769 14.6651 2.63841 13.7551 1.71668C13.7551 4.12948 13.3824 6.48428 15.0596 8.45628C15.0596 8.45628 15.0596 8.58388 15.1178 8.63028C15.9144 10.1708 16.7971 11.6657 17.7617 13.1079H17.7384ZM17.9597 15.3699C17.2608 17.5739 16.6319 19.6039 15.968 21.6107C15.7817 22.1675 15.8399 22.3531 16.4805 22.3415C18.2275 22.3415 19.9746 22.3415 21.8964 22.3415C20.7666 19.9055 19.2991 17.7943 17.983 15.3699H17.9597ZM8.64206 15.3699L4.65878 22.2719H10.8084L8.64206 15.3699ZM12.2759 27.4687L12.439 27.2947L11.2743 23.6639C11.1928 23.3739 11.0646 23.1419 10.6803 23.1535H5.82349V23.3275L12.2759 27.4687ZM14.1394 27.5383L20.9646 23.3507C19.2758 23.1999 17.7151 23.1999 16.1544 23.1999C16.0546 23.1817 15.9522 23.1841 15.8534 23.2067C15.7546 23.2293 15.6614 23.2718 15.5797 23.3315C15.4979 23.3913 15.4292 23.467 15.3778 23.554C15.3265 23.6411 15.2935 23.7377 15.2809 23.8379C14.9431 24.9863 14.5471 26.1579 14.1162 27.5383H14.1394ZM21.2674 19.4183L21.4771 19.3603L19.5553 10.5095C19.1244 11.8203 18.7633 12.8295 18.4488 13.9895C18.3615 14.2013 18.3615 14.4389 18.4488 14.6507C19.3922 16.2399 20.324 17.7827 21.2441 19.3603L21.2674 19.4183ZM7.06972 10.5559C6.38254 13.6067 5.7536 16.3559 5.13631 19.1747C5.12433 19.3407 5.12433 19.5074 5.13631 19.6735C6.10301 18.1423 6.87172 16.6227 7.82677 15.2075C8.02223 14.9148 8.13509 14.5752 8.15353 14.2242C8.17197 13.8732 8.09532 13.5237 7.93159 13.2123C7.58769 12.346 7.29981 11.4588 7.06972 10.5559ZM13.3009 27.0859C13.6037 26.2043 13.825 25.5431 14.0463 24.8819C14.6403 23.0839 14.6403 23.1187 12.7418 23.1303C12.0546 23.1303 12.0779 23.4087 12.2293 23.8727C12.5671 24.8819 12.9049 25.8795 13.3009 27.0859Z" fill="#898C9A"/>
<path d="M60.4595 15.6831C60.5087 17.3427 60.1446 18.9886 59.3996 20.4739C58.5822 22.0379 57.2967 23.3101 55.7213 24.1144C54.1458 24.9187 52.3583 25.2153 50.6061 24.9631C48.6806 24.827 46.8691 24.0032 45.5048 22.6431C44.471 21.5491 43.7026 20.2338 43.2584 18.7981C42.8142 17.3624 42.7061 15.8445 42.9424 14.3607C43.0576 12.2309 43.9381 10.2134 45.4232 8.67672C46.3566 7.77036 47.4835 7.08574 48.7198 6.67396C49.9561 6.26219 51.2698 6.13392 52.5628 6.29872C54.5649 6.43127 56.4476 7.29447 57.8506 8.72312C58.7359 9.64687 59.4237 10.7401 59.8722 11.9365C60.3206 13.1329 60.5204 14.4075 60.4595 15.6831ZM44.2585 14.6159C44.2585 20.0911 46.4831 23.3739 50.8507 23.8959C52.1294 24.1063 53.4415 23.9585 54.6406 23.4689C55.8397 22.9793 56.8785 22.1673 57.6409 21.1235C58.9091 19.1748 59.4147 16.8302 59.0619 14.5347C58.4446 8.65352 52.7841 5.54472 47.8575 8.43312C46.7747 9.06889 45.8748 9.9718 45.2444 11.0548C44.614 12.1377 44.2745 13.3642 44.2585 14.6159Z" fill="#898C9A"/>
<path d="M29.3621 15.5438C29.3621 12.7598 29.3621 9.96417 29.3621 7.18017C29.3621 6.58857 29.5135 6.40297 30.1191 6.41457C33.3453 6.41457 36.5716 6.41457 39.7978 6.41457C40.1821 6.41457 40.4617 6.41457 40.4733 6.93657C40.485 7.45857 40.2171 7.55137 39.7628 7.55137C37.0258 7.55137 34.2887 7.55137 31.6099 7.55137C30.9111 7.55137 30.7481 7.72537 30.7714 8.39817C30.8179 10.347 30.8179 12.2803 30.7714 14.1982C30.7714 14.813 30.9344 14.9406 31.5284 14.929C33.6482 14.929 35.7679 14.929 37.876 14.929C38.2604 14.929 38.8893 14.581 38.866 15.509C38.8427 16.437 38.1905 16.0194 37.8294 16.031C35.7097 16.031 33.5899 16.031 31.4818 16.031C30.9228 16.031 30.7714 16.1702 30.7714 16.727C30.7714 18.8034 30.7714 20.8798 30.7714 22.9562C30.7714 23.6058 30.981 23.687 31.5401 23.6754C34.2422 23.6754 36.9559 23.6754 39.693 23.6754C40.0424 23.6754 40.5548 23.4318 40.5665 24.1974C40.5781 24.963 40.1355 24.7658 39.7396 24.7658C36.5716 24.7658 33.4152 24.7658 30.2472 24.7658C29.6066 24.7658 29.4319 24.6034 29.4436 23.9538C29.3737 21.193 29.3621 18.3742 29.3621 15.5438Z" fill="#898C9A"/>
<path d="M69.2298 6.37994C69.9979 6.29919 70.7745 6.37145 71.5144 6.59251C72.2542 6.81356 72.9425 7.179 73.5392 7.66754C73.9818 8.01554 73.9818 8.29394 73.6673 8.68834C73.3528 9.08274 73.0384 8.79274 72.7938 8.57234C71.9036 7.89021 70.8318 7.48366 69.7115 7.40323C68.5912 7.3228 67.472 7.57202 66.4927 8.11994C66.091 8.46202 65.7725 8.89041 65.561 9.37286C65.3496 9.85531 65.2508 10.3792 65.2721 10.9052C65.2934 11.4312 65.4343 11.9455 65.684 12.4094C65.9338 12.8733 66.286 13.2748 66.714 13.5835C68.2694 14.2821 69.8593 14.9015 71.4777 15.4395C73.1665 16.2167 74.4826 17.3535 74.5059 19.3719C74.6052 20.3774 74.3928 21.389 73.8972 22.2705C73.4015 23.1519 72.6465 23.8609 71.7339 24.3019C70.6412 24.9247 69.3892 25.2148 68.1327 25.1364C66.8762 25.0581 65.6704 24.6147 64.6642 23.8611C64.338 23.6059 63.9304 23.3855 63.581 23.1187C63.2316 22.8519 63.1268 22.5503 63.4645 22.1675C63.8023 21.7847 64.0818 21.9587 64.3613 22.2255C64.9863 22.8412 65.738 23.3145 66.5644 23.6129C67.3908 23.9113 68.2723 24.0276 69.1483 23.9539C69.7484 23.9471 70.34 23.8109 70.8823 23.5548C71.4246 23.2987 71.9048 22.9286 72.2899 22.4701C72.675 22.0116 72.9559 21.4755 73.1132 20.8987C73.2706 20.3218 73.3006 19.7179 73.2014 19.1283C73.1183 18.6176 72.9057 18.1364 72.5837 17.7304C72.2616 17.3244 71.8408 17.0071 71.3612 16.8083C70.0254 16.2328 68.6564 15.737 67.2614 15.3235C64.1051 14.1635 63.4878 11.7159 64.338 9.23354C64.7536 8.3098 65.4483 7.53832 66.3252 7.02675C67.2022 6.51518 68.2176 6.28906 69.2298 6.37994Z" fill="#898C9A"/>
</g>
<defs>
<clipPath id="clip0">
<rect width="78" height="29" fill="white"/>
</clipPath>
</defs>
</svg>
