<?xml version="1.0" encoding="utf-8"?>
<!DOCTYPE svg PUBLIC "-//W3C//DTD SVG 1.1//EN" "http://www.w3.org/Graphics/SVG/1.1/DTD/svg11.dtd">
<svg version="1.1" id="_x31__1_" xmlns="http://www.w3.org/2000/svg" xmlns:xlink="http://www.w3.org/1999/xlink" x="0px" y="0px"
	 width="130px" height="130px" viewBox="0 0 130 130" enable-background="new 0 0 130 130" xml:space="preserve">
	<defs>
		<g id="Layer_0">
			<ellipse opacity="0.3" cx="65.827" cy="99.582" rx="16.37" ry="8.671"/>
			<g>
				<path fill="#C4C3C0" d="M94.015,77.894c0-23.952-12.396-46.806-27.688-46.806S38.639,54.601,38.639,77.894
					c0,15.292,12.396,27.688,27.688,27.688S94.015,93.186,94.015,77.894z"/>
				<path fill="#EAE9E5" d="M90.035,75.516c0-22.018-11.121-43.025-24.838-43.025S40.359,54.104,40.359,75.516
					c0,14.057,11.121,25.451,24.838,25.451S90.035,89.572,90.035,75.516z"/>
				<path fill="#F9F9F7" d="M86.685,73.037c0-19.706-10.051-38.507-22.45-38.507S41.784,53.873,41.784,73.037
					c0,12.581,10.052,22.78,22.451,22.78S86.685,85.617,86.685,73.037z"/>
				<path fill="#EAE9E5" d="M68.858,104.623c0,0,10.749-0.317,18.631-9.713s5.892-21.417,5.892-21.417s-0.382,11.86-7.484,20.143
					C78.265,102.537,68.858,104.623,68.858,104.623z"/>
				<path fill="#FFFFFF" d="M54.588,44.204c-1.856-0.091-5.265,5.555-1.787,6.183S57.535,44.349,54.588,44.204z"/>
				<g>
					<path fill="#D1D1D1" d="M55.539,81.262c-0.605-1.648-1.312-0.689-1.48-0.185s-0.194,0.802-0.177,0.924
						c-0.971-0.438-2.396,0.924-2.26,2.001c0.096,0.751,0.658,1.445,1.494,1.254c0.711-0.162,1.392-0.836,1.664-1.509
						c0.236-0.583,0.012-1.011-0.381-1.261c0.081,0.015,0.165,0.044,0.242,0.032C55.251,82.418,55.811,82.002,55.539,81.262z"/>
					<path fill="#D1D1D1" d="M73.929,82.526c-0.075-0.101-0.219-0.168-0.32-0.238c-0.284-0.198-0.614,0.138-0.761,0.342
						c-0.208,0.29-0.283,0.673-0.102,0.974c0.016,0.355,0.144,0.676,0.539,0.711c0.422,0.037,0.675-0.417,0.695-0.78
						C73.996,83.255,74.108,82.767,73.929,82.526z"/>
					<path fill="#D1D1D1" d="M86.521,67.164c-0.159-0.543-0.683-1.118-1.312-0.949c-0.498,0.133-0.867,0.485-1.062,0.96
						c-0.151,0.37-0.181,0.856,0.115,1.121c0.197,0.444,0.608,0.81,1.105,0.937c0.251,0.064,0.583-0.027,0.731-0.255
						C86.437,68.455,86.706,67.793,86.521,67.164z"/>
					<path fill="#D1D1D1" d="M89.831,62.308c-0.691,0-0.896,1.134-0.161,1.134C90.36,63.442,90.565,62.308,89.831,62.308z"/>
					<path fill="#D1D1D1" d="M50.21,57.126c-0.649,0.145-0.975,0.505-1.024,1.058c-0.067,0.155-0.122,0.318-0.151,0.502
						c-0.05,0.316,0.145,0.612,0.474,0.646c0.787,0.082,1.105-0.739,1.325-1.357C50.98,57.562,50.733,57.009,50.21,57.126z"/>
					<path fill="#D1D1D1" d="M46.938,80.565c-0.358-0.719-1.192,0.366-0.713,0.856c0.021,0.021,0.042,0.043,0.063,0.065
						c0.042,0.043,0.083,0.063,0.124,0.085c0,0.021,0.012,0.038,0.011,0.06c-0.016,0.528,0.603,0.175,0.594-0.224
						c-0.002-0.088-0.022-0.148-0.035-0.22c0.028-0.085,0.046-0.159,0.044-0.249c0.006-0.104-0.004-0.205-0.043-0.285
						C46.967,80.625,46.953,80.596,46.938,80.565z"/>
					<path fill="#D1D1D1" d="M67.136,89.182c-0.196-0.479-0.773-0.264-0.997,0.038c-0.17,0.229-0.214,0.503-0.211,0.783
						c0.002,0.188,0.064,0.319,0.154,0.409c0.001,0.002,0,0.003,0.001,0.005c0.131,0.257,0.358,0.361,0.634,0.39
						c0.393,0.041,0.808-0.293,0.689-0.726C67.323,89.776,67.256,89.476,67.136,89.182z"/>
					<path fill="#D1D1D1" d="M79.45,87.837c-2.977,1.513-1.492,6.168,1.468,3.822C82.736,90.216,82.272,86.402,79.45,87.837z"/>
					<path fill="#D1D1D1" d="M87.11,77.236c-0.071-0.131-0.137-0.158-0.278-0.197c-0.285-0.079-0.849,0.427-0.49,0.64
						c0.053,0.031,0.096,0.148,0.178,0.193c0.139,0.077,0.346,0.003,0.439-0.118c0.021-0.026,0.041-0.053,0.062-0.08
						C87.125,77.539,87.198,77.401,87.11,77.236z"/>
					<path fill="#D1D1D1" d="M57.669,97.106c-1.048,0-1.034,1.642,0.037,1.642C58.754,98.748,58.74,97.106,57.669,97.106z"/>
					<path fill="#D1D1D1" d="M46.819,72.177c-0.139-0.24-0.46-0.161-0.688,0.03c-0.058,0.015-0.115,0.039-0.154,0.073
						c-0.291,0.26-0.355,0.563-0.393,0.945c-0.01,0.098,0.054,0.186,0.142,0.23c0.174,0.257,0.598,0.278,0.861,0.085
						C47.121,73.153,47.115,72.688,46.819,72.177z"/>
					<path fill="#D1D1D1" d="M58.581,70.654c-0.771,0-1.689,1.754-0.584,1.754C58.768,72.408,59.687,70.654,58.581,70.654z"/>
					<path fill="#D1D1D1" d="M40.459,77.406c-0.205-0.49-0.751-0.271-0.978,0.233c-0.396,0.881-0.181,1.5-0.029,2.126
						c0.2,0.824,1.645,1.744,1.522,0.129C40.913,79.08,40.775,78.162,40.459,77.406z"/>
					<path fill="#D1D1D1" d="M92.05,84.989c-0.083-0.217-0.253-0.322-0.438-0.377c-0.036-0.108-0.112-0.192-0.263-0.186
						c-1.367,0.064-1.92,1.702-1.407,2.807c0.102,0.22,0.273,0.432,0.542,0.44C91.695,87.716,92.454,86.036,92.05,84.989z"/>
					<path fill="#D1D1D1" d="M92.045,74.904c-0.329,0.048-0.471,0.193-0.677,0.438c-0.49,0.583,0.181,1.927,0.915,1.376
						C93.113,76.583,92.969,74.766,92.045,74.904z"/>
				</g>
			</g>
		</g>

		<g id="Layer_1">
			<g>
				<path fill="#FFFFFF" d="M74.948,64.409c1.593,1.337,3.052,2.83,4.391,4.427c1.313,1.604,2.611,3.307,3.246,5.336l-0.174,0.086
					c-1.229-1.673-2.348-3.362-3.603-5c-1.247-1.636-2.549-3.236-3.883-4.827L74.948,64.409z"/>
				<path opacity="0.8" fill="#FFFFFF" d="M80.704,71.232c0,0,1.084-0.981,0.856-3.133c-0.353,0.973-1.268,2.551-1.268,2.551L80,70.25
					c0,0,0.9-1.838,1.085-3.242c-0.972-1.717-2.503-3.217-3.659-3.842c0,1.094-0.656,3.281-0.656,3.281s0.406-2.594,0.219-3.375
					c-1.094-0.719-2.344-0.813-3.25,0.406s0.66,2.387,1.156,3.543s0.888,2.039,0.888,2.039l2.331-1.301l-2.084,1.854l0.928,2.24
					l3.281-0.938c0,0-1.645,1.211-2.76,1.574C79.676,73.135,80.704,71.232,80.704,71.232z"/>
			</g>
			<g>
				<path fill="#FFFFFF" d="M88.193,57.879c0.078,1.997-0.053,4.002-0.315,5.99c-0.269,1.988-0.687,3.96-1.264,5.896
					c-0.594,1.926-1.313,3.836-2.312,5.614c-1.01,1.761-2.313,3.407-3.985,4.579l-0.129-0.124c1.083-1.694,2.036-3.366,2.896-5.106
					c0.871-1.729,1.646-3.518,2.273-5.37c0.643-1.846,1.177-3.738,1.642-5.654C87.462,61.787,87.875,59.849,88.193,57.879z"/>
				<path opacity="0.8" fill="#FFFFFF" d="M91.731,61.229c0.273-2.73-1.482-7.14-3.901-6.515c-0.351,0.091-0.643,0.23-0.907,0.395
					c0.463,0.8,0.714,1.543,0.714,1.543s-0.591-0.589-1.252-1.129c-0.382,0.387-0.647,0.875-0.85,1.423
					c0.541,0.417,0.877,0.829,0.877,0.829c-0.268-0.178-0.669-0.313-1.016-0.406c-0.271,0.9-2.21,7.918-2.21,7.918
					s1.833,1.755,2.815,4.222c-1.203-1.318-3.283-3.208-3.283-3.208s-0.609,0.82-1.303,2.075c0.594,1.218,1.78,3.491,2.85,4.562
					c0,0-2.222-1.442-3.51-3.268c-0.104,0.223-0.202,0.459-0.301,0.694c0.039,0.473,0.213,1.193,0.842,2.011
					c1.094,1.422,2.234,2.094,2.234,2.094s-1.998-0.851-3.218-2.445c0.599,1.771,3.37,3.046,3.37,3.046
					c3.891,0.966,6.409-1.162,6.409-1.162s-2.6-0.045-5.228-1.014c2.497,0.39,5.462-0.273,5.462-0.273
					c0.615-1.475,0.945-3.39,1.125-5.301l-1.71-0.473l1.764-0.165c0.481-1.329,0.746-2.939,0.746-4.157
					c-1.529-0.143-4.577-1.18-4.577-1.18S90.522,61.58,91.731,61.229z"/>
			</g>
			<g>
				<path fill="#FFFFFF" d="M85.416,70.481c0.444-1.343,1.179-2.607,2.192-3.639c0.997-1.043,2.346-1.804,3.822-1.998
					c1.445-0.221,2.946,0.007,4.282,0.545c1.345,0.524,2.563,1.338,3.549,2.363l-0.044,0.049c-1.173-0.776-2.421-1.398-3.709-1.859
					c-1.294-0.432-2.654-0.678-4.003-0.501c-1.325,0.167-2.578,0.803-3.589,1.72c-1.005,0.929-1.831,2.081-2.43,3.345L85.416,70.481z"
					/>
				<path opacity="0.8" fill="#FFFFFF" d="M93.599,65.235c0,0-1.512-2.583,0.396-4.231c-1.384,1.687,0.558,4.334,0.558,4.334
					L93.599,65.235z"/>
				<path opacity="0.8" fill="#FFFFFF" d="M93.599,65.235c-1.501-3.369-3.843-3.715-7.032-1.045c0.639,0.898,1.418,2.14,1.425,2.606
					c-0.674-0.874-1.436-1.592-2.016-2.083c-0.057,0.053-0.113,0.099-0.17,0.153c-0.168,0.159-0.319,0.323-0.471,0.486l1.069,1.02
					l-1.364-0.688c-0.578,0.685-1.007,1.395-1.311,2.09c0.734,0.086,1.81,0.3,2.839,0.847c-1.193-0.35-2.456-0.215-3.115-0.104
					c-0.706,2.302,0.073,4.278,2.023,4.386c0.286,0.016,0.553-0.007,0.808-0.049c-0.698-2.164-0.376-3.361-0.376-3.361
					c0.195,1.614,0.568,2.656,0.845,3.25c1.869-0.583,3.008-2.596,4.761-3.603c0.366-2.121,0.139-3.929,0.139-3.929l0.455-0.139
					c0,0,0.283,1.986,0.165,3.703c2.444-0.995,2.279-3.438,2.279-3.438S93.972,65.276,93.599,65.235z"/>
			</g>
			<g>
				<path fill="#FFFFFF" d="M43.716,85.523c-0.043,1.949-0.155,3.871-0.215,5.795c-0.069,1.924-0.101,3.835-0.075,5.775l-0.146,0.02
					c-0.491-1.901-0.552-3.881-0.468-5.824c0.054-0.974,0.136-1.945,0.289-2.908c0.145-0.963,0.32-1.922,0.592-2.861L43.716,85.523z"/>
				<path opacity="0.8" fill="#FFFFFF" d="M44.538,82.092c-0.747-0.204-1.445,0.02-2.05,0.521c0.232,0.942,0.606,2.271,1.147,3.555
					c-0.86-1.028-1.429-2.067-1.793-2.874c-0.734,0.971-1.249,2.387-1.412,3.872c-0.125,1.122-0.091,2.172,0.12,3.063
					c1.391,0.75,2.574,0.944,2.574,0.944c-1.024,0.085-1.766,0.039-2.265-0.036c0.437,0.962,1.17,1.624,2.256,1.81
					c1.984,0.341,3.772-1.413,3.577-4.74c-0.013-0.214-0.022-0.408-0.033-0.612c-1.067,0.258-2.388,0.595-3.144,0.856
					c0,0,1.66-0.808,3.12-1.3c-0.061-1.173-0.117-2.181-0.306-2.985c-0.696,0.582-1.82,1.629-2.789,3.029c0,0,0.615-1.988,2.48-3.905
					C45.726,82.703,45.27,82.292,44.538,82.092z"/>
			</g>
			<g>
				<path fill="#FFFFFF" d="M45.65,72.71c-1.951,2.365-3.852,4.732-5.644,7.175c-1.785,2.454-3.437,4.954-5.071,7.563
					c0.807-2.996,2.455-5.688,4.313-8.129c1.875-2.442,3.983-4.707,6.389-6.623L45.65,72.71z"/>
				<path opacity="0.8" fill="#FFFFFF" d="M48.101,71.939c-0.058-0.274-0.176-0.542-0.375-0.811c-0.993-1.334-3.362-0.69-5.6,0.732
					l1.225,3.112l-2.024-2.565c-0.664,0.484-1.301,1.024-1.865,1.593c-0.377,0.38-0.716,0.74-1.033,1.085
					c0.422,0.498,1.033,1.256,1.033,1.256l-1.346-0.909c-1.681,1.877-2.454,3.118-2.454,3.118s0.795,2.302,2.386,3.535
					c-0.354,0.265-0.354,0.265-0.354,0.265s-1.201-2.328-3.406-1.429c1.815,0.722,3.06,1.997,3.06,1.997
					c1.803,0.968,2.836,0.654,4.832-1.793l-2.408-1.912l0.486-0.442l2.354,1.811c0.335-0.432,0.697-0.915,1.092-1.458
					c2.244-3.077,4.084-4.896,4.39-6.39c-0.374-0.099-0.862-0.241-1.341-0.415C47.298,72.134,47.766,72.014,48.101,71.939z"/>
			</g>
		</g>

		<g id="Layer_2">
			<path fill="#FFFFFF" d="M103.71,57.274c1.593,1.336,3.052,2.83,4.391,4.427c1.313,1.604,2.611,3.307,3.246,5.336l-0.174,0.086
				c-1.229-1.673-2.348-3.362-3.603-5c-1.247-1.636-2.549-3.237-3.883-4.827L103.71,57.274z"/>
			<path opacity="0.8" fill="#FFFFFF" d="M109.465,64.097c0,0,1.084-0.981,0.856-3.133c-0.353,0.973-1.268,2.551-1.268,2.551
				l-0.292-0.4c0,0,0.9-1.838,1.085-3.242c-0.972-1.717-2.503-3.217-3.659-3.842c0,1.094-0.656,3.281-0.656,3.281
				s0.406-2.594,0.219-3.375c-1.094-0.719-2.344-0.813-3.25,0.406s0.66,2.387,1.156,3.543s0.888,2.039,0.888,2.039l2.331-1.301
				l-2.084,1.854l0.928,2.24L109,63.781c0,0-1.645,1.211-2.76,1.574C108.438,66,109.465,64.097,109.465,64.097z"/>
			<path fill="#FFFFFF" d="M99.629,53.605c-0.015,1.998-0.24,3.995-0.594,5.968c-0.362,1.973-0.872,3.924-1.538,5.83
				c-0.683,1.896-1.49,3.771-2.571,5.5c-1.091,1.712-2.469,3.295-4.195,4.388l-0.123-0.13c1.161-1.642,2.191-3.267,3.13-4.965
				c0.95-1.687,1.808-3.437,2.521-5.258c0.728-1.814,1.35-3.679,1.904-5.571C98.717,57.474,99.22,55.558,99.629,53.605z"/>
			<path opacity="0.8" fill="#FFFFFF" d="M103.007,57.116c0.4-2.715-1.147-7.201-3.592-6.69c-0.355,0.074-0.653,0.2-0.924,0.352
				c0.426,0.821,0.642,1.575,0.642,1.575s-0.563-0.616-1.198-1.186c-0.399,0.369-0.687,0.843-0.915,1.382
				c0.521,0.441,0.838,0.869,0.838,0.869c-0.259-0.19-0.654-0.344-0.996-0.453c-0.313,0.887-2.578,7.807-2.578,7.807
				s1.75,1.839,2.615,4.349c-1.14-1.373-3.13-3.358-3.13-3.358s-0.647,0.791-1.398,2.012c0.536,1.244,1.615,3.571,2.634,4.69
				c0,0-2.152-1.545-3.354-3.428c-0.114,0.218-0.223,0.449-0.333,0.68c0.017,0.474,0.157,1.202,0.748,2.048
				c1.026,1.471,2.134,2.196,2.134,2.196s-1.956-0.943-3.101-2.592c0.516,1.797,3.225,3.2,3.225,3.2
				c3.841,1.147,6.456-0.861,6.456-0.861s-2.595-0.166-5.174-1.257c2.476,0.506,5.469-0.018,5.469-0.018
				c0.683-1.445,1.103-3.343,1.371-5.243l-1.687-0.552l1.77-0.083c0.542-1.305,0.882-2.901,0.939-4.118
				c-1.521-0.214-4.517-1.392-4.517-1.392S101.783,57.411,103.007,57.116z"/>
			<path fill="#FFFFFF" d="M91.347,51.235c0.444-1.343,1.179-2.607,2.192-3.639c0.997-1.043,2.346-1.803,3.822-1.997
				c1.445-0.221,2.946,0.006,4.282,0.545c1.345,0.524,2.563,1.338,3.549,2.363l-0.044,0.049c-1.173-0.776-2.421-1.398-3.709-1.859
				c-1.294-0.432-2.654-0.678-4.003-0.501c-1.325,0.167-2.578,0.803-3.589,1.72c-1.005,0.929-1.831,2.081-2.43,3.345L91.347,51.235z"/>
			<path opacity="0.8" fill="#FFFFFF" d="M99.531,45.989c0,0-1.512-2.583,0.396-4.231c-1.384,1.687,0.558,4.334,0.558,4.334
				L99.531,45.989z"/>
			<path opacity="0.8" fill="#FFFFFF" d="M99.531,45.989c-1.501-3.369-3.843-3.715-7.032-1.045c0.639,0.898,1.418,2.14,1.425,2.606
				c-0.674-0.874-1.436-1.592-2.016-2.083c-0.057,0.053-0.113,0.099-0.17,0.153c-0.168,0.159-0.319,0.323-0.471,0.486l1.069,1.02
				l-1.364-0.688c-0.578,0.685-1.007,1.395-1.311,2.09c0.734,0.086,1.81,0.3,2.839,0.847c-1.193-0.35-2.456-0.215-3.115-0.104
				c-0.706,2.302,0.073,4.278,2.023,4.386c0.286,0.016,0.553-0.007,0.808-0.049c-0.698-2.164-0.376-3.361-0.376-3.361
				c0.195,1.614,0.568,2.656,0.845,3.25c1.869-0.583,3.008-2.596,4.761-3.603c0.366-2.121,0.139-3.929,0.139-3.929l0.455-0.139
				c0,0,0.283,1.986,0.165,3.703c2.444-0.995,2.279-3.438,2.279-3.438S99.903,46.029,99.531,45.989z"/>
			<path fill="#FFFFFF" d="M30.304,76.037c-0.491,1.887-1.043,3.73-1.545,5.589c-0.511,1.856-0.982,3.708-1.404,5.602l-0.146-0.014
				c-0.039-1.964,0.357-3.904,0.888-5.775c0.277-0.935,0.581-1.861,0.952-2.763c0.363-0.903,0.755-1.796,1.236-2.647L30.304,76.037z"/>
			<path opacity="0.8" fill="#FFFFFF" d="M31.896,72.888c-0.68-0.371-1.411-0.314-2.115,0.035c0.008,0.97,0.066,2.35,0.296,3.724
				c-0.6-1.199-0.914-2.341-1.082-3.21c-0.938,0.775-1.765,2.035-2.266,3.442c-0.38,1.063-0.59,2.092-0.59,3.009
				c1.181,1.05,2.287,1.512,2.287,1.512c-1.016-0.153-1.727-0.369-2.195-0.558c0.203,1.037,0.764,1.85,1.778,2.281
				c1.853,0.789,3.997-0.505,4.574-3.788c0.037-0.211,0.073-0.402,0.109-0.604c-1.098,0.005-2.461,0.028-3.257,0.108
				c0,0,1.801-0.403,3.335-0.545c0.211-1.155,0.389-2.148,0.391-2.975c-0.812,0.405-2.147,1.166-3.412,2.304
				c0,0,1.057-1.793,3.313-3.228C32.911,73.756,32.562,73.251,31.896,72.888z"/>
			<path fill="#FFFFFF" d="M39.775,52.71c-1.951,2.365-3.852,4.732-5.644,7.175c-1.785,2.454-3.437,4.954-5.071,7.563
				c0.807-2.996,2.455-5.688,4.313-8.129c1.875-2.442,3.983-4.707,6.389-6.623L39.775,52.71z"/>
			<path opacity="0.8" fill="#FFFFFF" d="M42.226,51.939c-0.058-0.274-0.176-0.542-0.375-0.811c-0.993-1.334-3.362-0.69-5.6,0.732
				l1.225,3.112l-2.024-2.565c-0.664,0.484-1.301,1.024-1.865,1.593c-0.377,0.38-0.716,0.74-1.033,1.085
				c0.422,0.498,1.033,1.256,1.033,1.256l-1.346-0.909c-1.681,1.877-2.454,3.118-2.454,3.118s0.795,2.302,2.386,3.535
				c-0.354,0.265-0.354,0.265-0.354,0.265s-1.201-2.328-3.406-1.429c1.815,0.722,3.06,1.997,3.06,1.997
				c1.803,0.968,2.836,0.654,4.832-1.793l-2.408-1.912l0.486-0.442l2.354,1.811c0.335-0.432,0.697-0.915,1.092-1.458
				c2.244-3.077,4.084-4.896,4.39-6.39c-0.374-0.099-0.862-0.241-1.341-0.415C41.423,52.134,41.891,52.014,42.226,51.939z"/>
		</g>

		<g id="Layer_3">
			<path fill="#FFFFFF" d="M108.068,46.379c0.078,1.997-0.053,4.002-0.315,5.99c-0.269,1.988-0.687,3.96-1.264,5.896
				c-0.594,1.926-1.313,3.836-2.312,5.614c-1.01,1.761-2.313,3.407-3.985,4.579l-0.129-0.124c1.083-1.694,2.036-3.366,2.896-5.106
				c0.871-1.729,1.646-3.518,2.273-5.369c0.643-1.847,1.177-3.739,1.642-5.655C107.337,50.287,107.75,48.349,108.068,46.379z"/>
			<path fill="#FFFFFF" d="M116.616,56.993c1.593,1.336,3.052,2.83,4.391,4.427c1.313,1.604,2.611,3.307,3.246,5.336l-0.174,0.086
				c-1.229-1.673-2.348-3.362-3.603-5c-1.247-1.636-2.549-3.237-3.883-4.827L116.616,56.993z"/>
			<path fill="#FFFFFF" d="M101.666,37.036c1.188-0.768,2.553-1.292,3.989-1.461c1.43-0.188,2.958,0.066,4.23,0.839
				c1.264,0.733,2.291,1.852,2.995,3.109c0.72,1.251,1.159,2.649,1.284,4.065l-0.064,0.011c-0.427-1.34-1.01-2.607-1.725-3.773
				c-0.737-1.148-1.643-2.192-2.805-2.9c-1.137-0.701-2.511-0.99-3.875-0.909c-1.365,0.094-2.731,0.474-3.99,1.083L101.666,37.036z"/>
			<path fill="#FFFFFF" d="M30.775,43.46c-1.951,2.365-3.852,4.732-5.644,7.175c-1.785,2.454-3.437,4.954-5.071,7.563
				c0.807-2.996,2.455-5.688,4.313-8.129c1.875-2.442,3.983-4.707,6.389-6.623L30.775,43.46z"/>
			<path fill="#FFFFFF" d="M28.142,60.155c-1.237,1.507-2.511,2.951-3.745,4.428c-1.242,1.472-2.445,2.956-3.622,4.5l-0.127-0.074
				c0.787-1.799,1.96-3.395,3.226-4.873c0.643-0.732,1.307-1.447,2.021-2.11c0.708-0.668,1.438-1.315,2.232-1.886L28.142,60.155z"/>
			<path opacity="0.8" fill="#FFFFFF" d="M122.372,63.816c0,0,1.084-0.981,0.856-3.133c-0.353,0.973-1.268,2.551-1.268,2.551
				l-0.292-0.4c0,0,0.9-1.838,1.085-3.242c-0.972-1.717-2.503-3.217-3.659-3.842c0,1.094-0.656,3.281-0.656,3.281
				s0.406-2.594,0.219-3.375c-1.094-0.719-2.344-0.813-3.25,0.406s0.66,2.387,1.156,3.543s0.888,2.039,0.888,2.039l2.331-1.301
				l-2.084,1.854l0.928,2.24l3.281-0.938c0,0-1.645,1.211-2.76,1.574C121.344,65.719,122.372,63.816,122.372,63.816z"/>
			<path opacity="0.8" fill="#FFFFFF" d="M111.606,49.729c0.273-2.73-1.482-7.14-3.901-6.515c-0.351,0.091-0.643,0.23-0.907,0.395
				c0.463,0.8,0.714,1.543,0.714,1.543s-0.591-0.589-1.252-1.129c-0.382,0.387-0.647,0.875-0.85,1.423
				c0.541,0.417,0.877,0.829,0.877,0.829c-0.268-0.178-0.669-0.313-1.016-0.406c-0.271,0.9-2.21,7.918-2.21,7.918
				s1.833,1.755,2.815,4.222c-1.203-1.318-3.283-3.208-3.283-3.208s-0.609,0.82-1.303,2.075c0.594,1.218,1.78,3.491,2.85,4.562
				c0,0-2.222-1.442-3.51-3.268c-0.104,0.223-0.202,0.459-0.301,0.694c0.039,0.473,0.213,1.193,0.842,2.011
				c1.094,1.422,2.234,2.094,2.234,2.094s-1.998-0.851-3.218-2.445c0.599,1.771,3.37,3.046,3.37,3.046
				c3.891,0.966,6.409-1.162,6.409-1.162s-2.6-0.045-5.228-1.014c2.497,0.39,5.462-0.273,5.462-0.273
				c0.615-1.475,0.945-3.39,1.125-5.301l-1.71-0.473l1.764-0.165c0.481-1.329,0.746-2.939,0.746-4.157
				c-1.529-0.143-4.577-1.18-4.577-1.18S110.397,50.08,111.606,49.729z"/>
			<path opacity="0.8" fill="#FFFFFF" d="M111.331,38.078c0,0,0.441-2.96,2.96-3.049c-2.136,0.447-2.283,3.727-2.283,3.727
				L111.331,38.078z"/>
			<path opacity="0.8" fill="#FFFFFF" d="M111.331,38.078c0.942-3.566-0.666-5.303-4.824-5.222c-0.065,1.1-0.236,2.556-0.523,2.924
				c0.023-1.104-0.121-2.14-0.265-2.887c-0.078,0.005-0.149,0.006-0.229,0.013c-0.231,0.019-0.451,0.051-0.672,0.084l0.194,1.465
				l-0.632-1.391c-0.88,0.171-1.659,0.455-2.331,0.807c0.518,0.528,1.222,1.368,1.681,2.439c-0.711-1.021-1.778-1.707-2.362-2.033
				c-1.993,1.352-2.625,3.379-1.172,4.685c0.213,0.192,0.435,0.341,0.661,0.468c0.812-2.123,1.813-2.854,1.813-2.854
				c-0.859,1.38-1.222,2.426-1.379,3.063c1.821,0.717,3.971-0.138,5.968,0.177c1.614-1.423,2.57-2.974,2.57-2.974l0.442,0.177
				c0,0-1.024,1.725-2.192,2.989c2.528,0.757,3.931-1.25,3.931-1.25S111.596,38.343,111.331,38.078z"/>
			<path opacity="0.8" fill="#FFFFFF" d="M30.906,57.963c-0.462-0.621-1.149-0.876-1.935-0.854c-0.399,0.885-0.924,2.161-1.291,3.506
				c-0.042-1.34,0.151-2.508,0.363-3.368c-1.177,0.311-2.456,1.108-3.5,2.175c-0.791,0.808-1.413,1.654-1.796,2.486
				c0.632,1.448,1.442,2.331,1.442,2.331c-0.858-0.565-1.414-1.058-1.76-1.425c-0.25,1.026-0.081,2,0.659,2.817
				c1.352,1.491,3.84,1.215,5.74-1.524c0.121-0.175,0.234-0.334,0.351-0.501c-0.999-0.456-2.246-1.006-3.002-1.266
				c0,0,1.805,0.389,3.257,0.903c0.676-0.961,1.254-1.789,1.601-2.539c-0.907,0.028-2.438,0.159-4.063,0.664
				c0,0,1.711-1.186,4.361-1.543C31.464,59.176,31.358,58.571,30.906,57.963z"/>
			<path opacity="0.8" fill="#FFFFFF" d="M33.226,42.689c-0.058-0.274-0.176-0.542-0.375-0.811c-0.993-1.334-3.362-0.69-5.6,0.732
				l1.225,3.112l-2.024-2.565c-0.664,0.484-1.301,1.024-1.865,1.593c-0.377,0.38-0.716,0.74-1.033,1.085
				c0.422,0.498,1.033,1.256,1.033,1.256l-1.346-0.909c-1.681,1.877-2.454,3.118-2.454,3.118s0.795,2.302,2.386,3.535
				c-0.354,0.265-0.354,0.265-0.354,0.265s-1.201-2.328-3.406-1.429c1.815,0.722,3.06,1.997,3.06,1.997
				c1.803,0.968,2.836,0.654,4.832-1.793l-2.408-1.912l0.486-0.442l2.354,1.811c0.335-0.432,0.697-0.915,1.092-1.458
				c2.244-3.077,4.084-4.896,4.39-6.39c-0.374-0.099-0.862-0.241-1.341-0.415C32.423,42.884,32.891,42.764,33.226,42.689z"/>
		</g>

		<g id="Layer_4">
			<g>
				<path fill="#FFFFFF" d="M120.175,58.471c0.874,1.888,1.558,3.859,2.09,5.875c0.505,2.011,0.956,4.104,0.666,6.21l-0.194,0.004
					c-0.399-2.037-0.694-4.042-1.132-6.058c-0.432-2.011-0.93-4.013-1.459-6.021L120.175,58.471z"/>
				<path opacity="0.8" fill="#FFFFFF" d="M122.48,67.094c0,0,1.399-0.426,2.109-2.47c-0.734,0.73-2.233,1.769-2.233,1.769
					l-0.094-0.486c0,0,1.597-1.28,2.361-2.472c-0.149-1.967-0.896-3.977-1.677-5.034c-0.465,0.99-1.99,2.69-1.99,2.69
					s1.471-2.174,1.634-2.96c-0.685-1.116-1.775-1.733-3.114-1.016c-1.339,0.717-0.418,2.44-0.462,3.698
					c-0.043,1.258-0.064,2.223-0.064,2.223l2.663-0.185l-2.675,0.79l-0.113,2.422l3.368,0.548c0,0-2.004,0.396-3.167,0.25
					C120.74,68.379,122.48,67.094,122.48,67.094z"/>
			</g>
			<g>
				<path fill="#FFFFFF" d="M109.289,50.092c-0.186,1.989-0.58,3.96-1.102,5.896c-0.529,1.935-1.204,3.835-2.03,5.677
					c-0.843,1.832-1.807,3.63-3.031,5.261c-1.233,1.613-2.742,3.072-4.554,4.015L98.461,70.8c1.297-1.537,2.462-3.068,3.543-4.68
					c1.091-1.599,2.095-3.27,2.961-5.023c0.88-1.745,1.66-3.551,2.373-5.389C108.05,53.869,108.715,52.002,109.289,50.092z"/>
				<path opacity="0.8" fill="#FFFFFF" d="M112.355,53.879c0.63-2.671-0.529-7.273-3.009-6.973c-0.36,0.044-0.668,0.144-0.951,0.271
					c0.354,0.854,0.505,1.624,0.505,1.624s-0.508-0.662-1.093-1.284c-0.429,0.333-0.756,0.782-1.029,1.299
					c0.481,0.483,0.76,0.937,0.76,0.937c-0.241-0.212-0.622-0.398-0.954-0.536c-0.387,0.857-3.234,7.559-3.234,7.559
					s1.586,1.981,2.234,4.556c-1.02-1.464-2.832-3.612-2.832-3.612s-0.712,0.733-1.565,1.885c0.428,1.286,1.305,3.696,2.224,4.897
					c0,0-2.012-1.723-3.049-3.702c-0.131,0.208-0.261,0.429-0.389,0.649c-0.023,0.474,0.054,1.211,0.57,2.104
					c0.897,1.554,1.939,2.37,1.939,2.37s-1.868-1.106-2.868-2.847c0.36,1.835,2.939,3.464,2.939,3.464
					c3.729,1.471,6.506-0.307,6.506-0.307s-2.571-0.387-5.048-1.694c2.423,0.715,5.451,0.448,5.451,0.448
					c0.803-1.381,1.383-3.236,1.813-5.106l-1.634-0.694l1.771,0.069c0.652-1.254,1.126-2.815,1.287-4.022
					c-1.497-0.343-4.381-1.772-4.381-1.772S111.11,54.067,112.355,53.879z"/>
			</g>
			<g>
				<path fill="#FFFFFF" d="M104.737,38.58c1.247-0.669,2.65-1.081,4.094-1.134c1.441-0.071,2.943,0.306,4.148,1.179
					c1.201,0.833,2.134,2.031,2.733,3.341c0.616,1.305,0.94,2.734,0.951,4.156l-0.065,0.006c-0.317-1.37-0.795-2.681-1.414-3.9
					c-0.643-1.204-1.46-2.318-2.561-3.118c-1.076-0.791-2.423-1.19-3.789-1.22c-1.369-0.017-2.761,0.251-4.064,0.757L104.737,38.58z"/>
				<path opacity="0.8" fill="#FFFFFF" d="M114.286,40.401c0,0,0.68-2.915,3.198-2.799c-2.165,0.273-2.577,3.53-2.577,3.53
					L114.286,40.401z"/>
				<path opacity="0.8" fill="#FFFFFF" d="M114.286,40.401c1.228-3.478-0.234-5.34-4.386-5.595c-0.154,1.091-0.442,2.529-0.758,2.872
					c0.112-1.098,0.053-2.143-0.031-2.899c-0.078-0.001-0.149-0.006-0.229-0.006c-0.232,0-0.454,0.015-0.677,0.029l0.075,1.476
					l-0.517-1.437c-0.891,0.099-1.69,0.319-2.389,0.615c0.474,0.568,1.107,1.462,1.478,2.567c-0.626-1.075-1.634-1.845-2.19-2.218
					c-2.096,1.186-2.889,3.155-1.548,4.575c0.197,0.208,0.406,0.375,0.621,0.521c0.981-2.05,2.039-2.699,2.039-2.699
					c-0.968,1.306-1.414,2.319-1.623,2.941c1.757,0.862,3.969,0.184,5.934,0.66c1.724-1.288,2.803-2.756,2.803-2.756l0.426,0.212
					c0,0-1.161,1.636-2.427,2.801c2.459,0.959,4.019-0.928,4.019-0.928S114.529,40.687,114.286,40.401z"/>
			</g>
			<g>
				<path fill="#FFFFFF" d="M30.392,63.905c-1.237,1.507-2.511,2.951-3.745,4.428c-1.242,1.472-2.445,2.956-3.622,4.5l-0.127-0.074
					c0.787-1.799,1.96-3.395,3.226-4.873c0.643-0.732,1.307-1.447,2.021-2.11c0.708-0.668,1.438-1.315,2.232-1.886L30.392,63.905z"/>
				<path opacity="0.8" fill="#FFFFFF" d="M33.156,61.713c-0.462-0.621-1.149-0.876-1.935-0.854c-0.399,0.885-0.924,2.161-1.291,3.506
					c-0.042-1.34,0.151-2.508,0.363-3.368c-1.177,0.311-2.456,1.108-3.5,2.175c-0.791,0.808-1.413,1.654-1.796,2.486
					c0.632,1.448,1.442,2.331,1.442,2.331c-0.858-0.565-1.414-1.058-1.76-1.425c-0.25,1.026-0.081,2,0.659,2.817
					c1.352,1.491,3.84,1.215,5.74-1.524c0.121-0.175,0.234-0.334,0.351-0.501c-0.999-0.456-2.246-1.006-3.002-1.266
					c0,0,1.805,0.389,3.257,0.903c0.676-0.961,1.254-1.789,1.601-2.539c-0.907,0.028-2.438,0.159-4.063,0.664
					c0,0,1.711-1.186,4.361-1.543C33.714,62.926,33.608,62.321,33.156,61.713z"/>
			</g>
			<g>
				<path fill="#FFFFFF" d="M24.235,47.507c-1.261,2.794-2.473,5.578-3.561,8.406c-1.077,2.837-2.014,5.683-2.905,8.63
					c-0.009-3.103,0.874-6.133,2.025-8.977c1.167-2.849,2.606-5.588,4.424-8.069L24.235,47.507z"/>
				<path opacity="0.8" fill="#FFFFFF" d="M26.397,46.12c-0.128-0.249-0.312-0.477-0.575-0.684c-1.309-1.026-3.425,0.217-5.21,2.178
					l2,2.681l-2.626-1.943c-0.514,0.642-0.987,1.33-1.381,2.027c-0.264,0.466-0.496,0.902-0.711,1.318
					c0.538,0.37,1.327,0.941,1.327,0.941l-1.538-0.523c-1.129,2.252-1.549,3.653-1.549,3.653s1.373,2.012,3.231,2.784
					c-0.271,0.349-0.271,0.349-0.271,0.349s-1.771-1.931-3.662-0.484c1.941,0.22,3.477,1.123,3.477,1.123
					c1.994,0.46,2.908-0.114,4.191-2.999l-2.826-1.212l0.353-0.554l2.747,1.129c0.21-0.505,0.432-1.066,0.671-1.694
					c1.356-3.558,2.654-5.797,2.557-7.319c-0.386,0.002-0.895-0.006-1.403-0.048C25.675,46.519,26.094,46.28,26.397,46.12z"/>
			</g>
		</g>

		<g id="Layer_5">
			<g>
				<path fill="#FFFFFF" d="M122.776,61.905c0.662,1.972,1.127,4.007,1.436,6.068c0.283,2.054,0.502,4.183-0.016,6.245l-0.193-0.017
					c-0.174-2.069-0.249-4.094-0.464-6.145c-0.209-2.046-0.485-4.091-0.793-6.144L122.776,61.905z"/>
				<path opacity="0.8" fill="#FFFFFF" d="M124.125,70.729c0,0,1.437-0.271,2.366-2.225c-0.809,0.646-2.413,1.514-2.413,1.514
					l-0.04-0.493c0,0,1.727-1.099,2.617-2.2c0.067-1.972-0.457-4.051-1.117-5.187c-0.571,0.933-2.271,2.457-2.271,2.457
					s1.7-2,1.948-2.764c-0.559-1.185-1.576-1.917-2.985-1.35c-1.409,0.566-0.683,2.38-0.863,3.625c-0.18,1.246-0.307,2.203-0.307,2.203
					l2.667,0.106l-2.746,0.493l-0.376,2.396l3.288,0.913c0,0-2.035,0.175-3.176-0.097C122.256,71.816,124.125,70.729,124.125,70.729z"/>
			</g>
			<g>
				<path fill="#FFFFFF" d="M111.276,54.631c-0.45,1.947-1.103,3.847-1.878,5.696c-0.782,1.847-1.704,3.64-2.769,5.356
					c-1.08,1.703-2.275,3.356-3.706,4.809c-1.437,1.434-3.127,2.679-5.049,3.371l-0.092-0.154c1.49-1.35,2.849-2.712,4.135-4.165
					c1.294-1.439,2.513-2.961,3.605-4.583c1.105-1.612,2.118-3.298,3.07-5.024C109.544,58.209,110.453,56.448,111.276,54.631z"/>
				<path opacity="0.8" fill="#FFFFFF" d="M113.81,58.794c0.981-2.563,0.446-7.279-2.051-7.312c-0.363-0.004-0.681,0.054-0.979,0.142
					c0.237,0.894,0.284,1.677,0.284,1.677s-0.416-0.724-0.912-1.418c-0.47,0.273-0.854,0.674-1.193,1.15
					c0.412,0.543,0.628,1.03,0.628,1.03c-0.211-0.242-0.563-0.478-0.874-0.659c-0.498,0.798-4.214,7.06-4.214,7.06
					s1.308,2.175,1.606,4.813c-0.815-1.587-2.325-3.958-2.325-3.958s-0.803,0.631-1.803,1.66c0.253,1.331,0.8,3.837,1.551,5.15
					c0,0-1.764-1.976-2.528-4.075c-0.158,0.188-0.316,0.39-0.473,0.591c-0.086,0.466-0.107,1.208,0.284,2.161
					c0.682,1.66,1.605,2.607,1.605,2.607s-1.704-1.345-2.462-3.204c0.112,1.866,2.451,3.825,2.451,3.825
					c3.5,1.956,6.489,0.564,6.489,0.564s-2.497-0.727-4.777-2.353c2.306,1.032,5.342,1.172,5.342,1.172
					c0.98-1.262,1.803-3.022,2.479-4.819l-1.526-0.905l1.746,0.304c0.813-1.156,1.492-2.64,1.812-3.814
					c-1.438-0.54-4.105-2.341-4.105-2.341S112.551,58.814,113.81,58.794z"/>
			</g>
			<g>
				<path fill="#FFFFFF" d="M107.837,43.038c1.387-0.281,2.849-0.27,4.247,0.097c1.4,0.348,2.73,1.143,3.631,2.327
					c0.909,1.145,1.457,2.561,1.652,3.988c0.213,1.428,0.111,2.89-0.291,4.253l-0.063-0.014c0.091-1.403,0.013-2.796-0.228-4.143
					c-0.267-1.338-0.729-2.641-1.551-3.724c-0.802-1.068-1.976-1.84-3.275-2.263c-1.305-0.411-2.715-0.557-4.11-0.449L107.837,43.038z"/>
				<path opacity="0.8" fill="#FFFFFF" d="M116.454,47.539c0,0,1.493-2.595,3.87-1.756c-2.152-0.364-3.487,2.635-3.487,2.635
					L116.454,47.539z"/>
				<path opacity="0.8" fill="#FFFFFF" d="M116.454,47.539c2.18-2.975,1.318-5.18-2.583-6.623c-0.462,1-1.153,2.293-1.555,2.53
					c0.424-1.019,0.669-2.036,0.808-2.784c-0.074-0.023-0.142-0.049-0.217-0.072c-0.222-0.067-0.439-0.117-0.656-0.167l-0.354,1.434
					l-0.08-1.525c-0.881-0.162-1.71-0.183-2.465-0.101c0.29,0.68,0.638,1.72,0.674,2.885c-0.289-1.21-1.032-2.239-1.456-2.756
					c-2.349,0.53-3.677,2.187-2.803,3.933c0.128,0.257,0.28,0.477,0.444,0.678c1.532-1.68,2.731-1.995,2.731-1.995
					c-1.304,0.971-2.023,1.812-2.402,2.347c1.434,1.333,3.746,1.322,5.49,2.345c2.022-0.735,3.479-1.83,3.479-1.83l0.347,0.326
					c0,0-1.583,1.231-3.133,1.981c2.077,1.628,4.116,0.272,4.116,0.272S116.604,47.883,116.454,47.539z"/>
			</g>
			<g>
				<path fill="#FFFFFF" d="M31.84,69.48c-1.237,1.507-2.511,2.951-3.745,4.428c-1.242,1.472-2.445,2.956-3.622,4.5l-0.127-0.074
					c0.787-1.799,1.96-3.395,3.226-4.873c0.643-0.732,1.307-1.447,2.021-2.11c0.708-0.668,1.438-1.315,2.232-1.886L31.84,69.48z"/>
				<path opacity="0.8" fill="#FFFFFF" d="M34.604,67.288c-0.462-0.621-1.149-0.876-1.935-0.854c-0.399,0.885-0.924,2.161-1.291,3.506
					c-0.042-1.34,0.151-2.508,0.363-3.368c-1.177,0.311-2.456,1.108-3.5,2.175c-0.791,0.808-1.413,1.654-1.796,2.486
					c0.632,1.448,1.442,2.331,1.442,2.331c-0.858-0.565-1.414-1.058-1.76-1.425c-0.25,1.026-0.081,2,0.659,2.817
					c1.352,1.491,3.84,1.215,5.74-1.524c0.121-0.175,0.234-0.334,0.351-0.501c-0.999-0.456-2.246-1.006-3.002-1.266
					c0,0,1.805,0.389,3.257,0.903c0.676-0.961,1.254-1.789,1.601-2.539c-0.907,0.028-2.438,0.159-4.063,0.664
					c0,0,1.711-1.186,4.361-1.543C35.162,68.501,35.057,67.896,34.604,67.288z"/>
			</g>
			<g>
				<path fill="#FFFFFF" d="M19.066,51c-0.428,3.036-0.811,6.048-1.063,9.067c-0.239,3.025-0.341,6.019-0.371,9.099
					c-0.878-2.976-0.879-6.133-0.571-9.185c0.322-3.062,0.937-6.095,1.986-8.985L19.066,51z"/>
				<path opacity="0.8" fill="#FFFFFF" d="M20.753,49.063c-0.192-0.203-0.433-0.37-0.744-0.495c-1.543-0.618-3.227,1.168-4.392,3.551
					l2.67,2.013l-3.065-1.129c-0.313,0.76-0.575,1.553-0.758,2.333c-0.123,0.521-0.224,1.004-0.313,1.465
					c0.62,0.204,1.538,0.531,1.538,0.531l-1.623-0.071c-0.453,2.479-0.463,3.941-0.463,3.941s1.881,1.547,3.882,1.768
					c-0.163,0.411-0.163,0.411-0.163,0.411s-2.241-1.357-3.651,0.562c1.925-0.333,3.652,0.104,3.652,0.104
					c2.043-0.117,2.759-0.924,3.183-4.053l-3.053-0.372l0.184-0.631l2.954,0.314c0.061-0.543,0.116-1.144,0.169-1.814
					c0.305-3.795,0.924-6.309,0.404-7.742c-0.37,0.11-0.861,0.245-1.36,0.347C20.171,49.647,20.507,49.301,20.753,49.063z"/>
			</g>
		</g>

		<g id="Layer_6">
			<g>
				<path fill="#FFFFFF" d="M125.389,66.078c-0.157,2.074-0.52,4.129-1.037,6.149c-0.538,2.002-1.164,4.049-2.443,5.748l-0.172-0.091
					c0.644-1.974,1.363-3.868,1.962-5.842c0.603-1.966,1.144-3.958,1.659-5.969L125.389,66.078z"/>
				<path opacity="0.8" fill="#FFFFFF" d="M123.201,74.731c0,0,1.429,0.31,3.045-1.13c-0.997,0.28-2.812,0.457-2.812,0.457l0.155-0.47
					c0,0,2.018-0.341,3.266-1.009c0.828-1.791,1.155-3.91,0.988-5.213c-0.889,0.638-3.048,1.38-3.048,1.38s2.344-1.182,2.869-1.789
					c-0.054-1.309-0.706-2.379-2.225-2.404c-1.519-0.026-1.554,1.927-2.205,3.004s-1.139,1.91-1.139,1.91l2.416,1.135l-2.721-0.613
					l-1.278,2.061l2.674,2.12c0,0-1.943-0.63-2.888-1.325C121.055,75.006,123.201,74.731,123.201,74.731z"/>
			</g>
			<g>
				<path fill="#FFFFFF" d="M117.339,63.188c-1.057,1.696-2.291,3.282-3.624,4.779c-1.339,1.494-2.792,2.891-4.356,4.169
					c-1.573,1.261-3.24,2.438-5.065,3.348c-1.824,0.89-3.826,1.52-5.869,1.552l-0.037-0.176c1.847-0.794,3.574-1.642,5.263-2.599
					c1.691-0.942,3.336-1.987,4.896-3.167c1.568-1.167,3.073-2.433,4.534-3.757C114.541,66.011,115.971,64.64,117.339,63.188z"/>
				<path opacity="0.8" fill="#FFFFFF" d="M118.386,67.947c1.76-2.107,2.782-6.741,0.43-7.582c-0.342-0.122-0.662-0.17-0.972-0.183
					c-0.066,0.922-0.275,1.678-0.275,1.678s-0.158-0.819-0.402-1.638c-0.533,0.106-1.026,0.361-1.502,0.701
					c0.214,0.647,0.261,1.178,0.261,1.178c-0.121-0.297-0.378-0.635-0.613-0.906c-0.729,0.594-6.275,5.312-6.275,5.312
					s0.532,2.481-0.041,5.074c-0.256-1.766-0.916-4.498-0.916-4.498s-0.965,0.337-2.244,0.985c-0.192,1.341-0.487,3.889-0.203,5.375
					c0,0-1.028-2.44-1.07-4.674c-0.21,0.126-0.425,0.266-0.639,0.406c-0.233,0.413-0.493,1.107-0.432,2.136
					c0.106,1.791,0.673,2.987,0.673,2.987s-1.176-1.825-1.29-3.83c-0.499,1.802,1.078,4.413,1.078,4.413
					c2.677,2.984,5.956,2.637,5.956,2.637s-2.126-1.498-3.757-3.774c1.847,1.724,4.674,2.84,4.674,2.84
					c1.337-0.876,2.686-2.274,3.907-3.755l-1.15-1.351l1.553,0.854c1.144-0.83,2.267-2.013,2.951-3.021
					c-1.186-0.977-3.125-3.546-3.125-3.546S117.189,67.558,118.386,67.947z"/>
			</g>
			<g>
				<path fill="#FFFFFF" d="M111.844,47.332c1.411-0.102,2.86,0.094,4.2,0.636c1.345,0.523,2.563,1.48,3.306,2.77
					c0.756,1.251,1.119,2.725,1.132,4.166c0.03,1.443-0.257,2.88-0.828,4.182l-0.062-0.021c0.269-1.38,0.368-2.771,0.301-4.138
					c-0.095-1.361-0.387-2.712-1.065-3.891c-0.66-1.161-1.727-2.076-2.961-2.661c-1.242-0.574-2.623-0.897-4.02-0.967L111.844,47.332z"/>
				<path opacity="0.8" fill="#FFFFFF" d="M119.818,52.892c0,0,1.81-2.384,4.062-1.25c-2.088-0.634-3.793,2.171-3.793,2.171
					L119.818,52.892z"/>
				<path opacity="0.8" fill="#FFFFFF" d="M119.818,52.892c2.541-2.674,1.965-4.97-1.721-6.897c-0.585,0.933-1.435,2.128-1.863,2.312
					c0.55-0.957,0.922-1.935,1.155-2.659c-0.071-0.033-0.134-0.066-0.207-0.099c-0.211-0.095-0.42-0.172-0.63-0.25l-0.534,1.377
					l0.114-1.523c-0.854-0.272-1.673-0.398-2.432-0.413c0.201,0.711,0.414,1.787,0.302,2.947c-0.133-1.237-0.739-2.352-1.094-2.918
					c-2.397,0.228-3.925,1.702-3.28,3.544c0.095,0.271,0.217,0.509,0.354,0.729c1.733-1.472,2.962-1.632,2.962-1.632
					c-1.417,0.797-2.237,1.541-2.681,2.023c1.253,1.503,3.548,1.787,5.148,3.023c2.099-0.473,3.683-1.373,3.683-1.373l0.303,0.367
					c0,0-1.727,1.02-3.359,1.567c1.854,1.879,4.048,0.793,4.048,0.793S119.923,53.251,119.818,52.892z"/>
			</g>
			<g>
				<path fill="#FFFFFF" d="M32.226,75.757c-1.593,1.124-3.205,2.177-4.788,3.272c-1.588,1.089-3.144,2.199-4.688,3.374l-0.103-0.105
					c1.237-1.525,2.792-2.751,4.405-3.839c0.815-0.535,1.645-1.047,2.51-1.496c0.86-0.456,1.736-0.885,2.653-1.225L32.226,75.757z"/>
				<path opacity="0.8" fill="#FFFFFF" d="M35.473,74.379c-0.28-0.721-0.875-1.15-1.638-1.338c-0.62,0.747-1.465,1.837-2.177,3.036
					c0.315-1.303,0.813-2.377,1.246-3.15c-1.217-0.013-2.662,0.415-3.953,1.166c-0.977,0.568-1.802,1.219-2.393,1.919
					c0.224,1.564,0.771,2.63,0.771,2.63c-0.677-0.772-1.081-1.396-1.317-1.842c-0.514,0.923-0.61,1.907-0.114,2.891
					c0.906,1.797,3.379,2.193,5.939,0.058c0.164-0.136,0.314-0.26,0.472-0.39c-0.841-0.705-1.897-1.567-2.557-2.019
					c0,0,1.636,0.855,2.9,1.737c0.907-0.747,1.685-1.391,2.218-2.021c-0.881-0.214-2.392-0.495-4.093-0.441
					c0,0,1.964-0.688,4.614-0.328C35.688,75.697,35.748,75.086,35.473,74.379z"/>
			</g>
			<g>
				<path fill="#FFFFFF" d="M15.34,57.765c0.263,3.055,0.563,6.076,0.993,9.075c0.444,3.001,1.015,5.943,1.675,8.951
					c-1.521-2.705-2.229-5.78-2.611-8.824c-0.371-3.056-0.451-6.15-0.075-9.202L15.34,57.765z"/>
				<path opacity="0.8" fill="#FFFFFF" d="M16.551,55.499c-0.233-0.155-0.505-0.264-0.835-0.316c-1.643-0.257-2.884,1.861-3.486,4.443
					l3.053,1.364l-3.241-0.415c-0.135,0.811-0.212,1.643-0.216,2.443c-0.003,0.535,0.007,1.029,0.022,1.498
					c0.65,0.06,1.618,0.174,1.618,0.174l-1.598,0.293c0.114,2.517,0.43,3.945,0.43,3.945s2.18,1.087,4.18,0.854
					C16.41,70.22,16.41,70.22,16.41,70.22s-2.487-0.822-3.433,1.364c1.802-0.755,3.583-0.716,3.583-0.716
					c1.965-0.571,2.483-1.518,2.195-4.663l-3.059,0.32l0.038-0.656l2.949-0.355c-0.063-0.543-0.143-1.141-0.241-1.806
					c-0.552-3.767-0.511-6.355-1.338-7.636c-0.336,0.19-0.784,0.432-1.249,0.643C16.114,56.2,16.364,55.787,16.551,55.499z"/>
			</g>
		</g>

		<g id="Layer_7">
			<g>
				<path fill="#FFFFFF" d="M126.893,72.782c-0.64,1.979-1.477,3.892-2.453,5.733c-0.994,1.82-2.084,3.662-3.726,5.013l-0.146-0.129
					c1.089-1.767,2.234-3.439,3.281-5.217c1.047-1.77,2.042-3.578,3.015-5.412L126.893,72.782z"/>
				<path opacity="0.8" fill="#FFFFFF" d="M122.731,80.679c0,0,1.316,0.637,3.226-0.382c-1.035,0.039-2.84-0.217-2.84-0.217l0.261-0.42
					c0,0,2.042,0.143,3.412-0.213c1.226-1.545,2.042-3.529,2.186-4.834c-1.014,0.411-3.287,0.625-3.287,0.625s2.556-0.598,3.209-1.064
					c0.255-1.285-0.127-2.479-1.598-2.86c-1.47-0.382-1.963,1.508-2.849,2.402c-0.886,0.894-1.557,1.589-1.557,1.589l2.082,1.671
					l-2.5-1.235l-1.727,1.702l2.101,2.689c0,0-1.74-1.069-2.496-1.966C120.582,80.441,122.731,80.679,122.731,80.679z"/>
			</g>
			<g>
				<path fill="#FFFFFF" d="M117.201,66.776c-1.057,1.696-2.291,3.282-3.624,4.779c-1.338,1.494-2.792,2.891-4.355,4.169
					c-1.573,1.261-3.24,2.438-5.065,3.348c-1.824,0.891-3.826,1.521-5.869,1.552l-0.037-0.176c1.847-0.794,3.574-1.642,5.263-2.599
					c1.691-0.942,3.336-1.987,4.896-3.167c1.568-1.167,3.073-2.433,4.534-3.757C114.403,69.599,115.833,68.228,117.201,66.776z"/>
				<path opacity="0.8" fill="#FFFFFF" d="M118.248,71.535c1.76-2.107,2.782-6.741,0.43-7.582c-0.342-0.122-0.662-0.17-0.972-0.183
					c-0.066,0.922-0.275,1.678-0.275,1.678s-0.158-0.819-0.402-1.638c-0.533,0.106-1.026,0.361-1.502,0.701
					c0.214,0.647,0.261,1.178,0.261,1.178c-0.121-0.297-0.378-0.635-0.613-0.906c-0.729,0.594-6.275,5.312-6.275,5.312
					s0.532,2.481-0.041,5.074c-0.256-1.766-0.916-4.498-0.916-4.498s-0.965,0.337-2.244,0.985c-0.192,1.341-0.487,3.889-0.203,5.375
					c0,0-1.028-2.44-1.07-4.674c-0.21,0.126-0.425,0.266-0.639,0.406c-0.233,0.413-0.493,1.107-0.432,2.136
					c0.106,1.791,0.673,2.987,0.673,2.987s-1.176-1.825-1.29-3.83c-0.499,1.802,1.078,4.413,1.078,4.413
					c2.677,2.984,5.956,2.637,5.956,2.637s-2.126-1.498-3.757-3.774c1.847,1.724,4.674,2.84,4.674,2.84
					c1.337-0.876,2.686-2.274,3.907-3.755l-1.15-1.351L115,75.92c1.144-0.83,2.267-2.013,2.951-3.021
					c-1.186-0.977-3.125-3.546-3.125-3.546S117.051,71.146,118.248,71.535z"/>
			</g>
			<g>
				<path fill="#FFFFFF" d="M114.657,52.28c1.298,0.564,2.491,1.41,3.427,2.511c0.949,1.086,1.584,2.5,1.645,3.986
					c0.09,1.459-0.271,2.934-0.928,4.215c-0.643,1.293-1.563,2.433-2.673,3.322l-0.045-0.048c0.878-1.098,1.611-2.285,2.186-3.527
					c0.547-1.25,0.915-2.582,0.86-3.941c-0.046-1.335-0.567-2.64-1.39-3.73c-0.834-1.084-1.907-2.011-3.112-2.721L114.657,52.28z"/>
				<path opacity="0.8" fill="#FFFFFF" d="M119.145,60.904c0,0,2.709-1.273,4.179,0.775c-1.556-1.53-4.368,0.165-4.368,0.165
					L119.145,60.904z"/>
				<path opacity="0.8" fill="#FFFFFF" d="M119.145,60.904c3.491-1.191,4.045-3.493,1.673-6.909c-0.951,0.555-2.258,1.22-2.723,1.185
					c0.931-0.593,1.713-1.287,2.256-1.82c-0.047-0.063-0.088-0.121-0.137-0.184c-0.143-0.183-0.293-0.347-0.442-0.513l-1.112,0.973
					l0.808-1.296c-0.63-0.637-1.298-1.129-1.963-1.494c-0.152,0.724-0.462,1.775-1.099,2.751c0.456-1.157,0.436-2.426,0.384-3.093
					c-2.23-0.91-4.267-0.313-4.55,1.619c-0.042,0.285-0.043,0.552-0.024,0.811c2.218-0.501,3.381-0.073,3.381-0.073
					c-1.625,0.05-2.696,0.328-3.313,0.55c0.413,1.913,2.314,3.229,3.159,5.066c2.079,0.554,3.899,0.492,3.899,0.492l0.099,0.466
					c0,0-2.003,0.103-3.703-0.169c0.771,2.524,3.219,2.58,3.219,2.58S119.071,61.271,119.145,60.904z"/>
			</g>
			<g>
				<path fill="#FFFFFF" d="M31.95,82.105c-1.593,1.124-3.205,2.176-4.788,3.272c-1.588,1.089-3.144,2.199-4.688,3.374l-0.103-0.105
					c1.237-1.525,2.792-2.752,4.405-3.839c0.815-0.536,1.645-1.047,2.51-1.497c0.86-0.456,1.736-0.885,2.653-1.225L31.95,82.105z"/>
				<path opacity="0.8" fill="#FFFFFF" d="M35.197,80.727c-0.28-0.721-0.875-1.15-1.638-1.338c-0.62,0.747-1.465,1.837-2.177,3.036
					c0.315-1.303,0.813-2.377,1.246-3.15c-1.217-0.013-2.662,0.415-3.953,1.166c-0.977,0.568-1.802,1.219-2.393,1.919
					c0.224,1.564,0.771,2.63,0.771,2.63c-0.677-0.772-1.081-1.396-1.317-1.842c-0.514,0.923-0.61,1.907-0.114,2.891
					c0.906,1.797,3.379,2.192,5.939,0.058c0.164-0.137,0.314-0.26,0.472-0.39c-0.841-0.705-1.897-1.567-2.557-2.019
					c0,0,1.636,0.855,2.9,1.737c0.907-0.747,1.685-1.391,2.218-2.021c-0.881-0.214-2.392-0.495-4.093-0.441
					c0,0,1.964-0.688,4.614-0.328C35.413,82.045,35.472,81.434,35.197,80.727z"/>
			</g>
			<g>
				<path fill="#FFFFFF" d="M13.618,62.499c0.558,3.015,1.149,5.993,1.868,8.936c0.733,2.944,1.585,5.816,2.534,8.746
					c-1.776-2.544-2.779-5.537-3.455-8.529C13.9,68.646,13.521,65.574,13.6,62.5L13.618,62.499z"/>
				<path opacity="0.8" fill="#FFFFFF" d="M14.604,60.126c-0.247-0.131-0.528-0.213-0.862-0.233c-1.66-0.097-2.69,2.132-3.039,4.761
					l3.171,1.062l-3.266-0.099c-0.056,0.82-0.052,1.655,0.021,2.453c0.049,0.533,0.106,1.024,0.167,1.489
					c0.653-0.003,1.627,0.017,1.627,0.017l-1.562,0.447c0.357,2.494,0.811,3.884,0.811,3.884s2.275,0.871,4.243,0.444
					c-0.024,0.441-0.024,0.441-0.024,0.441s-2.556-0.577-3.284,1.691c1.72-0.927,3.497-1.061,3.497-1.061
					c1.9-0.759,2.324-1.751,1.733-4.853l-3.013,0.615l-0.026-0.656l2.9-0.64c-0.115-0.535-0.252-1.122-0.415-1.774
					c-0.914-3.696-1.125-6.276-2.072-7.47c-0.316,0.222-0.739,0.506-1.18,0.761C14.237,60.866,14.445,60.431,14.604,60.126z"/>
			</g>
		</g>

		<g id="Layer_8">
			<g opacity="0.75">
				<path fill="#FFFFFF" d="M127.754,76.581c-0.94,1.855-2.063,3.615-3.314,5.282c-1.264,1.644-2.627,3.293-4.459,4.373l-0.123-0.15
					c1.351-1.576,2.741-3.05,4.051-4.643c1.31-1.585,2.573-3.217,3.818-4.877L127.754,76.581z"/>
				<path opacity="0.8" fill="#FFFFFF" d="M122.417,83.735c0,0,1.202,0.834,3.246,0.124c-1.028-0.123-2.772-0.656-2.772-0.656
					l0.323-0.375c0,0,1.994,0.458,3.403,0.319c1.451-1.336,2.565-3.169,2.91-4.437c-1.065,0.249-3.344,0.107-3.344,0.107
					s2.618-0.194,3.335-0.553c0.452-1.229,0.26-2.468-1.134-3.074c-1.393-0.606-2.174,1.185-3.188,1.931s-1.784,1.328-1.784,1.328
					l1.796,1.974l-2.278-1.608l-1.97,1.413l1.658,2.982c0,0-1.553-1.326-2.16-2.33C120.33,83.167,122.417,83.735,122.417,83.735z"/>
			</g>
			<g opacity="0.75">
				<path fill="#FFFFFF" d="M117.942,70.718c-1.14,1.641-2.453,3.163-3.859,4.591c-1.412,1.425-2.934,2.748-4.559,3.946
					c-1.635,1.18-3.358,2.271-5.226,3.089c-1.867,0.798-3.898,1.327-5.939,1.256l-0.028-0.177c1.885-0.701,3.652-1.461,5.386-2.333
					c1.736-0.856,3.432-1.817,5.048-2.917c1.625-1.087,3.191-2.276,4.716-3.525C115.005,73.397,116.502,72.1,117.942,70.718z"/>
				<path opacity="0.8" fill="#FFFFFF" d="M118.749,75.523c1.863-2.016,3.116-6.593,0.81-7.551c-0.335-0.139-0.652-0.203-0.961-0.231
					c-0.112,0.917-0.359,1.663-0.359,1.663s-0.117-0.826-0.32-1.656c-0.537,0.079-1.043,0.309-1.535,0.625
					c0.181,0.657,0.202,1.189,0.202,1.189c-0.106-0.303-0.346-0.653-0.567-0.936c-0.758,0.556-6.533,4.991-6.533,4.991
					s0.407,2.505-0.295,5.065c-0.167-1.776-0.688-4.539-0.688-4.539s-0.981,0.288-2.291,0.872c-0.259,1.33-0.681,3.86-0.472,5.358
					c0,0-0.904-2.489-0.834-4.722c-0.217,0.116-0.438,0.244-0.658,0.373c-0.253,0.401-0.548,1.082-0.539,2.112
					c0.017,1.794,0.523,3.018,0.523,3.018s-1.083-1.882-1.097-3.89c-0.588,1.774,0.855,4.462,0.855,4.462
					c2.524,3.115,5.816,2.932,5.816,2.932s-2.048-1.602-3.563-3.958c1.758,1.814,4.525,3.071,4.525,3.071
					c1.379-0.808,2.796-2.137,4.09-3.555l-1.081-1.407l1.508,0.93c1.184-0.771,2.365-1.897,3.099-2.869
					c-1.135-1.035-2.943-3.698-2.943-3.698S117.572,75.075,118.749,75.523z"/>
			</g>
			<g opacity="0.75">
				<path fill="#FFFFFF" d="M116.482,56.866c1.186,0.773,2.22,1.807,2.958,3.049c0.754,1.23,1.144,2.729,0.954,4.206
					c-0.155,1.454-0.759,2.847-1.621,4c-0.85,1.167-1.949,2.137-3.191,2.827l-0.036-0.055c1.05-0.936,1.971-1.983,2.745-3.111
					c0.749-1.141,1.334-2.393,1.508-3.742c0.178-1.324-0.117-2.698-0.746-3.911c-0.641-1.209-1.544-2.302-2.613-3.204L116.482,56.866z"
					/>
				<path opacity="0.8" fill="#FFFFFF" d="M119.463,66.119c0,0,2.884-0.802,3.99,1.464c-1.278-1.769-4.333-0.569-4.333-0.569
					L119.463,66.119z"/>
				<path opacity="0.8" fill="#FFFFFF" d="M119.463,66.119c3.641-0.59,4.573-2.766,2.806-6.532c-1.031,0.388-2.431,0.825-2.882,0.712
					c1.017-0.428,1.904-0.981,2.529-1.417c-0.037-0.07-0.067-0.134-0.104-0.204c-0.111-0.204-0.231-0.391-0.351-0.58l-1.259,0.773
					l1.013-1.143c-0.514-0.733-1.091-1.33-1.686-1.801c-0.271,0.688-0.753,1.673-1.544,2.528c0.643-1.065,0.835-2.319,0.897-2.985
					c-2.046-1.271-4.155-1.022-4.757,0.834c-0.089,0.274-0.135,0.537-0.16,0.795c2.27-0.123,3.346,0.494,3.346,0.494
					c-1.61-0.223-2.713-0.128-3.359-0.013c0.087,1.955,1.742,3.57,2.267,5.523c1.957,0.894,3.762,1.137,3.762,1.137L120,64.718
					c0,0-1.992-0.234-3.622-0.787c0.338,2.618,2.741,3.083,2.741,3.083S119.328,66.468,119.463,66.119z"/>
			</g>
			<g opacity="0.75">
				<path fill="#FFFFFF" d="M29.601,87.352c-1.593,1.124-3.205,2.176-4.788,3.272c-1.588,1.089-3.144,2.199-4.688,3.374l-0.103-0.105
					c1.237-1.525,2.792-2.752,4.405-3.839c0.815-0.535,1.645-1.048,2.51-1.497c0.86-0.455,1.736-0.885,2.653-1.225L29.601,87.352z"/>
				<path opacity="0.8" fill="#FFFFFF" d="M32.849,85.973c-0.28-0.721-0.875-1.149-1.638-1.337c-0.62,0.747-1.465,1.837-2.177,3.036
					c0.315-1.303,0.813-2.378,1.246-3.15c-1.217-0.013-2.662,0.415-3.953,1.166c-0.977,0.568-1.802,1.219-2.393,1.919
					c0.224,1.564,0.771,2.63,0.771,2.63c-0.677-0.772-1.081-1.396-1.317-1.842c-0.514,0.923-0.61,1.907-0.114,2.891
					c0.906,1.797,3.379,2.192,5.939,0.058c0.164-0.137,0.314-0.26,0.472-0.39c-0.841-0.705-1.897-1.567-2.557-2.019
					c0,0,1.636,0.854,2.9,1.736c0.907-0.746,1.685-1.391,2.218-2.021c-0.881-0.214-2.392-0.494-4.093-0.441
					c0,0,1.964-0.688,4.614-0.327C33.064,87.291,33.123,86.68,32.849,85.973z"/>
			</g>
			<g opacity="0.75">
				<path fill="#FFFFFF" d="M11.802,69.785c0.79,2.963,1.611,5.885,2.556,8.764c0.96,2.878,2.033,5.676,3.206,8.523
					c-1.969-2.398-3.2-5.305-4.106-8.235c-0.897-2.945-1.514-5.978-1.674-9.048L11.802,69.785z"/>
				<path opacity="0.8" fill="#FFFFFF" d="M12.6,67.342c-0.257-0.112-0.543-0.171-0.878-0.166c-1.662,0.033-2.516,2.334-2.66,4.982
					l3.244,0.812l-3.263,0.155c0.008,0.822,0.077,1.654,0.212,2.444c0.09,0.527,0.186,1.012,0.282,1.471
					c0.65-0.054,1.623-0.11,1.623-0.11l-1.522,0.566c0.55,2.459,1.11,3.81,1.11,3.81s2.336,0.691,4.264,0.114
					c0.01,0.442,0.01,0.442,0.01,0.442s-2.593-0.376-3.143,1.941c1.643-1.058,3.404-1.329,3.404-1.329
					c1.835-0.904,2.181-1.927,1.351-4.973l-2.956,0.848L13.6,77.697l2.842-0.863c-0.156-0.524-0.339-1.099-0.551-1.736
					c-1.198-3.614-1.609-6.169-2.646-7.287c-0.298,0.246-0.697,0.562-1.117,0.851C12.292,68.109,12.465,67.659,12.6,67.342z"/>
			</g>
		</g>

		<g id="Layer_9">
			<g opacity="0.5">
				<path fill="#FFFFFF" d="M127.616,80.859c-0.94,1.855-2.063,3.615-3.314,5.282c-1.264,1.643-2.627,3.293-4.459,4.372l-0.124-0.15
					c1.351-1.576,2.741-3.05,4.051-4.643c1.31-1.586,2.573-3.218,3.818-4.878L127.616,80.859z"/>
				<path opacity="0.8" fill="#FFFFFF" d="M122.278,88.014c0,0,1.202,0.834,3.246,0.123c-1.028-0.122-2.772-0.655-2.772-0.655
					l0.323-0.374c0,0,1.994,0.458,3.403,0.318c1.451-1.336,2.565-3.168,2.91-4.436c-1.065,0.249-3.344,0.107-3.344,0.107
					s2.618-0.194,3.335-0.553c0.452-1.229,0.26-2.468-1.134-3.074c-1.393-0.606-2.174,1.185-3.188,1.931s-1.784,1.328-1.784,1.328
					l1.796,1.974l-2.278-1.608l-1.97,1.413l1.658,2.982c0,0-1.553-1.326-2.16-2.33C120.191,87.445,122.278,88.014,122.278,88.014z"/>
			</g>
			<g opacity="0.5">
				<path fill="#FFFFFF" d="M119.183,74.396c-1.249,1.56-2.662,2.989-4.162,4.319c-1.505,1.326-3.113,2.542-4.816,3.627
					c-1.71,1.066-3.504,2.039-5.423,2.728c-1.917,0.67-3.979,1.06-6.011,0.85l-0.017-0.178c1.928-0.571,3.743-1.21,5.532-1.962
					c1.79-0.736,3.547-1.58,5.235-2.568c1.695-0.974,3.338-2.054,4.944-3.197C116.072,76.87,117.653,75.676,119.183,74.396z"/>
				<path opacity="0.8" fill="#FFFFFF" d="M119.662,79.245c1.996-1.885,3.556-6.367,1.32-7.479c-0.325-0.161-0.637-0.247-0.943-0.296
					c-0.174,0.908-0.471,1.634-0.471,1.634s-0.061-0.832-0.207-1.673c-0.541,0.042-1.062,0.237-1.574,0.52
					c0.136,0.668,0.121,1.2,0.121,1.2c-0.085-0.309-0.301-0.675-0.502-0.972c-0.794,0.503-6.856,4.536-6.856,4.536
					s0.236,2.526-0.638,5.034c-0.047-1.784-0.379-4.575-0.379-4.575s-0.998,0.221-2.345,0.714c-0.349,1.31-0.941,3.805-0.834,5.314
					c0,0-0.733-2.545-0.512-4.768c-0.224,0.101-0.454,0.214-0.682,0.328c-0.28,0.382-0.621,1.042-0.681,2.07
					c-0.105,1.791,0.317,3.046,0.317,3.046s-0.953-1.951-0.831-3.955c-0.708,1.73,0.551,4.51,0.551,4.51
					c2.307,3.278,5.604,3.319,5.604,3.319s-1.934-1.737-3.286-4.19c1.631,1.929,4.307,3.371,4.307,3.371
					c1.431-0.712,2.935-1.942,4.322-3.269l-0.983-1.478l1.441,1.03c1.233-0.688,2.488-1.732,3.286-2.652
					c-1.063-1.11-2.686-3.889-2.686-3.889S118.519,78.718,119.662,79.245z"/>
			</g>
			<g opacity="0.5">
				<path fill="#FFFFFF" d="M117.206,61.329c1.068,0.928,1.951,2.094,2.513,3.426c0.578,1.322,0.759,2.861,0.369,4.297
					c-0.353,1.418-1.142,2.716-2.154,3.741c-1.002,1.04-2.223,1.85-3.548,2.363l-0.028-0.059c1.168-0.783,2.224-1.695,3.146-2.706
					c0.898-1.028,1.649-2.188,2.006-3.5c0.357-1.287,0.253-2.688-0.203-3.976c-0.469-1.285-1.214-2.492-2.149-3.531L117.206,61.329z"/>
				<path opacity="0.8" fill="#FFFFFF" d="M118.892,70.903c0,0,2.966-0.399,3.751,1.997c-1.023-1.927-4.215-1.157-4.215-1.157
					L118.892,70.903z"/>
				<path opacity="0.8" fill="#FFFFFF" d="M118.892,70.903c3.687-0.086,4.909-2.114,3.674-6.085c-1.074,0.243-2.521,0.484-2.953,0.31
					c1.065-0.285,2.021-0.711,2.699-1.057c-0.026-0.074-0.048-0.142-0.075-0.216c-0.082-0.218-0.175-0.419-0.268-0.623l-1.353,0.594
					l1.16-0.993c-0.409-0.797-0.898-1.467-1.423-2.015c-0.363,0.644-0.975,1.554-1.876,2.293c0.783-0.967,1.145-2.183,1.297-2.834
					c-1.853-1.539-3.976-1.582-4.826,0.175c-0.125,0.259-0.208,0.513-0.267,0.766c2.265,0.189,3.247,0.947,3.247,0.947
					c-1.565-0.441-2.67-0.498-3.326-0.473c-0.181,1.949,1.236,3.775,1.489,5.782c1.816,1.153,3.571,1.642,3.571,1.642l-0.046,0.474
					c0,0-1.94-0.505-3.48-1.276c-0.024,2.64,2.293,3.429,2.293,3.429S118.71,71.231,118.892,70.903z"/>
			</g>
			<g opacity="0.5">
				<path fill="#FFFFFF" d="M28.609,93.116c-1.593,1.124-3.205,2.177-4.788,3.272c-1.588,1.089-3.144,2.199-4.688,3.374l-0.103-0.105
					c1.237-1.525,2.792-2.752,4.405-3.839c0.815-0.535,1.645-1.047,2.51-1.497c0.86-0.455,1.736-0.885,2.653-1.225L28.609,93.116z"/>
				<path opacity="0.8" fill="#FFFFFF" d="M31.857,91.737c-0.28-0.721-0.875-1.149-1.638-1.337c-0.62,0.746-1.465,1.837-2.177,3.035
					c0.315-1.303,0.813-2.378,1.246-3.15c-1.217-0.013-2.662,0.416-3.953,1.166c-0.977,0.568-1.802,1.219-2.393,1.919
					c0.224,1.564,0.771,2.63,0.771,2.63c-0.677-0.772-1.081-1.396-1.317-1.842c-0.514,0.923-0.61,1.907-0.114,2.891
					c0.906,1.797,3.379,2.192,5.939,0.058c0.164-0.137,0.314-0.26,0.472-0.39c-0.841-0.705-1.897-1.567-2.557-2.019
					c0,0,1.636,0.854,2.9,1.736c0.907-0.746,1.685-1.391,2.218-2.021c-0.881-0.214-2.392-0.494-4.093-0.441
					c0,0,1.964-0.688,4.614-0.327C32.072,93.056,32.131,92.444,31.857,91.737z"/>
			</g>
			<g opacity="0.5">
				<path fill="#FFFFFF" d="M10.285,74.537c0.997,2.899,2.021,5.757,3.167,8.562c1.16,2.804,2.427,5.519,3.798,8.276
					c-2.132-2.254-3.566-5.066-4.676-7.926c-1.102-2.874-1.931-5.856-2.308-8.908L10.285,74.537z"/>
				<path opacity="0.8" fill="#FFFFFF" d="M10.909,72.044c-0.264-0.094-0.554-0.133-0.887-0.104c-1.656,0.15-2.346,2.506-2.303,5.157
					l3.293,0.582l-3.244,0.385c0.065,0.819,0.193,1.645,0.383,2.423c0.127,0.52,0.256,0.997,0.385,1.448
					c0.645-0.099,1.611-0.224,1.611-0.224l-1.479,0.672c0.722,2.414,1.375,3.722,1.375,3.722s2.379,0.525,4.262-0.187
					c0.041,0.439,0.041,0.439,0.041,0.439s-2.613-0.193-2.999,2.158c1.564-1.172,3.302-1.566,3.302-1.566
					c1.767-1.03,2.04-2.075,0.997-5.056l-2.889,1.054l-0.123-0.645l2.774-1.061c-0.193-0.511-0.416-1.072-0.672-1.693
					c-1.449-3.521-2.039-6.041-3.153-7.083c-0.28,0.267-0.656,0.609-1.054,0.927C10.656,72.831,10.797,72.369,10.909,72.044z"/>
			</g>
		</g>

		<g id="Layer_10">
			<g opacity="0.3">
				<path fill="#FFFFFF" d="M127.184,84.674c-1.134,1.743-2.439,3.372-3.862,4.896c-1.434,1.498-2.966,2.992-4.904,3.867l-0.106-0.162
					c1.512-1.422,3.053-2.738,4.526-4.181c1.473-1.436,2.904-2.923,4.321-4.439L127.184,84.674z"/>
				<path opacity="0.8" fill="#FFFFFF" d="M121.108,91.213c0,0,1.105,0.958,3.214,0.471c-1.009-0.231-2.686-0.949-2.686-0.949
					l0.361-0.337c0,0,1.934,0.67,3.35,0.683c1.586-1.173,2.891-2.875,3.37-4.099c-1.085,0.134-3.336-0.252-3.336-0.252
					s2.623,0.089,3.375-0.191c0.581-1.174,0.523-2.426-0.797-3.178c-1.319-0.752-2.289,0.944-3.376,1.577s-1.917,1.129-1.917,1.129
					l1.574,2.155l-2.092-1.844l-2.111,1.193l1.328,3.143c0,0-1.401-1.485-1.896-2.549C119.094,90.424,121.108,91.213,121.108,91.213z"
					/>
			</g>
			<g opacity="0.3">
				<path fill="#FFFFFF" d="M119.735,78.398c-1.249,1.56-2.662,2.989-4.162,4.319c-1.505,1.326-3.113,2.542-4.816,3.626
					c-1.71,1.067-3.504,2.039-5.423,2.729c-1.917,0.67-3.979,1.06-6.011,0.85l-0.017-0.178c1.928-0.571,3.743-1.21,5.532-1.962
					c1.79-0.736,3.547-1.58,5.235-2.568c1.695-0.974,3.338-2.054,4.944-3.197C116.624,80.872,118.205,79.678,119.735,78.398z"/>
				<path opacity="0.8" fill="#FFFFFF" d="M120.213,83.247c1.996-1.885,3.556-6.367,1.32-7.479c-0.325-0.161-0.637-0.247-0.943-0.296
					c-0.174,0.908-0.471,1.634-0.471,1.634s-0.061-0.832-0.207-1.673c-0.541,0.042-1.062,0.237-1.574,0.52
					c0.136,0.668,0.121,1.2,0.121,1.2c-0.085-0.309-0.301-0.675-0.502-0.972c-0.794,0.503-6.856,4.536-6.856,4.536
					s0.236,2.526-0.638,5.033c-0.047-1.783-0.379-4.575-0.379-4.575s-0.998,0.221-2.345,0.714c-0.349,1.31-0.941,3.805-0.834,5.313
					c0,0-0.733-2.544-0.512-4.767c-0.224,0.101-0.454,0.214-0.682,0.328c-0.28,0.382-0.621,1.042-0.681,2.07
					c-0.105,1.791,0.317,3.046,0.317,3.046s-0.953-1.951-0.831-3.955c-0.708,1.73,0.551,4.51,0.551,4.51
					c2.307,3.278,5.604,3.319,5.604,3.319s-1.934-1.737-3.286-4.189c1.631,1.929,4.307,3.37,4.307,3.37
					c1.431-0.712,2.935-1.942,4.322-3.269l-0.983-1.478l1.441,1.03c1.233-0.688,2.488-1.732,3.286-2.652
					c-1.063-1.11-2.686-3.889-2.686-3.889S119.07,82.72,120.213,83.247z"/>
			</g>
			<g opacity="0.3">
				<path fill="#FFFFFF" d="M119.366,67.507c0.569,1.296,0.869,2.727,0.807,4.171c-0.042,1.442-0.537,2.911-1.503,4.042
					c-0.926,1.132-2.194,1.967-3.547,2.461c-1.35,0.511-2.8,0.722-4.218,0.62v-0.065c1.391-0.208,2.735-0.581,4-1.102
					c1.251-0.545,2.426-1.272,3.31-2.307c0.874-1.01,1.378-2.321,1.517-3.681c0.125-1.363-0.033-2.772-0.434-4.112L119.366,67.507z"/>
				<path opacity="0.8" fill="#FFFFFF" d="M116.796,76.882c0,0,2.853,0.907,2.538,3.409c-0.101-2.18-3.315-2.847-3.315-2.847
					L116.796,76.882z"/>
				<path opacity="0.8" fill="#FFFFFF" d="M116.796,76.882c3.37,1.499,5.341,0.188,5.923-3.93c-1.075-0.24-2.486-0.64-2.802-0.982
					c1.084,0.198,2.13,0.221,2.891,0.199c0.008-0.079,0.018-0.149,0.024-0.228c0.019-0.232,0.021-0.454,0.024-0.678l-1.477-0.041
					l1.474-0.402c-0.029-0.895-0.185-1.71-0.425-2.43c-0.604,0.427-1.546,0.988-2.677,1.271c1.121-0.539,1.968-1.483,2.384-2.007
					c-1.017-2.183-2.917-3.129-4.438-1.905c-0.224,0.181-0.407,0.375-0.569,0.578c1.967,1.14,2.53,2.244,2.53,2.244
					c-1.226-1.068-2.201-1.591-2.804-1.849c-0.997,1.684-0.497,3.941-1.126,5.863c1.148,1.819,2.526,3.011,2.526,3.011l-0.245,0.409
					c0,0-1.539-1.286-2.601-2.641c-1.15,2.376,0.607,4.081,0.607,4.081S116.492,77.102,116.796,76.882z"/>
			</g>
			<g opacity="0.3">
				<path fill="#FFFFFF" d="M30.406,98.509c-1.746,0.868-3.5,1.663-5.23,2.506c-1.736,0.834-3.442,1.694-5.148,2.62l-0.085-0.119
					c1.455-1.319,3.179-2.295,4.938-3.124c0.887-0.404,1.786-0.784,2.709-1.097c0.92-0.319,1.851-0.609,2.809-0.806L30.406,98.509z"/>
				<path opacity="0.8" fill="#FFFFFF" d="M33.826,97.642c-0.167-0.755-0.689-1.269-1.415-1.57c-0.727,0.643-1.728,1.592-2.614,2.668
					c0.51-1.239,1.166-2.227,1.711-2.924c-1.201-0.198-2.695,0.005-4.084,0.55c-1.052,0.413-1.966,0.93-2.657,1.532
					c-0.017,1.58,0.36,2.717,0.36,2.717c-0.551-0.867-0.855-1.544-1.021-2.021c-0.648,0.834-0.894,1.792-0.554,2.84
					c0.622,1.914,3.005,2.682,5.861,0.962c0.183-0.11,0.351-0.209,0.526-0.313c-0.724-0.825-1.637-1.838-2.22-2.385
					c0,0,1.487,1.094,2.601,2.158c1.011-0.6,1.877-1.118,2.5-1.66c-0.838-0.346-2.289-0.853-3.978-1.06c0,0,2.046-0.38,4.61,0.38
					C33.838,98.978,33.99,98.383,33.826,97.642z"/>
			</g>
			<g opacity="0.3">
				<path fill="#FFFFFF" d="M10.774,81.616c1.403,2.727,2.828,5.407,4.364,8.018c1.551,2.608,3.195,5.112,4.947,7.645
					c-2.434-1.924-4.256-4.501-5.766-7.172c-1.503-2.686-2.752-5.517-3.563-8.483L10.774,81.616z"/>
				<path opacity="0.8" fill="#FFFFFF" d="M11.034,79.06c-0.275-0.055-0.567-0.052-0.893,0.025c-1.617,0.386-1.961,2.817-1.538,5.435
					l3.342,0.102L8.79,85.469c0.183,0.802,0.427,1.601,0.728,2.343c0.2,0.496,0.397,0.949,0.589,1.377
					c0.624-0.191,1.562-0.453,1.562-0.453l-1.366,0.878c1.062,2.285,1.896,3.485,1.896,3.485s2.43,0.178,4.19-0.796
					c0.104,0.429,0.104,0.429,0.104,0.429s-2.614,0.185-2.658,2.566c1.379-1.384,3.042-2.024,3.042-2.024
					c1.6-1.274,1.72-2.348,0.26-5.147l-2.708,1.459l-0.214-0.621l2.593-1.449c-0.265-0.478-0.565-1-0.909-1.578
					c-1.94-3.275-2.886-5.685-4.138-6.556c-0.238,0.304-0.562,0.697-0.91,1.069C10.896,79.874,10.969,79.397,11.034,79.06z"/>
			</g>
		</g>

		<g id="Layer_11">
			<g opacity="0.15">
				<path fill="#FFFFFF" d="M127.592,89.081c-1.403,1.535-2.957,2.929-4.609,4.198c-1.659,1.244-3.415,2.468-5.469,3.016l-0.079-0.178
					c1.724-1.156,3.459-2.203,5.148-3.386c1.687-1.176,3.342-2.409,4.988-3.674L127.592,89.081z"/>
				<path opacity="0.8" fill="#FFFFFF" d="M120.53,94.54c0,0,0.934,1.126,3.094,0.989c-0.958-0.394-2.494-1.375-2.494-1.375
					l0.411-0.273c0,0,1.798,0.977,3.193,1.221c1.757-0.898,3.321-2.365,3.994-3.494c-1.093-0.045-3.25-0.793-3.25-0.793
					s2.573,0.516,3.361,0.362c0.765-1.063,0.913-2.308-0.267-3.265c-1.179-0.959-2.412,0.557-3.589,1.003
					c-1.176,0.447-2.075,0.801-2.075,0.801l1.201,2.384l-1.763-2.161l-2.277,0.833l0.796,3.317c0,0-1.14-1.694-1.455-2.824
					C118.672,93.433,120.53,94.54,120.53,94.54z"/>
			</g>
			<g opacity="0.15">
				<path fill="#FFFFFF" d="M121.26,84.516c-1.524,1.292-3.184,2.426-4.91,3.444c-1.731,1.014-3.542,1.9-5.42,2.64
					c-1.883,0.721-3.83,1.332-5.845,1.642c-2.009,0.291-4.108,0.279-6.063-0.314l0.019-0.178c2.001-0.192,3.905-0.473,5.805-0.869
					c1.898-0.38,3.784-0.873,5.629-1.521c1.85-0.632,3.669-1.378,5.464-2.193C117.733,86.349,119.514,85.48,121.26,84.516z"/>
				<path opacity="0.8" fill="#FFFFFF" d="M120.803,89.366c2.319-1.469,4.707-5.569,2.725-7.088c-0.289-0.22-0.578-0.364-0.869-0.471
					c-0.345,0.858-0.775,1.514-0.775,1.514s0.1-0.828,0.117-1.682c-0.54-0.062-1.087,0.03-1.644,0.209
					c0.006,0.682-0.111,1.201-0.111,1.201c-0.025-0.32-0.167-0.72-0.308-1.05c-0.876,0.342-7.597,3.143-7.597,3.143
					s-0.251,2.523-1.588,4.818c0.294-1.76,0.501-4.563,0.501-4.563s-1.022,0.026-2.438,0.253c-0.593,1.22-1.651,3.555-1.834,5.057
					c0,0-0.233-2.638,0.408-4.777c-0.239,0.056-0.486,0.123-0.732,0.191c-0.348,0.322-0.808,0.903-1.064,1.902
					c-0.445,1.738-0.27,3.05-0.27,3.05s-0.563-2.098-0.06-4.041c-1.025,1.563-0.321,4.532-0.321,4.532
					c1.638,3.659,4.866,4.329,4.866,4.329s-1.566-2.075-2.424-4.739c1.233,2.203,3.583,4.13,3.583,4.13
					c1.54-0.425,3.252-1.345,4.867-2.382l-0.683-1.639l1.218,1.287c1.342-0.441,2.773-1.225,3.732-1.976
					c-0.831-1.292-1.893-4.33-1.893-4.33S119.782,88.631,120.803,89.366z"/>
			</g>
			<g opacity="0.15">
				<path fill="#FFFFFF" d="M119.228,70.957c0.569,1.295,0.869,2.727,0.807,4.171c-0.042,1.442-0.537,2.911-1.503,4.042
					c-0.926,1.132-2.194,1.967-3.547,2.461c-1.35,0.511-2.8,0.722-4.218,0.62v-0.065c1.391-0.208,2.735-0.581,4-1.102
					c1.251-0.545,2.426-1.272,3.31-2.307c0.874-1.011,1.378-2.321,1.517-3.681c0.125-1.363-0.033-2.772-0.434-4.112L119.228,70.957z"/>
				<path opacity="0.8" fill="#FFFFFF" d="M116.659,80.332c0,0,2.853,0.907,2.538,3.409c-0.101-2.18-3.315-2.847-3.315-2.847
					L116.659,80.332z"/>
				<path opacity="0.8" fill="#FFFFFF" d="M116.659,80.332c3.37,1.499,5.341,0.188,5.923-3.93c-1.075-0.24-2.486-0.64-2.802-0.982
					c1.084,0.198,2.13,0.221,2.891,0.199c0.008-0.079,0.018-0.149,0.024-0.228c0.019-0.232,0.021-0.454,0.024-0.678l-1.477-0.041
					l1.474-0.402c-0.029-0.895-0.185-1.71-0.425-2.43c-0.604,0.427-1.546,0.988-2.677,1.271c1.121-0.539,1.968-1.483,2.384-2.007
					c-1.017-2.183-2.917-3.129-4.438-1.905c-0.224,0.181-0.407,0.375-0.569,0.578c1.967,1.14,2.53,2.244,2.53,2.244
					c-1.226-1.068-2.201-1.591-2.804-1.849c-0.997,1.684-0.497,3.941-1.126,5.863c1.148,1.819,2.526,3.011,2.526,3.011l-0.245,0.409
					c0,0-1.539-1.286-2.601-2.641c-1.15,2.376,0.607,4.081,0.607,4.081S116.354,80.551,116.659,80.332z"/>
			</g>
			<g opacity="0.15">
				<path fill="#FFFFFF" d="M31.942,105.126c-1.891,0.473-3.775,0.872-5.646,1.323c-1.875,0.441-3.726,0.916-5.591,1.453l-0.058-0.135
					c1.705-0.976,3.598-1.558,5.495-1.99c0.954-0.204,1.912-0.382,2.881-0.488c0.967-0.115,1.938-0.199,2.917-0.185L31.942,105.126z"/>
				<path opacity="0.8" fill="#FFFFFF" d="M35.469,105.014c0-0.773-0.4-1.387-1.044-1.838c-0.848,0.472-2.029,1.184-3.126,2.044
					c0.765-1.101,1.617-1.924,2.3-2.487c-1.13-0.452-2.633-0.574-4.107-0.341c-1.116,0.177-2.12,0.485-2.924,0.926
					c-0.356,1.539-0.232,2.73-0.232,2.73c-0.352-0.965-0.503-1.691-0.562-2.193c-0.813,0.675-1.258,1.558-1.151,2.654
					c0.196,2.003,2.359,3.265,5.517,2.199c0.202-0.069,0.387-0.129,0.581-0.193c-0.53-0.962-1.204-2.146-1.656-2.806
					c0,0,1.217,1.387,2.077,2.666c1.116-0.368,2.073-0.688,2.799-1.084c-0.745-0.518-2.052-1.324-3.657-1.89
					c0,0,2.08,0.069,4.421,1.362C35.193,106.321,35.469,105.772,35.469,105.014z"/>
			</g>
			<g opacity="0.15">
				<path fill="#FFFFFF" d="M10.702,88.896c1.891,2.413,3.795,4.778,5.796,7.053c2.014,2.27,4.101,4.42,6.299,6.576
					c-2.753-1.432-5.028-3.619-7.014-5.958c-1.982-2.354-3.742-4.9-5.097-7.661L10.702,88.896z"/>
				<path opacity="0.8" fill="#FFFFFF" d="M10.475,86.338c-0.28-0.002-0.567,0.056-0.872,0.192c-1.516,0.685-1.396,3.137-0.487,5.627
					l3.302-0.529l-2.939,1.427c0.33,0.753,0.721,1.491,1.155,2.164c0.29,0.449,0.569,0.857,0.838,1.241
					c0.577-0.306,1.449-0.739,1.449-0.739l-1.176,1.119c1.473,2.045,2.518,3.066,2.518,3.066s2.42-0.283,3.966-1.571
					c0.183,0.401,0.183,0.401,0.183,0.401s-2.532,0.674-2.127,3.021c1.094-1.619,2.607-2.562,2.607-2.562
					c1.332-1.553,1.248-2.63-0.713-5.104l-2.385,1.943l-0.327-0.57l2.274-1.911c-0.35-0.419-0.744-0.876-1.19-1.379
					c-2.522-2.852-3.904-5.039-5.298-5.659c-0.177,0.343-0.42,0.791-0.693,1.221C10.494,87.163,10.476,86.682,10.475,86.338z"/>
			</g>
		</g>

		<g id="Layer_12"></g>
	</defs>
</svg>
