<?xml version="1.0" encoding="utf-8"?>
<!DOCTYPE svg PUBLIC "-//W3C//DTD SVG 1.1//EN" "http://www.w3.org/Graphics/SVG/1.1/DTD/svg11.dtd">
<svg version="1.1" id="_x31__1_" xmlns="http://www.w3.org/2000/svg" xmlns:xlink="http://www.w3.org/1999/xlink" x="0px" y="0px"
	 width="130px" height="130px" viewBox="0 0 130 130" enable-background="new 0 0 130 130" xml:space="preserve">
	<defs>
		<g id="Layer_0">
			<ellipse opacity="0.3" cx="65.827" cy="99.582" rx="16.37" ry="8.671"/>
			<g>
				<path fill="#C4C3C0" d="M94.015,77.894c0-23.952-12.396-46.806-27.688-46.806S38.639,54.601,38.639,77.894
					c0,15.292,12.396,27.688,27.688,27.688S94.015,93.186,94.015,77.894z"/>
				<path fill="#EAE9E5" d="M90.035,75.516c0-22.018-11.121-43.025-24.838-43.025S40.359,54.104,40.359,75.516
					c0,14.057,11.121,25.451,24.838,25.451S90.035,89.572,90.035,75.516z"/>
				<path fill="#F9F9F7" d="M86.685,73.037c0-19.706-10.051-38.507-22.45-38.507S41.784,53.873,41.784,73.037
					c0,12.581,10.052,22.78,22.451,22.78S86.685,85.617,86.685,73.037z"/>
				<path fill="#EAE9E5" d="M68.858,104.623c0,0,10.749-0.317,18.631-9.713s5.892-21.417,5.892-21.417s-0.382,11.86-7.484,20.143
					C78.265,102.537,68.858,104.623,68.858,104.623z"/>
				<path fill="#FFFFFF" d="M54.588,44.204c-1.856-0.091-5.265,5.555-1.787,6.183S57.535,44.349,54.588,44.204z"/>
				<g>
					<path fill="#D1D1D1" d="M87.604,87.907c-0.036-0.133-0.127-0.21-0.236-0.251c-0.006-0.04-0.029-0.076-0.091-0.1
						c-0.746-0.287-1.607,0.491-2.05,0.998c-0.474,0.542-0.708,1.506-0.09,2.038c0.564,0.486,1.431-0.098,1.826-0.519
						C87.494,89.508,87.812,88.677,87.604,87.907z"/>
					<path fill="#D1D1D1" d="M63.117,89.401c-0.261-0.162-0.531-0.065-0.726,0.13c-0.181-0.056-0.413,0.041-0.473,0.266
						c-0.157,0.591-0.206,1.072,0.145,1.609c0.248,0.381,0.729,0.469,1.138,0.359c0.447-0.119,0.789-0.607,0.797-1.058
						C64.009,90.11,63.594,89.697,63.117,89.401z"/>
					<path fill="#D1D1D1" d="M58.262,70.397c-0.176-0.248-0.498-0.252-0.765-0.175c-0.366,0.105-0.547,0.317-0.619,0.687
						c-0.096,0.493,0.484,0.717,0.857,0.579C58.095,71.354,58.527,70.771,58.262,70.397z"/>
					<path fill="#D1D1D1" d="M78.668,52.386c-0.519,0.003-0.864,0.672-0.509,1.068c0.024,0.027,0.053,0.05,0.08,0.074
						c0.039,0.668,0.413,1.24,1.029,1.669c0.237,0.165,0.592,0.038,0.778-0.139C81.041,54.115,79.862,52.378,78.668,52.386z"/>
					<path fill="#D1D1D1" d="M51.46,83.947c-0.14-0.596-0.856,0.021-0.922,0.347c-0.036,0.178-0.047,0.353-0.047,0.534
						c0.002,0.776,1.017,0.178,1.018-0.383C51.509,84.275,51.499,84.114,51.46,83.947z"/>
					<path fill="#D1D1D1" d="M45.875,89.051c-0.151-0.428-0.484-1.106-0.98-1.212c-0.171-0.036-0.339,0.003-0.485,0.086
						c-0.234-0.305-0.676,0.149-0.668,0.428c-0.004-0.135-0.057,0.253-0.06,0.288c-0.017,0.157-0.01,0.32,0,0.478
						c0.021,0.343,0.088,0.684,0.178,1.015c0.187,0.693,0.696,1.123,1.408,1.17c0.28,0.02,0.613-0.236,0.689-0.501
						C46.13,90.198,46.083,89.641,45.875,89.051z"/>
					<path fill="#D1D1D1" d="M45.687,80.375c-0.056-0.238-0.027-0.468-0.069-0.707c-0.026-0.154-0.19-0.3-0.35-0.292
						c-0.656,0.035-0.922,0.684-0.795,1.27C44.641,81.427,45.866,81.147,45.687,80.375z"/>
					<path fill="#D1D1D1" d="M44.951,64.862c-0.08-0.027-0.158-0.032-0.234-0.026c-0.067-0.016-0.147,0.001-0.232,0.065
						c-0.121,0.059-0.224,0.152-0.303,0.268c-0.4,0.367-0.752,0.728-0.979,1.267c-0.26,0.619-0.257,1.221,0.119,1.786
						c0.136,0.205,0.484,0.169,0.65,0.032c0.824-0.684,1-1.683,1.318-2.65C45.396,65.281,45.273,64.971,44.951,64.862z"/>
					<path fill="#D1D1D1" d="M71.089,94.354c-0.157-0.035-0.337,0-0.496,0.078c-0.445,0.219-0.851,0.597-1.201,0.943
						c-0.225,0.223-0.379,0.566-0.276,0.884c0.111,0.344,0.552,0.451,0.835,0.235c0.064-0.049,0.137-0.084,0.202-0.132
						c0.419-0.195,0.809-0.525,1.167-0.764C71.928,95.193,71.843,94.138,71.089,94.354z"/>
					<path fill="#D1D1D1" d="M79.693,98.763c0.08-0.203,0.101-0.425-0.077-0.579c-0.279-0.242-0.684,0.01-0.881,0.229
						c-0.279,0.307-0.903,0.721-0.899,1.178c0.001,0.102,0.025,0.176,0.07,0.24c-0.009,0.023-0.023,0.047-0.03,0.069
						c-0.015,0.03-0.038,0.051-0.051,0.083c-0.096,0.238-0.055,0.621,0.237,0.705c0.663,0.19,1.402-0.647,1.733-1.124
						C80.033,99.22,79.926,98.903,79.693,98.763z"/>
					<path fill="#D1D1D1" d="M79.431,87.386c-0.45-0.091-0.782,0.191-1.017,0.546c-0.499,0.755,0.819,1.417,1.171,0.637
						C79.731,88.246,80.003,87.501,79.431,87.386z"/>
					<path fill="#D1D1D1" d="M54.42,92.322c-0.21-0.071-0.39-0.006-0.527,0.122c-0.205,0.061-0.365,0.232-0.428,0.448
						c-0.225,0.776,0.082,1.594,0.734,2.06c0.525,0.375,1.442,0.62,1.933,0.052C57.025,93.969,55.268,92.609,54.42,92.322z"/>
					<path fill="#D1D1D1" d="M82.485,70.231c-0.079-0.13-0.236-0.203-0.416-0.118c-0.737,0.35-0.896,1.086-0.485,1.761
						c0.241,0.395,0.831,0.184,1.009-0.172c0.137-0.274,0.226-0.544,0.308-0.839C83.026,70.422,82.78,70.228,82.485,70.231z"/>
					<path fill="#D1D1D1" d="M61.902,100.226c-0.361-0.936-1.114-1.391-1.975-1.704c-0.07-0.055-0.145-0.103-0.223-0.142
						c0.071-0.094,0.117-0.203,0.134-0.319c0.171-0.293-0.023-0.716-0.331-0.84c-0.102-0.041-0.219-0.054-0.336-0.054
						c-0.046-0.008-0.091-0.016-0.139-0.01c-0.313-0.252-0.787,0.023-0.721,0.437c0.061,0.379,0.097,0.626,0.371,0.762
						c0.006,0.007,0.015,0.013,0.021,0.019c-0.056,0.037-0.111,0.079-0.159,0.129c-0.02,0.014-0.04,0.021-0.06,0.038
						c-0.486,0.412-0.406,1.004-0.138,1.514c0.573,1.089,2.01,1.738,3.135,1.091C61.807,100.96,62.052,100.615,61.902,100.226z"/>
				</g>
			</g>
		</g>

		<g id="Layer_1">
			<g>
			<path fill="#FFFFFF" d="M44.197,61.901c1.593,1.337,3.052,2.83,4.391,4.427c1.313,1.604,2.611,3.307,3.246,5.336L51.66,71.75
				c-1.229-1.673-2.348-3.362-3.602-5c-1.247-1.636-2.549-3.236-3.883-4.827L44.197,61.901z"/>
			<path opacity="0.8" fill="#FFFFFF" d="M49.952,68.724c0,0,1.084-0.981,0.856-3.133c-0.353,0.973-1.268,2.551-1.268,2.551
				l-0.292-0.4c0,0,0.9-1.838,1.085-3.242c-0.972-1.717-2.503-3.217-3.659-3.842c0,1.094-0.656,3.281-0.656,3.281
				s0.406-2.594,0.219-3.375c-1.094-0.719-2.344-0.813-3.25,0.406s0.66,2.387,1.156,3.543s0.888,2.039,0.888,2.039l2.331-1.301
				l-2.084,1.854l0.928,2.24l3.281-0.938c0,0-1.645,1.211-2.76,1.574C48.924,70.627,49.952,68.724,49.952,68.724z"/>
		</g>
		<g>
			<path fill="#FFFFFF" d="M48.197,48.457c-0.33,1.971-0.867,3.907-1.528,5.8c-0.668,1.892-1.479,3.738-2.438,5.515
				c-0.974,1.765-2.066,3.488-3.406,5.026c-1.347,1.519-2.958,2.864-4.834,3.672l-0.102-0.148c1.405-1.438,2.679-2.88,3.875-4.409
				c1.205-1.515,2.328-3.108,3.319-4.794c1.005-1.677,1.914-3.421,2.759-5.202C46.686,52.134,47.485,50.321,48.197,48.457z"/>
			<path opacity="0.8" fill="#FFFFFF" d="M50.979,52.457c0.823-2.617,0.002-7.292-2.493-7.173c-0.362,0.018-0.677,0.095-0.968,0.202
				c0.291,0.877,0.385,1.656,0.385,1.656s-0.458-0.697-0.996-1.36c-0.453,0.301-0.812,0.725-1.121,1.22
				c0.444,0.518,0.69,0.989,0.69,0.989c-0.226-0.229-0.592-0.442-0.912-0.604c-0.448,0.826-3.776,7.303-3.776,7.303
				s1.438,2.091,1.896,4.707c-0.91-1.535-2.561-3.809-2.561-3.809s-0.764,0.679-1.698,1.766c0.333,1.313,1.031,3.781,1.861,5.046
				c0,0-1.881-1.864-2.771-3.914c-0.146,0.197-0.291,0.408-0.436,0.618c-0.058,0.471-0.034,1.212,0.416,2.14
				c0.781,1.615,1.761,2.505,1.761,2.505s-1.782-1.239-2.653-3.048c0.226,1.856,2.68,3.668,2.68,3.668
				c3.612,1.738,6.511,0.167,6.511,0.167s-2.537-0.573-4.912-2.058c2.365,0.891,5.403,0.845,5.403,0.845
				c0.902-1.319,1.616-3.127,2.181-4.96l-1.578-0.812l1.76,0.198c0.741-1.204,1.329-2.726,1.577-3.918
				c-1.468-0.451-4.241-2.087-4.241-2.087S49.724,52.555,50.979,52.457z"/>
		</g>
		<g>
			<path fill="#FFFFFF" d="M89.423,57.566c1.413,0.077,2.826,0.454,4.087,1.16c1.268,0.688,2.356,1.79,2.931,3.163
				c0.593,1.336,0.768,2.844,0.599,4.275c-0.152,1.436-0.618,2.825-1.348,4.044l-0.059-0.029c0.441-1.335,0.713-2.703,0.819-4.067
				c0.077-1.362-0.042-2.739-0.567-3.994c-0.509-1.235-1.452-2.276-2.603-3.012c-1.16-0.726-2.489-1.22-3.865-1.465L89.423,57.566z"/>
			<path opacity="0.8" fill="#FFFFFF" d="M96.635,64.084c0,0,2.096-2.137,4.187-0.729c-1.991-0.892-4.036,1.677-4.036,1.677
				L96.635,64.084z"/>
			<path opacity="0.8" fill="#FFFFFF" d="M96.635,64.084c2.857-2.333,2.575-4.684-0.839-7.059c-0.699,0.852-1.692,1.931-2.14,2.06
				c0.667-0.88,1.159-1.803,1.48-2.493c-0.066-0.041-0.125-0.083-0.192-0.124c-0.198-0.121-0.395-0.224-0.593-0.326l-0.703,1.299
				l0.305-1.497c-0.813-0.378-1.61-0.605-2.36-0.716c0.109,0.731,0.186,1.825-0.072,2.962c0.024-1.244-0.437-2.426-0.718-3.033
				c-2.407-0.076-4.108,1.194-3.7,3.104c0.06,0.28,0.151,0.531,0.26,0.767c1.904-1.242,3.144-1.246,3.144-1.246
				c-1.506,0.612-2.414,1.246-2.915,1.669c1.054,1.649,3.295,2.22,4.727,3.647c2.142-0.204,3.827-0.898,3.827-0.898l0.254,0.403
				c0,0-1.842,0.794-3.53,1.132c1.602,2.097,3.916,1.296,3.916,1.296S96.694,64.455,96.635,64.084z"/>
		</g>
		<g>
			<path fill="#FFFFFF" d="M46.292,85.144c-0.527,1.877-1.114,3.711-1.65,5.56c-0.545,1.847-1.052,3.689-1.509,5.576l-0.146-0.018
				c-0.003-1.964,0.43-3.896,0.996-5.758c0.294-0.93,0.616-1.85,1.003-2.744c0.38-0.896,0.789-1.782,1.286-2.624L46.292,85.144z"/>
			<path opacity="0.8" fill="#FFFFFF" d="M47.942,82.025c-0.673-0.383-1.404-0.341-2.115-0.005c-0.01,0.971,0.022,2.35,0.227,3.729
				c-0.577-1.21-0.869-2.357-1.021-3.23c-0.953,0.757-1.804,2.001-2.332,3.398c-0.399,1.058-0.629,2.082-0.646,2.998
				c1.16,1.072,2.257,1.555,2.257,1.555c-1.013-0.173-1.719-0.401-2.184-0.598c0.184,1.04,0.73,1.864,1.736,2.314
				c1.836,0.822,4.005-0.43,4.644-3.703c0.041-0.208,0.08-0.399,0.121-0.599c-1.098-0.018-2.461-0.019-3.258,0.047
				c0,0,1.809-0.369,3.346-0.482c0.233-1.151,0.43-2.142,0.446-2.968c-0.819,0.39-2.168,1.125-3.454,2.24c0,0,1.09-1.774,3.373-3.166
				C48.94,82.912,48.601,82.4,47.942,82.025z"/>
		</g>
		<g>
			<path fill="#FFFFFF" d="M93.741,69.179c-1.951,2.365-3.852,4.732-5.644,7.174c-1.785,2.455-3.437,4.954-5.071,7.564
				c0.807-2.996,2.455-5.688,4.313-8.129c1.874-2.441,3.983-4.707,6.389-6.623L93.741,69.179z"/>
			<path opacity="0.8" fill="#FFFFFF" d="M96.192,68.409c-0.058-0.274-0.176-0.542-0.375-0.811c-0.993-1.334-3.362-0.69-5.6,0.732
				l1.225,3.112l-2.024-2.565c-0.664,0.484-1.301,1.024-1.865,1.593c-0.377,0.38-0.716,0.74-1.033,1.085
				c0.422,0.498,1.033,1.256,1.033,1.256l-1.346-0.909c-1.681,1.877-2.454,3.118-2.454,3.118s0.795,2.302,2.386,3.535
				c-0.354,0.265-0.354,0.265-0.354,0.265s-1.201-2.328-3.406-1.429c1.815,0.722,3.06,1.997,3.06,1.997
				c1.803,0.968,2.836,0.654,4.832-1.793l-2.408-1.912l0.486-0.442l2.354,1.811c0.335-0.432,0.697-0.915,1.092-1.458
				c2.244-3.077,4.084-4.896,4.39-6.39c-0.374-0.099-0.862-0.241-1.341-0.415C95.39,68.603,95.857,68.483,96.192,68.409z"/>
		</g>
		</g>

		<g id="Layer_2">
			<g>
				<path fill="#FFFFFF" d="M28.03,57.568c1.593,1.336,3.052,2.83,4.391,4.427c1.313,1.604,2.611,3.307,3.246,5.336l-0.174,0.086
					c-1.229-1.673-2.348-3.362-3.602-5c-1.247-1.636-2.549-3.237-3.883-4.827L28.03,57.568z"/>
				<path opacity="0.8" fill="#FFFFFF" d="M33.785,64.391c0,0,1.084-0.981,0.856-3.133c-0.353,0.973-1.268,2.551-1.268,2.551
					l-0.292-0.4c0,0,0.9-1.838,1.085-3.242c-0.972-1.717-2.503-3.217-3.659-3.842c0,1.094-0.656,3.281-0.656,3.281
					s0.406-2.594,0.219-3.375c-1.094-0.719-2.344-0.813-3.25,0.406s0.66,2.387,1.156,3.543s0.888,2.039,0.888,2.039l2.331-1.301
					l-2.084,1.854l0.928,2.24l3.281-0.938c0,0-1.645,1.211-2.76,1.574C32.757,66.294,33.785,64.391,33.785,64.391z"/>
			</g>
			<g>
				<path fill="#FFFFFF" d="M39.351,37.903c-0.691,1.875-1.578,3.678-2.58,5.415c-1.008,1.734-2.148,3.397-3.42,4.965
					c-1.286,1.553-2.679,3.043-4.281,4.305c-1.606,1.242-3.439,2.265-5.433,2.709l-0.072-0.164c1.648-1.152,3.167-2.332,4.627-3.612
					c1.465-1.265,2.865-2.622,4.152-4.094c1.299-1.46,2.516-3.005,3.678-4.598C37.182,41.235,38.305,39.602,39.351,37.903z"/>
				<path opacity="0.8" fill="#FFFFFF" d="M41.341,42.351c1.295-2.418,1.358-7.164-1.116-7.511c-0.359-0.05-0.682-0.033-0.988,0.019
					c0.122,0.916,0.07,1.699,0.07,1.699s-0.321-0.771-0.726-1.522c-0.501,0.211-0.932,0.561-1.329,0.99
					c0.34,0.592,0.494,1.101,0.494,1.101c-0.179-0.267-0.5-0.545-0.784-0.763c-0.594,0.729-5.068,6.473-5.068,6.473
					s1.023,2.322,0.988,4.978c-0.608-1.678-1.808-4.22-1.808-4.22s-0.876,0.525-1.997,1.42c0.083,1.353,0.311,3.906,0.891,5.305
					c0,0-1.502-2.182-1.995-4.361c-0.181,0.166-0.362,0.347-0.543,0.527c-0.145,0.452-0.259,1.185,0.01,2.18
					c0.468,1.732,1.265,2.789,1.265,2.789s-1.521-1.549-2.04-3.489c-0.124,1.866,1.951,4.103,1.951,4.103
					c3.226,2.379,6.366,1.375,6.366,1.375s-2.385-1.035-4.443-2.935c2.158,1.314,5.152,1.834,5.152,1.834
					c1.132-1.128,2.169-2.772,3.065-4.469l-1.4-1.09l1.693,0.521c0.952-1.044,1.813-2.431,2.278-3.557
					c-1.358-0.716-3.779-2.839-3.779-2.839S40.089,42.213,41.341,42.351z"/>
			</g>
			<g>
				<path fill="#FFFFFF" d="M92.115,45.485c1.275-0.614,2.695-0.964,4.14-0.953c1.442-0.008,2.927,0.434,4.092,1.36
					c1.163,0.886,2.042,2.123,2.583,3.458c0.558,1.331,0.819,2.773,0.767,4.193l-0.065,0.003c-0.257-1.383-0.676-2.713-1.241-3.959
					c-0.588-1.231-1.356-2.38-2.421-3.228c-1.041-0.837-2.368-1.295-3.731-1.385c-1.366-0.077-2.769,0.129-4.093,0.577L92.115,45.485z"
					/>
				<path opacity="0.8" fill="#FFFFFF" d="M101.574,47.724c0,0,0.808-2.882,3.318-2.656c-2.175,0.178-2.73,3.413-2.73,3.413
					L101.574,47.724z"/>
				<path opacity="0.8" fill="#FFFFFF" d="M101.574,47.724c1.38-3.42,0.001-5.345-4.135-5.783c-0.202,1.083-0.553,2.507-0.884,2.836
					c0.161-1.092,0.147-2.139,0.097-2.898c-0.078-0.004-0.149-0.012-0.228-0.016c-0.231-0.01-0.454-0.005-0.677,0l0.009,1.478
					l-0.453-1.459c-0.895,0.06-1.703,0.245-2.414,0.51c0.448,0.588,1.042,1.51,1.364,2.63c-0.578-1.101-1.552-1.916-2.09-2.312
					c-2.146,1.092-3.025,3.025-1.748,4.502c0.187,0.217,0.389,0.393,0.597,0.547c1.071-2.005,2.156-2.606,2.156-2.606
					c-1.025,1.262-1.515,2.254-1.751,2.867c1.718,0.938,3.957,0.358,5.899,0.92c1.779-1.21,2.921-2.63,2.921-2.63l0.416,0.23
					c0,0-1.231,1.583-2.548,2.692c2.414,1.066,4.056-0.75,4.056-0.75S101.804,48.021,101.574,47.724z"/>
			</g>
			<g>
				<path fill="#FFFFFF" d="M36.041,73.533c-0.94,1.708-1.928,3.36-2.871,5.039c-0.951,1.674-1.863,3.354-2.737,5.086l-0.139-0.05
					c0.444-1.913,1.306-3.696,2.279-5.38c0.499-0.838,1.021-1.662,1.602-2.444c0.574-0.787,1.173-1.556,1.849-2.263L36.041,73.533z"/>
				<path opacity="0.8" fill="#FFFFFF" d="M38.356,70.872c-0.568-0.526-1.29-0.651-2.058-0.486c-0.231,0.943-0.513,2.293-0.627,3.683
					c-0.287-1.31-0.311-2.494-0.26-3.378c-1.1,0.521-2.211,1.539-3.043,2.779c-0.63,0.939-1.086,1.884-1.311,2.772
					c0.886,1.308,1.845,2.027,1.845,2.027c-0.947-0.398-1.583-0.782-1.991-1.079c-0.057,1.055,0.287,1.981,1.164,2.648
					c1.602,1.219,3.998,0.492,5.364-2.549c0.087-0.194,0.169-0.372,0.253-0.557c-1.065-0.266-2.392-0.578-3.183-0.695
					c0,0,1.845,0.052,3.367,0.292c0.489-1.068,0.905-1.988,1.109-2.789c-0.886,0.193-2.367,0.603-3.873,1.396
					c0,0,1.465-1.479,4.004-2.316C39.127,71.962,38.913,71.387,38.356,70.872z"/>
			</g>
			<g>
				<path fill="#FFFFFF" d="M108.23,57.806c-1.951,2.365-3.852,4.732-5.644,7.175c-1.785,2.454-3.437,4.954-5.071,7.563
					c0.807-2.996,2.455-5.688,4.313-8.129c1.874-2.442,3.983-4.707,6.389-6.623L108.23,57.806z"/>
				<path opacity="0.8" fill="#FFFFFF" d="M110.681,57.035c-0.058-0.274-0.176-0.542-0.375-0.811c-0.993-1.334-3.362-0.69-5.6,0.732
					l1.225,3.112l-2.024-2.565c-0.664,0.484-1.301,1.024-1.865,1.593c-0.377,0.38-0.716,0.74-1.033,1.085
					c0.422,0.498,1.033,1.256,1.033,1.256l-1.346-0.909c-1.681,1.877-2.454,3.118-2.454,3.118s0.795,2.302,2.386,3.535
					c-0.354,0.265-0.354,0.265-0.354,0.265s-1.201-2.328-3.406-1.429c1.815,0.722,3.06,1.997,3.06,1.997
					c1.803,0.968,2.836,0.654,4.832-1.793l-2.408-1.912l0.486-0.442l2.354,1.811c0.335-0.432,0.697-0.915,1.092-1.458
					c2.244-3.077,4.084-4.896,4.39-6.39c-0.374-0.099-0.862-0.241-1.341-0.415C109.879,57.229,110.346,57.109,110.681,57.035z"/>
			</g>
		</g>

		<g id="Layer_3">
			<g>
				<path fill="#FFFFFF" d="M12.863,55.901c1.593,1.336,3.052,2.83,4.391,4.427c1.313,1.604,2.611,3.307,3.246,5.336l-0.174,0.086
					c-1.229-1.673-2.348-3.362-3.603-5c-1.247-1.636-2.549-3.237-3.883-4.827L12.863,55.901z"/>
				<path opacity="0.8" fill="#FFFFFF" d="M18.619,62.724c0,0,1.084-0.981,0.856-3.133c-0.353,0.973-1.268,2.551-1.268,2.551
					l-0.292-0.4c0,0,0.9-1.838,1.085-3.242c-0.972-1.717-2.503-3.217-3.659-3.842c0,1.094-0.656,3.281-0.656,3.281
					s0.406-2.594,0.219-3.375c-1.094-0.719-2.344-0.813-3.25,0.406s0.66,2.387,1.156,3.543s0.888,2.039,0.888,2.039l2.331-1.301
					l-2.084,1.854l0.928,2.24l3.281-0.938c0,0-1.645,1.211-2.76,1.574C17.591,64.627,18.619,62.724,18.619,62.724z"/>
			</g>
			<g>
				<path fill="#FFFFFF" d="M29.788,29.166c-0.855,1.806-1.9,3.522-3.053,5.163c-1.159,1.638-2.443,3.192-3.85,4.64
					c-1.419,1.433-2.94,2.792-4.648,3.906c-1.71,1.093-3.627,1.948-5.653,2.213l-0.057-0.17c1.744-1,3.363-2.04,4.93-3.185
					c1.572-1.129,3.088-2.355,4.501-3.707c1.424-1.338,2.774-2.768,4.074-4.251C27.331,32.29,28.595,30.764,29.788,29.166z"/>
				<path opacity="0.8" fill="#FFFFFF" d="M31.373,33.773c1.506-2.293,1.992-7.015-0.44-7.581c-0.354-0.082-0.677-0.093-0.986-0.07
					c0.04,0.923-0.082,1.698-0.082,1.698s-0.251-0.796-0.587-1.581c-0.518,0.166-0.979,0.476-1.412,0.868
					c0.286,0.62,0.394,1.141,0.394,1.141c-0.155-0.282-0.449-0.587-0.713-0.83c-0.657,0.673-5.626,5.995-5.626,5.995
					s0.812,2.404,0.54,5.045c-0.456-1.725-1.424-4.364-1.424-4.364s-0.92,0.445-2.116,1.236c-0.038,1.354-0.04,3.918,0.414,5.363
					c0,0-1.301-2.307-1.598-4.521c-0.195,0.149-0.392,0.313-0.588,0.476c-0.185,0.437-0.364,1.157-0.185,2.172
					c0.311,1.767,1.011,2.89,1.011,2.89s-1.376-1.679-1.72-3.657c-0.29,1.847,1.577,4.261,1.577,4.261
					c3.001,2.658,6.218,1.938,6.218,1.938s-2.284-1.244-4.164-3.32c2.032,1.502,4.968,2.287,4.968,2.287
					c1.228-1.023,2.408-2.567,3.452-4.177l-1.297-1.211l1.64,0.67c1.042-0.956,2.022-2.26,2.586-3.339
					c-1.289-0.834-3.51-3.165-3.51-3.165S30.139,33.524,31.373,33.773z"/>
			</g>
			<g>
				<path fill="#FFFFFF" d="M100.166,33.536c1.188-0.768,2.553-1.292,3.989-1.461c1.43-0.188,2.958,0.066,4.23,0.839
					c1.264,0.733,2.291,1.852,2.995,3.109c0.72,1.251,1.159,2.649,1.284,4.065l-0.064,0.011c-0.427-1.34-1.01-2.607-1.725-3.773
					c-0.737-1.148-1.643-2.192-2.805-2.9c-1.137-0.701-2.511-0.99-3.875-0.909c-1.365,0.094-2.731,0.474-3.99,1.083L100.166,33.536z"/>
				<path opacity="0.8" fill="#FFFFFF" d="M109.831,34.578c0,0,0.441-2.96,2.96-3.049c-2.136,0.447-2.283,3.727-2.283,3.727
					L109.831,34.578z"/>
				<path opacity="0.8" fill="#FFFFFF" d="M109.831,34.578c0.942-3.566-0.666-5.303-4.824-5.222c-0.065,1.1-0.236,2.556-0.523,2.924
					c0.023-1.104-0.121-2.14-0.265-2.887c-0.078,0.005-0.149,0.006-0.229,0.013c-0.231,0.019-0.451,0.051-0.672,0.084l0.194,1.465
					l-0.632-1.391c-0.88,0.171-1.659,0.455-2.331,0.807c0.518,0.528,1.222,1.368,1.681,2.439c-0.711-1.021-1.778-1.707-2.362-2.033
					c-1.993,1.352-2.625,3.379-1.172,4.685c0.213,0.192,0.435,0.341,0.661,0.468c0.812-2.123,1.813-2.854,1.813-2.854
					c-0.859,1.38-1.222,2.426-1.379,3.063c1.821,0.717,3.971-0.138,5.968,0.177c1.614-1.423,2.57-2.974,2.57-2.974l0.442,0.177
					c0,0-1.024,1.725-2.192,2.989c2.528,0.757,3.931-1.25,3.931-1.25S110.096,34.843,109.831,34.578z"/>
			</g>
			<g>
				<path fill="#FFFFFF" d="M29.642,52.405c-1.237,1.507-2.511,2.95-3.745,4.428c-1.242,1.472-2.445,2.956-3.622,4.5l-0.127-0.074
					c0.787-1.799,1.96-3.395,3.226-4.873c0.643-0.732,1.307-1.447,2.021-2.11c0.708-0.668,1.438-1.315,2.232-1.886L29.642,52.405z"/>
				<path opacity="0.8" fill="#FFFFFF" d="M32.406,50.213c-0.462-0.621-1.149-0.876-1.935-0.854c-0.399,0.885-0.924,2.161-1.291,3.506
					c-0.042-1.34,0.151-2.508,0.363-3.368c-1.177,0.311-2.456,1.108-3.5,2.175c-0.791,0.808-1.413,1.654-1.796,2.486
					c0.632,1.448,1.442,2.331,1.442,2.331c-0.858-0.565-1.414-1.058-1.76-1.425c-0.25,1.026-0.081,2,0.659,2.817
					c1.352,1.491,3.84,1.215,5.74-1.524c0.121-0.175,0.234-0.334,0.351-0.501c-0.999-0.456-2.246-1.006-3.002-1.266
					c0,0,1.805,0.389,3.257,0.903c0.676-0.961,1.254-1.789,1.601-2.539c-0.907,0.028-2.438,0.159-4.063,0.664
					c0,0,1.711-1.186,4.361-1.543C32.964,51.426,32.858,50.821,32.406,50.213z"/>
			</g>
			<g>
				<path fill="#FFFFFF" d="M109.525,43.46c-1.951,2.365-3.852,4.732-5.644,7.175c-1.785,2.454-3.437,4.954-5.071,7.563
					c0.807-2.996,2.455-5.688,4.313-8.129c1.875-2.442,3.983-4.707,6.389-6.623L109.525,43.46z"/>
				<path opacity="0.8" fill="#FFFFFF" d="M111.976,42.689c-0.058-0.274-0.176-0.542-0.375-0.811c-0.993-1.334-3.362-0.69-5.6,0.732
					l1.225,3.112l-2.024-2.565c-0.664,0.484-1.301,1.024-1.865,1.593c-0.377,0.38-0.716,0.74-1.033,1.085
					c0.422,0.498,1.033,1.256,1.033,1.256l-1.346-0.909c-1.681,1.877-2.454,3.118-2.454,3.118s0.795,2.302,2.386,3.535
					c-0.354,0.265-0.354,0.265-0.354,0.265s-1.201-2.328-3.406-1.429c1.815,0.722,3.06,1.997,3.06,1.997
					c1.803,0.968,2.836,0.654,4.832-1.793l-2.408-1.912l0.486-0.442l2.354,1.811c0.335-0.432,0.697-0.915,1.092-1.458
					c2.244-3.077,4.084-4.896,4.39-6.39c-0.374-0.099-0.862-0.241-1.341-0.415C111.173,42.884,111.641,42.764,111.976,42.689z"/>
			</g>
		</g>

		<g id="Layer_4">
			<g>
				<path fill="#FFFFFF" d="M10.751,60.297c1.686,1.218,3.248,2.602,4.699,4.098c1.426,1.505,2.843,3.11,3.622,5.088l-0.167,0.099
					c-1.346-1.581-2.585-3.184-3.954-4.727c-1.361-1.542-2.776-3.044-4.221-4.535L10.751,60.297z"/>
				<path opacity="0.8" fill="#FFFFFF" d="M16.984,66.687c0,0,1.011-1.057,0.628-3.186c-0.282,0.996-1.081,2.635-1.081,2.635
					l-0.32-0.377c0,0,0.765-1.898,0.848-3.312c-1.093-1.643-2.729-3.028-3.927-3.568c0.079,1.091-0.418,3.32-0.418,3.32
					s0.218-2.616-0.025-3.382c-1.143-0.638-2.396-0.642-3.212,0.64c-0.816,1.281,0.83,2.333,1.408,3.45
					c0.578,1.118,1.033,1.97,1.033,1.97l2.231-1.465l-1.945,1.999l1.087,2.167l3.205-1.172c0,0-1.553,1.326-2.639,1.769
					C16.096,68.659,16.984,66.687,16.984,66.687z"/>
			</g>
			<g>
				<path fill="#FFFFFF" d="M29.232,37.668c-0.855,1.806-1.9,3.522-3.053,5.163c-1.159,1.637-2.443,3.192-3.85,4.64
					c-1.419,1.433-2.94,2.792-4.648,3.905c-1.71,1.094-3.627,1.948-5.653,2.213l-0.057-0.17c1.744-1,3.363-2.04,4.93-3.185
					c1.572-1.129,3.088-2.355,4.501-3.707c1.424-1.338,2.774-2.769,4.074-4.251C26.775,40.792,28.039,39.267,29.232,37.668z"/>
				<path opacity="0.8" fill="#FFFFFF" d="M30.817,42.275c1.506-2.293,1.992-7.015-0.44-7.581c-0.354-0.082-0.677-0.093-0.986-0.07
					c0.04,0.923-0.082,1.698-0.082,1.698s-0.251-0.796-0.587-1.581c-0.518,0.166-0.979,0.476-1.412,0.868
					c0.286,0.62,0.394,1.141,0.394,1.141c-0.155-0.282-0.449-0.587-0.713-0.83c-0.657,0.673-5.626,5.995-5.626,5.995
					s0.812,2.404,0.54,5.045c-0.456-1.725-1.424-4.364-1.424-4.364s-0.92,0.445-2.116,1.236c-0.038,1.354-0.04,3.918,0.414,5.363
					c0,0-1.301-2.307-1.598-4.521c-0.195,0.149-0.392,0.313-0.588,0.476c-0.185,0.437-0.364,1.157-0.185,2.172
					c0.311,1.767,1.011,2.89,1.011,2.89s-1.376-1.679-1.72-3.657c-0.29,1.847,1.577,4.261,1.577,4.261
					c3.001,2.658,6.218,1.938,6.218,1.938s-2.284-1.244-4.164-3.32c2.032,1.502,4.968,2.287,4.968,2.287
					c1.228-1.023,2.408-2.567,3.452-4.177l-1.297-1.211l1.64,0.67c1.042-0.956,2.022-2.26,2.586-3.339
					c-1.289-0.834-3.51-3.165-3.51-3.165S29.583,42.027,30.817,42.275z"/>
			</g>
			<g>
				<path fill="#FFFFFF" d="M108.833,39.703c1.188-0.768,2.553-1.292,3.989-1.461c1.43-0.188,2.958,0.066,4.229,0.839
					c1.265,0.733,2.292,1.852,2.995,3.109c0.72,1.251,1.159,2.649,1.284,4.065l-0.064,0.011c-0.427-1.34-1.01-2.607-1.725-3.773
					c-0.737-1.148-1.643-2.192-2.805-2.9c-1.137-0.701-2.511-0.99-3.875-0.909c-1.365,0.094-2.731,0.474-3.99,1.083L108.833,39.703z"/>
				<path opacity="0.8" fill="#FFFFFF" d="M118.497,40.745c0,0,0.441-2.96,2.96-3.049c-2.136,0.447-2.283,3.727-2.283,3.727
					L118.497,40.745z"/>
				<path opacity="0.8" fill="#FFFFFF" d="M118.497,40.745c0.942-3.566-0.666-5.303-4.824-5.222c-0.065,1.1-0.236,2.556-0.523,2.924
					c0.023-1.104-0.121-2.14-0.265-2.887c-0.078,0.005-0.149,0.006-0.229,0.013c-0.231,0.019-0.451,0.051-0.672,0.084l0.194,1.465
					l-0.632-1.391c-0.88,0.171-1.659,0.455-2.331,0.807c0.518,0.528,1.222,1.368,1.681,2.439c-0.711-1.021-1.778-1.707-2.362-2.033
					c-1.993,1.352-2.625,3.379-1.172,4.685c0.213,0.192,0.435,0.341,0.661,0.468c0.812-2.123,1.813-2.854,1.813-2.854
					c-0.859,1.38-1.222,2.426-1.379,3.063c1.821,0.717,3.971-0.138,5.968,0.177c1.614-1.423,2.57-2.974,2.57-2.974l0.442,0.177
					c0,0-1.024,1.725-2.192,2.989c2.528,0.757,3.931-1.25,3.931-1.25S118.762,41.01,118.497,40.745z"/>
			</g>
			<g>
				<path fill="#FFFFFF" d="M30.778,59.482c-1.392,1.364-2.815,2.662-4.201,3.997c-1.394,1.329-2.75,2.674-4.087,4.081l-0.118-0.087
					c0.977-1.704,2.315-3.164,3.733-4.496c0.719-0.659,1.456-1.297,2.238-1.879c0.776-0.588,1.572-1.152,2.423-1.634L30.778,59.482z"/>
				<path opacity="0.8" fill="#FFFFFF" d="M33.763,57.602c-0.392-0.667-1.047-0.995-1.831-1.059c-0.493,0.836-1.152,2.048-1.662,3.346
					c0.103-1.337,0.421-2.478,0.725-3.31c-1.204,0.182-2.561,0.837-3.715,1.784c-0.874,0.718-1.583,1.492-2.054,2.277
					c0.472,1.508,1.182,2.473,1.182,2.473c-0.792-0.654-1.291-1.205-1.595-1.607c-0.359,0.993-0.297,1.98,0.351,2.872
					c1.183,1.628,3.687,1.623,5.872-0.895c0.139-0.161,0.269-0.307,0.403-0.46c-0.943-0.561-2.125-1.243-2.848-1.583
					c0,0,1.752,0.582,3.141,1.25c0.776-0.882,1.44-1.643,1.866-2.351c-0.905-0.07-2.44-0.105-4.111,0.22c0,0,1.829-0.994,4.502-1.063
					C34.187,58.868,34.147,58.255,33.763,57.602z"/>
			</g>
			<g>
				<path fill="#FFFFFF" d="M109.858,51.793c-1.951,2.365-3.852,4.732-5.644,7.174c-1.785,2.455-3.437,4.954-5.071,7.564
					c0.807-2.996,2.455-5.688,4.313-8.129c1.874-2.441,3.983-4.707,6.389-6.623L109.858,51.793z"/>
				<path opacity="0.8" fill="#FFFFFF" d="M112.309,51.023c-0.058-0.274-0.176-0.542-0.375-0.811c-0.993-1.334-3.362-0.69-5.6,0.732
					l1.225,3.112l-2.024-2.565c-0.664,0.484-1.301,1.024-1.865,1.593c-0.377,0.38-0.716,0.74-1.033,1.085
					c0.422,0.498,1.033,1.256,1.033,1.256l-1.346-0.909c-1.681,1.877-2.454,3.118-2.454,3.118s0.795,2.302,2.386,3.535
					c-0.354,0.265-0.354,0.265-0.354,0.265s-1.201-2.328-3.406-1.429c1.815,0.722,3.06,1.997,3.06,1.997
					c1.803,0.968,2.836,0.654,4.832-1.793l-2.408-1.912l0.486-0.442l2.354,1.811c0.335-0.432,0.697-0.915,1.092-1.458
					c2.244-3.077,4.084-4.896,4.39-6.39c-0.374-0.099-0.862-0.241-1.341-0.415C111.507,51.217,111.974,51.097,112.309,51.023z"/>
			</g>
		</g>

		<g id="Layer_5">
			<g>
				<path fill="#FFFFFF" d="M9.26,64.609c1.737,1.145,3.357,2.46,4.872,3.893c1.49,1.442,2.975,2.984,3.838,4.927l-0.163,0.105
					c-1.413-1.521-2.72-3.07-4.154-4.552c-1.426-1.481-2.904-2.922-4.413-4.348L9.26,64.609z"/>
				<path opacity="0.8" fill="#FFFFFF" d="M15.762,70.725c0,0,0.964-1.099,0.49-3.21c-0.239,1.007-0.966,2.68-0.966,2.68l-0.336-0.364
					c0,0,0.683-1.929,0.705-3.345c-1.163-1.594-2.857-2.908-4.077-3.396c0.126,1.087-0.274,3.335-0.274,3.335s0.105-2.623-0.171-3.377
					c-1.169-0.588-2.422-0.538-3.182,0.777c-0.76,1.315,0.93,2.295,1.556,3.387c0.626,1.091,1.117,1.923,1.117,1.923l2.166-1.561
					l-1.857,2.081l1.18,2.119l3.151-1.309c0,0-1.494,1.392-2.56,1.881C14.96,72.733,15.762,70.725,15.762,70.725z"/>
			</g>
			<g>
				<path fill="#FFFFFF" d="M29.288,44.999c-0.855,1.806-1.9,3.522-3.053,5.163c-1.159,1.637-2.443,3.192-3.85,4.64
					c-1.419,1.433-2.94,2.792-4.648,3.905c-1.71,1.094-3.627,1.948-5.653,2.213l-0.057-0.17c1.744-1,3.363-2.04,4.93-3.185
					c1.572-1.129,3.088-2.355,4.501-3.707c1.424-1.338,2.774-2.769,4.074-4.251C26.831,48.124,28.095,46.598,29.288,44.999z"/>
				<path opacity="0.8" fill="#FFFFFF" d="M30.873,49.606c1.506-2.293,1.992-7.015-0.44-7.581c-0.354-0.082-0.677-0.093-0.986-0.07
					c0.04,0.923-0.082,1.698-0.082,1.698s-0.251-0.796-0.587-1.581c-0.518,0.166-0.979,0.476-1.412,0.868
					c0.286,0.62,0.394,1.141,0.394,1.141c-0.155-0.282-0.449-0.587-0.713-0.83c-0.657,0.673-5.626,5.995-5.626,5.995
					s0.812,2.404,0.54,5.045c-0.456-1.725-1.424-4.364-1.424-4.364s-0.92,0.445-2.116,1.236c-0.038,1.354-0.04,3.918,0.414,5.363
					c0,0-1.301-2.307-1.598-4.521c-0.195,0.149-0.392,0.313-0.588,0.476c-0.185,0.437-0.364,1.157-0.185,2.172
					c0.311,1.767,1.011,2.89,1.011,2.89s-1.376-1.679-1.72-3.657c-0.29,1.847,1.577,4.261,1.577,4.261
					c3.001,2.658,6.218,1.938,6.218,1.938s-2.284-1.244-4.164-3.32c2.032,1.502,4.968,2.287,4.968,2.287
					c1.228-1.023,2.408-2.567,3.452-4.177l-1.297-1.211l1.64,0.67c1.042-0.956,2.022-2.26,2.586-3.339
					c-1.289-0.834-3.51-3.165-3.51-3.165S29.639,49.358,30.873,49.606z"/>
			</g>
			<g>
				<path fill="#FFFFFF" d="M111.729,48.352c1.188-0.768,2.553-1.292,3.989-1.461c1.43-0.188,2.958,0.066,4.23,0.839
					c1.264,0.733,2.291,1.852,2.995,3.109c0.72,1.251,1.159,2.649,1.284,4.065l-0.064,0.011c-0.427-1.34-1.01-2.607-1.725-3.773
					c-0.737-1.148-1.643-2.192-2.805-2.9c-1.137-0.701-2.511-0.99-3.875-0.909c-1.365,0.094-2.731,0.474-3.99,1.083L111.729,48.352z"/>
				<path opacity="0.8" fill="#FFFFFF" d="M121.394,49.394c0,0,0.441-2.96,2.96-3.049c-2.136,0.447-2.283,3.727-2.283,3.727
					L121.394,49.394z"/>
				<path opacity="0.8" fill="#FFFFFF" d="M121.394,49.394c0.942-3.566-0.666-5.303-4.824-5.222c-0.065,1.1-0.236,2.556-0.523,2.924
					c0.023-1.104-0.121-2.14-0.265-2.887c-0.078,0.005-0.149,0.006-0.229,0.013c-0.231,0.019-0.451,0.051-0.672,0.084l0.194,1.465
					l-0.632-1.391c-0.88,0.171-1.659,0.455-2.331,0.807c0.518,0.528,1.222,1.368,1.681,2.439c-0.711-1.021-1.778-1.707-2.362-2.033
					c-1.993,1.352-2.625,3.379-1.172,4.685c0.213,0.192,0.435,0.341,0.661,0.468c0.812-2.123,1.813-2.854,1.813-2.854
					c-0.859,1.38-1.222,2.426-1.379,3.063c1.821,0.717,3.971-0.138,5.968,0.177c1.614-1.423,2.57-2.974,2.57-2.974l0.442,0.177
					c0,0-1.024,1.725-2.192,2.989c2.528,0.757,3.931-1.25,3.931-1.25S121.659,49.659,121.394,49.394z"/>
			</g>
			<g>
				<path fill="#FFFFFF" d="M30.033,65.502c-1.427,1.328-2.883,2.588-4.303,3.888c-1.427,1.293-2.818,2.603-4.19,3.975l-0.116-0.09
					c1.02-1.679,2.396-3.103,3.848-4.398c0.735-0.64,1.489-1.259,2.286-1.821c0.791-0.568,1.601-1.111,2.464-1.571L30.033,65.502z"/>
				<path opacity="0.8" fill="#FFFFFF" d="M33.065,63.698c-0.375-0.677-1.021-1.021-1.803-1.105c-0.514,0.823-1.205,2.018-1.748,3.302
					c0.137-1.333,0.485-2.466,0.81-3.29c-1.208,0.151-2.582,0.771-3.759,1.688c-0.892,0.695-1.621,1.45-2.112,2.224
					c0.433,1.52,1.118,2.502,1.118,2.502c-0.775-0.675-1.259-1.237-1.553-1.648c-0.385,0.984-0.348,1.972,0.277,2.88
					c1.14,1.659,3.644,1.717,5.892-0.744c0.144-0.157,0.277-0.3,0.415-0.449c-0.929-0.586-2.091-1.297-2.806-1.656
					c0,0,1.736,0.627,3.107,1.33c0.798-0.862,1.481-1.605,1.926-2.302c-0.902-0.093-2.437-0.168-4.115,0.114
					c0,0,1.854-0.946,4.528-0.947C33.456,64.975,33.432,64.362,33.065,63.698z"/>
			</g>
			<g>
				<path fill="#FFFFFF" d="M110.858,59.293c-1.951,2.365-3.852,4.732-5.644,7.175c-1.785,2.454-3.437,4.954-5.071,7.563
					c0.807-2.996,2.455-5.688,4.313-8.129c1.875-2.442,3.983-4.707,6.389-6.623L110.858,59.293z"/>
				<path opacity="0.8" fill="#FFFFFF" d="M113.309,58.522c-0.058-0.274-0.176-0.542-0.375-0.811c-0.993-1.334-3.362-0.69-5.6,0.732
					l1.225,3.112l-2.024-2.565c-0.664,0.484-1.301,1.024-1.865,1.593c-0.377,0.38-0.716,0.74-1.033,1.085
					c0.422,0.498,1.033,1.256,1.033,1.256l-1.346-0.909c-1.681,1.877-2.454,3.118-2.454,3.118s0.795,2.302,2.386,3.535
					c-0.354,0.265-0.354,0.265-0.354,0.265s-1.201-2.328-3.406-1.429c1.815,0.722,3.06,1.997,3.06,1.997
					c1.803,0.968,2.836,0.654,4.832-1.793l-2.408-1.912l0.486-0.442l2.354,1.811c0.335-0.432,0.697-0.915,1.092-1.458
					c2.244-3.077,4.084-4.896,4.39-6.39c-0.374-0.099-0.862-0.241-1.341-0.415C112.506,58.717,112.974,58.597,113.309,58.522z"/>
			</g>
		</g>

		<g id="Layer_6">
			<g>
				<path fill="#FFFFFF" d="M7.208,69.932c1.857,0.938,3.618,2.058,5.287,3.306c1.646,1.262,3.298,2.623,4.379,4.453l-0.149,0.124
					c-1.579-1.348-3.055-2.736-4.65-4.044c-1.587-1.308-3.222-2.568-4.884-3.812L7.208,69.932z"/>
				<path opacity="0.8" fill="#FFFFFF" d="M14.372,75.259c0,0,0.831-1.203,0.117-3.246c-0.121,1.028-0.651,2.773-0.651,2.773
					l-0.376-0.323c0,0,0.457-1.995,0.315-3.404c-1.339-1.45-3.173-2.56-4.441-2.904c0.25,1.065,0.111,3.344,0.111,3.344
					s-0.198-2.618-0.559-3.335c-1.229-0.45-2.468-0.255-3.071,1.138c-0.604,1.394,1.188,2.173,1.935,3.186
					C8.5,73.5,9.084,74.27,9.084,74.27l1.972-1.799L9.45,74.752l1.416,1.969l2.98-1.663c0,0-1.324,1.555-2.327,2.163
					C13.806,77.346,14.372,75.259,14.372,75.259z"/>
			</g>
			<g>
				<path fill="#FFFFFF" d="M30.942,52.26c-0.976,1.744-2.134,3.386-3.395,4.945c-1.267,1.555-2.653,3.019-4.154,4.369
					c-1.513,1.333-3.122,2.587-4.902,3.583c-1.781,0.975-3.75,1.699-5.79,1.826l-0.045-0.174c1.808-0.88,3.493-1.808,5.134-2.844
					c1.645-1.021,3.239-2.142,4.741-3.394c1.512-1.24,2.955-2.575,4.352-3.966C28.28,55.211,29.644,53.774,30.942,52.26z"/>
				<path opacity="0.8" fill="#FFFFFF" d="M32.212,56.964c1.658-2.187,2.462-6.864,0.073-7.594c-0.347-0.105-0.669-0.139-0.979-0.136
					c-0.022,0.924-0.196,1.689-0.196,1.689s-0.197-0.812-0.479-1.617c-0.527,0.13-1.008,0.408-1.467,0.77
					c0.244,0.638,0.316,1.165,0.316,1.165c-0.135-0.292-0.408-0.616-0.655-0.876c-0.701,0.627-6.019,5.601-6.019,5.601
					s0.648,2.454,0.198,5.07c-0.338-1.752-1.126-4.45-1.126-4.45s-0.948,0.381-2.194,1.09c-0.129,1.349-0.304,3.907,0.05,5.378
					c0,0-1.142-2.39-1.289-4.619c-0.204,0.136-0.412,0.286-0.619,0.436c-0.213,0.423-0.441,1.129-0.331,2.155
					c0.191,1.784,0.813,2.952,0.813,2.952s-1.26-1.768-1.469-3.764c-0.414,1.823,1.285,4.357,1.285,4.357
					c2.814,2.854,6.073,2.354,6.073,2.354s-2.194-1.395-3.93-3.593c1.926,1.636,4.802,2.617,4.802,2.617
					c1.294-0.938,2.576-2.399,3.726-3.935l-1.212-1.296l1.591,0.78c1.104-0.883,2.17-2.118,2.806-3.157
					c-1.23-0.92-3.289-3.395-3.289-3.395S30.998,56.632,32.212,56.964z"/>
			</g>
			<g>
				<path fill="#FFFFFF" d="M113.696,56.674c1.165-0.803,2.514-1.368,3.943-1.58c1.424-0.23,2.959-0.023,4.253,0.712
					c1.286,0.695,2.346,1.782,3.086,3.017c0.757,1.229,1.238,2.613,1.405,4.025l-0.064,0.013c-0.467-1.326-1.087-2.576-1.837-3.72
					c-0.771-1.125-1.708-2.142-2.89-2.814c-1.157-0.667-2.54-0.915-3.9-0.793c-1.362,0.135-2.716,0.556-3.956,1.203L113.696,56.674z"/>
				<path opacity="0.8" fill="#FFFFFF" d="M123.388,57.426c0,0,0.353-2.972,2.868-3.136c-2.121,0.511-2.17,3.794-2.17,3.794
					L123.388,57.426z"/>
				<path opacity="0.8" fill="#FFFFFF" d="M123.388,57.426c0.835-3.592-0.825-5.281-4.979-5.075c-0.032,1.102-0.159,2.562-0.435,2.938
					c-0.01-1.104-0.185-2.135-0.352-2.878c-0.078,0.008-0.149,0.011-0.228,0.02c-0.23,0.025-0.449,0.065-0.669,0.104l0.237,1.458
					l-0.673-1.371c-0.875,0.197-1.645,0.504-2.306,0.876c0.534,0.512,1.262,1.331,1.753,2.388c-0.741-0.999-1.829-1.653-2.422-1.961
					c-1.951,1.411-2.522,3.456-1.032,4.718c0.219,0.185,0.445,0.328,0.675,0.448c0.748-2.146,1.727-2.908,1.727-2.908
					c-0.818,1.405-1.148,2.461-1.287,3.103c1.842,0.662,3.965-0.257,5.97-0.002c1.571-1.471,2.48-3.05,2.48-3.05l0.447,0.164
					c0,0-0.972,1.754-2.102,3.053c2.55,0.681,3.892-1.367,3.892-1.367S123.661,57.684,123.388,57.426z"/>
			</g>
			<g>
				<path fill="#FFFFFF" d="M29.309,71.458c-1.577,1.146-3.174,2.222-4.74,3.34c-1.573,1.111-3.112,2.244-4.64,3.44l-0.104-0.104
					c1.215-1.543,2.753-2.791,4.351-3.901c0.807-0.546,1.63-1.07,2.489-1.531c0.854-0.468,1.723-0.91,2.636-1.262L29.309,71.458z"/>
				<path opacity="0.8" fill="#FFFFFF" d="M32.537,70.034c-0.29-0.717-0.891-1.137-1.656-1.314c-0.609,0.755-1.439,1.857-2.134,3.066
					c0.297-1.307,0.78-2.389,1.201-3.167c-1.217,0.004-2.656,0.453-3.936,1.222c-0.97,0.582-1.785,1.244-2.365,1.953
					c0.246,1.561,0.808,2.619,0.808,2.619c-0.688-0.763-1.101-1.38-1.343-1.823c-0.501,0.93-0.583,1.916-0.073,2.892
					c0.932,1.784,3.41,2.145,5.939-0.026c0.162-0.139,0.311-0.265,0.466-0.396c-0.852-0.694-1.919-1.541-2.586-1.983
					c0,0,1.648,0.832,2.924,1.695c0.896-0.759,1.665-1.415,2.189-2.052c-0.884-0.202-2.399-0.461-4.099-0.383
					c0,0,1.955-0.716,4.609-0.394C32.771,71.349,32.822,70.737,32.537,70.034z"/>
			</g>
			<g>
				<path fill="#FFFFFF" d="M112.358,66.793c-1.951,2.365-3.852,4.732-5.644,7.175c-1.785,2.454-3.437,4.954-5.071,7.563
					c0.807-2.996,2.455-5.688,4.313-8.129c1.875-2.442,3.983-4.707,6.389-6.623L112.358,66.793z"/>
				<path opacity="0.8" fill="#FFFFFF" d="M114.809,66.022c-0.058-0.274-0.176-0.542-0.375-0.811c-0.993-1.334-3.362-0.69-5.6,0.732
					l1.225,3.112l-2.024-2.565c-0.664,0.484-1.301,1.024-1.865,1.593c-0.377,0.38-0.716,0.74-1.033,1.085
					c0.422,0.498,1.033,1.256,1.033,1.256l-1.346-0.909c-1.681,1.877-2.454,3.118-2.454,3.118s0.795,2.302,2.386,3.535
					c-0.354,0.265-0.354,0.265-0.354,0.265s-1.201-2.328-3.406-1.429c1.815,0.722,3.06,1.997,3.06,1.997
					c1.803,0.968,2.836,0.654,4.832-1.793l-2.408-1.912l0.486-0.442l2.354,1.811c0.335-0.432,0.697-0.915,1.092-1.458
					c2.244-3.077,4.084-4.896,4.39-6.39c-0.374-0.099-0.862-0.241-1.341-0.415C114.006,66.217,114.474,66.097,114.809,66.022z"/>
			</g>
		</g>

		<g id="Layer_7">
			<g>
				<path fill="#FFFFFF" d="M6.975,75.275c1.961,0.694,3.85,1.582,5.664,2.608c1.792,1.043,3.604,2.183,4.909,3.861l-0.133,0.142
					c-1.737-1.137-3.377-2.327-5.125-3.421c-1.741-1.095-3.521-2.139-5.328-3.162L6.975,75.275z"/>
				<path opacity="0.8" fill="#FFFFFF" d="M14.755,79.65c0,0,0.672-1.299-0.295-3.234c0.01,1.035-0.294,2.833-0.294,2.833l-0.414-0.272
					c0,0,0.2-2.037-0.12-3.417c-1.511-1.268-3.471-2.136-4.773-2.316c0.383,1.024,0.535,3.303,0.535,3.303s-0.528-2.572-0.977-3.238
					c-1.276-0.291-2.48,0.06-2.902,1.519s1.454,2.004,2.323,2.914c0.87,0.91,1.546,1.599,1.546,1.599l1.728-2.035L9.81,79.771
					l1.654,1.773l2.745-2.027c0,0-1.117,1.71-2.034,2.441C14.459,81.792,14.755,79.65,14.755,79.65z"/>
			</g>
			<g>
				<path fill="#FFFFFF" d="M31.956,62.827c-1.326,1.494-2.81,2.851-4.375,4.103c-1.57,1.248-3.238,2.381-4.994,3.378
					c-1.763,0.978-3.604,1.858-5.555,2.449c-1.948,0.571-4.027,0.856-6.046,0.544l-0.007-0.18c1.954-0.472,3.799-1.018,5.624-1.678
					c1.825-0.645,3.623-1.398,5.358-2.3c1.742-0.887,3.438-1.882,5.1-2.942C28.723,65.14,30.363,64.028,31.956,62.827z"/>
				<path opacity="0.8" fill="#FFFFFF" d="M32.189,67.693c2.087-1.78,3.875-6.178,1.697-7.401c-0.316-0.178-0.624-0.279-0.928-0.343
					c-0.22,0.898-0.553,1.608-0.553,1.608s-0.018-0.834-0.121-1.682c-0.543,0.015-1.073,0.183-1.598,0.438
					c0.102,0.675,0.06,1.205,0.06,1.205c-0.07-0.314-0.267-0.689-0.453-0.996c-0.819,0.462-7.078,4.182-7.078,4.182
					s0.107,2.536-0.893,4.995c0.045-1.784-0.147-4.588-0.147-4.588s-1.007,0.17-2.377,0.595c-0.415,1.29-1.134,3.751-1.103,5.265
					c0,0-0.604-2.579-0.27-4.788c-0.229,0.089-0.463,0.191-0.697,0.292c-0.3,0.368-0.673,1.009-0.785,2.034
					c-0.195,1.783,0.163,3.058,0.163,3.058s-0.852-1.997-0.629-3.992c-0.794,1.693,0.322,4.532,0.322,4.532
					c2.138,3.391,5.428,3.6,5.428,3.6s-1.845-1.833-3.069-4.352c1.531,2.01,4.13,3.585,4.13,3.585c1.465-0.639,3.03-1.792,4.482-3.045
					l-0.906-1.525l1.387,1.103c1.267-0.626,2.573-1.604,3.417-2.483c-1.004-1.162-2.485-4.021-2.485-4.021S31.074,67.11,32.189,67.693z
					"/>
			</g>
			<g>
				<path fill="#FFFFFF" d="M115.045,65.757c1.042-0.958,2.298-1.707,3.684-2.116c1.378-0.427,2.927-0.437,4.311,0.111
					c1.371,0.509,2.572,1.437,3.478,2.556c0.921,1.111,1.591,2.415,1.954,3.789l-0.062,0.021c-0.648-1.248-1.437-2.398-2.339-3.426
					c-0.921-1.007-1.99-1.882-3.255-2.383c-1.239-0.499-2.643-0.551-3.973-0.24c-1.329,0.324-2.611,0.93-3.748,1.744L115.045,65.757z"
					/>
				<path opacity="0.8" fill="#FFFFFF" d="M124.747,65.146c0,0-0.066-2.992,2.401-3.506c-2.029,0.802-1.618,4.06-1.618,4.06
					L124.747,65.146z"/>
				<path opacity="0.8" fill="#FFFFFF" d="M124.747,65.146c0.325-3.674-1.555-5.113-5.639-4.329c0.123,1.095,0.201,2.559-0.02,2.97
					c-0.165-1.092-0.482-2.089-0.75-2.801c-0.076,0.019-0.146,0.032-0.223,0.051c-0.225,0.058-0.436,0.127-0.648,0.197l0.439,1.411
					l-0.858-1.263c-0.838,0.317-1.558,0.729-2.161,1.189c0.6,0.433,1.436,1.142,2.07,2.12c-0.874-0.885-2.042-1.381-2.672-1.604
					c-1.735,1.669-2.014,3.774-0.362,4.816c0.242,0.153,0.486,0.263,0.73,0.35c0.44-2.23,1.304-3.121,1.304-3.121
					c-0.613,1.505-0.793,2.598-0.841,3.252c1.917,0.398,3.89-0.809,5.912-0.837c1.35-1.676,2.029-3.367,2.029-3.367l0.465,0.1
					c0,0-0.717,1.873-1.654,3.317c2.62,0.318,3.662-1.898,3.662-1.898S125.053,65.363,124.747,65.146z"/>
			</g>
			<g>
				<path fill="#FFFFFF" d="M28.872,77.961c-1.702,0.951-3.416,1.828-5.104,2.752c-1.694,0.917-3.356,1.858-5.016,2.864l-0.091-0.115
					c1.39-1.387,3.065-2.444,4.783-3.356c0.866-0.447,1.746-0.869,2.653-1.225c0.904-0.363,1.819-0.698,2.767-0.94L28.872,77.961z"/>
				<path opacity="0.8" fill="#FFFFFF" d="M32.247,76.93c-0.203-0.747-0.75-1.235-1.489-1.502c-0.695,0.678-1.65,1.674-2.483,2.792
					c0.45-1.262,1.058-2.279,1.569-3.002c-1.209-0.141-2.691,0.134-4.053,0.746c-1.032,0.462-1.92,1.023-2.581,1.657
					c0.059,1.579,0.491,2.697,0.491,2.697c-0.593-0.84-0.929-1.501-1.117-1.97c-0.607,0.864-0.807,1.833-0.416,2.863
					c0.713,1.882,3.131,2.534,5.9,0.679c0.176-0.119,0.34-0.226,0.51-0.338c-0.763-0.79-1.723-1.757-2.332-2.275
					c0,0,1.537,1.021,2.702,2.031c0.98-0.647,1.821-1.207,2.418-1.778c-0.854-0.305-2.327-0.743-4.024-0.867
					c0,0,2.026-0.479,4.623,0.157C32.323,78.263,32.445,77.662,32.247,76.93z"/>
			</g>
			<g>
				<path fill="#FFFFFF" d="M114.858,73.293c-1.951,2.365-3.852,4.732-5.644,7.174c-1.785,2.455-3.437,4.954-5.071,7.563
					c0.807-2.996,2.455-5.688,4.313-8.129c1.874-2.441,3.983-4.707,6.389-6.623L114.858,73.293z"/>
				<path opacity="0.8" fill="#FFFFFF" d="M117.309,72.523c-0.058-0.274-0.176-0.542-0.375-0.811c-0.993-1.334-3.362-0.69-5.6,0.732
					l1.225,3.112l-2.024-2.565c-0.664,0.484-1.301,1.024-1.865,1.593c-0.377,0.38-0.716,0.74-1.033,1.085
					c0.422,0.498,1.033,1.256,1.033,1.256l-1.346-0.909c-1.681,1.877-2.454,3.118-2.454,3.118s0.795,2.302,2.386,3.535
					c-0.354,0.265-0.354,0.265-0.354,0.265s-1.201-2.328-3.406-1.429c1.815,0.722,3.06,1.997,3.06,1.997
					c1.803,0.968,2.836,0.654,4.832-1.793l-2.408-1.912l0.486-0.442l2.354,1.811c0.335-0.432,0.697-0.915,1.092-1.458
					c2.244-3.077,4.084-4.896,4.39-6.39c-0.374-0.099-0.862-0.241-1.341-0.415C116.506,72.717,116.974,72.597,117.309,72.523z"/>
			</g>
		</g>

		<g id="Layer_8">
			<g opacity="0.75">
				<path fill="#FFFFFF" d="M6.993,79.364c1.961,0.694,3.85,1.582,5.664,2.608c1.792,1.043,3.604,2.183,4.909,3.861l-0.133,0.143
					c-1.737-1.137-3.377-2.327-5.125-3.421c-1.741-1.095-3.521-2.139-5.328-3.162L6.993,79.364z"/>
				<path opacity="0.8" fill="#FFFFFF" d="M14.773,83.739c0,0,0.672-1.299-0.295-3.234c0.01,1.035-0.294,2.833-0.294,2.833
					l-0.414-0.272c0,0,0.2-2.037-0.12-3.417c-1.511-1.268-3.471-2.136-4.773-2.316c0.383,1.024,0.535,3.303,0.535,3.303
					s-0.528-2.572-0.977-3.238c-1.276-0.291-2.48,0.06-2.902,1.519s1.454,2.004,2.323,2.914c0.87,0.91,1.546,1.599,1.546,1.599
					l1.728-2.035L9.828,83.86l1.654,1.773l2.745-2.027c0,0-1.117,1.71-2.034,2.44C14.477,85.881,14.773,83.739,14.773,83.739z"/>
			</g>
			<g opacity="0.75">
				<path fill="#FFFFFF" d="M32.456,68.327c-1.326,1.494-2.81,2.851-4.375,4.103c-1.57,1.248-3.238,2.381-4.994,3.378
					c-1.763,0.978-3.604,1.858-5.555,2.449c-1.948,0.571-4.027,0.856-6.046,0.544l-0.007-0.18c1.954-0.472,3.799-1.018,5.624-1.678
					c1.825-0.645,3.623-1.398,5.358-2.3c1.742-0.887,3.438-1.882,5.1-2.942C29.223,70.64,30.863,69.528,32.456,68.327z"/>
				<path opacity="0.8" fill="#FFFFFF" d="M32.689,73.193c2.087-1.78,3.875-6.178,1.697-7.401c-0.316-0.178-0.624-0.279-0.928-0.343
					c-0.22,0.898-0.553,1.608-0.553,1.608s-0.018-0.834-0.121-1.682c-0.543,0.015-1.073,0.183-1.598,0.438
					c0.102,0.675,0.06,1.205,0.06,1.205c-0.07-0.314-0.267-0.689-0.453-0.996c-0.819,0.462-7.078,4.182-7.078,4.182
					s0.107,2.536-0.893,4.995c0.045-1.784-0.147-4.588-0.147-4.588s-1.007,0.17-2.377,0.595c-0.415,1.29-1.134,3.751-1.103,5.265
					c0,0-0.604-2.579-0.27-4.788c-0.229,0.089-0.463,0.191-0.697,0.292c-0.3,0.368-0.673,1.009-0.785,2.034
					c-0.195,1.783,0.163,3.058,0.163,3.058s-0.852-1.997-0.629-3.992c-0.794,1.693,0.322,4.532,0.322,4.532
					c2.138,3.391,5.428,3.6,5.428,3.6s-1.845-1.833-3.069-4.352c1.531,2.01,4.13,3.585,4.13,3.585c1.465-0.639,3.03-1.792,4.482-3.045
					l-0.906-1.525l1.387,1.103c1.267-0.626,2.573-1.604,3.417-2.483c-1.004-1.162-2.485-4.021-2.485-4.021S31.574,72.61,32.689,73.193z
					"/>
			</g>
			<g opacity="0.75">
				<path fill="#FFFFFF" d="M116.179,73.885c1.042-0.958,2.298-1.707,3.684-2.116c1.378-0.427,2.927-0.437,4.311,0.111
					c1.371,0.508,2.572,1.437,3.478,2.556c0.921,1.111,1.591,2.415,1.954,3.789l-0.062,0.021c-0.648-1.248-1.437-2.398-2.339-3.426
					c-0.921-1.007-1.99-1.882-3.255-2.383c-1.239-0.498-2.643-0.55-3.973-0.24c-1.33,0.324-2.611,0.93-3.748,1.744L116.179,73.885z"/>
				<path opacity="0.8" fill="#FFFFFF" d="M125.881,73.274c0,0-0.066-2.992,2.401-3.506c-2.029,0.802-1.618,4.06-1.618,4.06
					L125.881,73.274z"/>
				<path opacity="0.8" fill="#FFFFFF" d="M125.881,73.274c0.325-3.674-1.555-5.113-5.639-4.329c0.123,1.095,0.201,2.559-0.02,2.97
					c-0.165-1.092-0.482-2.089-0.75-2.801c-0.076,0.019-0.146,0.032-0.223,0.051c-0.225,0.058-0.436,0.127-0.648,0.197l0.439,1.411
					l-0.858-1.263c-0.838,0.317-1.558,0.729-2.161,1.189c0.6,0.433,1.436,1.142,2.07,2.12c-0.874-0.885-2.042-1.381-2.672-1.604
					c-1.735,1.669-2.014,3.774-0.362,4.816c0.242,0.153,0.486,0.263,0.73,0.35c0.44-2.23,1.304-3.121,1.304-3.121
					c-0.613,1.505-0.793,2.598-0.841,3.252c1.917,0.398,3.89-0.809,5.912-0.837c1.35-1.676,2.029-3.367,2.029-3.367l0.465,0.1
					c0,0-0.717,1.873-1.654,3.317c2.62,0.318,3.662-1.898,3.662-1.898S126.187,73.491,125.881,73.274z"/>
			</g>
			<g opacity="0.75">
				<path fill="#FFFFFF" d="M28.573,82.81c-1.702,0.951-3.416,1.829-5.104,2.753c-1.694,0.917-3.356,1.857-5.016,2.864l-0.091-0.115
					c1.39-1.388,3.065-2.444,4.783-3.356c0.867-0.447,1.746-0.869,2.653-1.225c0.904-0.363,1.819-0.698,2.767-0.94L28.573,82.81z"/>
				<path opacity="0.8" fill="#FFFFFF" d="M31.948,81.779c-0.203-0.747-0.75-1.235-1.489-1.502c-0.695,0.678-1.65,1.674-2.483,2.792
					c0.45-1.262,1.058-2.279,1.569-3.002c-1.209-0.141-2.691,0.134-4.053,0.746c-1.032,0.462-1.92,1.023-2.581,1.657
					c0.059,1.579,0.491,2.697,0.491,2.697c-0.593-0.84-0.929-1.502-1.117-1.971c-0.607,0.864-0.807,1.832-0.416,2.863
					c0.713,1.882,3.131,2.534,5.9,0.68c0.176-0.119,0.34-0.227,0.51-0.339c-0.763-0.79-1.723-1.757-2.332-2.275
					c0,0,1.537,1.021,2.702,2.03c0.98-0.646,1.821-1.207,2.418-1.777c-0.854-0.305-2.327-0.743-4.024-0.867
					c0,0,2.026-0.479,4.623,0.157C32.024,83.112,32.147,82.511,31.948,81.779z"/>
			</g>
			<g opacity="0.75">
				<path fill="#FFFFFF" d="M113.024,80.626c-1.951,2.365-3.852,4.732-5.645,7.174c-1.784,2.454-3.436,4.953-5.07,7.563
					c0.807-2.996,2.455-5.688,4.313-8.129c1.875-2.442,3.983-4.707,6.389-6.623L113.024,80.626z"/>
				<path opacity="0.8" fill="#FFFFFF" d="M115.475,79.856c-0.058-0.274-0.176-0.542-0.375-0.811c-0.993-1.334-3.362-0.69-5.6,0.732
					l1.225,3.112l-2.024-2.565c-0.664,0.484-1.301,1.024-1.865,1.593c-0.377,0.38-0.716,0.74-1.033,1.085
					c0.422,0.498,1.033,1.256,1.033,1.256l-1.346-0.909c-1.681,1.876-2.454,3.119-2.454,3.119s0.795,2.302,2.386,3.535
					c-0.354,0.265-0.354,0.265-0.354,0.265s-1.201-2.328-3.406-1.429c1.815,0.722,3.06,1.996,3.06,1.996
					c1.803,0.969,2.836,0.654,4.832-1.793l-2.408-1.912l0.486-0.441l2.354,1.811c0.335-0.432,0.697-0.914,1.092-1.457
					c2.244-3.077,4.084-4.896,4.39-6.39c-0.374-0.099-0.862-0.241-1.341-0.415C114.673,80.05,115.14,79.93,115.475,79.856z"/>
			</g>
		</g>

		<g id="Layer_9">
			<g opacity="0.5">
				<path fill="#FFFFFF" d="M7.459,84.02c1.961,0.694,3.85,1.582,5.664,2.608c1.792,1.043,3.604,2.184,4.909,3.861l-0.133,0.143
					c-1.737-1.138-3.377-2.327-5.125-3.422c-1.741-1.096-3.521-2.139-5.328-3.161L7.459,84.02z"/>
				<path opacity="0.8" fill="#FFFFFF" d="M15.24,88.395c0,0,0.672-1.299-0.295-3.234c0.01,1.035-0.294,2.834-0.294,2.834l-0.414-0.272
					c0,0,0.2-2.036-0.12-3.417c-1.511-1.268-3.471-2.136-4.773-2.316c0.383,1.024,0.535,3.303,0.535,3.303s-0.528-2.571-0.977-3.237
					c-1.276-0.291-2.48,0.06-2.902,1.519s1.454,2.004,2.323,2.914c0.87,0.909,1.546,1.599,1.546,1.599l1.728-2.035l-1.303,2.466
					l1.654,1.773l2.745-2.027c0,0-1.117,1.711-2.034,2.441C14.943,90.537,15.24,88.395,15.24,88.395z"/>
			</g>
			<g opacity="0.5">
				<path fill="#FFFFFF" d="M32.545,72.653c-1.173,1.617-2.517,3.112-3.952,4.511c-1.441,1.396-2.99,2.687-4.64,3.851
					c-1.658,1.146-3.404,2.202-5.289,2.981c-1.883,0.759-3.924,1.247-5.964,1.133l-0.024-0.178c1.898-0.662,3.681-1.385,5.433-2.221
					c1.753-0.82,3.469-1.746,5.108-2.813c1.646-1.053,3.237-2.209,4.788-3.427C29.555,75.271,31.078,74.004,32.545,72.653z"/>
				<path opacity="0.8" fill="#FFFFFF" d="M33.254,77.473c1.903-1.976,3.251-6.527,0.965-7.532c-0.332-0.146-0.648-0.217-0.957-0.251
					c-0.131,0.916-0.394,1.654-0.394,1.654s-0.1-0.829-0.285-1.662c-0.54,0.068-1.05,0.287-1.548,0.593
					c0.167,0.662,0.177,1.193,0.177,1.193c-0.1-0.306-0.333-0.659-0.548-0.947c-0.77,0.54-6.635,4.854-6.635,4.854
					s0.355,2.513-0.4,5.059c-0.13-1.78-0.595-4.551-0.595-4.551s-0.986,0.268-2.307,0.824c-0.287,1.324-0.761,3.844-0.582,5.347
					c0,0-0.854-2.507-0.737-4.739c-0.219,0.111-0.442,0.235-0.666,0.359c-0.262,0.396-0.571,1.07-0.582,2.102
					c-0.02,1.793,0.461,3.027,0.461,3.027s-1.043-1.904-1.017-3.912c-0.625,1.763,0.764,4.479,0.764,4.479
					c2.46,3.166,5.754,3.05,5.754,3.05s-2.015-1.642-3.48-4.029c1.721,1.851,4.461,3.164,4.461,3.164c1.396-0.779,2.84-2.08,4.163-3.47
					l-1.051-1.43l1.488,0.962c1.2-0.748,2.404-1.849,3.157-2.806c-1.113-1.058-2.866-3.758-2.866-3.758S32.086,77.002,33.254,77.473z"
					/>
			</g>
			<g opacity="0.5">
				<path fill="#FFFFFF" d="M116.545,83.424c1.042-0.958,2.298-1.707,3.684-2.116c1.378-0.427,2.927-0.437,4.311,0.111
					c1.371,0.508,2.572,1.437,3.478,2.556c0.921,1.111,1.591,2.415,1.954,3.789l-0.062,0.021c-0.648-1.248-1.437-2.398-2.339-3.426
					c-0.921-1.007-1.99-1.882-3.255-2.383c-1.239-0.498-2.643-0.55-3.973-0.24c-1.329,0.324-2.611,0.93-3.748,1.744L116.545,83.424z"/>
				<path opacity="0.8" fill="#FFFFFF" d="M126.247,82.813c0,0-0.066-2.992,2.401-3.506c-2.029,0.802-1.618,4.06-1.618,4.06
					L126.247,82.813z"/>
				<path opacity="0.8" fill="#FFFFFF" d="M126.247,82.813c0.325-3.674-1.555-5.113-5.639-4.329c0.123,1.095,0.201,2.559-0.02,2.97
					c-0.165-1.092-0.482-2.089-0.75-2.801c-0.076,0.019-0.146,0.032-0.223,0.051c-0.225,0.058-0.436,0.127-0.648,0.197l0.439,1.411
					l-0.858-1.263c-0.838,0.317-1.558,0.729-2.161,1.189c0.6,0.433,1.436,1.142,2.07,2.12c-0.874-0.885-2.042-1.381-2.672-1.604
					c-1.735,1.669-2.014,3.774-0.362,4.815c0.242,0.153,0.486,0.264,0.73,0.35c0.44-2.229,1.304-3.12,1.304-3.12
					c-0.613,1.505-0.793,2.598-0.841,3.252c1.917,0.397,3.89-0.809,5.912-0.837c1.35-1.676,2.029-3.367,2.029-3.367l0.465,0.1
					c0,0-0.717,1.873-1.654,3.317c2.62,0.317,3.662-1.898,3.662-1.898S126.553,83.03,126.247,82.813z"/>
			</g>
			<g opacity="0.5">
				<path fill="#FFFFFF" d="M27.43,88.075c-1.702,0.951-3.416,1.829-5.104,2.753c-1.694,0.917-3.356,1.857-5.016,2.864l-0.091-0.115
					c1.39-1.388,3.065-2.444,4.783-3.356c0.867-0.447,1.746-0.869,2.653-1.226c0.904-0.362,1.819-0.698,2.767-0.939L27.43,88.075z"/>
				<path opacity="0.8" fill="#FFFFFF" d="M30.805,87.045c-0.203-0.746-0.75-1.234-1.489-1.502c-0.695,0.678-1.65,1.674-2.483,2.791
					c0.45-1.262,1.058-2.279,1.569-3.002c-1.209-0.141-2.691,0.134-4.053,0.745c-1.032,0.462-1.92,1.022-2.581,1.657
					c0.059,1.579,0.491,2.697,0.491,2.697c-0.593-0.84-0.929-1.502-1.117-1.971c-0.607,0.864-0.807,1.832-0.416,2.863
					c0.713,1.882,3.131,2.534,5.9,0.68c0.176-0.119,0.34-0.227,0.51-0.339c-0.763-0.79-1.723-1.757-2.332-2.275
					c0,0,1.537,1.021,2.702,2.03c0.98-0.646,1.821-1.207,2.418-1.777c-0.854-0.305-2.327-0.742-4.024-0.867
					c0,0,2.026-0.479,4.623,0.156C30.881,88.378,31.004,87.777,30.805,87.045z"/>
			</g>
			<g opacity="0.5">
				<path fill="#FFFFFF" d="M112.524,86.128c-1.951,2.365-3.852,4.731-5.644,7.174c-1.784,2.455-3.437,4.954-5.071,7.563
					c0.807-2.996,2.455-5.688,4.313-8.129c1.874-2.441,3.983-4.706,6.389-6.622L112.524,86.128z"/>
				<path opacity="0.8" fill="#FFFFFF" d="M114.975,85.357c-0.058-0.274-0.176-0.543-0.375-0.812c-0.993-1.334-3.362-0.69-5.6,0.732
					l1.225,3.112l-2.024-2.566c-0.664,0.484-1.301,1.025-1.865,1.594c-0.377,0.381-0.716,0.74-1.033,1.086
					c0.422,0.498,1.033,1.256,1.033,1.256l-1.346-0.908c-1.681,1.877-2.454,3.117-2.454,3.117s0.795,2.303,2.386,3.535
					c-0.354,0.266-0.354,0.266-0.354,0.266s-1.201-2.328-3.406-1.43c1.815,0.723,3.06,1.998,3.06,1.998
					c1.803,0.967,2.836,0.654,4.832-1.793l-2.408-1.912l0.486-0.442l2.354,1.812c0.335-0.432,0.697-0.916,1.092-1.458
					c2.244-3.077,4.084-4.896,4.39-6.39c-0.374-0.1-0.862-0.241-1.341-0.416C114.173,85.551,114.64,85.432,114.975,85.357z"/>
			</g>
		</g>

		<g id="Layer_10">
			<g opacity="0.3">
				<path fill="#FFFFFF" d="M7.362,88.303c1.961,0.694,3.85,1.582,5.664,2.608c1.792,1.043,3.604,2.184,4.909,3.861l-0.133,0.143
					c-1.737-1.138-3.377-2.327-5.125-3.422c-1.741-1.096-3.521-2.139-5.328-3.161L7.362,88.303z"/>
				<path opacity="0.8" fill="#FFFFFF" d="M15.143,92.678c0,0,0.672-1.299-0.295-3.234c0.01,1.035-0.294,2.834-0.294,2.834
					l-0.414-0.272c0,0,0.2-2.036-0.12-3.417c-1.511-1.268-3.471-2.137-4.773-2.316c0.383,1.024,0.535,3.303,0.535,3.303
					s-0.528-2.571-0.977-3.237c-1.276-0.29-2.48,0.06-2.902,1.519s1.454,2.004,2.323,2.914c0.87,0.909,1.546,1.599,1.546,1.599
					l1.728-2.035l-1.303,2.466l1.654,1.773l2.745-2.027c0,0-1.117,1.711-2.034,2.441C14.846,94.82,15.143,92.678,15.143,92.678z"/>
			</g>
			<g opacity="0.3">
				<path fill="#FFFFFF" d="M33.15,76.879c-1.072,1.686-2.32,3.261-3.667,4.747c-1.352,1.482-2.818,2.866-4.393,4.13
					c-1.585,1.246-3.262,2.408-5.095,3.302c-1.833,0.874-3.84,1.486-5.883,1.499l-0.035-0.176c1.854-0.777,3.589-1.609,5.286-2.552
					c1.699-0.927,3.354-1.957,4.924-3.123c1.579-1.153,3.095-2.405,4.567-3.716C30.326,79.677,31.769,78.318,33.15,76.879z"/>
				<path opacity="0.8" fill="#FFFFFF" d="M34.154,81.646c1.778-2.089,2.843-6.715,0.499-7.577c-0.34-0.125-0.66-0.176-0.97-0.191
					c-0.074,0.922-0.291,1.675-0.291,1.675s-0.15-0.821-0.387-1.641c-0.534,0.101-1.03,0.351-1.508,0.687
					c0.208,0.65,0.251,1.18,0.251,1.18c-0.119-0.299-0.373-0.637-0.605-0.911c-0.735,0.586-6.322,5.255-6.322,5.255
					s0.509,2.486-0.088,5.074c-0.239-1.769-0.875-4.506-0.875-4.506s-0.968,0.328-2.252,0.965c-0.205,1.339-0.522,3.883-0.251,5.373
					c0,0-1.007-2.45-1.028-4.685c-0.211,0.124-0.427,0.262-0.642,0.4c-0.237,0.411-0.504,1.103-0.451,2.133
					c0.09,1.79,0.647,2.993,0.647,2.993s-1.159-1.836-1.257-3.842c-0.515,1.799,1.039,4.422,1.039,4.422
					c2.651,3.01,5.931,2.691,5.931,2.691s-2.113-1.516-3.722-3.807c1.832,1.738,4.647,2.883,4.647,2.883
					c1.345-0.865,2.706-2.252,3.94-3.723l-1.137-1.361l1.544,0.869c1.151-0.82,2.285-1.994,2.978-2.996
					c-1.176-0.987-3.092-3.574-3.092-3.574S32.96,81.248,34.154,81.646z"/>
			</g>
			<g opacity="0.3">
				<path fill="#FFFFFF" d="M115.604,92.315c1.042-0.958,2.298-1.706,3.684-2.115c1.378-0.428,2.927-0.437,4.311,0.11
					c1.371,0.509,2.572,1.437,3.478,2.557c0.921,1.111,1.591,2.415,1.954,3.789l-0.062,0.021c-0.648-1.248-1.437-2.398-2.339-3.427
					c-0.921-1.006-1.99-1.882-3.255-2.383c-1.239-0.498-2.643-0.551-3.973-0.24c-1.33,0.324-2.611,0.93-3.749,1.744L115.604,92.315z"/>
				<path opacity="0.8" fill="#FFFFFF" d="M125.306,91.705c0,0-0.066-2.992,2.401-3.506c-2.029,0.803-1.618,4.061-1.618,4.061
					L125.306,91.705z"/>
				<path opacity="0.8" fill="#FFFFFF" d="M125.306,91.705c0.325-3.674-1.555-5.113-5.639-4.328c0.123,1.096,0.201,2.559-0.02,2.971
					c-0.165-1.092-0.482-2.09-0.75-2.801c-0.076,0.018-0.146,0.031-0.223,0.051c-0.225,0.058-0.436,0.127-0.648,0.197l0.439,1.41
					l-0.858-1.264c-0.838,0.318-1.558,0.73-2.161,1.189c0.6,0.434,1.436,1.143,2.07,2.12c-0.874-0.886-2.042-1.382-2.672-1.604
					c-1.735,1.669-2.014,3.774-0.362,4.815c0.242,0.153,0.486,0.264,0.73,0.35c0.44-2.229,1.304-3.12,1.304-3.12
					c-0.613,1.505-0.793,2.598-0.841,3.252c1.917,0.397,3.89-0.809,5.912-0.837c1.35-1.676,2.029-3.367,2.029-3.367l0.465,0.1
					c0,0-0.717,1.873-1.654,3.317c2.62,0.317,3.662-1.897,3.662-1.897S125.612,91.922,125.306,91.705z"/>
			</g>
			<g opacity="0.3">
				<path fill="#FFFFFF" d="M27.853,93.411c-1.813,0.716-3.628,1.358-5.424,2.051c-1.8,0.684-3.574,1.396-5.352,2.173l-0.075-0.127
					c1.562-1.19,3.363-2.015,5.187-2.691c0.918-0.328,1.846-0.629,2.792-0.862c0.944-0.239,1.896-0.45,2.868-0.564L27.853,93.411z"/>
				<path opacity="0.8" fill="#FFFFFF" d="M31.335,92.838c-0.102-0.767-0.579-1.322-1.276-1.687c-0.778,0.58-1.857,1.44-2.832,2.437
					c0.613-1.19,1.351-2.118,1.954-2.767c-1.179-0.3-2.685-0.225-4.116,0.2c-1.084,0.32-2.039,0.759-2.778,1.3
					c-0.151,1.573,0.128,2.738,0.128,2.738c-0.476-0.911-0.722-1.612-0.846-2.102c-0.717,0.776-1.043,1.709-0.792,2.783
					c0.457,1.96,2.767,2.927,5.758,1.457c0.19-0.095,0.367-0.18,0.55-0.269c-0.651-0.884-1.475-1.97-2.009-2.564
					c0,0,1.388,1.217,2.408,2.371c1.058-0.511,1.965-0.954,2.632-1.44c-0.806-0.415-2.208-1.045-3.873-1.394
					c0,0,2.072-0.206,4.562,0.769C31.233,94.17,31.435,93.591,31.335,92.838z"/>
			</g>
			<g opacity="0.3">
				<path fill="#FFFFFF" d="M111.524,92.462c-1.951,2.365-3.852,4.731-5.644,7.174c-1.784,2.455-3.437,4.954-5.071,7.563
					c0.807-2.996,2.455-5.688,4.313-8.129c1.874-2.441,3.983-4.706,6.389-6.622L111.524,92.462z"/>
				<path opacity="0.8" fill="#FFFFFF" d="M113.975,91.691c-0.058-0.274-0.176-0.543-0.375-0.812c-0.993-1.334-3.362-0.69-5.6,0.732
					l1.225,3.112l-2.024-2.566c-0.664,0.484-1.301,1.025-1.865,1.594c-0.377,0.381-0.716,0.74-1.033,1.086
					c0.422,0.498,1.033,1.256,1.033,1.256l-1.346-0.908c-1.681,1.877-2.454,3.117-2.454,3.117s0.795,2.303,2.386,3.535
					c-0.354,0.266-0.354,0.266-0.354,0.266s-1.201-2.328-3.406-1.43c1.815,0.723,3.06,1.998,3.06,1.998
					c1.803,0.967,2.836,0.654,4.832-1.793l-2.408-1.912l0.486-0.442l2.354,1.812c0.335-0.432,0.697-0.916,1.092-1.458
					c2.244-3.077,4.084-4.896,4.39-6.39c-0.374-0.1-0.862-0.241-1.341-0.416C113.173,91.885,113.64,91.766,113.975,91.691z"/>
			</g>
		</g>

		<g id="Layer_11">
			<g opacity="0.15">
				<path fill="#FFFFFF" d="M7.317,93.096c2.061,0.279,4.092,0.762,6.077,1.396c1.968,0.654,3.975,1.398,5.595,2.775l-0.101,0.166
					c-1.933-0.758-3.782-1.587-5.717-2.301c-1.928-0.717-3.884-1.374-5.861-2.006L7.317,93.096z"/>
				<path opacity="0.8" fill="#FFFFFF" d="M15.828,95.789c0,0,0.393-1.408-0.95-3.106c0.221,1.011,0.291,2.834,0.291,2.834
					l-0.461-0.183c0,0-0.221-2.034-0.815-3.32c-1.738-0.932-3.834-1.381-5.146-1.292c0.584,0.925,1.199,3.124,1.199,3.124
					s-1.043-2.409-1.619-2.97c-1.309-0.022-2.416,0.566-2.53,2.08c-0.115,1.515,1.833,1.665,2.87,2.378
					c1.037,0.712,1.84,1.249,1.84,1.249l1.275-2.346l-0.771,2.681l1.981,1.397l2.273-2.546c0,0-0.743,1.902-1.492,2.806
					C15.976,97.946,15.828,95.789,15.828,95.789z"/>
			</g>
			<g opacity="0.15">
				<path fill="#FFFFFF" d="M33.788,81.499c-0.855,1.806-1.9,3.522-3.053,5.163c-1.159,1.637-2.443,3.191-3.85,4.64
					c-1.419,1.433-2.94,2.792-4.648,3.906c-1.71,1.093-3.627,1.948-5.653,2.213l-0.057-0.17c1.744-1,3.363-2.04,4.93-3.185
					c1.572-1.129,3.088-2.355,4.501-3.707c1.424-1.338,2.774-2.769,4.074-4.251C31.331,84.624,32.594,83.098,33.788,81.499z"/>
				<path opacity="0.8" fill="#FFFFFF" d="M35.373,86.106c1.506-2.293,1.992-7.014-0.44-7.58c-0.354-0.082-0.677-0.094-0.986-0.07
					c0.04,0.924-0.082,1.698-0.082,1.698s-0.251-0.796-0.587-1.581c-0.518,0.166-0.979,0.477-1.412,0.868
					c0.286,0.62,0.394,1.141,0.394,1.141c-0.155-0.282-0.449-0.587-0.713-0.83c-0.657,0.673-5.626,5.995-5.626,5.995
					s0.812,2.404,0.54,5.045c-0.456-1.725-1.424-4.363-1.424-4.363s-0.92,0.445-2.116,1.236c-0.038,1.354-0.04,3.918,0.414,5.362
					c0,0-1.301-2.308-1.598-4.521c-0.195,0.149-0.392,0.313-0.588,0.476c-0.185,0.438-0.364,1.157-0.185,2.173
					c0.311,1.767,1.011,2.89,1.011,2.89s-1.376-1.678-1.72-3.656c-0.29,1.848,1.577,4.261,1.577,4.261
					c3.001,2.657,6.218,1.938,6.218,1.938s-2.284-1.244-4.164-3.32c2.032,1.502,4.968,2.287,4.968,2.287
					c1.228-1.023,2.408-2.567,3.452-4.178l-1.297-1.211l1.64,0.671c1.042-0.956,2.022-2.26,2.586-3.339
					c-1.289-0.835-3.51-3.166-3.51-3.166S34.138,85.858,35.373,86.106z"/>
			</g>
			<g opacity="0.15">
				<path fill="#FFFFFF" d="M114.349,106.032c0.583-1.289,1.446-2.47,2.561-3.389c1.101-0.934,2.522-1.548,4.01-1.587
					c1.46-0.068,2.929,0.315,4.201,0.991c1.283,0.662,2.41,1.6,3.282,2.723l-0.049,0.043c-1.085-0.895-2.261-1.645-3.494-2.237
					c-1.242-0.565-2.568-0.953-3.928-0.919c-1.335,0.027-2.648,0.529-3.75,1.336c-1.097,0.818-2.039,1.878-2.767,3.072L114.349,106.032
					z"/>
				<path opacity="0.8" fill="#FFFFFF" d="M123.037,101.673c0,0-1.233-2.729,0.837-4.167c-1.553,1.533,0.1,4.369,0.1,4.369
					L123.037,101.673z"/>
				<path opacity="0.8" fill="#FFFFFF" d="M123.037,101.673c-1.14-3.509-3.432-4.097-6.884-1.776c0.542,0.96,1.186,2.276,1.145,2.741
					c-0.579-0.94-1.261-1.733-1.787-2.284c-0.063,0.047-0.122,0.087-0.185,0.136c-0.185,0.14-0.352,0.287-0.519,0.435l0.957,1.126
					l-1.285-0.827c-0.647,0.62-1.147,1.281-1.522,1.941c0.721,0.162,1.768,0.487,2.734,1.14c-1.151-0.474-2.419-0.472-3.087-0.43
					c-0.943,2.216-0.376,4.262,1.552,4.573c0.283,0.046,0.55,0.051,0.809,0.035c-0.467-2.225-0.021-3.381-0.021-3.381
					c0.025,1.625,0.287,2.701,0.5,3.321c1.919-0.384,3.263-2.268,5.112-3.085c0.586-2.069,0.55-3.892,0.55-3.892l0.467-0.091
					c0,0,0.073,2.005-0.225,3.699c2.536-0.732,2.627-3.18,2.627-3.18S123.404,101.752,123.037,101.673z"/>
			</g>
			<g opacity="0.15">
				<path fill="#FFFFFF" d="M26.272,100.366c-1.929,0.283-3.842,0.495-5.749,0.758c-1.909,0.255-3.798,0.543-5.707,0.894l-0.044-0.141
					c1.792-0.802,3.733-1.193,5.664-1.436c0.969-0.109,1.94-0.191,2.915-0.202c0.974-0.018,1.949-0.005,2.92,0.105V100.366z"/>
				<path opacity="0.8" fill="#FFFFFF" d="M29.793,100.603c0.076-0.771-0.262-1.421-0.857-1.933c-0.891,0.386-2.137,0.977-3.313,1.726
					c0.87-1.021,1.799-1.755,2.535-2.249c-1.081-0.561-2.563-0.831-4.054-0.744c-1.128,0.065-2.158,0.274-3.001,0.632
					c-0.506,1.496-0.5,2.694-0.5,2.694c-0.255-0.995-0.334-1.733-0.343-2.238c-0.875,0.593-1.406,1.426-1.407,2.528
					c-0.003,2.013,2.025,3.481,5.273,2.732c0.207-0.048,0.397-0.09,0.597-0.135c-0.432-1.009-0.986-2.255-1.37-2.956
					c0,0,1.073,1.502,1.803,2.859c1.147-0.257,2.131-0.48,2.892-0.802c-0.689-0.59-1.91-1.522-3.453-2.242c0,0,2.064,0.272,4.266,1.791
					C29.39,101.875,29.718,101.357,29.793,100.603z"/>
			</g>
			<g opacity="0.15">
				<path fill="#FFFFFF" d="M111.692,96.627c-1.951,2.365-3.852,4.732-5.644,7.175c-1.785,2.454-3.437,4.953-5.071,7.563
					c0.807-2.996,2.455-5.688,4.313-8.129c1.875-2.442,3.983-4.707,6.389-6.623L111.692,96.627z"/>
				<path opacity="0.8" fill="#FFFFFF" d="M114.143,95.856c-0.058-0.274-0.176-0.542-0.375-0.812c-0.993-1.334-3.362-0.689-5.6,0.732
					l1.225,3.112l-2.024-2.565c-0.664,0.484-1.301,1.024-1.865,1.594c-0.377,0.38-0.716,0.739-1.033,1.085
					c0.422,0.498,1.033,1.257,1.033,1.257l-1.346-0.909c-1.681,1.877-2.454,3.118-2.454,3.118s0.795,2.303,2.386,3.535
					c-0.354,0.266-0.354,0.266-0.354,0.266s-1.201-2.328-3.406-1.43c1.815,0.723,3.06,1.997,3.06,1.997
					c1.803,0.968,2.836,0.654,4.832-1.793l-2.408-1.912l0.486-0.442l2.354,1.812c0.335-0.432,0.697-0.915,1.092-1.458
					c2.244-3.076,4.084-4.896,4.39-6.39c-0.374-0.099-0.862-0.241-1.341-0.415C113.34,96.051,113.808,95.931,114.143,95.856z"/>
			</g>
		</g>

		<g id="Layer_12"></g>
	</defs>
</svg>
