<?xml version="1.0" encoding="utf-8"?>
<!DOCTYPE svg PUBLIC "-//W3C//DTD SVG 1.1//EN" "http://www.w3.org/Graphics/SVG/1.1/DTD/svg11.dtd">
<svg version="1.1" id="_x31__1_" xmlns="http://www.w3.org/2000/svg" xmlns:xlink="http://www.w3.org/1999/xlink" x="0px" y="0px"
	 width="130px" height="130px" viewBox="0 0 130 130" enable-background="new 0 0 130 130" xml:space="preserve">
	<defs>
		<g id="Layer_0">
			<ellipse opacity="0.3" cx="65.827" cy="99.582" rx="16.37" ry="8.671"/>
			<g>
				<path fill="#C4C3C0" d="M94.015,77.894c0-23.952-12.396-46.806-27.688-46.806S38.639,54.601,38.639,77.894
					c0,15.292,12.396,27.688,27.688,27.688S94.015,93.186,94.015,77.894z"/>
				<path fill="#EAE9E5" d="M90.035,75.516c0-22.018-11.121-43.025-24.838-43.025S40.359,54.104,40.359,75.516
					c0,14.057,11.121,25.451,24.838,25.451S90.035,89.572,90.035,75.516z"/>
				<path fill="#F9F9F7" d="M86.685,73.037c0-19.706-10.051-38.507-22.45-38.507S41.784,53.873,41.784,73.037
					c0,12.581,10.052,22.78,22.451,22.78S86.685,85.617,86.685,73.037z"/>
				<path fill="#EAE9E5" d="M68.858,104.623c0,0,10.749-0.317,18.631-9.713s5.892-21.417,5.892-21.417s-0.382,11.86-7.484,20.143
					C78.265,102.537,68.858,104.623,68.858,104.623z"/>
				<path fill="#FFFFFF" d="M54.588,44.204c-1.856-0.091-5.265,5.555-1.787,6.183S57.535,44.349,54.588,44.204z"/>
				<g>
					<path fill="#D1D1D1" d="M48.784,93.393c-0.201-0.729-0.978-1.154-1.608-1.46c-0.03-0.015-0.062-0.017-0.093-0.023
						c-0.004-0.002-0.006-0.007-0.01-0.009c-0.045-0.023-0.354-0.187-0.268-0.07c-0.363-0.485-1.025,0.074-0.979,0.559
						c0.099,1.025,0.762,2.638,2.017,2.364c0.466,0.224,0.919-0.414,0.914-0.817C48.809,93.758,48.833,93.573,48.784,93.393z"/>
					<path fill="#D1D1D1" d="M66.528,94.574c-0.051,0.001-0.094,0.014-0.143,0.019c0-0.002,0-0.003,0-0.005
						c-0.014,0.004-0.026,0.006-0.039,0.01c-0.093,0.012-0.183,0.029-0.266,0.056c-0.066,0.008-0.133,0.015-0.208,0.011
						c-0.091-0.009-0.181-0.02-0.271-0.032c-0.02-0.006-0.019-0.002-0.033-0.005c-0.021-0.027-0.031-0.058-0.072-0.077
						c-0.243-0.117-0.532,0.158-0.662,0.327c-0.225,0.291-0.295,0.741,0.154,0.829c0.152,0.029,0.298,0.045,0.445,0.062
						c0.158,0.161,0.483,0.183,0.727,0.083c0.066-0.027,0.128-0.077,0.185-0.135C66.796,95.534,67.23,94.556,66.528,94.574z"/>
					<path fill="#D1D1D1" d="M81.271,80.5c-0.023,0.001-0.047,0.005-0.071,0.006c0.077-0.292-0.313-0.455-0.583-0.246
						c-0.324,0.249-0.65,0.507-0.924,0.795c-0.037,0.038-0.082,0.063-0.115,0.105c-0.025,0.032-0.042,0.067-0.061,0.103
						c-0.353,0.437-0.576,0.946-0.493,1.6c0.045,0.357,0.392,0.498,0.711,0.407c0.934-0.264,1.771-1.036,2.059-1.971
						C81.916,80.896,81.749,80.484,81.271,80.5z"/>
					<path fill="#D1D1D1" d="M75.463,70.795c0.005,0.303,0.142,0.681,0.526,0.589c0.372-0.089,0.543-0.504,0.548-0.846
						C76.549,69.765,75.453,70.177,75.463,70.795z"/>
					<path fill="#D1D1D1" d="M61.735,68.407c-0.18-0.36-0.599-0.329-0.889-0.149c-0.353,0.218-0.468,0.517-0.578,0.896
						c-0.078,0.271,0.039,0.58,0.276,0.721c0.017,0.066,0.026,0.135,0.05,0.199c0.071,0.189,0.192,0.384,0.419,0.402
						c0.109,0.008,0.218,0.017,0.328,0.024c0.431,0.03,0.764-0.328,0.772-0.751C62.124,69.236,61.96,68.856,61.735,68.407z"/>
					<path fill="#D1D1D1" d="M49.934,63.955c-0.412,0.421-0.597,1.291,0.007,1.622c0.138,0.076,0.321,0.059,0.451-0.025
						c0.167-0.107,0.304-0.231,0.355-0.431c0.043-0.167-0.003-0.38,0.079-0.535C51.134,64.001,50.387,63.492,49.934,63.955z"/>
					<path fill="#D1D1D1" d="M82.637,90.47c0.024-0.057,0.061-0.101,0.082-0.159c0.084-0.236,0.096-0.584-0.155-0.733
						c-0.253-0.15-0.481-0.203-0.692-0.182c-0.047-0.053-0.119-0.076-0.227-0.029c-0.232,0.101-0.463,0.117-0.692,0.245
						c-0.285,0.159-0.623,0.58-0.651,0.914c-0.061,0.719,0.042,1.256,0.735,1.579c0.417,0.195,0.797,0.271,1.225,0.065
						c0.392-0.189,0.55-0.689,0.53-1.091C82.782,90.902,82.72,90.686,82.637,90.47z"/>
					<path fill="#D1D1D1" d="M93.507,77.093c-0.023-0.105-0.069-0.182-0.125-0.246c-0.019-0.072-0.043-0.145-0.047-0.213
						c-0.023-0.342-0.486-0.38-0.631-0.096c-0.039,0.076-0.072,0.144-0.105,0.213c-0.16,0.071-0.303,0.178-0.384,0.313
						c-0.209,0.352-0.286,0.765-0.35,1.163c-0.061,0.377-0.18,0.816-0.096,1.191c0.051,0.229,0.245,0.359,0.462,0.399
						c0.247,0.47,1.113,0.436,1.265-0.216C93.691,78.768,93.687,77.928,93.507,77.093z"/>
					<path fill="#D1D1D1" d="M92.471,69.599c-0.122-0.295-0.394-0.32-0.602-0.487c-0.216-0.174-0.6,0.158-0.445,0.393
						c0.157,0.238,0.109,0.708,0.081,0.977c-0.073,0.699,0.905,0.477,1.043-0.032C92.633,70.135,92.593,69.896,92.471,69.599z"/>
					<path fill="#D1D1D1" d="M44.114,79.717c-0.07-0.152-0.275-0.247-0.437-0.227c-0.114,0.015-0.242,0.051-0.357,0.107
						c-0.138,0.013-0.275,0.079-0.352,0.219c-0.48,0.866-0.229,1.767,0.517,2.384c0.25,0.208,0.604,0.118,0.764-0.157
						C44.695,81.282,44.46,80.467,44.114,79.717z"/>
					<path fill="#D1D1D1" d="M54.78,89.049c-0.252-0.448-1.167,0.125-0.894,0.57c0.055,0.09,0.128,0.173,0.201,0.257
						c0.087,0.232,0.211,0.448,0.397,0.627c0.247,0.237,0.81-0.104,0.804-0.412C55.281,89.635,54.991,89.423,54.78,89.049z"/>
					<path fill="#D1D1D1" d="M70.477,84.629c-0.416-0.2-0.799-0.223-1.255-0.229c-0.135-0.001-0.253,0.071-0.349,0.171
						c-0.154,0.082-0.294,0.186-0.392,0.339c-0.25,0.393-0.215,0.892,0.052,1.265c0.257,0.361,0.672,0.52,1.099,0.405
						c0.581-0.154,0.884-0.791,1.025-1.321C70.713,85.051,70.708,84.741,70.477,84.629z"/>
					<path fill="#D1D1D1" d="M78.015,99.952c-0.086-0.307-0.348-0.495-0.666-0.486c-0.074,0.002-0.144,0.021-0.217,0.029
						c-0.076-0.039-0.167-0.064-0.286-0.051c-1.097,0.121-1.638,1.272-1.699,2.26c-0.018,0.286,0.205,0.598,0.498,0.638
						C77.089,102.538,78.447,101.501,78.015,99.952z"/>
					<path fill="#D1D1D1" d="M54.984,97.737c-0.187-0.156-0.395-0.263-0.625-0.261c-0.125-0.023-0.268,0.007-0.367,0.07
						c-0.206,0.131-0.305,0.348-0.301,0.575c-0.005,0.047-0.016,0.096-0.01,0.141c0.001,0.007,0.001,0.013,0.002,0.02
						c0.012,0.086,0.048,0.161,0.095,0.228c0.152,0.474,0.364,0.703,0.976,0.749c0.292,0.021,0.606-0.357,0.612-0.628
						C55.374,98.244,55.295,97.996,54.984,97.737z"/>
					<path fill="#D1D1D1" d="M46.836,82.452c-0.131-0.208-0.284-0.329-0.479-0.475c-0.295-0.219-0.702,0.314-0.51,0.582
						c0.227,0.315,0.487,0.876,0.905,0.439C46.876,82.867,46.938,82.614,46.836,82.452z"/>
					<path fill="#D1D1D1" d="M57,92.864c-0.423-0.488-0.711-1.072-1.336-1.338c-0.35-0.148-1.09,0.303-0.891,0.712
						c-0.105,0.319-0.102,0.65,0.121,0.979c0.38,0.561,1.116,0.541,1.694,0.396C56.829,93.553,57.228,93.126,57,92.864z"/>
				</g>
			</g>
		</g>

		<g id="Layer_1">
			<g>
				<path fill="#FFFFFF" d="M38.759,65.598c1.593,1.337,3.052,2.83,4.391,4.427c1.313,1.604,2.611,3.307,3.246,5.336l-0.174,0.086
					c-1.229-1.673-2.348-3.362-3.603-5c-1.247-1.636-2.549-3.236-3.883-4.827L38.759,65.598z"/>
				<path opacity="0.8" fill="#FFFFFF" d="M44.514,72.421c0,0,1.084-0.981,0.856-3.133c-0.353,0.973-1.268,2.551-1.268,2.551
					l-0.292-0.4c0,0,0.9-1.838,1.085-3.242c-0.972-1.717-2.503-3.217-3.659-3.842c0,1.094-0.656,3.281-0.656,3.281
					s0.406-2.594,0.219-3.375c-1.094-0.719-2.344-0.813-3.25,0.406s0.66,2.387,1.156,3.543s0.888,2.039,0.888,2.039l2.331-1.301
					l-2.084,1.854l0.928,2.24l3.281-0.938c0,0-1.645,1.211-2.76,1.574C43.486,74.324,44.514,72.421,44.514,72.421z"/>
			</g>
			<g>
				<path fill="#FFFFFF" d="M55.566,77.127c-1.983-0.244-3.941-0.695-5.861-1.272c-1.919-0.585-3.798-1.314-5.616-2.193
					c-1.806-0.896-3.576-1.912-5.17-3.183c-1.576-1.28-2.991-2.83-3.88-4.669l0.144-0.107c1.499,1.341,2.995,2.55,4.575,3.677
					c1.566,1.137,3.208,2.189,4.935,3.106c1.719,0.93,3.501,1.762,5.317,2.528C51.827,75.778,53.673,76.498,55.566,77.127z"/>
				<path opacity="0.8" fill="#FFFFFF" d="M51.691,80.082c2.651,0.708,7.285-0.317,7.057-2.804c-0.033-0.361-0.125-0.672-0.244-0.958
					c-0.864,0.329-1.638,0.457-1.638,0.457s0.677-0.489,1.315-1.055c-0.32-0.439-0.759-0.779-1.268-1.066
					c-0.498,0.466-0.959,0.733-0.959,0.733c0.219-0.236,0.416-0.611,0.563-0.938c-0.845-0.412-7.461-3.453-7.461-3.453
					s-2.026,1.528-4.619,2.101c1.494-0.976,3.693-2.726,3.693-2.726s-0.711-0.733-1.839-1.619c-1.298,0.39-3.731,1.196-4.96,2.081
					c0,0,1.78-1.961,3.789-2.94c-0.203-0.138-0.42-0.273-0.637-0.408c-0.473-0.038-1.213,0.019-2.12,0.509
					c-1.579,0.851-2.425,1.869-2.425,1.869s1.16-1.834,2.93-2.784c-1.845,0.307-3.548,2.838-3.548,2.838
					c-1.578,3.685,0.118,6.512,0.118,6.512s0.461-2.559,1.84-4.997c-0.786,2.402-0.607,5.435-0.607,5.435
					c1.357,0.844,3.195,1.477,5.051,1.961l0.741-1.612l-0.12,1.768c1.235,0.688,2.781,1.208,3.983,1.403
					c0.386-1.486,1.899-4.328,1.899-4.328S51.539,78.832,51.691,80.082z"/>
			</g>
			<g>
				<path fill="#FFFFFF" d="M93.249,83.87c-0.514,1.318-1.314,2.542-2.379,3.52c-1.05,0.989-2.437,1.679-3.921,1.795
					c-1.455,0.146-2.941-0.16-4.248-0.768c-1.316-0.593-2.49-1.47-3.42-2.544l0.046-0.047c1.131,0.836,2.345,1.523,3.607,2.05
					c1.27,0.499,2.615,0.815,3.971,0.71c1.332-0.098,2.616-0.668,3.674-1.531c1.052-0.875,1.937-1.982,2.601-3.214L93.249,83.87z"/>
				<path opacity="0.8" fill="#FFFFFF" d="M84.803,88.683c0,0,1.375,2.658-0.615,4.204c1.47-1.612-0.331-4.357-0.331-4.357
					L84.803,88.683z"/>
				<path opacity="0.8" fill="#FFFFFF" d="M84.803,88.683c1.324,3.442,3.645,3.909,6.968,1.409c-0.591-0.93-1.305-2.211-1.288-2.676
					c0.627,0.907,1.351,1.664,1.905,2.186c0.06-0.051,0.118-0.094,0.178-0.145c0.176-0.15,0.335-0.306,0.496-0.461l-1.015-1.074
					l1.326,0.758c0.613-0.654,1.079-1.341,1.418-2.02C94.063,86.536,93,86.267,92,85.667c1.173,0.411,2.441,0.343,3.105,0.266
					c0.824-2.263,0.15-4.276-1.792-4.485c-0.285-0.031-0.552-0.022-0.81,0.007c0.584,2.197,0.201,3.376,0.201,3.376
					c-0.111-1.622-0.429-2.682-0.674-3.291c-1.896,0.485-3.139,2.436-4.942,3.35c-0.476,2.098-0.343,3.917-0.343,3.917l-0.462,0.115
					c0,0-0.179-1.998,0.028-3.707c-2.493,0.866-2.455,3.314-2.455,3.314S84.433,88.623,84.803,88.683z"/>
			</g>
			<g>
				<path fill="#FFFFFF" d="M100.963,70.445c-1.237,1.507-2.511,2.951-3.745,4.428c-1.242,1.472-2.445,2.956-3.622,4.5l-0.127-0.074
					c0.787-1.799,1.96-3.395,3.226-4.872c0.643-0.733,1.307-1.447,2.021-2.11c0.708-0.668,1.438-1.314,2.232-1.886L100.963,70.445z"/>
				<path opacity="0.8" fill="#FFFFFF" d="M103.728,68.252c-0.462-0.621-1.149-0.876-1.935-0.854c-0.399,0.885-0.924,2.161-1.291,3.506
					c-0.042-1.34,0.151-2.508,0.363-3.368c-1.177,0.311-2.456,1.108-3.5,2.175c-0.791,0.808-1.413,1.654-1.796,2.486
					c0.632,1.448,1.442,2.331,1.442,2.331c-0.858-0.565-1.414-1.058-1.76-1.425c-0.25,1.026-0.081,2,0.659,2.817
					c1.352,1.491,3.84,1.215,5.74-1.524c0.121-0.175,0.234-0.334,0.351-0.501c-0.999-0.456-2.246-1.006-3.002-1.266
					c0,0,1.805,0.389,3.257,0.903c0.676-0.961,1.254-1.789,1.601-2.539c-0.907,0.028-2.438,0.159-4.063,0.664
					c0,0,1.711-1.186,4.361-1.543C104.286,69.465,104.18,68.861,103.728,68.252z"/>
			</g>
			<g>
				<path fill="#FFFFFF" d="M48.358,75.627c-1.951,2.365-3.852,4.732-5.644,7.175c-1.785,2.454-3.437,4.953-5.071,7.563
					c0.807-2.996,2.455-5.688,4.313-8.129c1.875-2.442,3.983-4.707,6.389-6.623L48.358,75.627z"/>
				<path opacity="0.8" fill="#FFFFFF" d="M50.809,74.856c-0.058-0.274-0.176-0.542-0.375-0.811c-0.993-1.334-3.362-0.69-5.6,0.732
					l1.225,3.112l-2.024-2.565c-0.664,0.484-1.301,1.024-1.865,1.593c-0.377,0.38-0.716,0.74-1.033,1.085
					c0.422,0.498,1.033,1.256,1.033,1.256l-1.346-0.909c-1.681,1.877-2.454,3.118-2.454,3.118s0.795,2.302,2.386,3.535
					c-0.354,0.266-0.354,0.266-0.354,0.266s-1.201-2.329-3.406-1.43c1.815,0.722,3.06,1.997,3.06,1.997
					c1.803,0.968,2.836,0.654,4.832-1.793l-2.408-1.912l0.486-0.442l2.354,1.811c0.335-0.432,0.697-0.915,1.092-1.458
					c2.244-3.077,4.084-4.896,4.39-6.39c-0.374-0.099-0.862-0.241-1.341-0.415C50.006,75.051,50.474,74.931,50.809,74.856z"/>
			</g>
		</g>

		<g id="Layer_2">
			<g>
				<path fill="#FFFFFF" d="M36.092,46.265c1.593,1.337,3.052,2.83,4.391,4.427c1.313,1.604,2.611,3.307,3.246,5.336l-0.174,0.087
					c-1.229-1.674-2.348-3.362-3.603-5c-1.247-1.636-2.549-3.236-3.883-4.827L36.092,46.265z"/>
				<path opacity="0.8" fill="#FFFFFF" d="M41.847,53.088c0,0,1.084-0.981,0.856-3.133c-0.353,0.973-1.268,2.551-1.268,2.551
					l-0.292-0.4c0,0,0.9-1.838,1.085-3.242c-0.972-1.717-2.503-3.217-3.659-3.842c0,1.094-0.656,3.281-0.656,3.281
					s0.406-2.594,0.219-3.375c-1.094-0.719-2.344-0.813-3.25,0.406s0.66,2.387,1.156,3.543s0.888,2.039,0.888,2.039l2.331-1.301
					l-2.084,1.854l0.928,2.24l3.281-0.938c0,0-1.645,1.211-2.76,1.574C40.819,54.991,41.847,53.088,41.847,53.088z"/>
			</g>
			<g>
				<path fill="#FFFFFF" d="M40.127,74.185c-1.871-0.702-3.669-1.6-5.399-2.611c-1.729-1.019-3.385-2.168-4.945-3.449
					c-1.546-1.294-3.028-2.697-4.28-4.306c-1.232-1.614-2.245-3.452-2.678-5.448l0.165-0.071c1.142,1.655,2.313,3.181,3.585,4.647
					c1.256,1.473,2.605,2.88,4.069,4.176c1.453,1.308,2.99,2.534,4.576,3.705C36.808,71.997,38.435,73.129,40.127,74.185z"/>
				<path opacity="0.8" fill="#FFFFFF" d="M35.668,76.148c2.411,1.31,7.156,1.4,7.518-1.071c0.053-0.359,0.037-0.682-0.013-0.988
					c-0.917,0.117-1.699,0.06-1.699,0.06s0.772-0.316,1.526-0.717c-0.208-0.502-0.556-0.935-0.982-1.334
					c-0.593,0.337-1.104,0.488-1.104,0.488c0.268-0.178,0.548-0.497,0.768-0.78c-0.725-0.598-6.443-5.106-6.443-5.106
					s-2.328,1.01-4.983,0.959c1.681-0.599,4.229-1.784,4.229-1.784s-0.52-0.88-1.408-2.005c-1.354,0.075-3.908,0.288-5.31,0.86
					c0,0,2.19-1.489,4.372-1.97c-0.165-0.182-0.344-0.364-0.523-0.546c-0.451-0.147-1.184-0.266-2.181-0.002
					c-1.734,0.457-2.796,1.248-2.796,1.248s1.558-1.511,3.501-2.019c-1.865-0.135-4.114,1.927-4.114,1.927
					c-2.398,3.212-1.413,6.358-1.413,6.358s1.049-2.38,2.961-4.426c-1.328,2.15-1.865,5.141-1.865,5.141
					c1.122,1.139,2.76,2.185,4.451,3.091l1.099-1.394l-0.531,1.69c1.04,0.958,2.42,1.826,3.543,2.298
					c0.724-1.354,2.861-3.762,2.861-3.762S35.813,74.898,35.668,76.148z"/>
			</g>
			<g>
				<path fill="#FFFFFF" d="M103.783,68.253c-0.514,1.318-1.314,2.542-2.379,3.52c-1.05,0.989-2.437,1.678-3.921,1.795
					c-1.455,0.145-2.941-0.16-4.248-0.768c-1.316-0.593-2.49-1.47-3.42-2.545l0.046-0.046c1.131,0.836,2.345,1.522,3.607,2.049
					c1.27,0.499,2.615,0.815,3.971,0.709c1.332-0.097,2.616-0.667,3.674-1.531c1.052-0.875,1.937-1.983,2.601-3.214L103.783,68.253z"/>
				<path opacity="0.8" fill="#FFFFFF" d="M95.336,73.066c0,0,1.375,2.658-0.615,4.204c1.47-1.612-0.331-4.357-0.331-4.357
					L95.336,73.066z"/>
				<path opacity="0.8" fill="#FFFFFF" d="M95.336,73.066c1.324,3.442,3.645,3.909,6.968,1.409c-0.591-0.93-1.305-2.211-1.288-2.676
					c0.627,0.907,1.351,1.664,1.905,2.186c0.06-0.051,0.118-0.094,0.178-0.145c0.176-0.15,0.335-0.306,0.496-0.461l-1.015-1.074
					l1.326,0.758c0.613-0.654,1.079-1.341,1.418-2.02c-0.729-0.124-1.792-0.394-2.791-0.993c1.173,0.411,2.441,0.343,3.105,0.266
					c0.824-2.263,0.15-4.276-1.792-4.485c-0.285-0.031-0.552-0.022-0.81,0.007c0.584,2.197,0.201,3.376,0.201,3.376
					c-0.111-1.622-0.429-2.682-0.674-3.291c-1.896,0.485-3.139,2.436-4.942,3.35c-0.476,2.098-0.343,3.917-0.343,3.917l-0.462,0.115
					c0,0-0.179-1.998,0.028-3.707c-2.493,0.866-2.455,3.314-2.455,3.314S94.966,73.006,95.336,73.066z"/>
			</g>
			<g>
				<path fill="#FFFFFF" d="M113.525,54.708c-1.237,1.507-2.511,2.95-3.745,4.428c-1.242,1.472-2.445,2.956-3.622,4.5l-0.127-0.074
					c0.787-1.799,1.96-3.395,3.226-4.873c0.643-0.732,1.307-1.447,2.021-2.11c0.708-0.668,1.438-1.315,2.232-1.886L113.525,54.708z"/>
				<path opacity="0.8" fill="#FFFFFF" d="M116.289,52.516c-0.462-0.621-1.149-0.876-1.935-0.854c-0.399,0.885-0.924,2.161-1.291,3.506
					c-0.042-1.34,0.151-2.508,0.363-3.368c-1.177,0.311-2.456,1.108-3.5,2.175c-0.791,0.808-1.413,1.654-1.796,2.486
					c0.632,1.448,1.442,2.331,1.442,2.331c-0.858-0.565-1.414-1.058-1.76-1.425c-0.25,1.026-0.081,2,0.659,2.817
					c1.352,1.491,3.84,1.215,5.74-1.524c0.121-0.175,0.234-0.334,0.351-0.501c-0.999-0.456-2.246-1.006-3.002-1.266
					c0,0,1.805,0.389,3.257,0.903c0.676-0.961,1.254-1.789,1.601-2.539c-0.907,0.028-2.438,0.159-4.063,0.664
					c0,0,1.711-1.186,4.361-1.543C116.847,53.729,116.742,53.124,116.289,52.516z"/>
			</g>
			<g>
				<path fill="#FFFFFF" d="M37.809,61.78c-1.951,2.365-3.852,4.732-5.644,7.175c-1.785,2.454-3.437,4.954-5.071,7.563
					c0.807-2.996,2.455-5.688,4.313-8.129c1.875-2.442,3.983-4.707,6.389-6.623L37.809,61.78z"/>
				<path opacity="0.8" fill="#FFFFFF" d="M40.26,61.01c-0.058-0.274-0.176-0.542-0.375-0.811c-0.993-1.334-3.362-0.69-5.6,0.732
					l1.225,3.112l-2.024-2.565c-0.664,0.484-1.301,1.024-1.865,1.593c-0.377,0.38-0.716,0.74-1.033,1.085
					c0.422,0.498,1.033,1.256,1.033,1.256l-1.346-0.909c-1.681,1.877-2.454,3.118-2.454,3.118s0.795,2.302,2.386,3.535
					c-0.354,0.266-0.354,0.266-0.354,0.266s-1.201-2.329-3.406-1.43c1.815,0.722,3.06,1.997,3.06,1.997
					c1.803,0.968,2.836,0.654,4.832-1.793l-2.408-1.912l0.486-0.442l2.354,1.811c0.335-0.432,0.697-0.915,1.092-1.458
					c2.244-3.077,4.084-4.896,4.39-6.39c-0.374-0.099-0.862-0.241-1.341-0.415C39.458,61.204,39.925,61.084,40.26,61.01z"/>
			</g>
		</g>

		<g id="Layer_3">
			<g>
				<path fill="#FFFFFF" d="M33.863,33.901c1.593,1.336,3.052,2.83,4.391,4.427c1.313,1.604,2.611,3.307,3.246,5.336l-0.174,0.086
					c-1.229-1.673-2.348-3.362-3.603-5c-1.247-1.636-2.549-3.237-3.883-4.827L33.863,33.901z"/>
				<path opacity="0.8" fill="#FFFFFF" d="M39.619,40.724c0,0,1.084-0.981,0.856-3.133c-0.353,0.973-1.268,2.551-1.268,2.551
					l-0.292-0.4c0,0,0.9-1.838,1.085-3.242c-0.972-1.717-2.503-3.217-3.659-3.842c0,1.094-0.656,3.281-0.656,3.281
					s0.406-2.594,0.219-3.375c-1.094-0.719-2.344-0.813-3.25,0.406s0.66,2.387,1.156,3.543s0.888,2.039,0.888,2.039l2.331-1.301
					l-2.084,1.854l0.928,2.24l3.281-0.938c0,0-1.645,1.211-2.76,1.574C38.591,42.627,39.619,40.724,39.619,40.724z"/>
			</g>
			<g>
				<path fill="#FFFFFF" d="M24.679,72.518c-1.983-0.244-3.941-0.695-5.861-1.272c-1.919-0.585-3.798-1.314-5.616-2.193
					c-1.806-0.896-3.576-1.912-5.17-3.183c-1.576-1.28-2.991-2.83-3.88-4.669l0.144-0.107c1.499,1.341,2.995,2.55,4.575,3.677
					c1.566,1.137,3.208,2.189,4.935,3.106c1.719,0.93,3.501,1.762,5.317,2.528C20.939,71.169,22.786,71.888,24.679,72.518z"/>
				<path opacity="0.8" fill="#FFFFFF" d="M20.804,75.472c2.651,0.708,7.285-0.317,7.057-2.804c-0.033-0.361-0.125-0.672-0.244-0.958
					c-0.864,0.329-1.638,0.457-1.638,0.457s0.677-0.489,1.315-1.055c-0.32-0.439-0.759-0.779-1.268-1.066
					c-0.498,0.466-0.959,0.733-0.959,0.733c0.219-0.236,0.416-0.611,0.563-0.938c-0.845-0.412-7.461-3.453-7.461-3.453
					s-2.026,1.528-4.619,2.101c1.494-0.976,3.693-2.726,3.693-2.726s-0.711-0.733-1.839-1.619c-1.298,0.39-3.731,1.196-4.96,2.081
					c0,0,1.78-1.961,3.789-2.94c-0.203-0.138-0.42-0.273-0.637-0.408c-0.473-0.038-1.213,0.019-2.12,0.509
					c-1.579,0.851-2.425,1.869-2.425,1.869s1.16-1.834,2.93-2.784c-1.845,0.307-3.548,2.838-3.548,2.838
					c-1.578,3.685,0.118,6.512,0.118,6.512s0.461-2.559,1.84-4.997c-0.786,2.402-0.607,5.435-0.607,5.435
					c1.357,0.844,3.195,1.477,5.051,1.961l0.741-1.612l-0.12,1.768c1.235,0.688,2.781,1.208,3.983,1.403
					c0.386-1.486,1.899-4.328,1.899-4.328S20.652,74.223,20.804,75.472z"/>
			</g>
			<g>
				<path fill="#FFFFFF" d="M107.582,53.037c-0.514,1.318-1.314,2.542-2.379,3.519c-1.05,0.99-2.437,1.679-3.92,1.796
					c-1.455,0.146-2.942-0.16-4.248-0.768c-1.316-0.593-2.49-1.469-3.42-2.544l0.046-0.047c1.131,0.836,2.345,1.523,3.607,2.049
					c1.27,0.499,2.615,0.815,3.971,0.709c1.332-0.097,2.616-0.667,3.674-1.531c1.052-0.875,1.937-1.983,2.601-3.214L107.582,53.037z"/>
				<path opacity="0.8" fill="#FFFFFF" d="M99.136,57.849c0,0,1.375,2.658-0.615,4.205c1.47-1.613-0.331-4.358-0.331-4.358
					L99.136,57.849z"/>
				<path opacity="0.8" fill="#FFFFFF" d="M99.136,57.849c1.324,3.442,3.645,3.91,6.968,1.409c-0.591-0.93-1.305-2.21-1.288-2.676
					c0.627,0.908,1.351,1.664,1.905,2.186c0.06-0.05,0.118-0.093,0.178-0.144c0.176-0.15,0.335-0.306,0.496-0.461l-1.015-1.074
					l1.326,0.758c0.613-0.654,1.079-1.34,1.418-2.019c-0.729-0.125-1.792-0.394-2.791-0.994c1.173,0.411,2.441,0.343,3.105,0.266
					c0.824-2.263,0.15-4.276-1.792-4.485c-0.285-0.031-0.552-0.022-0.81,0.007c0.584,2.197,0.201,3.376,0.201,3.376
					c-0.111-1.622-0.429-2.682-0.674-3.291c-1.896,0.485-3.139,2.436-4.942,3.35c-0.476,2.098-0.343,3.916-0.343,3.916l-0.462,0.115
					c0,0-0.179-1.998,0.028-3.707c-2.493,0.866-2.455,3.314-2.455,3.314S98.766,57.789,99.136,57.849z"/>
			</g>
			<g>
				<path fill="#FFFFFF" d="M106.483,42.875c-1.237,1.507-2.511,2.951-3.745,4.428c-1.242,1.472-2.445,2.956-3.622,4.5l-0.127-0.074
					c0.787-1.799,1.96-3.395,3.226-4.872c0.643-0.733,1.307-1.447,2.021-2.11c0.708-0.668,1.438-1.314,2.232-1.886L106.483,42.875z"/>
				<path opacity="0.8" fill="#FFFFFF" d="M109.247,40.683c-0.462-0.621-1.149-0.876-1.935-0.854c-0.399,0.885-0.924,2.161-1.291,3.506
					c-0.042-1.34,0.151-2.508,0.363-3.368c-1.177,0.311-2.456,1.108-3.5,2.175c-0.791,0.808-1.413,1.654-1.796,2.486
					c0.632,1.448,1.442,2.331,1.442,2.331c-0.858-0.565-1.414-1.058-1.76-1.425c-0.25,1.026-0.081,2,0.659,2.817
					c1.352,1.491,3.84,1.215,5.74-1.524c0.121-0.175,0.234-0.334,0.351-0.501c-0.999-0.456-2.246-1.006-3.002-1.266
					c0,0,1.805,0.389,3.257,0.903c0.676-0.961,1.254-1.789,1.601-2.539c-0.907,0.028-2.438,0.159-4.063,0.664
					c0,0,1.711-1.186,4.361-1.543C109.805,41.896,109.7,41.292,109.247,40.683z"/>
			</g>
			<g>
				<path fill="#FFFFFF" d="M34.358,48.127c-1.951,2.365-3.852,4.732-5.644,7.175c-1.785,2.454-3.437,4.954-5.071,7.563
					c0.807-2.996,2.455-5.688,4.313-8.129c1.875-2.442,3.983-4.707,6.389-6.623L34.358,48.127z"/>
				<path opacity="0.8" fill="#FFFFFF" d="M36.809,47.356c-0.058-0.274-0.176-0.542-0.375-0.811c-0.993-1.334-3.362-0.69-5.6,0.732
					l1.225,3.112l-2.024-2.565c-0.664,0.484-1.301,1.024-1.865,1.593c-0.377,0.38-0.716,0.74-1.033,1.085
					c0.422,0.498,1.033,1.256,1.033,1.256l-1.346-0.909c-1.681,1.877-2.454,3.118-2.454,3.118s0.795,2.302,2.386,3.535
					c-0.354,0.265-0.354,0.265-0.354,0.265s-1.201-2.328-3.406-1.429c1.815,0.722,3.06,1.997,3.06,1.997
					c1.803,0.968,2.836,0.654,4.832-1.793l-2.408-1.912l0.486-0.442l2.354,1.811c0.335-0.432,0.697-0.915,1.092-1.458
					c2.244-3.077,4.084-4.896,4.39-6.39c-0.374-0.099-0.862-0.241-1.341-0.415C36.006,47.551,36.474,47.431,36.809,47.356z"/>
			</g>
		</g>

		<g id="Layer_4">
			<g>
				<path fill="#FFFFFF" d="M24.685,38.581c1.808,1.028,3.511,2.235,5.116,3.565c1.581,1.342,3.163,2.783,4.152,4.665l-0.155,0.116
					c-1.51-1.425-2.915-2.885-4.443-4.27c-1.521-1.384-3.09-2.725-4.688-4.049L24.685,38.581z"/>
				<path opacity="0.8" fill="#FFFFFF" d="M31.574,44.257c0,0,0.89-1.16,0.279-3.236c-0.172,1.021-0.789,2.737-0.789,2.737
					l-0.359-0.341c0,0,0.555-1.97,0.484-3.384c-1.265-1.514-3.041-2.714-4.291-3.121c0.197,1.076-0.055,3.346-0.055,3.346
					s-0.067-2.624-0.392-3.359c-1.206-0.51-2.452-0.378-3.124,0.984c-0.672,1.362,1.078,2.229,1.774,3.277
					c0.696,1.048,1.24,1.846,1.24,1.846l2.059-1.699l-1.717,2.198L28,45.542l3.059-1.513c0,0-1.4,1.487-2.432,2.045
					C30.905,46.313,31.574,44.257,31.574,44.257z"/>
			</g>
			<g>
				<path fill="#FFFFFF" d="M24.345,78.018c-1.983-0.244-3.941-0.695-5.861-1.272c-1.919-0.585-3.798-1.314-5.616-2.193
					c-1.806-0.896-3.576-1.912-5.17-3.183c-1.576-1.28-2.991-2.83-3.88-4.669l0.144-0.107c1.499,1.341,2.995,2.55,4.575,3.677
					c1.566,1.137,3.208,2.189,4.935,3.106c1.719,0.93,3.501,1.762,5.317,2.528C20.606,76.669,22.452,77.388,24.345,78.018z"/>
				<path opacity="0.8" fill="#FFFFFF" d="M20.471,80.972c2.651,0.708,7.285-0.317,7.057-2.804c-0.033-0.361-0.125-0.672-0.244-0.958
					c-0.864,0.329-1.638,0.457-1.638,0.457s0.677-0.489,1.315-1.055c-0.32-0.439-0.759-0.779-1.268-1.066
					c-0.498,0.466-0.959,0.733-0.959,0.733c0.219-0.236,0.416-0.611,0.563-0.938c-0.845-0.412-7.461-3.453-7.461-3.453
					s-2.026,1.528-4.619,2.101c1.494-0.976,3.693-2.726,3.693-2.726s-0.711-0.733-1.839-1.619c-1.298,0.39-3.731,1.196-4.96,2.081
					c0,0,1.78-1.961,3.789-2.94c-0.203-0.138-0.42-0.273-0.637-0.408c-0.473-0.038-1.213,0.019-2.12,0.509
					c-1.579,0.851-2.425,1.869-2.425,1.869s1.16-1.834,2.93-2.784c-1.845,0.307-3.548,2.838-3.548,2.838
					c-1.578,3.685,0.118,6.512,0.118,6.512s0.461-2.559,1.84-4.997c-0.786,2.402-0.607,5.435-0.607,5.435
					c1.357,0.844,3.195,1.477,5.051,1.961l0.741-1.612l-0.12,1.768c1.235,0.688,2.781,1.208,3.983,1.403
					c0.386-1.486,1.899-4.328,1.899-4.328S20.318,79.723,20.471,80.972z"/>
			</g>
			<g>
				<path fill="#FFFFFF" d="M108.044,60.04c-0.514,1.318-1.314,2.542-2.379,3.52c-1.05,0.989-2.437,1.678-3.92,1.795
					c-1.455,0.146-2.942-0.16-4.248-0.768c-1.316-0.593-2.49-1.469-3.42-2.544l0.046-0.047c1.131,0.836,2.345,1.523,3.607,2.049
					c1.27,0.499,2.615,0.815,3.971,0.709c1.332-0.097,2.616-0.667,3.674-1.531c1.052-0.875,1.937-1.983,2.601-3.214L108.044,60.04z"/>
				<path opacity="0.8" fill="#FFFFFF" d="M99.598,64.852c0,0,1.375,2.658-0.615,4.205c1.47-1.613-0.331-4.358-0.331-4.358
					L99.598,64.852z"/>
				<path opacity="0.8" fill="#FFFFFF" d="M99.598,64.852c1.324,3.442,3.645,3.91,6.968,1.409c-0.591-0.93-1.305-2.21-1.288-2.676
					c0.627,0.908,1.351,1.664,1.905,2.186c0.06-0.05,0.118-0.093,0.178-0.144c0.176-0.15,0.335-0.306,0.496-0.461l-1.015-1.074
					l1.326,0.758c0.613-0.654,1.079-1.34,1.418-2.019c-0.729-0.125-1.792-0.394-2.791-0.994c1.173,0.411,2.441,0.343,3.105,0.266
					c0.824-2.263,0.15-4.276-1.792-4.485c-0.285-0.031-0.552-0.022-0.81,0.007C107.884,59.821,107.5,61,107.5,61
					c-0.111-1.622-0.429-2.682-0.674-3.291c-1.896,0.485-3.139,2.436-4.942,3.35c-0.476,2.098-0.343,3.916-0.343,3.916l-0.462,0.115
					c0,0-0.179-1.998,0.028-3.707c-2.493,0.866-2.455,3.314-2.455,3.314S99.228,64.792,99.598,64.852z"/>
			</g>
			<g>
				<path fill="#FFFFFF" d="M103.026,48.372c-1.345,1.412-2.722,2.757-4.062,4.139c-1.347,1.376-2.658,2.767-3.945,4.219l-0.121-0.083
					c0.918-1.736,2.206-3.241,3.577-4.621c0.696-0.683,1.411-1.346,2.172-1.955c0.756-0.614,1.531-1.205,2.365-1.716L103.026,48.372z"
					/>
				<path opacity="0.8" fill="#FFFFFF" d="M105.945,46.39c-0.415-0.654-1.081-0.958-1.866-0.996c-0.464,0.853-1.081,2.087-1.547,3.401
					c0.057-1.339,0.337-2.49,0.611-3.332c-1.197,0.223-2.531,0.923-3.651,1.91c-0.849,0.747-1.531,1.545-1.975,2.346
					c0.523,1.491,1.266,2.431,1.266,2.431c-0.814-0.627-1.331-1.16-1.649-1.551c-0.325,1.005-0.229,1.989,0.449,2.858
					c1.237,1.587,3.74,1.496,5.837-1.095c0.134-0.166,0.258-0.316,0.387-0.474c-0.962-0.529-2.165-1.169-2.9-1.485
					c0,0,1.771,0.521,3.182,1.142c0.746-0.908,1.383-1.691,1.785-2.413c-0.906-0.039-2.443-0.022-4.101,0.361
					c0,0,1.794-1.056,4.463-1.216C106.412,47.641,106.352,47.03,105.945,46.39z"/>
			</g>
			<g>
				<path fill="#FFFFFF" d="M31.331,55.626c-2.256,2.077-4.461,4.162-6.57,6.337c-2.103,2.188-4.08,4.439-6.055,6.801
					c1.208-2.858,3.208-5.3,5.382-7.465c2.189-2.163,4.588-4.119,7.232-5.689L31.331,55.626z"/>
				<path opacity="0.8" fill="#FFFFFF" d="M33.863,55.197c-0.02-0.279-0.1-0.561-0.261-0.854c-0.802-1.457-3.236-1.142-5.647-0.039
					l0.789,3.25l-1.655-2.817c-0.724,0.389-1.429,0.837-2.064,1.324c-0.426,0.326-0.811,0.635-1.172,0.935
					c0.35,0.551,0.852,1.385,0.852,1.385l-1.209-1.083c-1.921,1.63-2.856,2.754-2.856,2.754s0.474,2.389,1.882,3.827
					c-0.387,0.215-0.387,0.215-0.387,0.215s-0.872-2.47-3.179-1.881c1.7,0.963,2.758,2.396,2.758,2.396
					c1.654,1.205,2.72,1.035,5.032-1.117l-2.125-2.223l0.542-0.372l2.085,2.115c0.391-0.382,0.815-0.812,1.281-1.295
					c2.643-2.742,4.714-4.293,5.221-5.731c-0.356-0.149-0.821-0.356-1.272-0.594C33.042,55.28,33.521,55.225,33.863,55.197z"/>
			</g>
		</g>

		<g id="Layer_5">
			<g>
				<path fill="#FFFFFF" d="M20.017,51.439c1.911,0.822,3.736,1.834,5.478,2.979c1.719,1.16,3.451,2.417,4.642,4.179l-0.142,0.133
					c-1.657-1.25-3.215-2.546-4.887-3.754c-1.664-1.208-3.372-2.368-5.106-3.508L20.017,51.439z"/>
				<path opacity="0.8" fill="#FFFFFF" d="M27.49,56.321c0,0,0.757-1.251-0.08-3.247c-0.059,1.034-0.482,2.808-0.482,2.808
					l-0.395-0.299c0,0,0.334-2.019,0.108-3.417c-1.424-1.366-3.321-2.362-4.608-2.629c0.314,1.048,0.314,3.332,0.314,3.332
					s-0.356-2.601-0.76-3.296c-1.254-0.374-2.478-0.105-2.996,1.323s1.317,2.097,2.125,3.062c0.808,0.965,1.437,1.698,1.437,1.698
					l1.859-1.916l-1.464,2.374l1.533,1.879l2.874-1.841c0,0-1.227,1.632-2.191,2.301C27.052,58.439,27.49,56.321,27.49,56.321z"/>
			</g>
			<g>
				<path fill="#FFFFFF" d="M23.512,81.185c-1.983-0.244-3.941-0.695-5.861-1.272c-1.919-0.585-3.798-1.314-5.616-2.193
					c-1.806-0.896-3.576-1.912-5.17-3.183c-1.576-1.28-2.991-2.83-3.88-4.669l0.144-0.107c1.499,1.341,2.995,2.55,4.575,3.677
					c1.566,1.137,3.208,2.189,4.935,3.106c1.719,0.93,3.501,1.762,5.317,2.528C19.773,79.836,21.619,80.555,23.512,81.185z"/>
				<path opacity="0.8" fill="#FFFFFF" d="M19.638,84.139c2.651,0.708,7.285-0.317,7.057-2.804c-0.033-0.361-0.125-0.672-0.244-0.958
					c-0.864,0.329-1.638,0.457-1.638,0.457s0.677-0.489,1.315-1.055c-0.32-0.439-0.759-0.779-1.268-1.066
					c-0.498,0.466-0.959,0.733-0.959,0.733c0.219-0.236,0.416-0.611,0.563-0.938c-0.845-0.412-7.461-3.453-7.461-3.453
					s-2.026,1.528-4.619,2.101c1.494-0.976,3.693-2.726,3.693-2.726s-0.711-0.733-1.839-1.619c-1.298,0.39-3.731,1.196-4.96,2.081
					c0,0,1.78-1.961,3.789-2.94c-0.203-0.138-0.42-0.273-0.637-0.408c-0.473-0.038-1.213,0.019-2.12,0.509
					c-1.579,0.851-2.425,1.869-2.425,1.869s1.16-1.834,2.93-2.784c-1.845,0.307-3.548,2.838-3.548,2.838
					c-1.578,3.685,0.118,6.512,0.118,6.512s0.461-2.559,1.84-4.997c-0.786,2.402-0.607,5.435-0.607,5.435
					c1.357,0.844,3.195,1.477,5.051,1.961l0.741-1.612l-0.12,1.768c1.235,0.688,2.781,1.208,3.983,1.403
					c0.386-1.486,1.899-4.328,1.899-4.328S19.485,82.89,19.638,84.139z"/>
			</g>
			<g>
				<path fill="#FFFFFF" d="M108.542,66.024c-0.514,1.318-1.314,2.542-2.379,3.52c-1.05,0.989-2.437,1.678-3.92,1.795
					c-1.455,0.145-2.942-0.16-4.248-0.768c-1.316-0.593-2.49-1.469-3.42-2.544l0.046-0.046c1.131,0.836,2.345,1.522,3.607,2.049
					c1.27,0.499,2.615,0.815,3.971,0.709c1.332-0.097,2.616-0.667,3.674-1.531c1.052-0.875,1.937-1.983,2.601-3.214L108.542,66.024z"/>
				<path opacity="0.8" fill="#FFFFFF" d="M100.096,70.837c0,0,1.375,2.658-0.615,4.205c1.47-1.613-0.331-4.358-0.331-4.358
					L100.096,70.837z"/>
				<path opacity="0.8" fill="#FFFFFF" d="M100.096,70.837c1.324,3.442,3.645,3.91,6.968,1.409c-0.591-0.93-1.305-2.21-1.288-2.676
					c0.627,0.908,1.351,1.664,1.905,2.186c0.06-0.05,0.118-0.093,0.178-0.144c0.176-0.15,0.335-0.306,0.496-0.461l-1.015-1.074
					l1.326,0.758c0.613-0.654,1.079-1.34,1.418-2.019c-0.729-0.125-1.792-0.394-2.791-0.994c1.173,0.411,2.441,0.343,3.105,0.266
					c0.824-2.263,0.15-4.276-1.792-4.485c-0.285-0.031-0.552-0.022-0.81,0.007c0.584,2.197,0.201,3.376,0.201,3.376
					c-0.111-1.622-0.429-2.682-0.674-3.291c-1.896,0.485-3.139,2.436-4.942,3.35c-0.476,2.098-0.343,3.916-0.343,3.916l-0.462,0.115
					c0,0-0.179-1.998,0.028-3.707c-2.493,0.866-2.455,3.314-2.455,3.314S99.726,70.777,100.096,70.837z"/>
			</g>
			<g>
				<path fill="#FFFFFF" d="M100.535,55.088c-1.237,1.507-2.511,2.95-3.745,4.428c-1.242,1.472-2.445,2.956-3.622,4.5l-0.127-0.074
					c0.787-1.799,1.96-3.395,3.226-4.873c0.643-0.732,1.307-1.447,2.021-2.11c0.708-0.668,1.438-1.315,2.232-1.886L100.535,55.088z"/>
				<path opacity="0.8" fill="#FFFFFF" d="M103.299,52.896c-0.462-0.621-1.149-0.876-1.935-0.854c-0.399,0.885-0.924,2.161-1.291,3.506
					c-0.042-1.34,0.151-2.508,0.363-3.368c-1.177,0.311-2.456,1.108-3.5,2.175c-0.791,0.808-1.413,1.654-1.796,2.486
					c0.632,1.448,1.442,2.331,1.442,2.331c-0.858-0.565-1.414-1.058-1.76-1.425c-0.25,1.026-0.081,2,0.659,2.817
					c1.352,1.491,3.84,1.215,5.74-1.524c0.121-0.175,0.234-0.334,0.351-0.501c-0.999-0.456-2.246-1.006-3.002-1.266
					c0,0,1.805,0.389,3.257,0.903c0.676-0.961,1.254-1.789,1.601-2.539c-0.907,0.028-2.438,0.159-4.063,0.664
					c0,0,1.711-1.186,4.361-1.543C103.857,54.108,103.751,53.504,103.299,52.896z"/>
			</g>
			<g>
				<path fill="#FFFFFF" d="M29.953,61.958c-2.487,1.793-4.925,3.603-7.277,5.511c-2.348,1.922-4.579,3.922-6.821,6.033
					c1.54-2.694,3.816-4.881,6.231-6.771c2.432-1.888,5.045-3.545,7.858-4.789L29.953,61.958z"/>
				<path opacity="0.8" fill="#FFFFFF" d="M32.519,61.833c0.013-0.28-0.032-0.569-0.158-0.88c-0.623-1.542-3.077-1.519-5.603-0.709
					l0.397,3.32l-1.308-2.994c-0.765,0.3-1.518,0.661-2.208,1.069c-0.461,0.272-0.88,0.534-1.274,0.789
					c0.282,0.588,0.682,1.477,0.682,1.477l-1.072-1.22c-2.102,1.39-3.164,2.395-3.164,2.395s0.187,2.429,1.413,4.024
					c-0.409,0.167-0.409,0.167-0.409,0.167s-0.572-2.556-2.933-2.245c1.573,1.158,2.454,2.707,2.454,2.707
					c1.499,1.393,2.578,1.351,5.128-0.511l-1.845-2.46l0.582-0.304l1.819,2.348c0.434-0.333,0.906-0.708,1.426-1.133
					c2.95-2.409,5.191-3.702,5.866-5.07c-0.336-0.19-0.773-0.451-1.193-0.741C31.693,61.818,32.176,61.82,32.519,61.833z"/>
			</g>
		</g>

		<g id="Layer_6">
			<g>
				<path fill="#FFFFFF" d="M21.017,58.605c1.911,0.823,3.736,1.834,5.478,2.979c1.719,1.16,3.451,2.417,4.642,4.179l-0.142,0.133
					c-1.657-1.25-3.215-2.546-4.887-3.754c-1.664-1.208-3.372-2.368-5.106-3.508L21.017,58.605z"/>
				<path opacity="0.8" fill="#FFFFFF" d="M28.49,63.488c0,0,0.757-1.251-0.08-3.247c-0.059,1.034-0.482,2.808-0.482,2.808
					l-0.395-0.299c0,0,0.334-2.019,0.108-3.417c-1.424-1.366-3.321-2.362-4.608-2.629c0.314,1.048,0.314,3.332,0.314,3.332
					s-0.356-2.601-0.76-3.296c-1.254-0.374-2.478-0.105-2.996,1.323s1.317,2.097,2.125,3.062c0.808,0.965,1.437,1.698,1.437,1.698
					l1.859-1.916l-1.464,2.374l1.533,1.879l2.874-1.841c0,0-1.227,1.632-2.191,2.301C28.052,65.606,28.49,63.488,28.49,63.488z"/>
			</g>
			<g>
				<path fill="#FFFFFF" d="M23.346,85.685c-1.983-0.243-3.941-0.695-5.861-1.272c-1.919-0.585-3.798-1.314-5.616-2.193
					c-1.806-0.896-3.576-1.912-5.17-3.183c-1.576-1.28-2.991-2.83-3.88-4.669l0.144-0.107c1.499,1.341,2.995,2.55,4.575,3.677
					c1.566,1.137,3.208,2.189,4.935,3.106c1.719,0.93,3.501,1.762,5.317,2.528C19.606,84.336,21.453,85.056,23.346,85.685z"/>
				<path opacity="0.8" fill="#FFFFFF" d="M19.471,88.639c2.651,0.709,7.285-0.316,7.057-2.804c-0.033-0.361-0.125-0.672-0.244-0.958
					c-0.864,0.328-1.638,0.457-1.638,0.457s0.677-0.489,1.315-1.055c-0.32-0.439-0.759-0.779-1.268-1.066
					c-0.498,0.466-0.959,0.733-0.959,0.733c0.219-0.236,0.416-0.611,0.563-0.938c-0.845-0.412-7.461-3.453-7.461-3.453
					s-2.026,1.528-4.619,2.101c1.494-0.976,3.693-2.726,3.693-2.726s-0.711-0.733-1.839-1.619c-1.298,0.39-3.731,1.196-4.96,2.081
					c0,0,1.78-1.961,3.789-2.94c-0.203-0.138-0.42-0.273-0.637-0.408c-0.473-0.038-1.213,0.019-2.12,0.509
					C8.566,77.403,7.72,78.42,7.72,78.42s1.16-1.834,2.93-2.784c-1.845,0.307-3.548,2.838-3.548,2.838
					c-1.578,3.685,0.118,6.512,0.118,6.512s0.461-2.559,1.84-4.997c-0.786,2.402-0.607,5.435-0.607,5.435
					c1.357,0.844,3.195,1.478,5.051,1.962l0.741-1.612l-0.12,1.768c1.235,0.688,2.781,1.208,3.983,1.403
					c0.386-1.486,1.899-4.328,1.899-4.328S19.319,87.39,19.471,88.639z"/>
			</g>
			<g>
				<path fill="#FFFFFF" d="M110.35,72.843c-0.514,1.318-1.314,2.542-2.379,3.52c-1.05,0.989-2.437,1.678-3.92,1.795
					c-1.455,0.146-2.942-0.16-4.248-0.768c-1.316-0.593-2.49-1.469-3.42-2.544l0.046-0.047c1.131,0.836,2.345,1.523,3.607,2.049
					c1.27,0.499,2.615,0.815,3.971,0.709c1.332-0.097,2.616-0.667,3.674-1.531c1.052-0.875,1.937-1.983,2.601-3.214L110.35,72.843z"/>
				<path opacity="0.8" fill="#FFFFFF" d="M101.903,77.656c0,0,1.375,2.658-0.615,4.205c1.47-1.613-0.331-4.358-0.331-4.358
					L101.903,77.656z"/>
				<path opacity="0.8" fill="#FFFFFF" d="M101.903,77.656c1.324,3.442,3.645,3.91,6.968,1.409c-0.591-0.93-1.305-2.21-1.288-2.676
					c0.627,0.908,1.351,1.664,1.905,2.186c0.06-0.05,0.118-0.093,0.178-0.144c0.176-0.15,0.335-0.306,0.496-0.461l-1.015-1.074
					l1.326,0.758c0.613-0.654,1.079-1.34,1.418-2.019c-0.729-0.125-1.792-0.394-2.791-0.994c1.173,0.411,2.441,0.343,3.105,0.266
					c0.824-2.263,0.15-4.276-1.792-4.485c-0.285-0.031-0.552-0.022-0.81,0.007c0.584,2.197,0.201,3.376,0.201,3.376
					c-0.111-1.622-0.429-2.682-0.674-3.291c-1.896,0.485-3.139,2.436-4.942,3.35c-0.476,2.098-0.343,3.916-0.343,3.916l-0.462,0.115
					c0,0-0.179-1.998,0.028-3.707c-2.493,0.866-2.455,3.314-2.455,3.314S101.533,77.596,101.903,77.656z"/>
			</g>
			<g>
				<path fill="#FFFFFF" d="M99.083,62.73c-1.237,1.507-2.511,2.951-3.745,4.428c-1.242,1.472-2.445,2.956-3.622,4.5l-0.127-0.074
					c0.787-1.799,1.96-3.395,3.226-4.873c0.643-0.732,1.307-1.447,2.021-2.11c0.708-0.668,1.438-1.315,2.232-1.886L99.083,62.73z"/>
				<path opacity="0.8" fill="#FFFFFF" d="M101.848,60.538c-0.462-0.621-1.149-0.876-1.935-0.854c-0.399,0.885-0.924,2.161-1.291,3.506
					c-0.042-1.34,0.151-2.508,0.363-3.368c-1.177,0.311-2.456,1.108-3.5,2.175c-0.791,0.808-1.413,1.654-1.796,2.486
					c0.632,1.448,1.442,2.331,1.442,2.331c-0.858-0.565-1.414-1.058-1.76-1.425c-0.25,1.026-0.081,2,0.659,2.817
					c1.352,1.491,3.84,1.215,5.74-1.524c0.121-0.175,0.234-0.334,0.351-0.501c-0.999-0.456-2.246-1.006-3.002-1.266
					c0,0,1.805,0.389,3.257,0.903c0.676-0.961,1.254-1.789,1.601-2.539c-0.907,0.028-2.438,0.159-4.063,0.664
					c0,0,1.711-1.186,4.361-1.543C102.406,61.751,102.3,61.146,101.848,60.538z"/>
			</g>
			<g>
				<path fill="#FFFFFF" d="M28.619,68.625c-2.487,1.793-4.925,3.602-7.277,5.511c-2.348,1.922-4.579,3.922-6.821,6.033
					c1.54-2.694,3.816-4.88,6.231-6.771c2.432-1.888,5.045-3.544,7.858-4.789L28.619,68.625z"/>
				<path opacity="0.8" fill="#FFFFFF" d="M31.185,68.5c0.013-0.28-0.032-0.569-0.158-0.88c-0.623-1.542-3.077-1.519-5.603-0.709
					l0.397,3.32l-1.308-2.994c-0.765,0.3-1.518,0.661-2.208,1.069c-0.461,0.272-0.88,0.534-1.274,0.789
					c0.282,0.588,0.682,1.477,0.682,1.477l-1.072-1.22c-2.102,1.39-3.164,2.395-3.164,2.395s0.187,2.429,1.413,4.024
					c-0.409,0.167-0.409,0.167-0.409,0.167s-0.572-2.556-2.933-2.245c1.573,1.158,2.454,2.707,2.454,2.707
					c1.499,1.393,2.578,1.351,5.128-0.511l-1.845-2.46l0.582-0.304l1.819,2.348c0.434-0.333,0.906-0.708,1.426-1.133
					c2.95-2.409,5.191-3.702,5.866-5.07c-0.336-0.19-0.773-0.451-1.193-0.741C30.36,68.485,30.842,68.487,31.185,68.5z"/>
			</g>
		</g>

		<g id="Layer_7">
			<g>
				<path fill="#FFFFFF" d="M21.564,66.628c1.998,0.581,3.935,1.358,5.804,2.28c1.849,0.938,3.723,1.973,5.122,3.574l-0.124,0.149
					c-1.799-1.036-3.505-2.129-5.313-3.123c-1.8-0.995-3.638-1.934-5.5-2.852L21.564,66.628z"/>
				<path opacity="0.8" fill="#FFFFFF" d="M29.583,70.551c0,0,0.597-1.335-0.479-3.212c0.069,1.033-0.132,2.845-0.132,2.845
					l-0.428-0.248c0,0,0.083-2.045-0.315-3.404c-1.582-1.179-3.587-1.934-4.897-2.04c0.441,1.001,0.723,3.267,0.723,3.267
					s-0.674-2.537-1.161-3.176c-1.291-0.217-2.472,0.202-2.81,1.682c-0.338,1.481,1.566,1.918,2.486,2.776
					c0.92,0.858,1.635,1.507,1.635,1.507l1.608-2.13l-1.16,2.537l1.753,1.675l2.625-2.181c0,0-1.017,1.771-1.891,2.554
					C29.409,72.707,29.583,70.551,29.583,70.551z"/>
			</g>
			<g>
				<path fill="#FFFFFF" d="M22.472,88.526c-1.983-0.243-3.941-0.694-5.861-1.272c-1.919-0.585-3.798-1.314-5.616-2.193
					c-1.806-0.896-3.576-1.912-5.17-3.183c-1.576-1.28-2.991-2.83-3.88-4.669l0.144-0.107c1.499,1.341,2.995,2.55,4.575,3.677
					c1.566,1.137,3.208,2.189,4.935,3.106c1.719,0.93,3.501,1.762,5.317,2.528C18.732,87.178,20.579,87.897,22.472,88.526z"/>
				<path opacity="0.8" fill="#FFFFFF" d="M18.597,91.48c2.651,0.709,7.285-0.316,7.057-2.804c-0.033-0.361-0.125-0.672-0.244-0.958
					c-0.864,0.328-1.638,0.457-1.638,0.457s0.677-0.488,1.315-1.055c-0.32-0.439-0.759-0.779-1.268-1.066
					c-0.498,0.467-0.959,0.732-0.959,0.732c0.219-0.235,0.416-0.61,0.563-0.938c-0.845-0.412-7.461-3.453-7.461-3.453
					s-2.026,1.528-4.619,2.101c1.494-0.976,3.693-2.726,3.693-2.726s-0.711-0.733-1.839-1.619c-1.298,0.39-3.731,1.196-4.96,2.081
					c0,0,1.78-1.961,3.789-2.94c-0.203-0.138-0.42-0.273-0.637-0.408c-0.473-0.038-1.213,0.019-2.12,0.509
					c-1.579,0.851-2.425,1.869-2.425,1.869s1.16-1.834,2.93-2.784c-1.845,0.307-3.548,2.838-3.548,2.838
					c-1.578,3.686,0.118,6.512,0.118,6.512s0.461-2.559,1.84-4.997c-0.786,2.401-0.607,5.435-0.607,5.435
					c1.357,0.844,3.195,1.478,5.051,1.962l0.741-1.612l-0.12,1.768c1.235,0.688,2.781,1.208,3.983,1.403
					c0.386-1.486,1.899-4.328,1.899-4.328S18.445,90.231,18.597,91.48z"/>
			</g>
			<g>
				<path fill="#FFFFFF" d="M112.241,78.214c-0.514,1.318-1.314,2.542-2.379,3.52c-1.05,0.989-2.437,1.678-3.92,1.795
					c-1.455,0.145-2.942-0.16-4.248-0.768c-1.316-0.593-2.49-1.469-3.42-2.544l0.046-0.046c1.131,0.836,2.345,1.522,3.607,2.049
					c1.27,0.499,2.615,0.815,3.971,0.709c1.332-0.097,2.616-0.667,3.674-1.531c1.052-0.875,1.937-1.983,2.601-3.214L112.241,78.214z"/>
				<path opacity="0.8" fill="#FFFFFF" d="M103.794,83.026c0,0,1.375,2.658-0.615,4.204c1.47-1.612-0.331-4.357-0.331-4.357
					L103.794,83.026z"/>
				<path opacity="0.8" fill="#FFFFFF" d="M103.794,83.026c1.324,3.442,3.645,3.909,6.968,1.409c-0.591-0.93-1.305-2.21-1.288-2.676
					c0.627,0.908,1.351,1.664,1.905,2.186c0.06-0.05,0.118-0.093,0.178-0.144c0.176-0.15,0.335-0.306,0.496-0.461l-1.015-1.074
					l1.326,0.758c0.613-0.654,1.079-1.34,1.418-2.019c-0.729-0.125-1.792-0.394-2.791-0.994c1.173,0.411,2.441,0.343,3.105,0.266
					c0.824-2.263,0.15-4.276-1.792-4.485c-0.285-0.031-0.552-0.022-0.81,0.007c0.584,2.197,0.201,3.376,0.201,3.376
					c-0.111-1.622-0.429-2.682-0.674-3.291c-1.896,0.485-3.139,2.436-4.942,3.35c-0.476,2.098-0.343,3.916-0.343,3.916l-0.462,0.115
					c0,0-0.179-1.998,0.028-3.707c-2.493,0.866-2.455,3.314-2.455,3.314S103.424,82.966,103.794,83.026z"/>
			</g>
			<g>
				<path fill="#FFFFFF" d="M99.874,69.082c-1.237,1.507-2.511,2.951-3.745,4.428c-1.242,1.472-2.445,2.956-3.622,4.5l-0.127-0.074
					c0.787-1.799,1.96-3.395,3.226-4.872c0.643-0.733,1.307-1.447,2.021-2.11c0.708-0.668,1.438-1.314,2.232-1.886L99.874,69.082z"/>
				<path opacity="0.8" fill="#FFFFFF" d="M102.638,66.889c-0.462-0.621-1.149-0.876-1.935-0.854c-0.399,0.885-0.924,2.161-1.291,3.506
					c-0.042-1.34,0.151-2.508,0.363-3.368c-1.177,0.311-2.456,1.108-3.5,2.175c-0.791,0.808-1.413,1.654-1.796,2.486
					c0.632,1.448,1.442,2.331,1.442,2.331c-0.858-0.565-1.414-1.058-1.76-1.425c-0.25,1.026-0.081,2,0.659,2.817
					c1.352,1.491,3.84,1.215,5.74-1.524c0.121-0.175,0.234-0.334,0.351-0.501c-0.999-0.456-2.246-1.006-3.002-1.266
					c0,0,1.805,0.389,3.257,0.903c0.676-0.961,1.254-1.789,1.601-2.539c-0.907,0.028-2.438,0.159-4.063,0.664
					c0,0,1.711-1.186,4.361-1.543C103.196,68.102,103.09,67.498,102.638,66.889z"/>
			</g>
			<g>
				<path fill="#FFFFFF" d="M28.375,73.116c-2.58,1.657-5.112,3.332-7.564,5.11c-2.448,1.793-4.784,3.669-7.137,5.656
					c1.683-2.607,4.074-4.668,6.588-6.426c2.53-1.753,5.23-3.267,8.105-4.357L28.375,73.116z"/>
				<path opacity="0.8" fill="#FFFFFF" d="M30.943,73.13c0.028-0.279-0.002-0.57-0.11-0.887c-0.538-1.573-2.991-1.683-5.556-1.011
					l0.217,3.337l-1.145-3.061c-0.78,0.259-1.552,0.579-2.262,0.948c-0.475,0.247-0.908,0.486-1.315,0.719
					c0.25,0.603,0.601,1.512,0.601,1.512l-1.005-1.276c-2.173,1.274-3.288,2.221-3.288,2.221s0.055,2.435,1.193,4.095
					c-0.417,0.145-0.417,0.145-0.417,0.145s-0.433-2.583-2.808-2.4c1.509,1.242,2.304,2.835,2.304,2.835
					c1.422,1.472,2.501,1.488,5.149-0.233l-1.71-2.556l0.598-0.272l1.689,2.443c0.451-0.309,0.943-0.659,1.485-1.055
					c3.076-2.246,5.383-3.417,6.13-4.746c-0.325-0.208-0.748-0.492-1.15-0.805C30.12,73.07,30.602,73.099,30.943,73.13z"/>
			</g>
		</g>

		<g id="Layer_8">
			<g opacity="0.75">
				<path fill="#FFFFFF" d="M24.252,73.543c1.998,0.581,3.935,1.359,5.804,2.28c1.849,0.938,3.723,1.973,5.122,3.574l-0.124,0.149
					c-1.799-1.036-3.505-2.13-5.313-3.123c-1.8-0.995-3.638-1.934-5.5-2.852L24.252,73.543z"/>
				<path opacity="0.8" fill="#FFFFFF" d="M32.271,77.466c0,0,0.597-1.335-0.479-3.212c0.069,1.033-0.132,2.845-0.132,2.845
					l-0.428-0.248c0,0,0.083-2.045-0.315-3.404c-1.582-1.179-3.587-1.934-4.897-2.04c0.441,1.001,0.723,3.267,0.723,3.267
					s-0.674-2.537-1.161-3.176c-1.291-0.217-2.472,0.202-2.81,1.682c-0.338,1.481,1.566,1.918,2.486,2.776
					c0.92,0.858,1.635,1.507,1.635,1.507l1.608-2.13l-1.16,2.537l1.753,1.675l2.625-2.181c0,0-1.017,1.771-1.891,2.554
					C32.097,79.622,32.271,77.466,32.271,77.466z"/>
			</g>
			<g opacity="0.75">
				<path fill="#FFFFFF" d="M22.866,93.685c-1.983-0.243-3.941-0.694-5.861-1.272c-1.919-0.585-3.798-1.314-5.616-2.193
					c-1.806-0.896-3.576-1.912-5.17-3.183c-1.576-1.279-2.991-2.83-3.88-4.669l0.144-0.107c1.499,1.341,2.995,2.55,4.575,3.678
					c1.566,1.137,3.208,2.188,4.935,3.105c1.719,0.931,3.501,1.762,5.317,2.528C19.126,92.336,20.973,93.056,22.866,93.685z"/>
				<path opacity="0.8" fill="#FFFFFF" d="M18.991,96.639c2.651,0.709,7.285-0.316,7.057-2.804c-0.033-0.361-0.125-0.672-0.244-0.958
					c-0.864,0.328-1.638,0.457-1.638,0.457s0.677-0.488,1.315-1.055c-0.32-0.439-0.759-0.779-1.268-1.066
					c-0.498,0.467-0.959,0.732-0.959,0.732c0.219-0.235,0.416-0.61,0.563-0.938c-0.845-0.412-7.461-3.453-7.461-3.453
					s-2.026,1.527-4.619,2.101c1.494-0.976,3.693-2.726,3.693-2.726s-0.711-0.733-1.839-1.619c-1.298,0.391-3.731,1.195-4.96,2.08
					c0,0,1.78-1.961,3.789-2.939c-0.203-0.138-0.42-0.273-0.637-0.408c-0.473-0.038-1.213,0.019-2.12,0.509
					C8.086,85.402,7.24,86.42,7.24,86.42s1.16-1.834,2.93-2.783c-1.845,0.307-3.548,2.838-3.548,2.838
					c-1.578,3.686,0.118,6.512,0.118,6.512s0.461-2.559,1.84-4.997c-0.786,2.401-0.607,5.435-0.607,5.435
					c1.357,0.844,3.195,1.478,5.051,1.962l0.741-1.612l-0.12,1.768c1.235,0.688,2.781,1.208,3.983,1.403
					c0.386-1.486,1.899-4.328,1.899-4.328S18.839,95.39,18.991,96.639z"/>
			</g>
			<g opacity="0.75">
				<path fill="#FFFFFF" d="M115.266,82.289c-0.514,1.318-1.314,2.542-2.379,3.519c-1.05,0.989-2.438,1.679-3.921,1.795
					c-1.455,0.146-2.941-0.159-4.248-0.767c-1.316-0.593-2.49-1.47-3.42-2.544l0.046-0.047c1.131,0.836,2.345,1.522,3.607,2.05
					c1.27,0.498,2.615,0.814,3.971,0.709c1.332-0.098,2.616-0.668,3.674-1.531c1.052-0.875,1.937-1.982,2.601-3.213L115.266,82.289z"/>
				<path opacity="0.8" fill="#FFFFFF" d="M106.819,87.102c0,0,1.375,2.658-0.615,4.203c1.47-1.611-0.331-4.357-0.331-4.357
					L106.819,87.102z"/>
				<path opacity="0.8" fill="#FFFFFF" d="M106.819,87.102c1.324,3.441,3.645,3.908,6.968,1.408c-0.591-0.93-1.305-2.21-1.288-2.676
					c0.627,0.908,1.351,1.664,1.905,2.186c0.06-0.05,0.118-0.093,0.178-0.145c0.176-0.15,0.335-0.305,0.496-0.461l-1.015-1.074
					l1.326,0.758c0.613-0.654,1.079-1.34,1.418-2.019c-0.729-0.125-1.792-0.394-2.791-0.994c1.173,0.411,2.441,0.343,3.105,0.266
					c0.824-2.263,0.15-4.276-1.792-4.485c-0.285-0.031-0.552-0.022-0.81,0.007c0.584,2.197,0.201,3.376,0.201,3.376
					c-0.111-1.622-0.429-2.682-0.674-3.291c-1.896,0.485-3.139,2.436-4.942,3.35c-0.476,2.098-0.343,3.916-0.343,3.916L108.3,87.34
					c0,0-0.179-1.998,0.028-3.707c-2.493,0.866-2.455,3.314-2.455,3.314S106.449,87.041,106.819,87.102z"/>
			</g>
			<g opacity="0.75">
				<path fill="#FFFFFF" d="M100.21,74.953c-1.237,1.507-2.511,2.951-3.745,4.428c-1.242,1.472-2.445,2.956-3.622,4.5l-0.127-0.074
					c0.787-1.799,1.96-3.395,3.226-4.872c0.643-0.733,1.307-1.447,2.021-2.11c0.708-0.668,1.438-1.314,2.232-1.886L100.21,74.953z"/>
				<path opacity="0.8" fill="#FFFFFF" d="M102.974,72.76c-0.462-0.621-1.149-0.876-1.935-0.854c-0.399,0.885-0.924,2.161-1.291,3.506
					c-0.042-1.34,0.151-2.508,0.363-3.368c-1.177,0.311-2.456,1.108-3.5,2.175c-0.791,0.808-1.413,1.654-1.796,2.486
					c0.632,1.448,1.442,2.331,1.442,2.331c-0.858-0.565-1.414-1.058-1.76-1.425c-0.25,1.026-0.081,2,0.659,2.817
					c1.352,1.491,3.84,1.215,5.74-1.524c0.121-0.175,0.234-0.334,0.351-0.501c-0.999-0.456-2.246-1.006-3.002-1.266
					c0,0,1.805,0.389,3.257,0.903c0.676-0.961,1.254-1.789,1.601-2.539c-0.907,0.028-2.438,0.159-4.063,0.664
					c0,0,1.711-1.186,4.361-1.543C103.532,73.973,103.427,73.369,102.974,72.76z"/>
			</g>
			<g opacity="0.75">
				<path fill="#FFFFFF" d="M28.208,77.95c-2.58,1.657-5.112,3.332-7.564,5.111c-2.448,1.793-4.784,3.669-7.137,5.656
					c1.683-2.607,4.074-4.668,6.588-6.426c2.53-1.754,5.229-3.268,8.105-4.358L28.208,77.95z"/>
				<path opacity="0.8" fill="#FFFFFF" d="M30.777,77.964c0.028-0.279-0.002-0.57-0.11-0.887c-0.538-1.573-2.991-1.683-5.556-1.011
					l0.217,3.337l-1.145-3.061c-0.78,0.259-1.552,0.579-2.262,0.948c-0.475,0.247-0.908,0.486-1.315,0.719
					c0.25,0.603,0.601,1.512,0.601,1.512l-1.005-1.276c-2.173,1.274-3.288,2.221-3.288,2.221s0.055,2.435,1.193,4.095
					c-0.417,0.145-0.417,0.145-0.417,0.145s-0.433-2.583-2.808-2.4c1.509,1.242,2.304,2.835,2.304,2.835
					c1.422,1.472,2.501,1.488,5.149-0.233l-1.71-2.556l0.598-0.272l1.689,2.443c0.451-0.309,0.943-0.659,1.485-1.055
					c3.076-2.246,5.383-3.417,6.13-4.746c-0.325-0.208-0.748-0.492-1.15-0.805C29.954,77.904,30.435,77.932,30.777,77.964z"/>
			</g>
		</g>

		<g id="Layer_9">
			<g opacity="0.5">
				<path fill="#FFFFFF" d="M25.558,81.334c2.059,0.293,4.087,0.79,6.068,1.438c1.963,0.668,3.965,1.427,5.575,2.814L37.1,85.752
					c-1.927-0.772-3.771-1.613-5.701-2.341c-1.923-0.73-3.875-1.4-5.848-2.045L25.558,81.334z"/>
				<path opacity="0.8" fill="#FFFFFF" d="M34.05,84.085c0,0,0.402-1.406-0.929-3.112c0.214,1.013,0.271,2.835,0.271,2.835
					l-0.459-0.185c0,0-0.207-2.036-0.792-3.326c-1.732-0.944-3.825-1.408-5.137-1.328c0.578,0.929,1.177,3.132,1.177,3.132
					s-1.026-2.417-1.598-2.98c-1.308-0.032-2.419,0.549-2.544,2.063c-0.125,1.514,1.821,1.677,2.854,2.397
					c1.032,0.72,1.832,1.261,1.832,1.261l1.292-2.336l-0.79,2.676l1.972,1.41l2.29-2.53c0,0-0.756,1.897-1.511,2.795
					C34.183,86.243,34.05,84.085,34.05,84.085z"/>
			</g>
			<g opacity="0.5">
				<path fill="#FFFFFF" d="M22.639,96.692c-1.983-0.243-3.941-0.694-5.861-1.272c-1.919-0.585-3.798-1.314-5.616-2.193
					c-1.806-0.896-3.576-1.912-5.17-3.183c-1.576-1.279-2.991-2.83-3.88-4.669l0.144-0.107c1.499,1.341,2.995,2.55,4.575,3.678
					c1.566,1.137,3.208,2.188,4.935,3.105c1.719,0.931,3.501,1.762,5.317,2.528C18.899,95.344,20.746,96.063,22.639,96.692z"/>
				<path opacity="0.8" fill="#FFFFFF" d="M18.764,99.646c2.651,0.709,7.285-0.316,7.057-2.804c-0.033-0.361-0.125-0.672-0.244-0.958
					c-0.864,0.328-1.638,0.457-1.638,0.457s0.677-0.488,1.315-1.055c-0.32-0.439-0.759-0.779-1.268-1.066
					c-0.498,0.467-0.959,0.732-0.959,0.732c0.219-0.235,0.416-0.61,0.563-0.938c-0.845-0.412-7.461-3.453-7.461-3.453
					s-2.026,1.528-4.619,2.101c1.494-0.977,3.693-2.726,3.693-2.726s-0.711-0.733-1.839-1.619c-1.298,0.39-3.731,1.196-4.96,2.081
					c0,0,1.78-1.962,3.789-2.94c-0.203-0.138-0.42-0.273-0.637-0.408c-0.473-0.038-1.213,0.019-2.12,0.509
					c-1.579,0.852-2.425,1.869-2.425,1.869s1.16-1.835,2.93-2.784c-1.845,0.307-3.548,2.838-3.548,2.838
					c-1.578,3.686,0.118,6.512,0.118,6.512s0.461-2.559,1.84-4.997c-0.786,2.401-0.607,5.435-0.607,5.435
					c1.357,0.844,3.195,1.478,5.051,1.962l0.741-1.612l-0.12,1.768c1.235,0.688,2.781,1.208,3.983,1.403
					c0.386-1.486,1.899-4.328,1.899-4.328S18.612,98.397,18.764,99.646z"/>
			</g>
			<g opacity="0.5">
				<path fill="#FFFFFF" d="M116.694,85.937c-0.514,1.318-1.314,2.542-2.379,3.52c-1.05,0.989-2.437,1.679-3.921,1.795
					c-1.455,0.146-2.941-0.16-4.248-0.768c-1.316-0.593-2.49-1.47-3.42-2.544l0.046-0.047c1.131,0.836,2.345,1.523,3.607,2.05
					c1.27,0.499,2.615,0.815,3.971,0.71c1.332-0.098,2.616-0.668,3.674-1.531c1.052-0.875,1.937-1.982,2.601-3.214L116.694,85.937z"/>
				<path opacity="0.8" fill="#FFFFFF" d="M108.248,90.748c0,0,1.375,2.658-0.615,4.205c1.47-1.613-0.331-4.357-0.331-4.357
					L108.248,90.748z"/>
				<path opacity="0.8" fill="#FFFFFF" d="M108.248,90.748c1.324,3.443,3.645,3.91,6.968,1.41c-0.591-0.93-1.305-2.211-1.288-2.677
					c0.627,0.907,1.351,1.664,1.905,2.186c0.06-0.05,0.118-0.093,0.178-0.144c0.176-0.15,0.335-0.307,0.496-0.462l-1.015-1.074
					l1.326,0.758c0.613-0.653,1.079-1.341,1.418-2.019c-0.729-0.125-1.792-0.395-2.791-0.994c1.173,0.412,2.441,0.344,3.105,0.266
					c0.824-2.262,0.15-4.275-1.792-4.484c-0.285-0.031-0.552-0.022-0.81,0.007c0.584,2.196,0.201,3.376,0.201,3.376
					c-0.111-1.621-0.429-2.682-0.674-3.291c-1.896,0.485-3.139,2.436-4.942,3.35c-0.476,2.099-0.343,3.916-0.343,3.916l-0.462,0.115
					c0,0-0.179-1.998,0.028-3.706c-2.493,0.865-2.455,3.314-2.455,3.314S107.878,90.688,108.248,90.748z"/>
			</g>
			<g opacity="0.5">
				<path fill="#FFFFFF" d="M101.374,80.915c-1.237,1.507-2.511,2.95-3.745,4.427c-1.242,1.473-2.445,2.956-3.622,4.5l-0.127-0.074
					c0.787-1.8,1.96-3.396,3.225-4.873c0.644-0.733,1.308-1.447,2.022-2.11c0.708-0.668,1.438-1.315,2.232-1.886L101.374,80.915z"/>
				<path opacity="0.8" fill="#FFFFFF" d="M104.138,78.722c-0.462-0.621-1.149-0.876-1.935-0.854c-0.399,0.885-0.924,2.161-1.291,3.506
					c-0.042-1.34,0.151-2.508,0.363-3.368c-1.177,0.311-2.456,1.108-3.5,2.175c-0.791,0.808-1.413,1.654-1.796,2.486
					c0.632,1.448,1.442,2.331,1.442,2.331c-0.858-0.565-1.414-1.058-1.76-1.425c-0.25,1.026-0.081,2,0.659,2.817
					c1.352,1.491,3.84,1.215,5.74-1.524c0.121-0.175,0.234-0.334,0.351-0.501c-0.999-0.456-2.246-1.006-3.002-1.266
					c0,0,1.805,0.389,3.257,0.903c0.676-0.961,1.254-1.789,1.601-2.539c-0.907,0.028-2.438,0.159-4.063,0.664
					c0,0,1.711-1.186,4.361-1.543C104.696,79.935,104.59,79.331,104.138,78.722z"/>
			</g>
			<g opacity="0.5">
				<path fill="#FFFFFF" d="M29.695,82.43c-2.738,1.38-5.431,2.783-8.054,4.298c-2.621,1.529-5.139,3.152-7.685,4.885
					c1.944-2.418,4.536-4.22,7.219-5.707c2.698-1.482,5.54-2.707,8.513-3.494L29.695,82.43z"/>
				<path opacity="0.8" fill="#FFFFFF" d="M32.249,82.71c0.057-0.274,0.057-0.567-0.018-0.894c-0.372-1.62-2.8-1.983-5.421-1.582
					l-0.13,3.342l-0.821-3.163c-0.803,0.177-1.603,0.415-2.348,0.708c-0.498,0.197-0.953,0.39-1.383,0.579
					c0.186,0.625,0.44,1.566,0.44,1.566l-0.867-1.374c-2.294,1.042-3.5,1.868-3.5,1.868s-0.198,2.427,0.762,4.196
					c-0.43,0.101-0.43,0.101-0.43,0.101s-0.163-2.615-2.543-2.679c1.372,1.392,1.998,3.06,1.998,3.06
					c1.262,1.61,2.333,1.739,5.145,0.302l-1.436-2.719l0.623-0.211l1.427,2.605c0.481-0.26,1.006-0.557,1.586-0.895
					c3.292-1.915,5.708-2.84,6.589-4.084c-0.302-0.241-0.692-0.567-1.061-0.92C31.436,82.565,31.912,82.644,32.249,82.71z"/>
			</g>
		</g>

		<g id="Layer_10">
			<g opacity="0.25">
				<path fill="#FFFFFF" d="M27.924,89.465c2.078,0.09,4.145,0.386,6.179,0.837c2.019,0.474,4.085,1.033,5.824,2.257l-0.085,0.174
					c-1.993-0.579-3.911-1.236-5.902-1.772c-1.985-0.538-3.993-1.015-6.02-1.464L27.924,89.465z"/>
				<path opacity="0.8" fill="#FFFFFF" d="M36.644,91.372c0,0,0.262-1.439-1.229-3.007c0.313,0.987,0.547,2.795,0.547,2.795
					l-0.475-0.139c0,0-0.405-2.006-1.114-3.232c-1.816-0.77-3.944-1.027-5.242-0.819c0.666,0.868,1.478,3.003,1.478,3.003
					s-1.257-2.305-1.882-2.81c-1.305,0.095-2.354,0.782-2.331,2.301s1.976,1.491,3.074,2.106c1.098,0.615,1.946,1.076,1.946,1.076
					l1.057-2.451l-0.525,2.74l2.101,1.211l2.032-2.742c0,0-0.567,1.963-1.23,2.93C36.987,93.507,36.644,91.372,36.644,91.372z"/>
			</g>
			<g opacity="0.25">
				<path fill="#FFFFFF" d="M23.033,100.518c-1.983-0.243-3.941-0.694-5.861-1.272c-1.919-0.585-3.798-1.314-5.616-2.193
					c-1.806-0.896-3.576-1.912-5.17-3.183c-1.576-1.279-2.991-2.83-3.88-4.669l0.144-0.107c1.499,1.341,2.995,2.55,4.575,3.677
					c1.566,1.138,3.208,2.189,4.935,3.106c1.719,0.931,3.501,1.762,5.317,2.528C19.293,99.169,21.14,99.889,23.033,100.518z"/>
				<path opacity="0.8" fill="#FFFFFF" d="M19.158,103.472c2.651,0.709,7.285-0.316,7.057-2.804c-0.033-0.361-0.125-0.672-0.244-0.958
					c-0.864,0.328-1.638,0.457-1.638,0.457s0.677-0.488,1.315-1.055c-0.32-0.439-0.759-0.779-1.268-1.066
					c-0.498,0.467-0.959,0.732-0.959,0.732c0.219-0.235,0.416-0.61,0.563-0.938c-0.845-0.412-7.461-3.453-7.461-3.453
					s-2.026,1.528-4.619,2.101c1.494-0.977,3.693-2.726,3.693-2.726s-0.711-0.733-1.839-1.619c-1.298,0.39-3.731,1.196-4.96,2.081
					c0,0,1.78-1.962,3.789-2.94c-0.203-0.138-0.42-0.273-0.637-0.408c-0.473-0.038-1.213,0.019-2.12,0.509
					c-1.579,0.852-2.425,1.869-2.425,1.869s1.16-1.835,2.93-2.784c-1.845,0.307-3.548,2.838-3.548,2.838
					c-1.578,3.686,0.118,6.512,0.118,6.512s0.461-2.559,1.84-4.997c-0.786,2.401-0.607,5.435-0.607,5.435
					c1.357,0.844,3.195,1.478,5.051,1.962l0.741-1.612l-0.12,1.768c1.235,0.688,2.781,1.208,3.983,1.403
					c0.386-1.486,1.899-4.328,1.899-4.328S19.006,102.223,19.158,103.472z"/>
			</g>
			<g opacity="0.25">
				<path fill="#FFFFFF" d="M120.528,90.103c-0.514,1.318-1.314,2.542-2.379,3.52c-1.05,0.989-2.437,1.679-3.921,1.795
					c-1.455,0.146-2.941-0.16-4.248-0.768c-1.316-0.593-2.49-1.47-3.42-2.544l0.046-0.047c1.131,0.836,2.345,1.523,3.607,2.05
					c1.27,0.499,2.615,0.815,3.971,0.71c1.332-0.098,2.616-0.668,3.674-1.531c1.052-0.875,1.937-1.982,2.601-3.214L120.528,90.103z"/>
				<path opacity="0.8" fill="#FFFFFF" d="M112.082,94.914c0,0,1.375,2.658-0.615,4.205c1.47-1.613-0.331-4.357-0.331-4.357
					L112.082,94.914z"/>
				<path opacity="0.8" fill="#FFFFFF" d="M112.082,94.914c1.324,3.443,3.645,3.91,6.968,1.41c-0.591-0.93-1.305-2.211-1.288-2.677
					c0.627,0.907,1.351,1.664,1.905,2.186c0.06-0.05,0.118-0.093,0.178-0.144c0.176-0.15,0.335-0.307,0.496-0.462l-1.015-1.074
					l1.326,0.758c0.613-0.653,1.079-1.341,1.418-2.019c-0.729-0.125-1.792-0.395-2.791-0.994c1.173,0.412,2.441,0.344,3.105,0.266
					c0.824-2.262,0.15-4.275-1.792-4.484c-0.285-0.031-0.552-0.022-0.81,0.007c0.584,2.196,0.201,3.376,0.201,3.376
					c-0.111-1.621-0.429-2.682-0.674-3.291c-1.896,0.486-3.139,2.437-4.942,3.351c-0.476,2.099-0.343,3.916-0.343,3.916l-0.462,0.115
					c0,0-0.179-1.998,0.028-3.706c-2.493,0.865-2.455,3.314-2.455,3.314S111.711,94.854,112.082,94.914z"/>
			</g>
			<g opacity="0.25">
				<path fill="#FFFFFF" d="M102.797,87.317c-1.237,1.507-2.511,2.95-3.745,4.428c-1.242,1.472-2.445,2.956-3.622,4.499l-0.127-0.074
					c0.787-1.799,1.959-3.396,3.225-4.872c0.644-0.733,1.308-1.447,2.022-2.11c0.708-0.668,1.438-1.314,2.232-1.886L102.797,87.317z"/>
				<path opacity="0.8" fill="#FFFFFF" d="M105.562,85.125c-0.462-0.621-1.149-0.876-1.935-0.854c-0.399,0.885-0.924,2.161-1.291,3.506
					c-0.042-1.34,0.151-2.509,0.363-3.368c-1.177,0.311-2.456,1.108-3.5,2.176c-0.791,0.807-1.413,1.653-1.796,2.485
					c0.632,1.448,1.442,2.331,1.442,2.331c-0.858-0.565-1.414-1.059-1.76-1.426c-0.25,1.026-0.081,2,0.659,2.816
					c1.352,1.492,3.84,1.215,5.74-1.523c0.121-0.176,0.234-0.335,0.351-0.502c-0.999-0.455-2.246-1.006-3.002-1.266
					c0,0,1.805,0.389,3.257,0.902c0.676-0.961,1.254-1.789,1.601-2.538c-0.907,0.028-2.438,0.159-4.063,0.663
					c0,0,1.711-1.186,4.361-1.543C106.12,86.338,106.014,85.733,105.562,85.125z"/>
			</g>
			<g opacity="0.25">
				<path fill="#FFFFFF" d="M31.024,87.175c-2.738,1.38-5.43,2.783-8.053,4.298c-2.621,1.529-5.139,3.152-7.685,4.885
					c1.944-2.418,4.536-4.22,7.219-5.707c2.698-1.481,5.54-2.707,8.513-3.493L31.024,87.175z"/>
				<path opacity="0.8" fill="#FFFFFF" d="M33.578,87.455c0.057-0.275,0.057-0.568-0.018-0.895c-0.372-1.62-2.8-1.983-5.421-1.582
					l-0.13,3.341l-0.821-3.162c-0.803,0.176-1.603,0.414-2.348,0.708c-0.498,0.196-0.953,0.39-1.383,0.579
					c0.186,0.625,0.44,1.565,0.44,1.565l-0.867-1.374c-2.294,1.043-3.5,1.868-3.5,1.868s-0.198,2.427,0.762,4.196
					c-0.43,0.101-0.43,0.101-0.43,0.101s-0.163-2.615-2.543-2.679c1.372,1.392,1.998,3.06,1.998,3.06
					c1.262,1.61,2.333,1.739,5.145,0.302l-1.436-2.719l0.623-0.211l1.427,2.605c0.481-0.26,1.006-0.557,1.586-0.895
					c3.292-1.915,5.708-2.84,6.589-4.084c-0.302-0.241-0.692-0.567-1.061-0.92C32.766,87.31,33.242,87.388,33.578,87.455z"/>
			</g>
		</g>

		<g id="Layer_11">
			<g opacity="0.15">
				<path fill="#FFFFFF" d="M31.567,98.736c2.041-0.4,4.119-0.597,6.203-0.636c2.073-0.014,4.213,0.046,6.19,0.827l-0.042,0.189
					c-2.074-0.096-4.091-0.285-6.153-0.338c-2.056-0.059-4.12-0.05-6.195-0.012L31.567,98.736z"/>
				<path opacity="0.8" fill="#FFFFFF" d="M40.492,98.545c0,0-0.082-1.46-1.899-2.635c0.535,0.886,1.188,2.589,1.188,2.589
					l-0.495-0.024c0,0-0.865-1.854-1.841-2.881c-1.946-0.322-4.075-0.073-5.288,0.434c0.851,0.688,2.141,2.572,2.141,2.572
					s-1.763-1.945-2.488-2.291c-1.247,0.4-2.105,1.313-1.726,2.784s2.271,0.986,3.483,1.327c1.211,0.34,2.145,0.59,2.145,0.59
					l0.452-2.631l0.133,2.786l2.326,0.685l1.332-3.142c0,0-0.091,2.04-0.509,3.136C41.326,100.54,40.492,98.545,40.492,98.545z"/>
			</g>
			<g opacity="0.15">
				<path fill="#FFFFFF" d="M22.179,103.351c-1.983-0.243-3.941-0.694-5.861-1.272c-1.919-0.585-3.798-1.314-5.616-2.193
					c-1.806-0.896-3.576-1.912-5.17-3.183c-1.576-1.279-2.991-2.83-3.88-4.669l0.144-0.107c1.499,1.341,2.995,2.55,4.575,3.678
					c1.566,1.137,3.208,2.188,4.935,3.105c1.719,0.931,3.501,1.762,5.317,2.528C18.439,102.002,20.286,102.722,22.179,103.351z"/>
				<path opacity="0.8" fill="#FFFFFF" d="M18.304,106.305c2.651,0.709,7.285-0.316,7.057-2.804c-0.033-0.361-0.125-0.672-0.244-0.958
					c-0.864,0.328-1.638,0.457-1.638,0.457s0.677-0.488,1.315-1.055c-0.32-0.439-0.759-0.779-1.268-1.066
					c-0.498,0.467-0.959,0.732-0.959,0.732c0.219-0.235,0.416-0.61,0.563-0.938c-0.845-0.412-7.461-3.453-7.461-3.453
					s-2.026,1.527-4.619,2.101c1.494-0.976,3.693-2.726,3.693-2.726s-0.711-0.733-1.839-1.619c-1.298,0.391-3.731,1.195-4.96,2.08
					c0,0,1.78-1.961,3.789-2.939c-0.203-0.139-0.42-0.273-0.637-0.408c-0.473-0.037-1.213,0.019-2.12,0.509
					c-1.579,0.851-2.425,1.868-2.425,1.868s1.16-1.834,2.93-2.783c-1.845,0.307-3.548,2.838-3.548,2.838
					c-1.578,3.686,0.118,6.512,0.118,6.512s0.461-2.559,1.84-4.997c-0.786,2.401-0.607,5.435-0.607,5.435
					c1.357,0.844,3.195,1.478,5.051,1.962l0.741-1.612l-0.12,1.768c1.235,0.688,2.781,1.208,3.983,1.403
					c0.386-1.486,1.899-4.328,1.899-4.328S18.152,105.056,18.304,106.305z"/>
			</g>
			<g opacity="0.15">
				<path fill="#FFFFFF" d="M122.915,93.537c-0.514,1.318-1.314,2.542-2.379,3.52c-1.05,0.989-2.437,1.679-3.92,1.795
					c-1.455,0.146-2.942-0.159-4.248-0.767c-1.316-0.593-2.491-1.47-3.421-2.544l0.046-0.047c1.131,0.836,2.345,1.522,3.607,2.05
					c1.27,0.498,2.615,0.814,3.971,0.708c1.332-0.097,2.616-0.667,3.674-1.53c1.052-0.875,1.937-1.982,2.601-3.214L122.915,93.537z"/>
				<path opacity="0.8" fill="#FFFFFF" d="M114.469,98.35c0,0,1.375,2.658-0.615,4.205c1.47-1.613-0.331-4.358-0.331-4.358
					L114.469,98.35z"/>
				<path opacity="0.8" fill="#FFFFFF" d="M114.469,98.35c1.324,3.442,3.645,3.91,6.968,1.409c-0.591-0.93-1.305-2.21-1.288-2.677
					c0.627,0.908,1.351,1.664,1.905,2.186c0.06-0.049,0.118-0.092,0.178-0.144c0.176-0.15,0.335-0.306,0.496-0.462l-1.015-1.074
					l1.326,0.758c0.613-0.653,1.079-1.34,1.418-2.018c-0.729-0.125-1.792-0.395-2.791-0.994c1.173,0.411,2.441,0.343,3.105,0.266
					c0.824-2.263,0.15-4.275-1.792-4.484c-0.285-0.031-0.552-0.023-0.81,0.006c0.584,2.197,0.201,3.377,0.201,3.377
					c-0.111-1.622-0.429-2.683-0.674-3.291c-1.896,0.485-3.139,2.436-4.942,3.35c-0.476,2.099-0.343,3.916-0.343,3.916l-0.462,0.115
					c0,0-0.179-1.998,0.028-3.706c-2.493,0.866-2.455,3.314-2.455,3.314S114.099,98.289,114.469,98.35z"/>
			</g>
			<g opacity="0.15">
				<path fill="#FFFFFF" d="M104.816,94.709c-1.237,1.507-2.511,2.95-3.745,4.428c-1.242,1.472-2.445,2.956-3.622,4.499l-0.127-0.074
					c0.787-1.799,1.96-3.395,3.226-4.872c0.643-0.732,1.307-1.447,2.021-2.11c0.708-0.668,1.438-1.314,2.232-1.886L104.816,94.709z"/>
				<path opacity="0.8" fill="#FFFFFF" d="M107.58,92.516c-0.462-0.621-1.149-0.875-1.935-0.854c-0.399,0.885-0.924,2.16-1.291,3.506
					c-0.042-1.34,0.151-2.509,0.363-3.369c-1.177,0.312-2.456,1.109-3.5,2.176c-0.791,0.808-1.413,1.654-1.796,2.486
					c0.632,1.447,1.442,2.33,1.442,2.33c-0.858-0.564-1.414-1.059-1.76-1.426c-0.25,1.027-0.081,2.001,0.659,2.817
					c1.352,1.491,3.84,1.215,5.74-1.524c0.121-0.175,0.234-0.334,0.351-0.501c-0.999-0.456-2.246-1.006-3.002-1.267
					c0,0,1.805,0.39,3.257,0.903c0.676-0.961,1.254-1.789,1.601-2.538c-0.907,0.027-2.438,0.158-4.063,0.663
					c0,0,1.711-1.187,4.361-1.544C108.138,93.729,108.033,93.125,107.58,92.516z"/>
			</g>
			<g opacity="0.15">
				<path fill="#FFFFFF" d="M31.861,93.161c-2.813,1.221-5.581,2.467-8.287,3.828c-2.705,1.377-5.312,2.853-7.953,4.436
					c2.08-2.303,4.771-3.952,7.535-5.283c2.778-1.324,5.686-2.384,8.7-2.998L31.861,93.161z"/>
				<path opacity="0.8" fill="#FFFFFF" d="M34.394,93.588c0.073-0.27,0.09-0.563,0.034-0.893c-0.278-1.639-2.681-2.142-5.321-1.891
					l-0.322,3.328l-0.638-3.205c-0.812,0.131-1.625,0.322-2.385,0.572c-0.509,0.168-0.974,0.335-1.414,0.498
					c0.149,0.636,0.35,1.589,0.35,1.589l-0.787-1.421c-2.35,0.908-3.603,1.663-3.603,1.663s-0.337,2.412,0.52,4.233
					c-0.435,0.075-0.435,0.075-0.435,0.075s-0.012-2.619-2.386-2.819c1.29,1.467,1.819,3.168,1.819,3.168
					c1.167,1.682,2.229,1.871,5.119,0.598l-1.277-2.797l0.633-0.173l1.275,2.683c0.495-0.232,1.036-0.499,1.635-0.802
					c3.397-1.724,5.862-2.508,6.814-3.7c-0.288-0.258-0.659-0.605-1.007-0.979C33.591,93.396,34.062,93.502,34.394,93.588z"/>
			</g>
		</g>

		<g id="Layer_12"></g>
	</defs>
</svg>
