<?xml version="1.0" encoding="utf-8"?>
<!DOCTYPE svg PUBLIC "-//W3C//DTD SVG 1.1//EN" "http://www.w3.org/Graphics/SVG/1.1/DTD/svg11.dtd">
<svg version="1.1" id="_x31__1_" xmlns="http://www.w3.org/2000/svg" xmlns:xlink="http://www.w3.org/1999/xlink" x="0px" y="0px"
	 width="130px" height="130px" viewBox="0 0 130 130" enable-background="new 0 0 130 130" xml:space="preserve">
	<defs>
		<g id="Layer_0">
			<ellipse opacity="0.3" cx="65.827" cy="99.582" rx="16.37" ry="8.671"/>
			<g>
				<path fill="#C4C3C0" d="M94.015,77.894c0-23.952-12.396-46.806-27.688-46.806S38.639,54.601,38.639,77.894
					c0,15.292,12.396,27.688,27.688,27.688S94.015,93.186,94.015,77.894z"/>
				<path fill="#EAE9E5" d="M90.035,75.516c0-22.018-11.121-43.025-24.838-43.025S40.359,54.104,40.359,75.516
					c0,14.057,11.121,25.451,24.838,25.451S90.035,89.572,90.035,75.516z"/>
				<path fill="#F9F9F7" d="M86.685,73.037c0-19.706-10.051-38.507-22.45-38.507S41.784,53.873,41.784,73.037
					c0,12.581,10.052,22.78,22.451,22.78S86.685,85.617,86.685,73.037z"/>
				<path fill="#EAE9E5" d="M68.858,104.623c0,0,10.749-0.317,18.631-9.713s5.892-21.417,5.892-21.417s-0.382,11.86-7.484,20.143
					C78.265,102.537,68.858,104.623,68.858,104.623z"/>
				<path fill="#FFFFFF" d="M54.588,44.204c-1.856-0.091-5.265,5.555-1.787,6.183S57.535,44.349,54.588,44.204z"/>
				<g>
					<path fill="#D1D1D1" d="M50.7,94.822c-0.424-0.096-0.763,0.173-0.851,0.53c-0.059,0.088-0.103,0.188-0.107,0.313
						c-0.036,0.992,0.635,1.964,1.416,2.519c0.689,0.488,2.06,0.427,2.459-0.438C54.285,96.297,51.793,95.07,50.7,94.822z"/>
					<path fill="#D1D1D1" d="M82.809,82.784c-0.163-0.11-0.308-0.183-0.45-0.237c-0.025-0.047-0.058-0.092-0.126-0.112
						c-0.183-0.055-0.365-0.029-0.543,0.023c-0.137,0.014-0.284,0.041-0.45,0.081c-0.304,0.073-0.632,0.42-0.671,0.765
						c-0.31,0.436-0.454,0.995-0.477,1.515c-0.014,0.322,0.188,0.507,0.509,0.44c0.998-0.208,1.75-0.87,2.222-1.758
						C82.921,83.313,83.04,82.94,82.809,82.784z"/>
					<path fill="#D1D1D1" d="M84.527,71.349c-0.04-0.073-0.129-0.106-0.223-0.079c-0.131,0.039-0.241,0.1-0.349,0.186
						c-0.297,0.239-0.544,0.962,0.005,1.079c0.129,0.027,0.244,0,0.358-0.061C84.796,72.221,84.848,71.514,84.527,71.349z"/>
					<path fill="#D1D1D1" d="M52.847,43.438c-0.366,0.276-0.688,0.89-0.628,1.353c0.083,0.651,0.825,0.563,1.134,0.147
						c0.216-0.291,0.163-0.657,0.304-0.97C53.917,43.396,53.249,43.135,52.847,43.438z"/>
					<path fill="#D1D1D1" d="M81.359,48.579c-0.231,0.01-0.447,0.103-0.59,0.292c-0.126,0.167-0.159,0.46,0.095,0.53
						c0.208,0.057,0.218,0.332,0.234,0.501c0.054,0.588,1.2,0.115,1.128-0.428C82.158,48.962,81.919,48.556,81.359,48.579z"/>
					<path fill="#D1D1D1" d="M88.6,82.157c-0.084-0.068-0.188-0.091-0.295-0.096c-0.074-0.023-0.155-0.031-0.23-0.002
						c-1.057,0.397-1.699,2.001-1.666,3.086c0.024,0.775,0.738,1.028,1.38,0.764C89.242,85.311,89.909,83.21,88.6,82.157z"/>
					<path fill="#D1D1D1" d="M82.233,92.068c-0.573,0.016-1.206,0.406-1.378,0.967c-0.122,0.133-0.233,0.27-0.32,0.396
						c-0.259,0.376-0.035,0.794,0.402,0.806c0.955,0.025,1.578-0.564,1.794-1.47C82.821,92.389,82.662,92.057,82.233,92.068z"/>
					<path fill="#D1D1D1" d="M63.249,98.939c-0.439-0.021-0.883,0.361-0.809,0.815c-0.248,0.328-0.295,0.81-0.045,1.217
						c0.552,0.9,1.66,0.846,2.449,0.292c0.178-0.125,0.419-0.368,0.365-0.618C64.994,99.655,64.28,98.99,63.249,98.939z"/>
					<path fill="#D1D1D1" d="M62.154,87.483c-0.002-0.383-0.319-0.611-0.669-0.637c-0.488-0.036-0.819,0.336-0.892,0.747
						c-0.003,0.015-0.006,0.029-0.007,0.045c-0.032,0.249,0.034,0.501,0.225,0.691c0.142,0.261,0.343,0.451,0.721,0.571
						c0.375,0.118,0.711-0.231,0.72-0.583C62.258,88.031,62.156,87.766,62.154,87.483z"/>
					<path fill="#D1D1D1" d="M59.293,73.624c-1.34-0.565-2.657,0.502-2.691,1.873c-0.015,0.573,0.214,1.13,0.644,1.512
						c0.15,0.133,0.315,0.23,0.49,0.299c0.675,0.495,1.663,0.399,2.272-0.151C61.112,76.16,60.594,74.173,59.293,73.624z"/>
					<path fill="#D1D1D1" d="M49.375,87.797c-0.144-0.354-0.447-0.523-0.77-0.693c-0.304-0.16-0.603-0.094-0.825,0.093
						c-0.206,0.069-0.4,0.246-0.449,0.442c-0.201,0.799,0.226,1.351,0.917,1.734c0.438,0.244,0.964-0.017,1.07-0.504
						C49.39,88.537,49.51,88.131,49.375,87.797z"/>
					<path fill="#D1D1D1" d="M51.81,82.746c-0.288-0.013-0.919,0.591-0.487,0.797c0.182,0.086,0.274,0.229,0.473,0.292
						c0.193,0.061,0.428-0.108,0.522-0.263C52.604,83.106,52.313,82.768,51.81,82.746z"/>
					<path fill="#D1D1D1" d="M44.605,70.93c0.011-0.587-0.76-0.653-1.076-0.309c-0.423,0.46-0.52,0.96-0.346,1.469
						c0.02,0.096,0.05,0.193,0.101,0.291c0.033,0.062,0.075,0.115,0.123,0.162c0.004,0.007,0.005,0.013,0.01,0.02
						c0.116,0.175,0.35,0.276,0.557,0.246c0.285-0.042,0.495-0.226,0.542-0.521c0.001-0.007-0.003-0.013-0.002-0.02
						c0.047-0.107,0.073-0.226,0.075-0.335C44.594,71.598,44.6,71.264,44.605,70.93z"/>
					<path fill="#D1D1D1" d="M43.164,74.417c-0.098-0.109-0.296-0.125-0.427-0.084c-0.003,0.001-0.006,0.002-0.008,0.003
						c-0.25,0.08-0.486,0.383-0.362,0.609c-0.001,0-0.002,0-0.004,0c0.024,0.045,0.054,0.089,0.082,0.133
						c-0.007,0.035-0.016,0.07-0.022,0.105c-0.023,0.119,0.046,0.266,0.162,0.311c0.121,0.046,0.225,0.074,0.355,0.082
						c0.269,0.016,0.56-0.265,0.522-0.536C43.431,74.816,43.315,74.586,43.164,74.417z"/>
				</g>
			</g>
		</g>

		<g id="Layer_1">
			<g>
				<path fill="#FFFFFF" d="M46.453,69.868c-0.893,1.879-1.971,3.666-3.179,5.365c-1.222,1.675-2.543,3.359-4.347,4.484L38.8,79.57
					c1.31-1.61,2.663-3.119,3.932-4.745c1.269-1.618,2.49-3.282,3.694-4.973L46.453,69.868z"/>
				<path opacity="0.8" fill="#FFFFFF" d="M41.298,77.156c0,0,1.223,0.802,3.248,0.04c-1.031-0.097-2.788-0.585-2.788-0.585
					l0.313-0.383c0,0,2.005,0.409,3.411,0.233c1.417-1.373,2.483-3.232,2.797-4.508c-1.059,0.275-3.341,0.191-3.341,0.191
					s2.612-0.26,3.321-0.638c0.42-1.24,0.196-2.473-1.211-3.043c-1.408-0.57-2.144,1.24-3.138,2.011s-1.75,1.373-1.75,1.373
					l1.846,1.928l-2.319-1.551l-1.935,1.462l1.733,2.94c0,0-1.586-1.287-2.218-2.275C39.198,76.64,41.298,77.156,41.298,77.156z"/>
			</g>
			<g>
				<path fill="#FFFFFF" d="M76.604,66.984c1.953-0.407,3.87-0.91,5.763-1.46c1.893-0.553,3.758-1.173,5.573-1.9
					c1.821-0.712,3.573-1.569,5.259-2.518c1.699-0.938,3.325-1.967,4.967-3.127l0.13,0.123c-1.094,1.725-2.678,3.102-4.391,4.192
					c-1.73,1.08-3.605,1.885-5.502,2.567c-1.907,0.665-3.858,1.173-5.831,1.533C80.6,66.748,78.603,66.971,76.604,66.984z"/>
				<path opacity="0.8" fill="#FFFFFF" d="M80.113,70.365c-2.715,0.398-7.2-1.153-6.688-3.597c0.075-0.355,0.201-0.653,0.353-0.924
					c0.82,0.426,1.574,0.643,1.574,0.643s-0.616-0.563-1.186-1.199c0.369-0.399,0.844-0.687,1.382-0.914
					c0.441,0.521,0.869,0.838,0.869,0.838c-0.19-0.259-0.343-0.654-0.452-0.996c0.887-0.312,7.809-2.572,7.809-2.572
					s1.838,1.75,4.347,2.618c-1.372-1.141-3.355-3.132-3.355-3.132s0.791-0.646,2.013-1.396c1.244,0.536,3.569,1.617,4.688,2.637
					c0,0-1.543-2.153-3.426-3.356c0.218-0.113,0.449-0.223,0.68-0.332c0.474,0.017,1.202,0.158,2.047,0.749
					c1.471,1.027,2.194,2.136,2.194,2.136s-0.941-1.957-2.59-3.103c1.797,0.517,3.198,3.227,3.198,3.227
					c1.144,3.842-0.866,6.455-0.866,6.455s-0.164-2.595-1.254-5.175c0.504,2.476-0.022,5.469-0.022,5.469
					c-1.445,0.682-3.343,1.1-5.243,1.367l-0.551-1.687l-0.083,1.77c-1.306,0.541-2.902,0.88-4.119,0.936
					c-0.212-1.521-1.389-4.518-1.389-4.518S80.409,69.14,80.113,70.365z"/>
			</g>
			<g>
				<path fill="#FFFFFF" d="M81.943,43.115c0.951,1.048,1.69,2.309,2.09,3.698c0.418,1.381,0.416,2.93-0.14,4.31
					c-0.519,1.367-1.455,2.562-2.581,3.46c-1.118,0.914-2.426,1.574-3.802,1.928l-0.021-0.062c1.253-0.64,2.409-1.42,3.443-2.316
					c1.013-0.914,1.896-1.978,2.405-3.239c0.506-1.235,0.568-2.639,0.267-3.971c-0.314-1.332-0.912-2.618-1.718-3.761L81.943,43.115z"
					/>
				<path opacity="0.8" fill="#FFFFFF" d="M82.486,52.821c0,0,2.993-0.046,3.49,2.425c-0.789-2.035-4.049-1.646-4.049-1.646
					L82.486,52.821z"/>
				<path opacity="0.8" fill="#FFFFFF" d="M82.486,52.821c3.672,0.35,5.125-1.52,4.368-5.609c-1.096,0.115-2.56,0.183-2.97-0.041
					c1.092-0.157,2.092-0.468,2.806-0.731c-0.018-0.076-0.031-0.146-0.05-0.223c-0.056-0.225-0.124-0.437-0.192-0.649l-1.414,0.429
					l1.27-0.849c-0.312-0.84-0.719-1.563-1.175-2.169c-0.437,0.597-1.151,1.428-2.134,2.055c0.892-0.867,1.395-2.032,1.622-2.661
					c-1.658-1.747-3.761-2.041-4.813-0.395c-0.154,0.241-0.266,0.484-0.354,0.728c2.227,0.456,3.111,1.325,3.111,1.325
					c-1.501-0.624-2.592-0.811-3.246-0.863c-0.411,1.914,0.782,3.896,0.796,5.917c1.667,1.361,3.353,2.053,3.353,2.053l-0.103,0.465
					c0,0-1.868-0.73-3.306-1.677c-0.335,2.618,1.873,3.675,1.873,3.675S82.268,53.125,82.486,52.821z"/>
			</g>
			<g>
				<path fill="#FFFFFF" d="M86.195,55.581c-1.237,1.507-2.511,2.951-3.745,4.428c-1.242,1.472-2.445,2.956-3.622,4.5l-0.127-0.074
					c0.787-1.799,1.96-3.395,3.226-4.872c0.643-0.733,1.307-1.447,2.021-2.11c0.708-0.668,1.438-1.314,2.232-1.886L86.195,55.581z"/>
				<path opacity="0.8" fill="#FFFFFF" d="M88.959,53.388c-0.462-0.621-1.149-0.876-1.935-0.854c-0.399,0.885-0.924,2.161-1.291,3.506
					c-0.042-1.34,0.151-2.508,0.363-3.368c-1.177,0.311-2.456,1.108-3.5,2.175c-0.791,0.808-1.413,1.654-1.796,2.486
					c0.632,1.448,1.442,2.331,1.442,2.331c-0.858-0.565-1.414-1.058-1.76-1.425c-0.25,1.026-0.081,2,0.659,2.817
					c1.352,1.491,3.84,1.215,5.74-1.524c0.121-0.175,0.234-0.334,0.351-0.501c-0.999-0.456-2.246-1.006-3.002-1.266
					c0,0,1.805,0.389,3.257,0.903c0.676-0.961,1.254-1.789,1.601-2.539c-0.907,0.028-2.438,0.159-4.063,0.664
					c0,0,1.711-1.186,4.361-1.543C89.517,54.601,89.412,53.997,88.959,53.388z"/>
			</g>
			<g>
				<path fill="#FFFFFF" d="M39.354,69.047c1.507,2.681,2.609,5.573,3.426,8.541c0.803,2.961,1.316,6.075,0.936,9.155
					c-0.532-3.033-1.121-5.97-1.851-8.916c-0.741-2.938-1.61-5.846-2.528-8.771L39.354,69.047z"/>
				<path opacity="0.8" fill="#FFFFFF" d="M37.357,67.418c0.157-0.231,0.367-0.436,0.653-0.61c1.422-0.862,3.374,0.626,4.912,2.787
					l-2.306,2.422l2.841-1.615c0.433,0.699,0.82,1.439,1.128,2.178c0.206,0.495,0.384,0.955,0.548,1.395
					c-0.578,0.303-1.43,0.775-1.43,0.775l1.589-0.335c0.851,2.372,1.1,3.813,1.1,3.813s-1.604,1.834-3.542,2.377
					c0.228,0.379,0.228,0.379,0.228,0.379s1.989-1.705,3.694-0.042c-1.954-0.014-3.586,0.698-3.586,0.698
					c-2.035,0.218-2.874-0.461-3.801-3.48l2.951-0.865l-0.284-0.592l-2.863,0.792c-0.148-0.526-0.301-1.11-0.463-1.762
					c-0.92-3.695-1.94-6.073-1.662-7.572c0.383,0.048,0.889,0.102,1.399,0.12C38.027,67.9,37.639,67.613,37.357,67.418z"/>
			</g>
			<g>
				<path fill="#FFFFFF" d="M45.061,59.06c0.677,0.75,1.214,1.63,1.632,2.559c0.43,0.927,0.73,1.917,0.897,2.931
					c0.162,1.015,0.198,2.056,0.057,3.075c-0.144,1.018-0.456,2.009-0.936,2.904c0.389-1.988,0.591-3.939,0.321-5.896
					c-0.269-1.945-0.933-3.849-1.973-5.573L45.061,59.06z"/>
				<path opacity="0.8" fill="#FFFFFF" d="M49.925,63.18c-0.096-0.955-0.555-2.153-1.22-3.277c-1.323,1.045-2.409,1.281-2.409,1.281
					c0.676-0.559,1.37-1.388,1.892-2.073c-1.422-2.012-3.446-3.491-5.069-2.3c-0.83,0.609-1.142,1.25-1.15,1.914
					c0.817,0.114,2.103,0.42,3.705,1.262c-1.497-0.393-2.788-0.385-3.54-0.326c0.409,1.218,1.476,2.497,2.021,3.791
					c0.277,0.659,0.51,1.213,0.742,1.685l2.518,0.395l0.023,0.438l-1.992,0.093c0.464,0.602,1.036,0.907,1.984,0.918
					C47.431,66.978,50.223,66.158,49.925,63.18z"/>
			</g>
		</g>

		<g id="Layer_2">
			<g>
				<path fill="#FFFFFF" d="M42.119,52.868c-0.893,1.879-1.971,3.666-3.179,5.365c-1.222,1.675-2.543,3.359-4.347,4.484l-0.127-0.146
					c1.31-1.61,2.663-3.119,3.932-4.745c1.269-1.618,2.49-3.282,3.694-4.973L42.119,52.868z"/>
				<path opacity="0.8" fill="#FFFFFF" d="M36.964,60.156c0,0,1.223,0.802,3.248,0.04c-1.031-0.097-2.788-0.585-2.788-0.585
					l0.313-0.383c0,0,2.005,0.409,3.411,0.233c1.417-1.373,2.483-3.232,2.797-4.508c-1.059,0.275-3.341,0.191-3.341,0.191
					s2.612-0.26,3.321-0.638c0.42-1.24,0.196-2.473-1.211-3.043c-1.408-0.57-2.144,1.24-3.138,2.011s-1.75,1.373-1.75,1.373
					l1.846,1.928l-2.319-1.551l-1.935,1.462l1.733,2.94c0,0-1.586-1.287-2.218-2.275C34.864,59.64,36.964,60.156,36.964,60.156z"/>
			</g>
			<g>
				<path fill="#FFFFFF" d="M84.887,58.446c1.99,0.132,3.972,0.163,5.944,0.142c1.971-0.024,3.935-0.121,5.878-0.333
					c1.946-0.197,3.862-0.551,5.743-1.013c1.888-0.448,3.73-1.002,5.625-1.678l0.092,0.154c-1.518,1.367-3.413,2.269-5.355,2.858
					c-1.957,0.575-3.979,0.848-5.989,0.995c-2.015,0.128-4.031,0.094-6.029-0.089C88.799,59.292,86.815,58.97,84.887,58.446z"/>
				<path opacity="0.8" fill="#FFFFFF" d="M87.358,62.645c-2.722-0.345-6.625-3.045-5.475-5.261c0.167-0.322,0.369-0.575,0.588-0.796
					c0.675,0.631,1.343,1.042,1.343,1.042s-0.441-0.708-0.82-1.474c0.463-0.286,0.998-0.435,1.577-0.509
					c0.285,0.62,0.612,1.041,0.612,1.041c-0.114-0.3-0.155-0.723-0.168-1.081c0.938-0.062,8.212-0.38,8.212-0.38s1.3,2.18,3.484,3.689
					c-1.015-1.467-2.391-3.918-2.391-3.918s0.936-0.41,2.314-0.805c1.055,0.851,3.004,2.516,3.808,3.799c0,0-0.908-2.488-2.398-4.153
					c0.241-0.05,0.493-0.094,0.745-0.137c0.452,0.144,1.115,0.475,1.77,1.271c1.142,1.385,1.54,2.646,1.54,2.646
					s-0.381-2.138-1.661-3.684c1.592,0.98,2.214,3.967,2.214,3.967c0.069,4.008-2.568,5.985-2.568,5.985s0.539-2.544,0.182-5.322
					c-0.179,2.521-1.49,5.262-1.49,5.262c-1.575,0.269-3.515,0.162-5.417-0.091l-0.078-1.772l-0.556,1.682
					c-1.403,0.171-3.031,0.068-4.219-0.205c0.204-1.521-0.124-4.725-0.124-4.725S87.973,61.545,87.358,62.645z"/>
			</g>
			<g>
				<path fill="#FFFFFF" d="M88.089,36.737c0.951,1.048,1.69,2.309,2.09,3.698c0.418,1.381,0.416,2.93-0.14,4.311
					c-0.519,1.367-1.455,2.562-2.581,3.46c-1.118,0.914-2.426,1.574-3.803,1.928l-0.021-0.062c1.252-0.64,2.408-1.42,3.442-2.315
					c1.013-0.915,1.896-1.978,2.405-3.239c0.506-1.235,0.568-2.639,0.267-3.972c-0.314-1.332-0.912-2.617-1.718-3.76L88.089,36.737z"/>
				<path opacity="0.8" fill="#FFFFFF" d="M88.632,46.442c0,0,2.993-0.046,3.49,2.425c-0.789-2.035-4.049-1.646-4.049-1.646
					L88.632,46.442z"/>
				<path opacity="0.8" fill="#FFFFFF" d="M88.632,46.442c3.672,0.35,5.125-1.52,4.368-5.609c-1.096,0.115-2.56,0.183-2.97-0.041
					c1.092-0.157,2.092-0.468,2.806-0.731c-0.018-0.076-0.031-0.146-0.05-0.223c-0.056-0.225-0.124-0.437-0.192-0.649l-1.414,0.429
					l1.27-0.849c-0.312-0.84-0.719-1.563-1.175-2.169c-0.437,0.597-1.151,1.428-2.134,2.055c0.892-0.867,1.395-2.032,1.622-2.661
					c-1.658-1.747-3.761-2.041-4.813-0.395c-0.154,0.241-0.266,0.484-0.354,0.728c2.227,0.456,3.111,1.325,3.111,1.325
					c-1.501-0.624-2.592-0.811-3.246-0.863c-0.411,1.914,0.782,3.896,0.796,5.917c1.667,1.361,3.353,2.053,3.353,2.053l-0.103,0.465
					c0,0-1.868-0.73-3.306-1.677c-0.335,2.618,1.873,3.675,1.873,3.675S88.414,46.747,88.632,46.442z"/>
			</g>
			<g>
				<path fill="#FFFFFF" d="M100.236,60.359c-1.237,1.507-2.511,2.951-3.745,4.428c-1.242,1.472-2.445,2.956-3.622,4.5l-0.127-0.074
					c0.787-1.799,1.96-3.395,3.226-4.873c0.643-0.732,1.307-1.447,2.021-2.11c0.708-0.668,1.438-1.315,2.232-1.886L100.236,60.359z"/>
				<path opacity="0.8" fill="#FFFFFF" d="M103,58.167c-0.462-0.621-1.149-0.876-1.935-0.854c-0.399,0.885-0.924,2.161-1.291,3.506
					c-0.042-1.34,0.151-2.508,0.363-3.368c-1.177,0.311-2.456,1.108-3.5,2.175c-0.791,0.808-1.413,1.654-1.796,2.486
					c0.632,1.448,1.442,2.331,1.442,2.331c-0.858-0.565-1.414-1.058-1.76-1.425c-0.25,1.026-0.081,2,0.659,2.817
					c1.352,1.491,3.84,1.215,5.74-1.524c0.121-0.175,0.234-0.334,0.351-0.501c-0.999-0.456-2.246-1.006-3.002-1.266
					c0,0,1.805,0.389,3.257,0.903c0.676-0.961,1.254-1.789,1.601-2.539c-0.907,0.028-2.438,0.159-4.063,0.664
					c0,0,1.711-1.186,4.361-1.543C103.558,59.38,103.453,58.775,103,58.167z"/>
			</g>
			<g>
				<path fill="#FFFFFF" d="M27.521,64.713c1.507,2.681,2.609,5.573,3.426,8.541c0.803,2.961,1.316,6.075,0.936,9.155
					c-0.532-3.033-1.122-5.97-1.851-8.916c-0.741-2.938-1.61-5.846-2.528-8.771L27.521,64.713z"/>
				<path opacity="0.8" fill="#FFFFFF" d="M25.523,63.084c0.157-0.231,0.367-0.436,0.653-0.61c1.422-0.862,3.374,0.626,4.912,2.787
					l-2.306,2.422l2.841-1.615c0.433,0.699,0.82,1.439,1.128,2.178c0.206,0.495,0.384,0.955,0.548,1.395
					c-0.578,0.303-1.43,0.775-1.43,0.775l1.589-0.335c0.851,2.372,1.1,3.813,1.1,3.813s-1.604,1.834-3.542,2.377
					c0.228,0.379,0.228,0.379,0.228,0.379s1.989-1.705,3.694-0.042c-1.954-0.014-3.586,0.698-3.586,0.698
					c-2.035,0.218-2.874-0.461-3.801-3.48l2.951-0.865l-0.284-0.592l-2.863,0.792c-0.148-0.526-0.301-1.11-0.463-1.762
					c-0.92-3.695-1.94-6.073-1.662-7.572c0.383,0.048,0.889,0.102,1.399,0.12C26.193,63.567,25.806,63.28,25.523,63.084z"/>
			</g>
			<g>
				<path fill="#FFFFFF" d="M35.136,57.88c0.677,0.75,1.214,1.63,1.632,2.559c0.43,0.927,0.73,1.917,0.897,2.931
					c0.162,1.015,0.198,2.056,0.057,3.075c-0.144,1.018-0.456,2.009-0.936,2.904c0.389-1.988,0.591-3.939,0.321-5.896
					c-0.269-1.945-0.933-3.849-1.973-5.573L35.136,57.88z"/>
				<path opacity="0.8" fill="#FFFFFF" d="M40,62c-0.096-0.955-0.555-2.153-1.22-3.277c-1.323,1.045-2.409,1.281-2.409,1.281
					c0.676-0.559,1.37-1.388,1.892-2.073c-1.422-2.012-3.446-3.491-5.069-2.3c-0.83,0.609-1.142,1.25-1.15,1.914
					c0.817,0.114,2.103,0.42,3.705,1.262c-1.497-0.393-2.788-0.385-3.54-0.326c0.409,1.218,1.476,2.497,2.021,3.791
					c0.277,0.659,0.51,1.213,0.742,1.685l2.518,0.395l0.023,0.438l-1.992,0.093c0.464,0.602,1.036,0.907,1.984,0.918
					C37.505,65.798,40.298,64.978,40,62z"/>
			</g>
		</g>

		<g id="Layer_3">
			<g>
				<path fill="#FFFFFF" d="M38.953,43.868c-0.893,1.879-1.971,3.666-3.179,5.365c-1.222,1.675-2.543,3.359-4.347,4.484L31.3,53.57
					c1.31-1.61,2.663-3.119,3.932-4.745c1.269-1.618,2.49-3.282,3.694-4.973L38.953,43.868z"/>
				<path opacity="0.8" fill="#FFFFFF" d="M33.798,51.156c0,0,1.223,0.802,3.248,0.04c-1.031-0.097-2.788-0.585-2.788-0.585
					l0.313-0.383c0,0,2.005,0.409,3.411,0.233c1.417-1.373,2.483-3.232,2.797-4.508c-1.059,0.275-3.341,0.191-3.341,0.191
					s2.612-0.26,3.321-0.638c0.42-1.24,0.196-2.473-1.211-3.043c-1.408-0.57-2.144,1.24-3.138,2.011s-1.75,1.373-1.75,1.373
					l1.846,1.928l-2.319-1.551l-1.935,1.462l1.733,2.94c0,0-1.586-1.287-2.218-2.275C31.698,50.64,33.798,51.156,33.798,51.156z"/>
			</g>
			<g>
				<path fill="#FFFFFF" d="M95.281,53.801c1.846,0.755,3.716,1.412,5.594,2.015c1.877,0.602,3.771,1.131,5.682,1.544
					c1.908,0.429,3.839,0.699,5.768,0.857c1.933,0.173,3.856,0.229,5.866,0.188l0.039,0.175c-1.873,0.817-3.956,1.072-5.985,1.017
					c-2.038-0.074-4.042-0.455-5.997-0.951c-1.952-0.517-3.854-1.187-5.69-1.993C98.725,55.84,96.945,54.907,95.281,53.801z"/>
				<path opacity="0.8" fill="#FFFFFF" d="M96.297,58.566c-2.473-1.189-5.322-4.985-3.529-6.724c0.261-0.252,0.532-0.429,0.81-0.568
					c0.441,0.812,0.945,1.414,0.945,1.414s-0.195-0.812-0.312-1.657c0.529-0.125,1.084-0.097,1.657,0.016
					c0.074,0.679,0.25,1.181,0.25,1.181c-0.013-0.321,0.082-0.734,0.183-1.079c0.91,0.238,7.911,2.238,7.911,2.238
					s0.543,2.479,2.138,4.602c-0.498-1.713-1.028-4.474-1.028-4.474s1.018-0.093,2.45-0.031c0.731,1.141,2.053,3.337,2.409,4.809
					c0,0-0.074-2.648-0.96-4.699c0.244,0.028,0.497,0.066,0.75,0.105c0.383,0.279,0.908,0.804,1.277,1.767
					c0.644,1.674,0.623,2.998,0.623,2.998s0.315-2.148-0.41-4.021c1.2,1.434,0.845,4.464,0.845,4.464
					c-1.202,3.824-4.33,4.865-4.33,4.865s1.316-2.243,1.857-4.991c-0.968,2.334-3.079,4.52-3.079,4.52
					c-1.58-0.244-3.386-0.959-5.111-1.801l0.487-1.706l-1.06,1.419c-1.385-0.282-2.897-0.895-3.937-1.529
					c0.675-1.379,1.377-4.521,1.377-4.521S97.228,57.717,96.297,58.566z"/>
			</g>
			<g>
				<path fill="#FFFFFF" d="M96.11,32.449c0.951,1.048,1.69,2.309,2.09,3.698c0.418,1.381,0.416,2.93-0.14,4.311
					c-0.519,1.367-1.455,2.562-2.581,3.46c-1.118,0.914-2.426,1.574-3.802,1.928l-0.021-0.062c1.253-0.64,2.409-1.42,3.443-2.315
					c1.013-0.915,1.896-1.978,2.405-3.239c0.506-1.235,0.568-2.639,0.267-3.972c-0.314-1.332-0.912-2.617-1.718-3.76L96.11,32.449z"/>
				<path opacity="0.8" fill="#FFFFFF" d="M96.653,42.154c0,0,2.993-0.046,3.49,2.425c-0.789-2.035-4.049-1.646-4.049-1.646
					L96.653,42.154z"/>
				<path opacity="0.8" fill="#FFFFFF" d="M96.653,42.154c3.672,0.35,5.125-1.52,4.368-5.609c-1.096,0.115-2.56,0.183-2.97-0.041
					c1.092-0.157,2.092-0.468,2.806-0.731c-0.018-0.076-0.031-0.146-0.05-0.223c-0.056-0.225-0.124-0.437-0.192-0.649l-1.414,0.429
					l1.27-0.849c-0.312-0.84-0.719-1.563-1.175-2.169c-0.437,0.597-1.151,1.428-2.134,2.055c0.892-0.867,1.395-2.032,1.622-2.661
					c-1.658-1.747-3.761-2.041-4.813-0.395c-0.154,0.241-0.266,0.484-0.354,0.728c2.227,0.456,3.111,1.325,3.111,1.325
					c-1.501-0.624-2.592-0.811-3.246-0.863c-0.411,1.914,0.782,3.896,0.796,5.917c1.667,1.361,3.353,2.053,3.353,2.053l-0.103,0.465
					c0,0-1.868-0.73-3.306-1.677c-0.335,2.618,1.873,3.675,1.873,3.675S96.435,42.459,96.653,42.154z"/>
			</g>
			<g>
				<path fill="#FFFFFF" d="M110.483,64.14c-1.237,1.507-2.511,2.951-3.745,4.428c-1.242,1.472-2.445,2.956-3.622,4.5l-0.127-0.074
					c0.787-1.799,1.96-3.395,3.226-4.873c0.643-0.732,1.307-1.447,2.021-2.11c0.708-0.668,1.438-1.315,2.232-1.886L110.483,64.14z"/>
				<path opacity="0.8" fill="#FFFFFF" d="M113.248,61.947c-0.462-0.621-1.149-0.876-1.935-0.854c-0.399,0.885-0.924,2.161-1.291,3.506
					c-0.042-1.34,0.151-2.508,0.363-3.368c-1.177,0.311-2.456,1.108-3.5,2.175c-0.791,0.808-1.413,1.654-1.796,2.486
					c0.632,1.448,1.442,2.331,1.442,2.331c-0.858-0.565-1.414-1.058-1.76-1.425c-0.25,1.026-0.081,2,0.659,2.817
					c1.352,1.491,3.84,1.215,5.74-1.524c0.121-0.175,0.234-0.334,0.351-0.501c-0.999-0.456-2.246-1.006-3.002-1.266
					c0,0,1.805,0.389,3.257,0.903c0.676-0.961,1.254-1.789,1.601-2.539c-0.907,0.028-2.438,0.159-4.063,0.664
					c0,0,1.711-1.186,4.361-1.543C113.806,63.16,113.7,62.556,113.248,61.947z"/>
			</g>
			<g>
				<path fill="#FFFFFF" d="M13.517,61.261c2.406,1.916,4.515,4.181,6.389,6.623c1.858,2.441,3.506,5.133,4.313,8.129
					c-1.634-2.61-3.286-5.109-5.071-7.564c-1.792-2.442-3.693-4.81-5.644-7.174L13.517,61.261z"/>
				<path opacity="0.8" fill="#FFFFFF" d="M11.053,60.504c0.058-0.274,0.176-0.542,0.375-0.811c0.993-1.334,3.362-0.69,5.6,0.732
					l-1.225,3.112l2.024-2.565c0.664,0.484,1.301,1.024,1.865,1.593c0.377,0.38,0.716,0.74,1.033,1.085
					c-0.422,0.498-1.033,1.256-1.033,1.256l1.346-0.909c1.681,1.877,2.454,3.118,2.454,3.118s-0.795,2.302-2.386,3.535
					c0.354,0.265,0.354,0.265,0.354,0.265s1.201-2.328,3.406-1.429c-1.815,0.722-3.06,1.997-3.06,1.997
					c-1.803,0.968-2.836,0.654-4.832-1.793l2.408-1.912l-0.486-0.442l-2.354,1.811c-0.335-0.432-0.697-0.915-1.092-1.458
					c-2.244-3.077-4.084-4.896-4.39-6.39c0.374-0.099,0.862-0.241,1.341-0.415C11.855,60.699,11.388,60.579,11.053,60.504z"/>
			</g>
			<g>
				<path fill="#FFFFFF" d="M24.375,57.708c0.984,0.233,1.926,0.652,2.797,1.178c0.88,0.518,1.69,1.162,2.403,1.902
					c0.71,0.743,1.331,1.58,1.794,2.499c0.459,0.919,0.767,1.912,0.88,2.922c-0.81-1.857-1.751-3.578-3.085-5.034
					c-1.327-1.448-2.954-2.638-4.79-3.465L24.375,57.708z"/>
				<path opacity="0.8" fill="#FFFFFF" d="M30.719,58.333c-0.621-0.731-1.68-1.457-2.866-2.004c-0.495,1.612-1.254,2.423-1.254,2.423
					c0.239-0.845,0.339-1.921,0.379-2.781c-2.313-0.848-4.819-0.914-5.478,0.987c-0.337,0.973-0.229,1.678,0.141,2.229
					c0.737-0.371,1.969-0.849,3.766-1.067c-1.455,0.528-2.513,1.267-3.098,1.743c1.028,0.77,2.633,1.216,3.817,1.971
					c0.603,0.384,1.109,0.708,1.567,0.965l2.296-1.105l0.268,0.347l-1.586,1.209c0.724,0.231,1.368,0.157,2.155-0.372
					C30.824,62.876,32.656,60.615,30.719,58.333z"/>
			</g>
		</g>

		<g id="Layer_4">
			<g>
				<path fill="#FFFFFF" d="M35.953,52.201c-0.893,1.879-1.971,3.666-3.179,5.365c-1.222,1.675-2.543,3.359-4.347,4.484L28.3,61.904
					c1.31-1.61,2.663-3.12,3.932-4.745c1.269-1.619,2.49-3.282,3.694-4.973L35.953,52.201z"/>
				<path opacity="0.8" fill="#FFFFFF" d="M30.798,59.489c0,0,1.223,0.802,3.248,0.04c-1.031-0.097-2.788-0.585-2.788-0.585
					l0.313-0.383c0,0,2.005,0.409,3.411,0.233c1.417-1.373,2.483-3.232,2.797-4.508c-1.059,0.275-3.341,0.191-3.341,0.191
					s2.612-0.26,3.321-0.638c0.42-1.24,0.196-2.473-1.211-3.043c-1.408-0.57-2.144,1.24-3.138,2.011s-1.75,1.373-1.75,1.373
					l1.846,1.928l-2.319-1.551l-1.935,1.462l1.733,2.94c0,0-1.586-1.287-2.218-2.275C28.698,58.974,30.798,59.489,30.798,59.489z"/>
			</g>
			<g>
				<path fill="#FFFFFF" d="M101.934,59.008c1.846,0.755,3.716,1.412,5.594,2.015c1.877,0.601,3.771,1.131,5.682,1.544
					c1.908,0.429,3.838,0.699,5.768,0.857c1.933,0.173,3.856,0.229,5.866,0.188l0.039,0.175c-1.873,0.817-3.956,1.072-5.985,1.017
					c-2.038-0.074-4.042-0.455-5.997-0.951c-1.952-0.517-3.854-1.187-5.69-1.993C105.378,61.047,103.598,60.114,101.934,59.008z"/>
				<path opacity="0.8" fill="#FFFFFF" d="M102.95,63.773c-2.473-1.189-5.322-4.985-3.529-6.724c0.261-0.252,0.532-0.429,0.81-0.568
					c0.441,0.812,0.945,1.414,0.945,1.414s-0.195-0.812-0.312-1.657c0.529-0.125,1.084-0.097,1.657,0.016
					c0.074,0.679,0.25,1.181,0.25,1.181c-0.013-0.321,0.082-0.734,0.183-1.079c0.91,0.238,7.911,2.238,7.911,2.238
					s0.543,2.479,2.138,4.602c-0.498-1.713-1.028-4.474-1.028-4.474s1.018-0.093,2.45-0.031c0.731,1.141,2.053,3.337,2.409,4.809
					c0,0-0.074-2.648-0.96-4.699c0.244,0.028,0.497,0.066,0.75,0.105c0.383,0.279,0.908,0.804,1.277,1.767
					c0.644,1.674,0.623,2.998,0.623,2.998s0.315-2.148-0.41-4.021c1.2,1.434,0.845,4.464,0.845,4.464
					c-1.202,3.824-4.33,4.865-4.33,4.865s1.316-2.243,1.857-4.991c-0.968,2.334-3.079,4.52-3.079,4.52
					c-1.58-0.244-3.386-0.959-5.111-1.801l0.487-1.706l-1.06,1.419c-1.385-0.282-2.897-0.895-3.937-1.529
					c0.675-1.379,1.377-4.521,1.377-4.521S103.88,62.924,102.95,63.773z"/>
			</g>
			<g>
				<path fill="#FFFFFF" d="M100.443,38.116c0.951,1.048,1.69,2.309,2.09,3.698c0.418,1.381,0.416,2.93-0.14,4.311
					c-0.519,1.367-1.455,2.562-2.581,3.46c-1.118,0.914-2.426,1.574-3.802,1.928l-0.021-0.062c1.253-0.64,2.409-1.42,3.443-2.315
					c1.013-0.915,1.896-1.978,2.405-3.239c0.506-1.235,0.568-2.639,0.267-3.972c-0.314-1.332-0.912-2.617-1.718-3.76L100.443,38.116z"
					/>
				<path opacity="0.8" fill="#FFFFFF" d="M100.986,47.821c0,0,2.993-0.046,3.49,2.425c-0.789-2.035-4.049-1.646-4.049-1.646
					L100.986,47.821z"/>
				<path opacity="0.8" fill="#FFFFFF" d="M100.986,47.821c3.672,0.35,5.125-1.52,4.368-5.609c-1.096,0.115-2.56,0.183-2.97-0.041
					c1.092-0.157,2.092-0.468,2.806-0.731c-0.018-0.076-0.031-0.146-0.05-0.223c-0.056-0.225-0.124-0.437-0.192-0.649l-1.414,0.429
					l1.27-0.849c-0.312-0.84-0.719-1.563-1.175-2.169c-0.437,0.597-1.151,1.428-2.134,2.055c0.892-0.867,1.395-2.032,1.622-2.661
					c-1.658-1.747-3.761-2.041-4.813-0.395c-0.154,0.241-0.266,0.484-0.354,0.728c2.227,0.456,3.111,1.325,3.111,1.325
					c-1.501-0.624-2.592-0.811-3.246-0.863c-0.411,1.914,0.782,3.896,0.796,5.917c1.667,1.361,3.353,2.053,3.353,2.053l-0.103,0.465
					c0,0-1.868-0.73-3.306-1.677c-0.335,2.618,1.873,3.675,1.873,3.675S100.768,48.126,100.986,47.821z"/>
			</g>
			<g>
				<path fill="#FFFFFF" d="M110.484,68.42c-1.237,1.507-2.511,2.951-3.745,4.428c-1.242,1.472-2.445,2.956-3.622,4.5l-0.127-0.074
					c0.787-1.799,1.96-3.395,3.226-4.873c0.643-0.732,1.307-1.447,2.021-2.11c0.708-0.668,1.438-1.315,2.232-1.886L110.484,68.42z"/>
				<path opacity="0.8" fill="#FFFFFF" d="M113.249,66.228c-0.462-0.621-1.149-0.876-1.935-0.854c-0.399,0.885-0.924,2.161-1.291,3.506
					c-0.042-1.34,0.151-2.508,0.363-3.368c-1.177,0.311-2.456,1.108-3.5,2.175c-0.791,0.808-1.413,1.654-1.796,2.486
					c0.632,1.448,1.442,2.331,1.442,2.331c-0.858-0.565-1.414-1.058-1.76-1.425c-0.25,1.026-0.081,2,0.659,2.817
					c1.352,1.491,3.84,1.215,5.74-1.524c0.121-0.175,0.234-0.334,0.351-0.501c-0.999-0.456-2.246-1.006-3.002-1.266
					c0,0,1.805,0.389,3.257,0.903c0.676-0.961,1.254-1.789,1.601-2.539c-0.907,0.028-2.438,0.159-4.063,0.664
					c0,0,1.711-1.186,4.361-1.543C113.807,67.44,113.701,66.836,113.249,66.228z"/>
			</g>
			<g>
				<path fill="#FFFFFF" d="M13.683,66.094c2.406,1.916,4.515,4.181,6.389,6.623c1.858,2.441,3.506,5.133,4.313,8.129
					c-1.634-2.61-3.286-5.109-5.071-7.564c-1.792-2.442-3.693-4.81-5.644-7.174L13.683,66.094z"/>
				<path opacity="0.8" fill="#FFFFFF" d="M11.22,65.337c0.058-0.274,0.176-0.542,0.375-0.811c0.993-1.334,3.362-0.69,5.6,0.732
					l-1.225,3.112l2.024-2.565c0.664,0.484,1.301,1.024,1.865,1.593c0.377,0.38,0.716,0.74,1.033,1.085
					c-0.422,0.498-1.033,1.256-1.033,1.256l1.346-0.909c1.681,1.877,2.454,3.118,2.454,3.118s-0.795,2.302-2.386,3.535
					c0.354,0.265,0.354,0.265,0.354,0.265s1.201-2.328,3.406-1.429c-1.815,0.722-3.06,1.997-3.06,1.997
					c-1.803,0.968-2.836,0.654-4.832-1.793l2.408-1.912l-0.486-0.442l-2.354,1.811c-0.335-0.432-0.697-0.915-1.092-1.458
					c-2.244-3.077-4.084-4.896-4.39-6.39c0.374-0.099,0.862-0.241,1.341-0.415C12.022,65.532,11.555,65.412,11.22,65.337z"/>
			</g>
			<g>
				<path fill="#FFFFFF" d="M23.709,62.875c0.984,0.233,1.926,0.652,2.797,1.179c0.88,0.518,1.69,1.162,2.403,1.902
					c0.71,0.743,1.331,1.58,1.794,2.499c0.459,0.919,0.766,1.912,0.88,2.922c-0.81-1.857-1.751-3.578-3.085-5.034
					c-1.327-1.448-2.954-2.638-4.79-3.465L23.709,62.875z"/>
				<path opacity="0.8" fill="#FFFFFF" d="M30.052,63.5c-0.621-0.731-1.68-1.457-2.866-2.004c-0.495,1.612-1.254,2.423-1.254,2.423
					c0.239-0.845,0.339-1.921,0.379-2.781c-2.313-0.848-4.819-0.914-5.478,0.987c-0.337,0.973-0.229,1.678,0.141,2.229
					c0.737-0.371,1.969-0.849,3.766-1.067c-1.455,0.528-2.513,1.267-3.098,1.743c1.028,0.77,2.633,1.216,3.817,1.971
					c0.603,0.384,1.109,0.708,1.567,0.965l2.296-1.105l0.268,0.347l-1.586,1.209c0.724,0.231,1.368,0.157,2.155-0.372
					C30.158,68.043,31.99,65.782,30.052,63.5z"/>
			</g>
		</g>

		<g id="Layer_5">
			<g>
				<path fill="#FFFFFF" d="M35.619,60.868c-0.893,1.879-1.971,3.666-3.179,5.365c-1.222,1.675-2.543,3.359-4.347,4.484l-0.127-0.146
					c1.31-1.61,2.663-3.119,3.932-4.745c1.269-1.618,2.49-3.282,3.694-4.973L35.619,60.868z"/>
				<path opacity="0.8" fill="#FFFFFF" d="M30.465,68.156c0,0,1.223,0.802,3.248,0.04c-1.031-0.097-2.788-0.585-2.788-0.585
					l0.313-0.383c0,0,2.005,0.409,3.411,0.233c1.417-1.373,2.483-3.232,2.797-4.508c-1.059,0.275-3.341,0.191-3.341,0.191
					s2.612-0.26,3.321-0.638c0.42-1.24,0.196-2.473-1.211-3.043c-1.408-0.57-2.144,1.24-3.138,2.011s-1.75,1.373-1.75,1.373
					l1.846,1.928l-2.319-1.551l-1.935,1.462l1.733,2.94c0,0-1.586-1.287-2.218-2.275C28.365,67.64,30.465,68.156,30.465,68.156z"/>
			</g>
			<g>
				<path fill="#FFFFFF" d="M107.779,64.394c1.846,0.755,3.716,1.412,5.594,2.015c1.877,0.601,3.771,1.131,5.682,1.544
					c1.908,0.429,3.838,0.699,5.768,0.857c1.933,0.173,3.856,0.229,5.866,0.188l0.039,0.175c-1.873,0.817-3.956,1.072-5.985,1.017
					c-2.038-0.074-4.042-0.455-5.997-0.951c-1.952-0.517-3.854-1.187-5.69-1.993C111.223,66.433,109.442,65.5,107.779,64.394z"/>
				<path opacity="0.8" fill="#FFFFFF" d="M108.795,69.159c-2.473-1.189-5.322-4.985-3.529-6.724c0.261-0.252,0.532-0.429,0.81-0.568
					c0.441,0.812,0.945,1.414,0.945,1.414s-0.195-0.812-0.312-1.657c0.529-0.125,1.084-0.097,1.657,0.016
					c0.074,0.679,0.25,1.181,0.25,1.181c-0.013-0.321,0.082-0.734,0.183-1.079c0.91,0.238,7.911,2.238,7.911,2.238
					s0.543,2.479,2.138,4.602c-0.498-1.713-1.028-4.474-1.028-4.474s1.018-0.093,2.45-0.031c0.731,1.141,2.053,3.337,2.409,4.809
					c0,0-0.074-2.648-0.96-4.699c0.244,0.028,0.497,0.066,0.75,0.105c0.383,0.279,0.908,0.804,1.277,1.767
					c0.644,1.674,0.623,2.998,0.623,2.998s0.315-2.148-0.41-4.021c1.2,1.434,0.845,4.464,0.845,4.464
					c-1.202,3.824-4.33,4.865-4.33,4.865s1.316-2.243,1.857-4.991c-0.968,2.334-3.079,4.52-3.079,4.52
					c-1.58-0.244-3.386-0.959-5.111-1.801l0.487-1.706l-1.06,1.419c-1.385-0.282-2.897-0.895-3.937-1.529
					c0.675-1.379,1.377-4.521,1.377-4.521S109.725,68.31,108.795,69.159z"/>
			</g>
			<g>
				<path fill="#FFFFFF" d="M101.393,44.611c0.951,1.048,1.69,2.309,2.09,3.698c0.418,1.381,0.416,2.93-0.14,4.311
					c-0.519,1.367-1.455,2.562-2.581,3.46c-1.118,0.914-2.426,1.574-3.802,1.928l-0.021-0.062c1.253-0.64,2.409-1.42,3.443-2.315
					c1.013-0.915,1.896-1.978,2.405-3.239c0.506-1.235,0.568-2.639,0.267-3.972c-0.314-1.332-0.912-2.617-1.718-3.76L101.393,44.611z"
					/>
				<path opacity="0.8" fill="#FFFFFF" d="M101.936,54.316c0,0,2.993-0.046,3.49,2.425c-0.789-2.035-4.049-1.646-4.049-1.646
					L101.936,54.316z"/>
				<path opacity="0.8" fill="#FFFFFF" d="M101.936,54.316c3.672,0.35,5.125-1.52,4.368-5.609c-1.096,0.115-2.56,0.183-2.97-0.041
					c1.092-0.157,2.092-0.468,2.806-0.731c-0.018-0.076-0.031-0.146-0.05-0.223c-0.056-0.225-0.124-0.437-0.192-0.649l-1.414,0.429
					l1.27-0.849c-0.312-0.84-0.719-1.563-1.175-2.169c-0.437,0.597-1.151,1.428-2.134,2.055c0.892-0.867,1.395-2.032,1.622-2.661
					c-1.658-1.747-3.761-2.041-4.813-0.395c-0.154,0.241-0.266,0.484-0.354,0.728c2.227,0.456,3.111,1.325,3.111,1.325
					c-1.501-0.624-2.592-0.811-3.246-0.863c-0.411,1.914,0.782,3.896,0.796,5.917c1.667,1.361,3.353,2.053,3.353,2.053l-0.103,0.465
					c0,0-1.868-0.73-3.306-1.677c-0.335,2.618,1.873,3.675,1.873,3.675S101.717,54.621,101.936,54.316z"/>
			</g>
			<g>
				<path fill="#FFFFFF" d="M110.764,71.277c-1.237,1.507-2.511,2.951-3.745,4.428c-1.242,1.472-2.445,2.956-3.622,4.5l-0.127-0.074
					c0.787-1.799,1.96-3.395,3.226-4.872c0.643-0.733,1.307-1.447,2.021-2.11c0.708-0.668,1.438-1.314,2.232-1.886L110.764,71.277z"/>
				<path opacity="0.8" fill="#FFFFFF" d="M113.528,69.084c-0.462-0.621-1.149-0.876-1.935-0.854c-0.399,0.885-0.924,2.161-1.291,3.506
					c-0.042-1.34,0.151-2.508,0.363-3.368c-1.177,0.311-2.456,1.108-3.5,2.175c-0.791,0.808-1.413,1.654-1.796,2.486
					c0.632,1.448,1.442,2.331,1.442,2.331c-0.858-0.565-1.414-1.058-1.76-1.425c-0.25,1.026-0.081,2,0.659,2.817
					c1.352,1.491,3.84,1.215,5.74-1.524c0.121-0.175,0.234-0.334,0.351-0.501c-0.999-0.456-2.246-1.006-3.002-1.266
					c0,0,1.805,0.389,3.257,0.903c0.676-0.961,1.254-1.789,1.601-2.539c-0.907,0.028-2.438,0.159-4.063,0.664
					c0,0,1.711-1.186,4.361-1.543C114.086,70.297,113.98,69.693,113.528,69.084z"/>
			</g>
			<g>
				<path fill="#FFFFFF" d="M12.35,69.095c2.406,1.916,4.515,4.181,6.389,6.623c1.858,2.441,3.506,5.133,4.313,8.129
					c-1.634-2.61-3.286-5.109-5.071-7.563c-1.792-2.443-3.693-4.81-5.644-7.175L12.35,69.095z"/>
				<path opacity="0.8" fill="#FFFFFF" d="M9.887,68.338c0.058-0.274,0.176-0.542,0.375-0.811c0.993-1.334,3.362-0.69,5.6,0.732
					l-1.225,3.112l2.024-2.565c0.664,0.484,1.301,1.024,1.865,1.593c0.377,0.38,0.716,0.74,1.033,1.085
					c-0.422,0.498-1.033,1.256-1.033,1.256l1.346-0.909c1.681,1.877,2.454,3.118,2.454,3.118s-0.795,2.302-2.386,3.535
					c0.354,0.265,0.354,0.265,0.354,0.265s1.201-2.328,3.406-1.429c-1.815,0.722-3.06,1.997-3.06,1.997
					c-1.803,0.968-2.836,0.654-4.832-1.793l2.408-1.912l-0.486-0.442l-2.354,1.811c-0.335-0.432-0.697-0.915-1.092-1.458
					c-2.244-3.077-4.084-4.896-4.39-6.39c0.374-0.099,0.862-0.241,1.341-0.415C10.689,68.532,10.222,68.412,9.887,68.338z"/>
			</g>
			<g>
				<path fill="#FFFFFF" d="M22.875,68.874c0.984,0.233,1.926,0.651,2.797,1.179c0.88,0.518,1.69,1.162,2.403,1.902
					c0.71,0.743,1.331,1.58,1.794,2.499c0.459,0.919,0.767,1.912,0.88,2.922c-0.81-1.857-1.751-3.578-3.085-5.034
					c-1.327-1.448-2.954-2.638-4.79-3.465L22.875,68.874z"/>
				<path opacity="0.8" fill="#FFFFFF" d="M29.219,69.5c-0.621-0.731-1.68-1.457-2.866-2.004c-0.495,1.612-1.254,2.423-1.254,2.423
					c0.239-0.845,0.339-1.921,0.379-2.781c-2.313-0.848-4.819-0.914-5.478,0.987c-0.337,0.973-0.229,1.678,0.141,2.229
					c0.737-0.371,1.969-0.849,3.766-1.067c-1.455,0.528-2.513,1.267-3.098,1.743c1.028,0.77,2.633,1.216,3.817,1.971
					c0.603,0.384,1.109,0.708,1.567,0.965l2.296-1.105l0.268,0.347l-1.586,1.209c0.724,0.231,1.368,0.157,2.155-0.372
					C29.324,74.043,31.156,71.781,29.219,69.5z"/>
			</g>
		</g>

		<g id="Layer_6">
			<g>
				<path fill="#FFFFFF" d="M35.286,68.201c-0.893,1.879-1.971,3.666-3.179,5.365c-1.222,1.675-2.543,3.359-4.347,4.484l-0.127-0.146
					c1.31-1.61,2.663-3.119,3.932-4.745c1.269-1.619,2.49-3.282,3.694-4.973L35.286,68.201z"/>
				<path opacity="0.8" fill="#FFFFFF" d="M30.131,75.489c0,0,1.223,0.802,3.248,0.04c-1.031-0.097-2.788-0.585-2.788-0.585
					l0.313-0.383c0,0,2.005,0.409,3.411,0.233c1.417-1.373,2.483-3.232,2.797-4.508c-1.059,0.275-3.341,0.191-3.341,0.191
					s2.612-0.26,3.321-0.638c0.42-1.24,0.196-2.473-1.211-3.043c-1.408-0.57-2.144,1.24-3.138,2.011s-1.75,1.373-1.75,1.373
					l1.846,1.928l-2.319-1.551l-1.935,1.462l1.733,2.94c0,0-1.586-1.287-2.218-2.275C28.031,74.974,30.131,75.489,30.131,75.489z"/>
			</g>
			<g>
				<path fill="#FFFFFF" d="M107.779,68.727c1.846,0.755,3.716,1.412,5.594,2.015c1.877,0.601,3.771,1.131,5.682,1.544
					c1.908,0.429,3.838,0.699,5.768,0.857c1.933,0.173,3.856,0.229,5.866,0.188l0.039,0.175c-1.873,0.817-3.956,1.072-5.985,1.017
					c-2.038-0.074-4.042-0.455-5.997-0.951c-1.952-0.516-3.854-1.187-5.69-1.993C111.223,70.767,109.442,69.833,107.779,68.727z"/>
				<path opacity="0.8" fill="#FFFFFF" d="M108.795,73.492c-2.473-1.189-5.322-4.985-3.529-6.724c0.261-0.252,0.532-0.429,0.81-0.568
					c0.441,0.812,0.945,1.414,0.945,1.414s-0.195-0.812-0.312-1.657c0.529-0.125,1.084-0.097,1.657,0.016
					c0.074,0.679,0.25,1.181,0.25,1.181c-0.013-0.321,0.082-0.734,0.183-1.079c0.91,0.238,7.911,2.238,7.911,2.238
					s0.543,2.479,2.138,4.602c-0.498-1.713-1.028-4.474-1.028-4.474s1.018-0.093,2.45-0.031c0.731,1.141,2.053,3.337,2.409,4.809
					c0,0-0.074-2.648-0.96-4.699c0.244,0.028,0.497,0.066,0.75,0.105c0.383,0.279,0.908,0.804,1.277,1.767
					c0.644,1.674,0.623,2.998,0.623,2.998s0.315-2.148-0.41-4.021c1.2,1.434,0.845,4.464,0.845,4.464
					c-1.202,3.824-4.33,4.865-4.33,4.865s1.316-2.243,1.857-4.991c-0.968,2.334-3.079,4.52-3.079,4.52
					c-1.58-0.244-3.386-0.959-5.111-1.801l0.487-1.706l-1.06,1.419c-1.385-0.282-2.897-0.895-3.937-1.529
					c0.675-1.379,1.377-4.521,1.377-4.521S109.725,72.643,108.795,73.492z"/>
			</g>
			<g>
				<path fill="#FFFFFF" d="M100.56,52.944c0.951,1.048,1.69,2.309,2.09,3.698c0.418,1.381,0.416,2.93-0.14,4.311
					c-0.519,1.367-1.455,2.562-2.581,3.46c-1.118,0.914-2.426,1.574-3.802,1.928l-0.021-0.062c1.253-0.64,2.409-1.42,3.443-2.316
					c1.013-0.914,1.896-1.978,2.405-3.239c0.506-1.235,0.568-2.639,0.267-3.972c-0.314-1.332-0.912-2.617-1.718-3.76L100.56,52.944z"/>
				<path opacity="0.8" fill="#FFFFFF" d="M101.103,62.649c0,0,2.993-0.046,3.49,2.425c-0.789-2.035-4.049-1.646-4.049-1.646
					L101.103,62.649z"/>
				<path opacity="0.8" fill="#FFFFFF" d="M101.103,62.649c3.672,0.35,5.125-1.52,4.368-5.609c-1.096,0.115-2.56,0.183-2.97-0.041
					c1.092-0.157,2.092-0.468,2.806-0.731c-0.018-0.076-0.031-0.146-0.05-0.223c-0.056-0.225-0.124-0.437-0.192-0.649l-1.414,0.429
					l1.27-0.849c-0.312-0.84-0.719-1.563-1.175-2.169c-0.437,0.597-1.151,1.428-2.134,2.055c0.892-0.867,1.395-2.032,1.622-2.661
					c-1.658-1.747-3.761-2.041-4.813-0.395c-0.154,0.241-0.266,0.484-0.354,0.728c2.227,0.456,3.111,1.325,3.111,1.325
					c-1.501-0.624-2.592-0.811-3.246-0.863c-0.411,1.914,0.782,3.896,0.796,5.917c1.667,1.361,3.353,2.053,3.353,2.053l-0.103,0.465
					c0,0-1.868-0.73-3.306-1.677c-0.335,2.618,1.873,3.675,1.873,3.675S100.884,62.954,101.103,62.649z"/>
			</g>
			<g>
				<path fill="#FFFFFF" d="M110.604,74.234c-1.237,1.507-2.511,2.951-3.745,4.428c-1.242,1.472-2.445,2.956-3.622,4.5l-0.127-0.074
					c0.787-1.799,1.96-3.395,3.226-4.873c0.643-0.732,1.307-1.447,2.021-2.11c0.708-0.668,1.438-1.315,2.232-1.886L110.604,74.234z"/>
				<path opacity="0.8" fill="#FFFFFF" d="M113.368,72.042c-0.462-0.621-1.149-0.876-1.935-0.854c-0.399,0.885-0.924,2.161-1.291,3.506
					c-0.042-1.34,0.151-2.508,0.363-3.368c-1.177,0.311-2.456,1.108-3.5,2.175c-0.791,0.808-1.413,1.654-1.796,2.486
					c0.632,1.448,1.442,2.331,1.442,2.331c-0.858-0.565-1.414-1.058-1.76-1.425c-0.25,1.026-0.081,2,0.659,2.817
					c1.352,1.491,3.84,1.215,5.74-1.524c0.121-0.175,0.234-0.334,0.351-0.501c-0.999-0.456-2.246-1.006-3.002-1.266
					c0,0,1.805,0.389,3.257,0.903c0.676-0.961,1.254-1.789,1.601-2.539c-0.907,0.028-2.438,0.159-4.063,0.664
					c0,0,1.711-1.186,4.361-1.543C113.926,73.255,113.82,72.65,113.368,72.042z"/>
			</g>
			<g>
				<path fill="#FFFFFF" d="M13.224,74.57c2.62,1.612,4.986,3.606,7.142,5.804c2.139,2.199,4.1,4.673,5.262,7.55
					c-1.937-2.394-3.879-4.676-5.946-6.897c-2.074-2.208-4.246-4.329-6.468-6.442L13.224,74.57z"/>
				<path opacity="0.8" fill="#FFFFFF" d="M10.688,74.116c0.024-0.279,0.109-0.56,0.275-0.851c0.824-1.444,3.254-1.09,5.647,0.052
					l-0.841,3.237l1.7-2.791c0.718,0.401,1.416,0.86,2.043,1.356c0.42,0.333,0.8,0.648,1.156,0.953
					c-0.358,0.545-0.874,1.372-0.874,1.372l1.227-1.065c1.895,1.661,2.812,2.799,2.812,2.799s-0.512,2.382-1.942,3.797
					c0.383,0.221,0.383,0.221,0.383,0.221s0.911-2.456,3.209-1.83c-1.715,0.936-2.796,2.352-2.796,2.352
					c-1.673,1.178-2.736,0.992-5.013-1.197l2.16-2.188l-0.536-0.38l-2.119,2.082c-0.385-0.388-0.802-0.824-1.26-1.315
					c-2.599-2.784-4.645-4.368-5.129-5.814c0.358-0.143,0.827-0.343,1.281-0.574C11.507,74.212,11.029,74.149,10.688,74.116z"/>
			</g>
			<g>
				<path fill="#FFFFFF" d="M22.054,73.515c0.984,0.233,1.926,0.651,2.797,1.179c0.88,0.518,1.69,1.162,2.403,1.902
					c0.71,0.743,1.331,1.58,1.794,2.499c0.459,0.919,0.766,1.912,0.88,2.922c-0.81-1.857-1.751-3.578-3.085-5.034
					c-1.327-1.448-2.954-2.638-4.79-3.465L22.054,73.515z"/>
				<path opacity="0.8" fill="#FFFFFF" d="M28.397,74.141c-0.621-0.731-1.68-1.457-2.866-2.004c-0.495,1.612-1.254,2.423-1.254,2.423
					c0.239-0.845,0.339-1.921,0.379-2.781c-2.313-0.848-4.819-0.914-5.478,0.987c-0.337,0.973-0.229,1.678,0.141,2.229
					c0.737-0.371,1.969-0.849,3.766-1.067c-1.455,0.528-2.513,1.267-3.098,1.743c1.028,0.77,2.633,1.216,3.817,1.971
					c0.603,0.384,1.109,0.708,1.567,0.965l2.296-1.105l0.268,0.347l-1.586,1.209c0.724,0.231,1.368,0.157,2.155-0.372
					C28.502,78.684,30.334,76.422,28.397,74.141z"/>
			</g>
		</g>

		<g id="Layer_7">
			<g>
				<path fill="#FFFFFF" d="M35.453,75.701c-0.893,1.879-1.971,3.666-3.179,5.364c-1.222,1.675-2.543,3.359-4.347,4.484L27.8,85.403
					c1.31-1.61,2.663-3.119,3.932-4.745c1.269-1.618,2.49-3.281,3.694-4.973L35.453,75.701z"/>
				<path opacity="0.8" fill="#FFFFFF" d="M30.298,82.989c0,0,1.223,0.802,3.248,0.04c-1.031-0.097-2.788-0.585-2.788-0.585
					l0.313-0.383c0,0,2.005,0.409,3.411,0.233c1.417-1.373,2.483-3.232,2.797-4.508c-1.059,0.275-3.341,0.191-3.341,0.191
					s2.612-0.26,3.321-0.638c0.42-1.24,0.196-2.473-1.211-3.043c-1.408-0.57-2.144,1.24-3.138,2.011s-1.75,1.373-1.75,1.373
					l1.846,1.928l-2.319-1.551l-1.935,1.462l1.733,2.94c0,0-1.586-1.287-2.218-2.275C28.198,82.474,30.298,82.989,30.298,82.989z"/>
			</g>
			<g>
				<path fill="#FFFFFF" d="M108.004,74.67c1.899,0.61,3.814,1.119,5.733,1.575c1.919,0.454,3.848,0.835,5.785,1.099
					c1.936,0.28,3.881,0.399,5.817,0.407c1.941,0.022,3.862-0.07,5.863-0.268l0.053,0.172c-1.804,0.959-3.86,1.375-5.888,1.478
					c-2.038,0.085-4.065-0.14-6.052-0.483c-1.986-0.363-3.934-0.884-5.828-1.545C111.596,76.437,109.749,75.645,108.004,74.67z"/>
				<path opacity="0.8" fill="#FFFFFF" d="M109.387,79.342c-2.558-0.993-5.692-4.557-4.04-6.429c0.24-0.272,0.497-0.469,0.763-0.629
					c0.503,0.775,1.052,1.336,1.052,1.336s-0.257-0.794-0.439-1.628c0.518-0.165,1.073-0.181,1.653-0.112
					c0.126,0.671,0.341,1.158,0.341,1.158c-0.038-0.319,0.025-0.739,0.099-1.09c0.925,0.167,8.06,1.618,8.06,1.618
					s0.734,2.429,2.488,4.423c-0.629-1.67-1.372-4.381-1.372-4.381s1.007-0.172,2.44-0.221c0.817,1.081,2.306,3.168,2.775,4.608
					c0,0-0.279-2.634-1.322-4.61c0.246,0.009,0.501,0.028,0.755,0.047c0.404,0.249,0.967,0.731,1.411,1.662
					c0.772,1.619,0.854,2.941,0.854,2.941s0.147-2.167-0.721-3.977c1.308,1.336,1.188,4.385,1.188,4.385
					c-0.902,3.906-3.939,5.186-3.939,5.186s1.138-2.337,1.465-5.119c-0.784,2.402-2.719,4.745-2.719,4.745
					c-1.594-0.121-3.45-0.693-5.235-1.399l0.354-1.74l-0.946,1.498c-1.402-0.174-2.958-0.667-4.044-1.22
					c0.566-1.427,1.023-4.614,1.023-4.614S110.249,78.424,109.387,79.342z"/>
			</g>
			<g>
				<path fill="#FFFFFF" d="M101.754,61.717c0.658,1.253,1.057,2.66,1.095,4.104c0.058,1.441-0.332,2.94-1.217,4.137
					c-0.845,1.193-2.051,2.115-3.366,2.702c-1.311,0.604-2.743,0.915-4.165,0.912l-0.005-0.065c1.373-0.305,2.688-0.77,3.914-1.377
					c1.209-0.631,2.331-1.438,3.141-2.531c0.801-1.069,1.213-2.412,1.255-3.777c0.03-1.368-0.225-2.763-0.719-4.071L101.754,61.717z"/>
				<path opacity="0.8" fill="#FFFFFF" d="M99.844,71.248c0,0,2.908,0.707,2.769,3.224c-0.252-2.167-3.506-2.61-3.506-2.61
					L99.844,71.248z"/>
				<path opacity="0.8" fill="#FFFFFF" d="M99.844,71.248c3.466,1.26,5.342-0.185,5.636-4.333c-1.089-0.164-2.524-0.466-2.865-0.785
					c1.097,0.122,2.143,0.072,2.899-0.004c0.001-0.078,0.007-0.149,0.008-0.229c0.003-0.232-0.01-0.454-0.022-0.677l-1.477,0.061
					l1.442-0.503c-0.091-0.892-0.303-1.693-0.593-2.395c-0.572,0.469-1.473,1.093-2.582,1.454c1.081-0.616,1.86-1.617,2.238-2.169
					c-1.167-2.106-3.128-2.919-4.561-1.59c-0.209,0.195-0.379,0.401-0.525,0.616c2.041,1,2.679,2.063,2.679,2.063
					c-1.296-0.98-2.305-1.436-2.925-1.65c-0.878,1.749-0.221,3.967-0.715,5.927c1.271,1.736,2.73,2.829,2.73,2.829l-0.216,0.424
					c0,0-1.625-1.176-2.779-2.453c-0.982,2.45,0.89,4.027,0.89,4.027S99.556,71.488,99.844,71.248z"/>
			</g>
			<g>
				<path fill="#FFFFFF" d="M111.031,77.107c-1.237,1.507-2.511,2.951-3.745,4.428c-1.242,1.472-2.445,2.956-3.622,4.5l-0.127-0.074
					c0.787-1.799,1.96-3.396,3.225-4.873c0.644-0.733,1.308-1.447,2.022-2.11c0.708-0.668,1.438-1.315,2.232-1.886L111.031,77.107z"/>
				<path opacity="0.8" fill="#FFFFFF" d="M113.795,74.915c-0.462-0.621-1.149-0.876-1.935-0.854c-0.399,0.885-0.924,2.161-1.291,3.506
					c-0.042-1.34,0.151-2.508,0.363-3.368c-1.177,0.311-2.456,1.108-3.5,2.175c-0.791,0.808-1.413,1.654-1.796,2.486
					c0.632,1.448,1.442,2.331,1.442,2.331c-0.858-0.565-1.414-1.058-1.76-1.425c-0.25,1.026-0.081,2,0.659,2.817
					c1.352,1.491,3.84,1.215,5.74-1.524c0.121-0.175,0.234-0.334,0.351-0.501c-0.999-0.456-2.246-1.006-3.002-1.266
					c0,0,1.805,0.389,3.257,0.903c0.676-0.961,1.254-1.789,1.601-2.539c-0.907,0.028-2.438,0.159-4.063,0.664
					c0,0,1.711-1.186,4.361-1.543C114.354,76.128,114.248,75.523,113.795,74.915z"/>
			</g>
			<g>
				<path fill="#FFFFFF" d="M13.202,78.672c2.717,1.44,5.207,3.278,7.499,5.333c2.276,2.057,4.392,4.4,5.736,7.196
					c-2.087-2.265-4.171-4.417-6.376-6.5c-2.211-2.071-4.515-4.048-6.868-6.013L13.202,78.672z"/>
				<path opacity="0.8" fill="#FFFFFF" d="M10.641,78.382c0.006-0.28,0.073-0.566,0.22-0.867c0.73-1.494,3.177-1.297,5.639-0.311
					l-0.631,3.284l1.517-2.894c0.742,0.354,1.468,0.768,2.126,1.223c0.44,0.305,0.84,0.595,1.215,0.877
					c-0.323,0.567-0.784,1.425-0.784,1.425l1.156-1.141c1.998,1.536,2.986,2.613,2.986,2.613S23.727,85,22.39,86.505
					c0.396,0.195,0.396,0.195,0.396,0.195s0.751-2.509,3.085-2.032c-1.651,1.045-2.64,2.527-2.64,2.527
					c-1.594,1.282-2.667,1.165-5.08-0.873L20.167,84l-0.559-0.346l-1.98,2.214c-0.409-0.362-0.854-0.771-1.342-1.231
					c-2.771-2.612-4.916-4.062-5.491-5.473c0.349-0.166,0.803-0.395,1.242-0.655C11.465,78.425,10.984,78.393,10.641,78.382z"/>
			</g>
			<g>
				<path fill="#FFFFFF" d="M21.042,78.374c0.984,0.233,1.926,0.651,2.797,1.179c0.88,0.518,1.69,1.162,2.403,1.902
					c0.71,0.743,1.331,1.58,1.794,2.499c0.459,0.919,0.766,1.912,0.88,2.922c-0.81-1.856-1.751-3.578-3.085-5.034
					c-1.327-1.448-2.954-2.638-4.79-3.465L21.042,78.374z"/>
				<path opacity="0.8" fill="#FFFFFF" d="M27.385,79c-0.621-0.731-1.68-1.457-2.866-2.004c-0.495,1.612-1.254,2.423-1.254,2.423
					c0.239-0.845,0.339-1.921,0.379-2.781c-2.313-0.848-4.819-0.914-5.478,0.987c-0.337,0.973-0.229,1.678,0.141,2.229
					c0.737-0.371,1.969-0.849,3.766-1.067c-1.455,0.528-2.513,1.267-3.098,1.743c1.028,0.77,2.633,1.216,3.817,1.971
					c0.603,0.384,1.109,0.708,1.567,0.965l2.296-1.105l0.268,0.347l-1.586,1.209c0.724,0.231,1.368,0.157,2.155-0.372
					C27.491,83.543,29.323,81.281,27.385,79z"/>
			</g>
		</g>

		<g id="Layer_8">
			<g opacity="0.75">
				<path fill="#FFFFFF" d="M36.119,82.035c-0.893,1.879-1.971,3.666-3.179,5.364c-1.222,1.675-2.543,3.359-4.347,4.484l-0.127-0.146
					c1.31-1.61,2.662-3.119,3.932-4.745c1.269-1.618,2.49-3.281,3.694-4.973L36.119,82.035z"/>
				<path opacity="0.8" fill="#FFFFFF" d="M30.965,89.323c0,0,1.223,0.802,3.248,0.04c-1.031-0.097-2.788-0.585-2.788-0.585
					l0.313-0.384c0,0,2.005,0.409,3.411,0.234c1.417-1.373,2.483-3.232,2.797-4.509c-1.059,0.275-3.341,0.191-3.341,0.191
					s2.612-0.26,3.321-0.638c0.42-1.24,0.196-2.473-1.211-3.043c-1.408-0.57-2.144,1.24-3.138,2.011s-1.75,1.373-1.75,1.373
					l1.846,1.928l-2.319-1.55l-1.935,1.462l1.733,2.939c0,0-1.586-1.287-2.218-2.274C28.865,88.808,30.965,89.323,30.965,89.323z"/>
			</g>
			<g opacity="0.75">
				<path fill="#FFFFFF" d="M108.273,78.662c1.899,0.61,3.814,1.119,5.733,1.575c1.919,0.454,3.848,0.834,5.785,1.098
					c1.936,0.28,3.881,0.399,5.817,0.407c1.941,0.022,3.862-0.07,5.863-0.268l0.053,0.172c-1.804,0.959-3.861,1.375-5.888,1.478
					c-2.038,0.084-4.065-0.14-6.052-0.483c-1.986-0.363-3.934-0.884-5.828-1.545C111.865,80.429,110.018,79.636,108.273,78.662z"/>
				<path opacity="0.8" fill="#FFFFFF" d="M109.656,83.333c-2.558-0.993-5.692-4.557-4.04-6.429c0.24-0.272,0.497-0.469,0.763-0.629
					c0.503,0.775,1.052,1.336,1.052,1.336s-0.257-0.794-0.439-1.628c0.518-0.165,1.073-0.181,1.653-0.112
					c0.126,0.671,0.341,1.158,0.341,1.158c-0.038-0.319,0.025-0.739,0.099-1.09c0.925,0.167,8.06,1.618,8.06,1.618
					s0.734,2.429,2.488,4.423c-0.629-1.67-1.372-4.381-1.372-4.381s1.007-0.172,2.44-0.221c0.817,1.081,2.306,3.168,2.775,4.608
					c0,0-0.279-2.634-1.322-4.61c0.246,0.009,0.501,0.028,0.755,0.047c0.404,0.249,0.967,0.731,1.411,1.662
					c0.772,1.619,0.854,2.941,0.854,2.941s0.147-2.167-0.721-3.977c1.308,1.336,1.188,4.385,1.188,4.385
					c-0.902,3.906-3.939,5.186-3.939,5.186s1.138-2.338,1.465-5.119c-0.784,2.402-2.719,4.744-2.719,4.744
					c-1.594-0.12-3.45-0.693-5.235-1.398l0.354-1.74l-0.946,1.498c-1.402-0.174-2.958-0.667-4.044-1.219
					c0.566-1.427,1.023-4.614,1.023-4.614S110.518,82.416,109.656,83.333z"/>
			</g>
			<g opacity="0.75">
				<path fill="#FFFFFF" d="M101.754,69.217c0.658,1.253,1.057,2.66,1.095,4.104c0.058,1.441-0.332,2.94-1.217,4.137
					c-0.845,1.193-2.051,2.115-3.366,2.702c-1.311,0.604-2.743,0.915-4.165,0.912l-0.005-0.065c1.373-0.305,2.688-0.77,3.914-1.377
					c1.209-0.631,2.331-1.438,3.141-2.531c0.801-1.069,1.213-2.412,1.255-3.777c0.03-1.368-0.225-2.763-0.719-4.071L101.754,69.217z"/>
				<path opacity="0.8" fill="#FFFFFF" d="M99.844,78.748c0,0,2.908,0.707,2.769,3.224c-0.252-2.167-3.506-2.61-3.506-2.61
					L99.844,78.748z"/>
				<path opacity="0.8" fill="#FFFFFF" d="M99.844,78.748c3.466,1.26,5.342-0.185,5.636-4.333c-1.089-0.164-2.524-0.466-2.865-0.785
					c1.097,0.122,2.143,0.072,2.899-0.004c0.001-0.078,0.007-0.149,0.008-0.229c0.003-0.232-0.01-0.454-0.022-0.677l-1.477,0.061
					l1.442-0.503c-0.091-0.892-0.303-1.693-0.593-2.395c-0.572,0.469-1.473,1.093-2.582,1.454c1.081-0.616,1.86-1.617,2.238-2.169
					c-1.167-2.106-3.128-2.919-4.561-1.59c-0.209,0.195-0.379,0.401-0.525,0.616c2.041,1,2.679,2.063,2.679,2.063
					c-1.296-0.98-2.305-1.436-2.925-1.65c-0.878,1.749-0.221,3.967-0.715,5.927c1.271,1.736,2.73,2.829,2.73,2.829l-0.216,0.424
					c0,0-1.625-1.176-2.779-2.453c-0.982,2.45,0.89,4.027,0.89,4.027S99.556,78.988,99.844,78.748z"/>
			</g>
			<g opacity="0.75">
				<path fill="#FFFFFF" d="M111.097,79.776c-1.237,1.507-2.511,2.951-3.745,4.428c-1.242,1.472-2.445,2.956-3.622,4.5l-0.127-0.074
					c0.787-1.8,1.96-3.396,3.226-4.873c0.643-0.733,1.307-1.447,2.021-2.11c0.708-0.668,1.438-1.315,2.232-1.886L111.097,79.776z"/>
				<path opacity="0.8" fill="#FFFFFF" d="M113.861,77.584c-0.462-0.621-1.149-0.876-1.935-0.854c-0.399,0.885-0.924,2.161-1.291,3.506
					c-0.042-1.34,0.151-2.508,0.363-3.368c-1.177,0.311-2.456,1.108-3.5,2.175c-0.791,0.808-1.413,1.654-1.796,2.486
					c0.632,1.448,1.442,2.331,1.442,2.331c-0.858-0.565-1.414-1.058-1.76-1.425c-0.25,1.026-0.081,2,0.659,2.816
					c1.352,1.492,3.84,1.215,5.74-1.524c0.121-0.175,0.234-0.334,0.351-0.501c-0.999-0.456-2.246-1.006-3.002-1.266
					c0,0,1.805,0.389,3.257,0.903c0.676-0.961,1.254-1.789,1.601-2.539c-0.907,0.028-2.438,0.159-4.063,0.664
					c0,0,1.711-1.186,4.361-1.543C114.419,78.797,114.314,78.192,113.861,77.584z"/>
			</g>
			<g opacity="0.75">
				<path fill="#FFFFFF" d="M12.201,83.671c2.717,1.44,5.207,3.278,7.499,5.333c2.275,2.058,4.391,4.4,5.736,7.196
					c-2.087-2.265-4.171-4.417-6.376-6.501c-2.211-2.07-4.515-4.047-6.868-6.013L12.201,83.671z"/>
				<path opacity="0.8" fill="#FFFFFF" d="M9.641,83.381c0.006-0.28,0.073-0.566,0.22-0.867c0.73-1.493,3.177-1.297,5.639-0.311
					l-0.631,3.284l1.517-2.894c0.742,0.354,1.468,0.768,2.126,1.223c0.44,0.305,0.84,0.595,1.215,0.877
					c-0.323,0.566-0.784,1.424-0.784,1.424l1.156-1.141c1.998,1.535,2.986,2.613,2.986,2.613s-0.358,2.409-1.695,3.914
					c0.396,0.195,0.396,0.195,0.396,0.195s0.751-2.509,3.085-2.032c-1.651,1.045-2.64,2.527-2.64,2.527
					c-1.594,1.282-2.667,1.165-5.08-0.873l2.015-2.322l-0.559-0.346l-1.98,2.214c-0.409-0.362-0.854-0.771-1.342-1.231
					c-2.771-2.612-4.916-4.062-5.491-5.474c0.349-0.166,0.803-0.395,1.242-0.654C10.465,83.424,9.983,83.393,9.641,83.381z"/>
			</g>
			<g opacity="0.75">
				<path fill="#FFFFFF" d="M16.875,83.375c0.984,0.233,1.926,0.652,2.797,1.179c0.88,0.518,1.689,1.162,2.403,1.902
					c0.71,0.743,1.331,1.579,1.794,2.498c0.459,0.919,0.766,1.912,0.88,2.922c-0.81-1.856-1.752-3.577-3.085-5.034
					c-1.327-1.447-2.954-2.637-4.79-3.464L16.875,83.375z"/>
				<path opacity="0.8" fill="#FFFFFF" d="M23.219,84c-0.621-0.731-1.68-1.457-2.866-2.004c-0.495,1.612-1.254,2.423-1.254,2.423
					c0.239-0.845,0.339-1.921,0.379-2.781c-2.313-0.848-4.819-0.914-5.478,0.987c-0.337,0.973-0.229,1.678,0.141,2.229
					c0.737-0.371,1.969-0.849,3.766-1.067c-1.455,0.528-2.513,1.267-3.098,1.743c1.028,0.77,2.633,1.217,3.817,1.971
					c0.603,0.385,1.109,0.709,1.567,0.965l2.296-1.105l0.268,0.348l-1.586,1.209c0.724,0.23,1.368,0.156,2.155-0.373
					C23.324,88.543,25.156,86.281,23.219,84z"/>
			</g>
		</g>

		<g id="Layer_9">
			<g opacity="0.5">
				<path fill="#FFFFFF" d="M37.786,87.367c-0.893,1.879-1.971,3.666-3.179,5.364c-1.222,1.675-2.543,3.359-4.347,4.484l-0.127-0.146
					c1.31-1.61,2.663-3.119,3.932-4.745c1.269-1.618,2.49-3.281,3.694-4.973L37.786,87.367z"/>
				<path opacity="0.8" fill="#FFFFFF" d="M32.631,94.656c0,0,1.223,0.802,3.248,0.039c-1.031-0.096-2.788-0.584-2.788-0.584
					l0.313-0.384c0,0,2.005,0.409,3.411,0.233c1.417-1.373,2.483-3.232,2.797-4.508c-1.059,0.275-3.341,0.19-3.341,0.19
					s2.612-0.26,3.321-0.638c0.42-1.24,0.196-2.473-1.211-3.043s-2.144,1.239-3.138,2.01c-0.994,0.771-1.75,1.373-1.75,1.373
					l1.846,1.929l-2.319-1.551l-1.935,1.462l1.733,2.94c0,0-1.586-1.287-2.218-2.274C30.531,94.141,32.631,94.656,32.631,94.656z"/>
			</g>
			<g opacity="0.5">
				<path fill="#FFFFFF" d="M108.757,83.021c1.919,0.544,3.85,0.988,5.784,1.378c1.933,0.388,3.874,0.703,5.818,0.9
					c1.944,0.214,3.893,0.267,5.827,0.208c1.94-0.044,3.858-0.202,5.851-0.468l0.059,0.17c-1.77,1.021-3.812,1.507-5.834,1.678
					c-2.033,0.154-4.067-0.001-6.065-0.276c-1.997-0.295-3.962-0.749-5.877-1.345C112.407,84.664,110.534,83.936,108.757,83.021z"/>
				<path opacity="0.8" fill="#FFFFFF" d="M110.298,87.643c-2.59-0.904-5.844-4.36-4.257-6.288c0.231-0.28,0.481-0.485,0.741-0.655
					c0.53,0.758,1.097,1.299,1.097,1.299s-0.284-0.785-0.494-1.612c0.512-0.183,1.066-0.217,1.648-0.168
					c0.149,0.666,0.381,1.146,0.381,1.146c-0.048-0.318,0-0.739,0.062-1.093c0.93,0.135,8.11,1.342,8.11,1.342s0.817,2.403,2.638,4.335
					c-0.686-1.647-1.521-4.332-1.521-4.332s1.001-0.206,2.431-0.304c0.854,1.053,2.413,3.087,2.931,4.511c0,0-0.369-2.624-1.479-4.563
					c0.246,0,0.502,0.011,0.757,0.021c0.412,0.234,0.992,0.697,1.466,1.613c0.827,1.592,0.953,2.91,0.953,2.91s0.074-2.17-0.856-3.95
					c1.353,1.291,1.337,4.342,1.337,4.342c-0.768,3.935-3.76,5.317-3.76,5.317s1.058-2.374,1.29-5.166
					c-0.702,2.427-2.556,4.835-2.556,4.835c-1.597-0.066-3.472-0.575-5.28-1.22l0.294-1.75l-0.895,1.529
					c-1.407-0.126-2.979-0.566-4.083-1.082c0.517-1.444,0.865-4.646,0.865-4.646S111.128,86.695,110.298,87.643z"/>
			</g>
			<g opacity="0.5">
				<path fill="#FFFFFF" d="M101.963,75.379c0.658,1.253,1.057,2.66,1.095,4.104c0.058,1.441-0.332,2.94-1.217,4.137
					c-0.845,1.193-2.051,2.114-3.366,2.702c-1.311,0.604-2.743,0.915-4.165,0.911l-0.005-0.064c1.373-0.306,2.688-0.771,3.914-1.378
					c1.209-0.631,2.331-1.438,3.141-2.531c0.801-1.069,1.213-2.412,1.255-3.777c0.03-1.368-0.225-2.763-0.719-4.071L101.963,75.379z"/>
				<path opacity="0.8" fill="#FFFFFF" d="M100.053,84.91c0,0,2.908,0.707,2.769,3.224c-0.252-2.167-3.506-2.61-3.506-2.61
					L100.053,84.91z"/>
				<path opacity="0.8" fill="#FFFFFF" d="M100.053,84.91c3.466,1.26,5.342-0.185,5.636-4.333c-1.089-0.164-2.524-0.466-2.865-0.785
					c1.097,0.122,2.143,0.072,2.899-0.004c0.001-0.078,0.007-0.149,0.008-0.229c0.003-0.232-0.01-0.454-0.022-0.677l-1.477,0.061
					l1.442-0.503c-0.091-0.892-0.303-1.693-0.593-2.395c-0.572,0.469-1.473,1.093-2.582,1.454c1.081-0.616,1.86-1.617,2.238-2.169
					c-1.167-2.106-3.128-2.919-4.561-1.59c-0.209,0.195-0.379,0.401-0.525,0.616c2.041,1,2.679,2.063,2.679,2.063
					c-1.296-0.98-2.305-1.436-2.925-1.65c-0.878,1.749-0.221,3.967-0.715,5.927c1.271,1.736,2.73,2.829,2.73,2.829l-0.216,0.424
					c0,0-1.625-1.176-2.779-2.453c-0.982,2.45,0.89,4.027,0.89,4.027S99.765,85.15,100.053,84.91z"/>
			</g>
			<g opacity="0.5">
				<path fill="#FFFFFF" d="M111.668,83.123c-1.237,1.507-2.511,2.95-3.745,4.428c-1.242,1.473-2.445,2.956-3.622,4.5l-0.127-0.074
					c0.787-1.8,1.96-3.396,3.226-4.873c0.643-0.732,1.307-1.446,2.021-2.11c0.708-0.668,1.438-1.315,2.232-1.886L111.668,83.123z"/>
				<path opacity="0.8" fill="#FFFFFF" d="M114.433,80.931c-0.462-0.621-1.149-0.876-1.935-0.854c-0.399,0.885-0.924,2.161-1.291,3.506
					c-0.042-1.34,0.151-2.508,0.363-3.368c-1.177,0.311-2.456,1.108-3.5,2.175c-0.791,0.808-1.413,1.654-1.796,2.486
					c0.632,1.448,1.442,2.33,1.442,2.33c-0.858-0.564-1.414-1.058-1.76-1.425c-0.25,1.026-0.081,2.001,0.659,2.817
					c1.352,1.49,3.84,1.215,5.74-1.525c0.121-0.174,0.234-0.334,0.351-0.5c-0.999-0.457-2.246-1.006-3.002-1.267
					c0,0,1.805,0.39,3.257,0.903c0.676-0.961,1.254-1.79,1.601-2.539c-0.907,0.028-2.438,0.159-4.063,0.664
					c0,0,1.711-1.186,4.361-1.543C114.991,82.144,114.885,81.539,114.433,80.931z"/>
			</g>
			<g opacity="0.5">
				<path fill="#FFFFFF" d="M15.173,87.05c2.88,1.079,5.585,2.582,8.122,4.325c2.521,1.747,4.921,3.798,6.614,6.397
					c-2.361-1.977-4.704-3.843-7.16-5.626c-2.459-1.77-4.998-3.433-7.584-5.079L15.173,87.05z"/>
				<path opacity="0.8" fill="#FFFFFF" d="M12.596,87.092c-0.03-0.278,0-0.571,0.106-0.889c0.532-1.574,2.984-1.694,5.552-1.033
					l-0.204,3.339l1.132-3.065c0.781,0.256,1.554,0.573,2.266,0.939c0.476,0.245,0.909,0.481,1.318,0.713
					c-0.247,0.604-0.594,1.514-0.594,1.514l0.999-1.28c2.179,1.266,3.298,2.208,3.298,2.208s-0.045,2.435-1.177,4.099
					c0.418,0.144,0.418,0.144,0.418,0.144s0.422-2.585,2.798-2.412c-1.503,1.248-2.292,2.846-2.292,2.846
					c-1.417,1.477-2.495,1.498-5.15-0.213l1.7-2.562l-0.599-0.271l-1.679,2.45c-0.452-0.307-0.945-0.655-1.489-1.049
					c-3.084-2.233-5.397-3.396-6.15-4.722c0.325-0.209,0.746-0.494,1.147-0.809C13.419,87.028,12.938,87.06,12.596,87.092z"/>
			</g>
			<g opacity="0.5">
				<path fill="#FFFFFF" d="M12.042,89.874c0.984,0.233,1.926,0.651,2.797,1.179c0.88,0.518,1.689,1.162,2.403,1.902
					c0.709,0.743,1.331,1.579,1.794,2.498c0.459,0.919,0.766,1.912,0.88,2.922c-0.81-1.856-1.752-3.577-3.085-5.034
					c-1.327-1.448-2.954-2.638-4.79-3.465L12.042,89.874z"/>
				<path opacity="0.8" fill="#FFFFFF" d="M18.385,90.5c-0.621-0.73-1.68-1.456-2.866-2.004c-0.495,1.612-1.254,2.424-1.254,2.424
					c0.239-0.846,0.339-1.922,0.379-2.781c-2.313-0.848-4.819-0.914-5.478,0.986c-0.337,0.973-0.229,1.678,0.141,2.229
					c0.737-0.37,1.969-0.849,3.766-1.066c-1.455,0.527-2.513,1.267-3.098,1.742c1.028,0.77,2.633,1.217,3.817,1.971
					c0.603,0.385,1.109,0.709,1.567,0.965l2.296-1.105l0.268,0.348l-1.586,1.209c0.724,0.23,1.368,0.156,2.155-0.373
					C18.491,95.043,20.323,92.781,18.385,90.5z"/>
			</g>
		</g>

		<g id="Layer_10">
			<g opacity="0.3">
				<path fill="#FFFFFF" d="M39.612,93.093c-0.893,1.879-1.971,3.666-3.179,5.364c-1.222,1.675-2.543,3.359-4.347,4.484l-0.127-0.146
					c1.31-1.61,2.663-3.119,3.932-4.745c1.269-1.618,2.49-3.281,3.694-4.973L39.612,93.093z"/>
				<path opacity="0.8" fill="#FFFFFF" d="M34.458,100.382c0,0,1.223,0.802,3.248,0.039c-1.031-0.096-2.788-0.584-2.788-0.584
					l0.313-0.384c0,0,2.005,0.409,3.411,0.233c1.417-1.373,2.483-3.232,2.797-4.508c-1.059,0.275-3.341,0.19-3.341,0.19
					s2.612-0.26,3.321-0.638c0.42-1.24,0.196-2.473-1.211-3.043s-2.144,1.239-3.138,2.01c-0.994,0.771-1.75,1.373-1.75,1.373L37.167,97
					l-2.319-1.551l-1.935,1.462l1.733,2.94c0,0-1.586-1.287-2.218-2.274C32.358,99.866,34.458,100.382,34.458,100.382z"/>
			</g>
			<g opacity="0.3">
				<path fill="#FFFFFF" d="M107.817,89.047c1.947,0.433,3.901,0.764,5.854,1.042c1.952,0.275,3.908,0.478,5.861,0.562
					c1.953,0.102,3.901,0.041,5.83-0.129c1.935-0.156,3.839-0.425,5.814-0.806l0.067,0.166c-1.707,1.121-3.717,1.725-5.727,2.013
					c-2.021,0.271-4.061,0.234-6.071,0.075c-2.011-0.18-3.999-0.52-5.945-1.004C111.556,90.476,109.644,89.856,107.817,89.047z"/>
				<path opacity="0.8" fill="#FFFFFF" d="M109.623,93.571c-2.638-0.753-6.086-4.016-4.613-6.031c0.214-0.292,0.452-0.512,0.702-0.696
					c0.573,0.726,1.17,1.233,1.17,1.233s-0.329-0.767-0.586-1.581c0.5-0.212,1.052-0.278,1.635-0.263
					c0.188,0.656,0.446,1.121,0.446,1.121c-0.066-0.314-0.043-0.738-0.001-1.095c0.937,0.081,8.174,0.872,8.174,0.872
					s0.955,2.351,2.884,4.175c-0.78-1.604-1.768-4.235-1.768-4.235s0.987-0.265,2.409-0.445c0.914,1.002,2.587,2.943,3.187,4.334
					c0,0-0.52-2.599-1.74-4.47c0.246-0.014,0.502-0.018,0.757-0.022c0.425,0.21,1.03,0.639,1.557,1.525
					c0.917,1.541,1.12,2.85,1.12,2.85s-0.052-2.17-1.083-3.894c1.425,1.211,1.586,4.257,1.586,4.257
					c-0.539,3.973-3.446,5.526-3.446,5.526S122.93,94.301,123,91.5c-0.561,2.464-2.272,4.975-2.272,4.975
					c-1.599,0.026-3.5-0.373-5.342-0.912l0.192-1.764l-0.805,1.578c-1.412-0.044-3.006-0.394-4.139-0.844
					c0.432-1.472,0.595-4.688,0.595-4.688S110.396,92.577,109.623,93.571z"/>
			</g>
			<g opacity="0.3">
				<path fill="#FFFFFF" d="M101.253,82.502c0.556,1.301,0.843,2.734,0.767,4.178c-0.056,1.441-0.563,2.905-1.541,4.027
					c-0.937,1.123-2.212,1.946-3.569,2.428c-1.354,0.498-2.807,0.695-4.223,0.579v-0.064c1.393-0.196,2.74-0.556,4.01-1.064
					c1.256-0.533,2.438-1.249,3.332-2.275c0.883-1.002,1.4-2.308,1.55-3.665c0.138-1.361-0.006-2.772-0.395-4.115L101.253,82.502z"/>
				<path opacity="0.8" fill="#FFFFFF" d="M98.596,91.853c0,0,2.843,0.935,2.506,3.433c-0.081-2.181-3.289-2.88-3.289-2.88
					L98.596,91.853z"/>
				<path opacity="0.8" fill="#FFFFFF" d="M98.596,91.853c3.356,1.529,5.34,0.238,5.96-3.874c-1.073-0.249-2.479-0.664-2.794-1.009
					c1.084,0.207,2.13,0.241,2.891,0.226c0.008-0.078,0.02-0.148,0.026-0.228c0.021-0.231,0.026-0.453,0.031-0.677l-1.477-0.056
					l1.477-0.388c-0.02-0.896-0.168-1.712-0.402-2.435c-0.607,0.422-1.555,0.974-2.688,1.246c1.126-0.528,1.982-1.465,2.403-1.985
					c-0.997-2.192-2.888-3.157-4.42-1.945c-0.225,0.178-0.41,0.37-0.573,0.572c1.956,1.159,2.507,2.269,2.507,2.269
					c-1.214-1.08-2.185-1.613-2.786-1.876c-1.014,1.674-0.534,3.938-1.181,5.853c1.13,1.831,2.498,3.035,2.498,3.035l-0.249,0.406
					c0,0-1.527-1.302-2.576-2.665c-1.172,2.365,0.569,4.084,0.569,4.084S98.29,92.068,98.596,91.853z"/>
			</g>
			<g opacity="0.3">
				<path fill="#FFFFFF" d="M111.53,85.108c-1.396,1.36-2.822,2.653-4.212,3.985c-1.397,1.325-2.758,2.667-4.099,4.07l-0.118-0.088
					c0.981-1.701,2.324-3.157,3.746-4.484c0.721-0.657,1.46-1.294,2.243-1.873c0.778-0.586,1.575-1.147,2.428-1.628L111.53,85.108z"/>
				<path opacity="0.8" fill="#FFFFFF" d="M114.521,83.236c-0.39-0.668-1.044-0.998-1.828-1.064c-0.495,0.835-1.158,2.045-1.672,3.341
					c0.106-1.336,0.428-2.476,0.734-3.307c-1.204,0.178-2.563,0.829-3.72,1.773c-0.875,0.715-1.587,1.487-2.061,2.271
					c0.467,1.51,1.175,2.477,1.175,2.477c-0.791-0.656-1.288-1.208-1.591-1.611c-0.362,0.992-0.303,1.979,0.342,2.873
					c1.178,1.631,3.682,1.633,5.874-0.88c0.14-0.159,0.27-0.306,0.404-0.458c-0.941-0.564-2.121-1.248-2.843-1.592
					c0,0,1.75,0.588,3.137,1.26c0.778-0.881,1.444-1.641,1.873-2.347c-0.904-0.072-2.44-0.111-4.111,0.209c0,0,1.832-0.988,4.505-1.05
					C114.941,84.503,114.903,83.891,114.521,83.236z"/>
			</g>
			<g opacity="0.3">
				<path fill="#FFFFFF" d="M15.197,91.711c2.967,0.808,5.8,2.054,8.487,3.555c2.672,1.506,5.251,3.326,7.178,5.758
					c-2.534-1.75-5.04-3.392-7.65-4.939c-2.612-1.533-5.294-2.955-8.022-4.355L15.197,91.711z"/>
				<path opacity="0.8" fill="#FFFFFF" d="M12.635,91.991c-0.055-0.274-0.053-0.568,0.024-0.895c0.383-1.617,2.814-1.964,5.432-1.543
					l0.106,3.344l0.843-3.157c0.802,0.183,1.601,0.427,2.343,0.726c0.497,0.2,0.95,0.396,1.378,0.588
					c-0.19,0.624-0.451,1.562-0.451,1.562l0.876-1.367c2.287,1.059,3.488,1.894,3.488,1.894s0.181,2.429-0.793,4.19
					c0.43,0.104,0.43,0.104,0.43,0.104s0.181-2.612,2.563-2.66c-1.381,1.382-2.019,3.045-2.019,3.045
					c-1.274,1.602-2.346,1.723-5.147,0.266l1.455-2.708l-0.622-0.215l-1.445,2.595c-0.479-0.264-1.002-0.564-1.58-0.906
					c-3.278-1.938-5.688-2.881-6.561-4.132c0.304-0.238,0.697-0.562,1.068-0.911C13.448,91.852,12.972,91.928,12.635,91.991z"/>
			</g>
			<g opacity="0.3">
				<path fill="#FFFFFF" d="M7.401,94.688c0.984,0.233,1.926,0.651,2.797,1.179c0.88,0.518,1.689,1.162,2.403,1.902
					c0.709,0.743,1.331,1.579,1.794,2.498c0.459,0.919,0.766,1.912,0.88,2.922c-0.81-1.856-1.752-3.577-3.085-5.034
					c-1.327-1.448-2.954-2.638-4.79-3.465L7.401,94.688z"/>
				<path opacity="0.8" fill="#FFFFFF" d="M13.745,95.313c-0.621-0.73-1.68-1.456-2.866-2.004c-0.495,1.612-1.254,2.424-1.254,2.424
					c0.239-0.846,0.339-1.922,0.379-2.781c-2.313-0.848-4.819-0.914-5.478,0.986c-0.337,0.973-0.229,1.678,0.141,2.229
					c0.737-0.37,1.969-0.849,3.766-1.066c-1.455,0.527-2.513,1.267-3.098,1.742c1.028,0.77,2.633,1.217,3.817,1.971
					c0.603,0.385,1.109,0.709,1.567,0.965l2.296-1.105l0.268,0.348l-1.586,1.209c0.724,0.23,1.368,0.156,2.155-0.373
					C13.85,99.856,15.682,97.595,13.745,95.313z"/>
			</g>
		</g>

		<g id="Layer_11">
			<g opacity="0.15">
				<path fill="#FFFFFF" d="M41.406,97.218c-0.893,1.879-1.971,3.666-3.179,5.365c-1.222,1.675-2.543,3.359-4.347,4.484l-0.127-0.146
					c1.31-1.61,2.663-3.119,3.932-4.745c1.269-1.619,2.49-3.282,3.694-4.974L41.406,97.218z"/>
				<path opacity="0.8" fill="#FFFFFF" d="M36.252,104.506c0,0,1.223,0.803,3.248,0.04c-1.031-0.097-2.788-0.585-2.788-0.585
					l0.313-0.383c0,0,2.005,0.408,3.411,0.232c1.417-1.372,2.483-3.231,2.797-4.508c-1.059,0.275-3.341,0.191-3.341,0.191
					s2.612-0.26,3.321-0.639c0.42-1.239,0.196-2.473-1.211-3.043s-2.144,1.24-3.138,2.011s-1.75,1.373-1.75,1.373l1.846,1.929
					l-2.319-1.551l-1.935,1.462l1.733,2.94c0,0-1.586-1.287-2.218-2.275C34.152,103.99,36.252,104.506,36.252,104.506z"/>
			</g>
			<g opacity="0.15">
				<path fill="#FFFFFF" d="M109.559,96.492c1.991,0.13,3.972,0.159,5.944,0.135c1.972-0.025,3.936-0.125,5.878-0.34
					c1.945-0.198,3.862-0.556,5.741-1.019c1.888-0.45,3.729-1.007,5.623-1.685l0.093,0.154c-1.516,1.369-3.411,2.272-5.353,2.864
					c-1.956,0.577-3.978,0.852-5.988,1.001c-2.015,0.131-4.031,0.099-6.029-0.083C113.472,97.333,111.488,97.014,109.559,96.492z"/>
				<path opacity="0.8" fill="#FFFFFF" d="M112.035,100.688c-2.722-0.342-6.628-3.037-5.48-5.255c0.167-0.322,0.368-0.576,0.587-0.796
					c0.676,0.63,1.345,1.04,1.345,1.04s-0.442-0.707-0.821-1.473c0.462-0.286,0.997-0.436,1.576-0.511
					c0.286,0.621,0.613,1.041,0.613,1.041c-0.114-0.302-0.155-0.723-0.169-1.081c0.938-0.063,8.212-0.389,8.212-0.389
					s1.303,2.179,3.488,3.686c-1.016-1.467-2.395-3.917-2.395-3.917s0.936-0.411,2.313-0.807c1.056,0.851,3.007,2.514,3.812,3.796
					c0,0-0.911-2.487-2.402-4.15c0.24-0.052,0.493-0.095,0.744-0.139c0.452,0.143,1.116,0.474,1.772,1.27
					c1.142,1.383,1.542,2.646,1.542,2.646s-0.383-2.138-1.665-3.683c1.593,0.979,2.218,3.965,2.218,3.965
					c0.074,4.008-2.562,5.988-2.562,5.988s0.537-2.544,0.178-5.322c-0.177,2.521-1.485,5.264-1.485,5.264
					c-1.576,0.27-3.516,0.165-5.418-0.086l-0.08-1.773l-0.554,1.683c-1.402,0.172-3.031,0.072-4.219-0.2
					c0.202-1.521-0.129-4.725-0.129-4.725S112.648,99.588,112.035,100.688z"/>
			</g>
			<g opacity="0.15">
				<path fill="#FFFFFF" d="M99.999,89.185c0.367,1.367,0.448,2.827,0.169,4.245c-0.26,1.419-0.969,2.796-2.095,3.77
					c-1.085,0.979-2.464,1.614-3.876,1.898c-1.412,0.303-2.876,0.293-4.263-0.021l0.01-0.064c1.406,0.003,2.791-0.163,4.12-0.487
					c1.319-0.351,2.59-0.894,3.62-1.782c1.015-0.867,1.712-2.088,2.053-3.41c0.329-1.328,0.385-2.745,0.19-4.13L99.999,89.185z"/>
				<path opacity="0.8" fill="#FFFFFF" d="M96.046,98.066c0,0,2.683,1.327,1.996,3.752c0.229-2.17-2.849-3.314-2.849-3.314
					L96.046,98.066z"/>
				<path opacity="0.8" fill="#FFFFFF" d="M96.046,98.066c3.106,1.989,5.253,0.99,6.449-2.993c-1.027-0.398-2.361-1.007-2.624-1.393
					c1.043,0.358,2.075,0.539,2.83,0.631c0.019-0.076,0.04-0.145,0.057-0.221c0.054-0.226,0.09-0.445,0.127-0.666l-1.455-0.264
					l1.518-0.176c0.107-0.89,0.075-1.719-0.054-2.466c-0.661,0.332-1.676,0.744-2.837,0.853c1.189-0.363,2.169-1.17,2.659-1.625
					c-0.676-2.312-2.413-3.533-4.101-2.552c-0.248,0.145-0.458,0.31-0.648,0.486c1.772,1.423,2.162,2.601,2.162,2.601
					c-1.05-1.241-1.935-1.906-2.493-2.252c-1.24,1.514-1.085,3.822-1.996,5.627c0.86,1.973,2.044,3.358,2.044,3.358l-0.304,0.366
					c0,0-1.328-1.504-2.173-3.003c-1.495,2.176-0.014,4.125-0.014,4.125S95.712,98.237,96.046,98.066z"/>
			</g>
			<g opacity="0.15">
				<path fill="#FFFFFF" d="M113.055,88.848c-1.611,1.098-3.24,2.124-4.84,3.193c-1.606,1.063-3.179,2.148-4.743,3.298l-0.101-0.107
					c1.261-1.505,2.836-2.706,4.467-3.767c0.823-0.521,1.662-1.021,2.534-1.455c0.868-0.441,1.75-0.856,2.673-1.182L113.055,88.848z"/>
				<path opacity="0.8" fill="#FFFFFF" d="M116.324,87.521c-0.268-0.726-0.855-1.164-1.616-1.364c-0.632,0.736-1.495,1.813-2.226,3.001
					c0.336-1.298,0.852-2.365,1.296-3.13c-1.217-0.034-2.668,0.372-3.971,1.102c-0.986,0.552-1.821,1.188-2.423,1.88
					c0.198,1.567,0.728,2.643,0.728,2.643c-0.665-0.784-1.058-1.414-1.287-1.863c-0.528,0.914-0.641,1.896-0.161,2.888
					c0.877,1.813,3.343,2.247,5.937,0.154c0.166-0.135,0.319-0.256,0.478-0.383c-0.83-0.718-1.872-1.598-2.524-2.06
					c0,0,1.622,0.881,2.872,1.783c0.919-0.732,1.707-1.364,2.251-1.984c-0.878-0.229-2.384-0.534-4.085-0.508
					c0,0,1.976-0.656,4.619-0.253C116.519,88.843,116.587,88.233,116.324,87.521z"/>
			</g>
			<g opacity="0.15">
				<path fill="#FFFFFF" d="M14.957,97.868c3.06,0.304,6.06,1.063,8.959,2.097c2.885,1.043,5.73,2.409,8.033,4.488
					c-2.789-1.306-5.532-2.509-8.363-3.603c-2.831-1.079-5.711-2.036-8.634-2.965L14.957,97.868z"/>
				<path opacity="0.8" fill="#FFFFFF" d="M12.477,98.568c-0.1-0.262-0.147-0.551-0.125-0.885c0.11-1.659,2.449-2.404,5.101-2.423
					l0.659,3.279l0.308-3.254c0.821,0.047,1.649,0.155,2.431,0.327c0.523,0.115,1.003,0.233,1.457,0.352
					c-0.084,0.647-0.187,1.615-0.187,1.615l0.638-1.493c2.43,0.665,3.752,1.287,3.752,1.287s0.581,2.366-0.086,4.265
					c0.441,0.031,0.441,0.031,0.441,0.031s-0.254-2.607,2.086-3.049c-1.133,1.592-1.486,3.338-1.486,3.338
					c-0.99,1.791-2.027,2.089-5.032,1.115l0.985-2.912l-0.648-0.108l-0.995,2.799c-0.516-0.181-1.083-0.392-1.708-0.632
					c-3.554-1.368-6.087-1.897-7.154-2.986c0.259-0.286,0.593-0.67,0.901-1.077C13.255,98.296,12.798,98.449,12.477,98.568z"/>
			</g>
			<g opacity="0.15">
				<path fill="#FFFFFF" d="M3.733,100.001c1.011,0.003,2.023,0.196,2.992,0.512c0.975,0.304,1.91,0.747,2.773,1.306
					c0.86,0.563,1.654,1.235,2.314,2.024c0.657,0.791,1.181,1.688,1.521,2.646c-1.211-1.624-2.52-3.086-4.149-4.201
					c-1.621-1.107-3.477-1.896-5.452-2.284V100.001z"/>
				<path opacity="0.8" fill="#FFFFFF" d="M10.053,99.168c-0.771-0.57-1.967-1.036-3.247-1.3c-0.115,1.683-0.67,2.646-0.67,2.646
					c0.04-0.878-0.107-1.949-0.263-2.795c-2.446-0.3-4.901,0.206-5.11,2.206c-0.107,1.023,0.158,1.687,0.644,2.139
					c0.634-0.528,1.724-1.274,3.424-1.896c-1.297,0.845-2.159,1.805-2.621,2.401c1.176,0.516,2.84,0.586,4.165,1.051
					c0.674,0.238,1.241,0.438,1.746,0.584l1.984-1.599l0.34,0.277l-1.27,1.538c0.757,0.06,1.368-0.159,2.013-0.854
					C11.188,103.567,12.458,100.948,10.053,99.168z"/>
			</g>
		</g>

		<g id="Layer_12"></g>
	</defs>
</svg>
