<svg width="174" height="174" viewBox="0 0 174 174" fill="none" xmlns="http://www.w3.org/2000/svg">
<g filter="url(#filter0_d)">
<circle cx="87" cy="87" r="67" fill="#252B3B"/>
</g>
<circle cx="89" cy="88" r="55" fill="#252B3B"/>
<path d="M81.454 19.25L82.6064 32.8076C84.1274 32.6805 85.6611 32.6 87.2117 32.6C88.7624 32.6 90.2961 32.6805 91.8171 32.8076L92.9695 19.2712C91.0714 19.0904 89.1522 19 87.2117 19C85.2713 19 83.352 19.0833 81.454 19.25Z" fill="#52D614"/>
<path d="M87.2117 47.4329C88.3429 47.4329 89.453 47.488 90.5588 47.5812L91.8298 32.7864C90.3088 32.6593 88.7793 32.5788 87.2244 32.5788C85.6695 32.5788 84.1401 32.6593 82.6191 32.7864L83.8901 47.5812C84.9705 47.4922 86.0847 47.4329 87.2117 47.4329Z" fill="#1D222E"/>
<path d="M80.5476 48.0006C81.6576 47.81 82.7634 47.6786 83.865 47.5769L82.5939 32.7822C81.0772 32.9135 79.5519 33.0957 78.0225 33.3584C76.493 33.621 74.9932 33.9557 73.5188 34.3413L77.2599 48.7081C78.3445 48.437 79.4333 48.1913 80.5476 48.0006Z" fill="#1D222E"/>
<path d="M74.0776 49.6826C75.141 49.3098 76.1959 48.992 77.2805 48.7124L73.5395 34.3456C72.0651 34.7269 70.5738 35.1632 69.129 35.6801C67.6843 36.197 66.2438 36.7859 64.8541 37.413L70.972 50.9409C71.9592 50.4876 73.0057 50.0597 74.0776 49.6826Z" fill="#1D222E"/>
<path d="M67.9683 52.4408C68.9555 51.89 69.9554 51.3985 70.9637 50.941L64.8459 37.413C63.4604 38.04 62.0835 38.7179 60.7277 39.4763C59.372 40.2347 58.0713 41.0481 56.8087 41.904L65.1212 54.1906C66.0279 53.5847 66.9854 52.9916 67.9683 52.4408Z" fill="#1D222E"/>
<path d="M62.4223 56.1861C63.3036 55.4785 64.206 54.8261 65.1211 54.2033L56.8086 41.9167C55.5376 42.764 54.3047 43.6707 53.093 44.6451C51.8813 45.6196 50.7416 46.6449 49.64 47.6998L59.9184 58.4019C60.7149 57.6435 61.5453 56.8978 62.4223 56.1861Z" fill="#1D222E"/>
<path d="M57.5927 60.8168C58.3383 59.9695 59.1179 59.173 59.9186 58.4061L49.6403 47.6871C48.5429 48.7421 47.471 49.8394 46.4457 51.0045C45.4204 52.1696 44.4672 53.3771 43.5563 54.6015L55.4955 63.4309C56.1564 62.5412 56.847 61.6642 57.5927 60.8168Z" fill="#1D222E"/>
<path d="M53.6141 66.1975C54.203 65.2358 54.8385 64.3206 55.4952 63.4309L43.573 54.5888C42.6706 55.8132 41.7978 57.0758 40.9843 58.4019C40.1709 59.728 39.4337 61.071 38.7473 62.4353L52.0041 69.1166C52.4702 68.1464 53.021 67.1592 53.6141 66.1975Z" fill="#1D222E"/>
<path d="M50.5977 72.1713C51.0214 71.1249 51.4917 70.1165 51.9874 69.1251L38.7306 62.4437C38.0442 63.8037 37.4002 65.1976 36.8198 66.6339C36.2394 68.0701 35.7437 69.5318 35.2946 70.9893L49.5047 75.3489C49.8182 74.277 50.1783 73.2305 50.5977 72.1713Z" fill="#1D222E"/>
<path d="M48.6572 78.5731C48.8944 77.4673 49.1868 76.3912 49.5045 75.3362L35.3071 70.9893C34.8835 72.4467 34.4598 73.9254 34.1336 75.4421C33.8073 76.9589 33.5616 78.4756 33.3667 79.9882L48.0937 81.8735C48.2335 80.7762 48.403 79.6746 48.6572 78.5731Z" fill="#1D222E"/>
<path d="M47.8101 85.2121C47.8567 84.0851 47.9627 82.9751 48.1025 81.8735L33.3543 80.0093C33.1637 81.5219 33.0196 83.0513 32.9518 84.602C32.884 86.1526 32.901 87.6864 32.9518 89.2116L47.7805 88.5803C47.7508 87.4533 47.7423 86.3391 47.8101 85.2121Z" fill="#1D222E"/>
<path d="M48.0728 91.8977C47.9287 90.7792 47.8483 89.6649 47.7974 88.5591L32.9688 89.1904C33.0323 90.7156 33.1509 92.2451 33.3458 93.783C33.5407 95.321 33.8161 96.8335 34.1381 98.3249L48.6575 95.1981C48.416 94.1135 48.2338 93.0162 48.0728 91.8977Z" fill="#1D222E"/>
<path d="M49.5045 98.4393C49.174 97.3631 48.9028 96.2785 48.6571 95.1981L34.142 98.3249C34.464 99.8162 34.8368 101.291 35.2901 102.786C35.7435 104.282 36.2688 105.714 36.8365 107.129L50.6145 101.591C50.1951 100.566 49.8137 99.4985 49.5045 98.4393Z" fill="#1D222E"/>
<path d="M51.9789 104.65C51.4705 103.642 51.0214 102.621 50.6062 101.591L36.8282 107.125C37.4002 108.54 38.0145 109.942 38.7136 111.332C39.4127 112.721 40.1753 114.052 40.976 115.348L53.6185 107.565C53.0381 106.625 52.4704 105.654 51.9789 104.65Z" fill="#1D222E"/>
<path d="M55.4869 110.345C54.8132 109.442 54.2158 108.51 53.6185 107.569L40.976 115.352C41.7767 116.653 42.6198 117.933 43.5434 119.165C44.467 120.398 45.4415 121.602 46.4498 122.746L57.5968 112.933C56.868 112.116 56.1563 111.255 55.4869 110.345Z" fill="#1D222E"/>
<path d="M59.9059 115.369C59.0924 114.594 58.3298 113.781 57.5969 112.946L46.45 122.758C47.4583 123.902 48.509 125.021 49.6318 126.093C50.7545 127.164 51.9111 128.173 53.0974 129.13L62.4183 117.577C61.5667 116.869 60.7236 116.153 59.9059 115.369Z" fill="#1D222E"/>
<path d="M65.1128 119.576C64.1807 118.945 63.291 118.272 62.4267 117.577L53.1058 129.13C54.2964 130.088 55.5166 131.011 56.8045 131.88C58.0925 132.749 59.4059 133.545 60.7362 134.286L67.9811 121.322C67.0024 120.784 66.0491 120.208 65.1128 119.576Z" fill="#1D222E"/>
<path d="M70.9552 122.839C69.9299 122.377 68.9385 121.864 67.9895 121.322L60.7446 134.286C62.075 135.028 63.4392 135.735 64.8543 136.375C66.2694 137.015 67.6972 137.574 69.1377 138.07L74.0777 124.072C73.0228 123.712 71.9848 123.305 70.9552 122.839Z" fill="#1D222E"/>
<path d="M77.2683 125.067C76.1752 124.788 75.1118 124.449 74.0653 124.08L69.121 138.083C70.5572 138.587 72.0189 139.053 73.523 139.443C75.027 139.832 76.5311 140.142 78.0351 140.4L80.5433 125.766C79.4502 125.58 78.3571 125.343 77.2683 125.067Z" fill="#1D222E"/>
<path d="M83.8606 126.19C82.7379 126.097 81.6321 125.944 80.5433 125.766L78.0351 140.4C79.5349 140.659 81.0559 140.866 82.6023 141.002C84.1487 141.137 85.6825 141.18 87.2077 141.184V126.334C86.1019 126.334 84.9834 126.296 83.8606 126.19Z" fill="#1D222E"/>
<path d="M90.5545 126.19C89.4318 126.292 88.3133 126.326 87.2075 126.326V141.175C88.7327 141.175 90.2664 141.125 91.8128 140.993C93.3592 140.862 94.8802 140.65 96.3843 140.392L93.8719 125.766C92.783 125.953 91.6772 126.105 90.5545 126.19Z" fill="#1D222E"/>
<path d="M97.1471 125.067C96.0583 125.355 94.9652 125.58 93.8721 125.766L96.3845 140.4C97.8886 140.146 99.3884 139.837 100.892 139.447C102.396 139.057 103.858 138.6 105.299 138.083L100.346 124.072C99.3079 124.449 98.2275 124.788 97.1471 125.067Z" fill="#1D222E"/>
<path d="M103.46 122.839C102.435 123.309 101.392 123.712 100.35 124.08L105.299 138.083C106.735 137.574 108.163 137.015 109.578 136.388C110.993 135.761 112.353 135.045 113.687 134.303L106.447 121.339C105.481 121.864 104.485 122.377 103.46 122.839Z" fill="#1D222E"/>
<path d="M109.302 119.576C108.37 120.212 107.412 120.784 106.446 121.326L113.687 134.291C115.017 133.545 116.331 132.753 117.619 131.884C118.907 131.016 120.131 130.092 121.317 129.13L111.997 117.581C111.128 118.276 110.234 118.949 109.302 119.576Z" fill="#1D222E"/>
<path d="M114.509 115.374C113.696 116.157 112.852 116.886 111.988 117.581L121.309 129.13C122.495 128.177 123.656 127.173 124.779 126.101C125.902 125.029 126.948 123.906 127.961 122.758L116.81 112.95C116.089 113.781 115.322 114.594 114.509 115.374Z" fill="#1D222E"/>
<path d="M118.928 110.349C118.263 111.26 117.551 112.12 116.81 112.95L127.969 122.758C128.973 121.619 129.948 120.432 130.871 119.187C131.795 117.941 132.642 116.645 133.443 115.374L120.796 107.591C120.22 108.514 119.602 109.446 118.928 110.349Z" fill="#1D222E"/>
<path d="M122.436 104.655C121.932 105.659 121.377 106.629 120.796 107.574L133.443 115.357C134.244 114.06 135.002 112.726 135.701 111.34C136.4 109.955 137.019 108.548 137.591 107.133L123.809 101.617C123.398 102.625 122.944 103.646 122.436 104.655Z" fill="#1D222E"/>
<path d="M124.919 98.4435C124.589 99.5196 124.207 100.562 123.792 101.6L137.591 107.125C138.159 105.71 138.68 104.269 139.138 102.786C139.595 101.303 139.964 99.8204 140.286 98.3164L125.766 95.2024C125.538 96.2828 125.266 97.3801 124.919 98.4435Z" fill="#1D222E"/>
<path d="M126.347 91.9019C126.203 93.0204 126.004 94.1177 125.771 95.2024L140.286 98.3248C140.608 96.8377 140.879 95.3295 141.078 93.7873C141.277 92.2451 141.387 90.7199 141.455 89.1904L126.627 88.5634C126.571 89.6691 126.491 90.7834 126.347 91.9019Z" fill="#1D222E"/>
<path d="M126.614 85.2163C126.66 86.3433 126.652 87.4576 126.614 88.5634L141.442 89.1904C141.51 87.6736 141.523 86.1357 141.442 84.585C141.362 83.0344 141.231 81.5092 141.04 79.9924L126.313 81.882C126.478 82.9751 126.584 84.0893 126.614 85.2163Z" fill="#1D222E"/>
<path d="M125.766 78.5773C126.004 79.6789 126.19 80.7804 126.326 81.882L141.065 80.0093C140.875 78.4968 140.642 76.9843 140.298 75.4675C139.955 73.9508 139.57 72.4679 139.125 71.0062L124.919 75.3489C125.254 76.3954 125.542 77.4673 125.766 78.5773Z" fill="#1D222E"/>
<path d="M123.822 72.1798C124.246 73.2263 124.606 74.2982 124.928 75.3404L139.125 70.9893C138.701 69.5318 138.18 68.0829 137.604 66.6424C137.028 65.2019 136.38 63.8122 135.689 62.4437L122.436 69.1336C122.932 70.1207 123.402 71.1333 123.822 72.1798Z" fill="#1D222E"/>
<path d="M120.809 66.2017C121.402 67.1635 121.936 68.1422 122.436 69.1336L135.689 62.4437C135.007 61.0837 134.269 59.7364 133.456 58.4146C132.642 57.0927 131.761 55.8301 130.863 54.6015L118.928 63.4351C119.585 64.3333 120.22 65.2442 120.809 66.2017Z" fill="#1D222E"/>
<path d="M116.831 60.821C117.577 61.6684 118.267 62.5454 118.928 63.4351L130.851 54.5888C129.944 53.3643 128.991 52.1611 127.97 50.996C126.949 49.8309 125.851 48.7336 124.767 47.6786L114.509 58.4019C115.306 59.1772 116.085 59.9779 116.831 60.821Z" fill="#1D222E"/>
<path d="M111.997 56.1903C112.878 56.8978 113.692 57.6435 114.509 58.4103L124.779 47.6913C123.682 46.6364 122.538 45.6111 121.331 44.6366C120.123 43.6622 118.878 42.7598 117.615 41.9039L109.302 54.1905C110.218 54.826 111.124 55.4827 111.997 56.1903Z" fill="#1D222E"/>
<path d="M106.455 52.445C107.438 52.9915 108.383 53.5889 109.302 54.2075L117.615 41.9209C116.344 41.0735 115.051 40.2516 113.7 39.4932C112.348 38.7348 110.967 38.0612 109.573 37.4299L103.464 50.9452C104.468 51.3985 105.472 51.8942 106.455 52.445Z" fill="#1D222E"/>
<path d="M100.346 49.6868C101.409 50.0639 102.438 50.4876 103.451 50.9579L109.56 37.4257C108.175 36.7986 106.756 36.2139 105.29 35.6971C103.824 35.1802 102.358 34.7438 100.879 34.3582L97.1425 48.7293C98.2271 48.992 99.2948 49.3098 100.346 49.6868Z" fill="#1D222E"/>
<path d="M93.8804 48.0006C94.9947 48.1912 96.0793 48.4243 97.1554 48.7166L100.892 34.3455C99.4179 33.96 97.9265 33.6253 96.3928 33.3626C94.8591 33.0999 93.3381 32.9389 91.8171 32.7906L90.5461 47.5811C91.6603 47.6786 92.7704 47.8099 93.8804 48.0006Z" fill="#1D222E"/>
<path d="M70.1081 21.1947L73.5314 34.3286C75.0058 33.9431 76.4971 33.6041 78.0351 33.3457C79.573 33.0872 81.0898 32.9008 82.6065 32.7695L81.4584 19.2119C79.5575 19.3785 77.6509 19.6228 75.7387 19.9448C73.8266 20.2668 71.9497 20.6834 70.1081 21.1947Z" fill="#1D222E"/>
<path d="M49.1995 30.6426L56.8256 41.9039C58.0967 41.0566 59.3677 40.2092 60.7446 39.4763C62.1216 38.7433 63.4773 38.04 64.8628 37.413L59.2491 25.0289C57.512 25.817 55.7961 26.6813 54.1014 27.6218C52.4067 28.5624 50.7727 29.5693 49.1995 30.6426Z" fill="#1D222E"/>
<path d="M32.634 46.5389L43.5733 54.5888C44.4842 53.3643 45.4375 52.1569 46.4628 50.9917C47.4881 49.8266 48.56 48.7293 49.6573 47.6744L40.239 37.879C38.8663 39.1952 37.5374 40.5806 36.2522 42.0352C34.9727 43.4927 33.7695 44.9925 32.634 46.5389Z" fill="#1D222E"/>
<path d="M22.3004 67.0067L35.2946 70.9893C35.7437 69.5318 36.2394 68.0786 36.8198 66.6339C37.4002 65.1892 38.0442 63.8037 38.7306 62.4437L26.5965 56.3259C25.7491 58.0206 24.9442 59.7746 24.2197 61.5752C23.4952 63.3758 22.8639 65.1807 22.3004 67.0067Z" fill="#1D222E"/>
<path d="M19.3855 89.7539L32.9812 89.1904C32.9177 87.6652 32.9007 86.1314 32.9812 84.5808C33.0617 83.0301 33.1931 81.5007 33.3837 79.9881L19.9066 78.2638C19.6665 80.1534 19.5027 82.067 19.4151 84.0046C19.305 85.9408 19.3092 87.8643 19.3855 89.7539Z" fill="#1D222E"/>
<path d="M24.2195 112.209L36.8281 107.125C36.2604 105.71 35.735 104.269 35.2817 102.782C34.8284 101.295 34.4343 99.8162 34.1335 98.3206L20.847 101.193C21.2707 103.057 21.7325 104.917 22.3003 106.773C22.868 108.629 23.512 110.429 24.2195 112.209Z" fill="#1D222E"/>
<path d="M36.2518 131.736L46.4496 122.758C45.4413 121.614 44.4711 120.428 43.5432 119.178C42.6154 117.928 41.7765 116.636 40.9757 115.365L29.4052 122.479C30.405 124.097 31.4798 125.689 32.6293 127.253C33.7789 128.818 34.9864 130.312 36.2518 131.736Z" fill="#1D222E"/>
<path d="M54.1015 146.149L60.7278 134.286C59.3974 133.545 58.084 132.749 56.7961 131.88C55.5081 131.011 54.2879 130.088 53.0974 129.13L44.5603 139.701C46.0432 140.896 47.5896 142.044 49.1953 143.129C50.8011 144.213 52.4407 145.222 54.1015 146.149Z" fill="#1D222E"/>
<path d="M75.7342 153.797L78.0348 140.4C76.5307 140.142 75.0267 139.832 73.5226 139.443C72.0186 139.053 70.5569 138.595 69.1206 138.083L64.5916 150.89C66.3879 151.526 68.2239 152.091 70.0993 152.585C71.9805 153.068 73.8616 153.471 75.7342 153.797Z" fill="#1D222E"/>
<path d="M98.6806 153.797L96.3843 140.4C94.8802 140.659 93.3592 140.866 91.8128 141.002C90.2664 141.137 88.7327 141.184 87.2075 141.184V154.771C89.1084 154.771 91.0276 154.691 92.9652 154.53C94.8972 154.364 96.8037 154.115 98.6806 153.797Z" fill="#1D222E"/>
<path d="M120.313 146.154L113.687 134.291C112.352 135.032 110.992 135.735 109.577 136.375C108.162 137.015 106.735 137.574 105.298 138.07L109.819 150.882C111.615 150.246 113.399 149.535 115.17 148.734C116.941 147.933 118.653 147.077 120.313 146.154Z" fill="#1D222E"/>
<path d="M138.163 131.736L127.969 122.758C126.957 123.906 125.906 125.025 124.788 126.101C123.669 127.177 122.504 128.177 121.318 129.13L129.851 139.722C131.333 138.527 132.777 137.256 134.181 135.909C135.579 134.558 136.905 133.164 138.163 131.736Z" fill="#1D222E"/>
<path d="M150.195 112.209L137.591 107.125C137.019 108.54 136.401 109.942 135.701 111.332C135.002 112.721 134.244 114.052 133.443 115.348L145.014 122.474C146.008 120.85 146.944 119.174 147.823 117.445C148.701 115.717 149.492 113.971 150.195 112.209Z" fill="#1D222E"/>
<path d="M155.034 89.7539L141.442 89.1904C141.374 90.7199 141.26 92.2493 141.065 93.7873C140.87 95.3252 140.595 96.8378 140.273 98.3249L153.568 101.193C153.969 99.3346 154.294 97.4408 154.542 95.5117C154.791 93.5825 154.955 91.6633 155.034 89.7539Z" fill="#1D222E"/>
<path d="M152.119 67.0152L139.125 70.9893C139.57 72.451 139.972 73.9296 140.298 75.4506C140.625 76.9716 140.874 78.4799 141.065 79.9924L154.542 78.268C154.302 76.3784 153.979 74.4846 153.572 72.5865C153.165 70.6885 152.681 68.8314 152.119 67.0152Z" fill="#1D222E"/>
<path d="M141.79 46.5389L130.85 54.5888C131.757 55.8174 132.626 57.08 133.443 58.4019C134.261 59.7237 134.994 61.071 135.676 62.431L147.814 56.3174C146.967 54.6227 146.029 52.9449 145.001 51.2841C143.984 49.6445 142.917 48.0557 141.79 46.5389Z" fill="#1D222E"/>
<path d="M125.224 30.6469L117.598 41.9039C118.869 42.7513 120.102 43.6622 121.314 44.6366C122.525 45.6111 123.665 46.6364 124.762 47.6913L134.168 37.879C132.792 36.5628 131.351 35.2918 129.842 34.0659C128.334 32.8401 126.795 31.7004 125.224 30.6469Z" fill="#1D222E"/>
<path d="M104.316 21.1989L100.892 34.3329C102.371 34.7184 103.858 35.1548 105.303 35.6717C106.747 36.1886 108.188 36.7732 109.573 37.4003L115.174 25.0332C113.437 24.2451 111.655 23.5277 109.828 22.8809C108 22.2341 106.163 21.6734 104.316 21.1989Z" fill="#1D222E"/>
<path d="M59.2491 25.0289L64.8459 37.413C66.2356 36.7859 67.6549 36.197 69.1208 35.6801C70.5867 35.1633 72.0569 34.7269 73.5313 34.3456L70.108 21.2116C68.265 21.6946 66.4262 22.2496 64.6002 22.9063C62.7741 23.563 60.9862 24.2451 59.2491 25.0289Z" fill="#D82444"/>
<path d="M40.2389 37.879L49.6403 47.6871C50.7418 46.6322 51.8857 45.6069 53.0932 44.6324C54.3007 43.658 55.5463 42.7555 56.8089 41.9039L49.1827 30.6426C47.6066 31.7103 46.056 32.85 44.5477 34.0702C43.0394 35.2904 41.6158 36.5614 40.2389 37.879Z" fill="#D82444"/>
<path d="M26.5967 56.3259L38.7308 62.4437C39.4171 61.0795 40.1543 59.7322 40.9678 58.4103C41.7812 57.0885 42.6625 55.8259 43.5564 54.5973L32.6341 46.5389C31.5043 48.0726 30.4281 49.6643 29.4057 51.3138C28.3832 52.9633 27.4469 54.634 26.5967 56.3259Z" fill="#D82444"/>
<path d="M19.8768 78.2638L33.354 80.0094C33.5489 78.4968 33.7776 76.9843 34.1208 75.4633C34.464 73.9423 34.8495 72.4679 35.2944 71.0105L22.3045 67.0279C21.7396 68.8497 21.2538 70.7083 20.847 72.6035C20.4403 74.5016 20.1226 76.3742 19.8768 78.2638Z" fill="#D82444"/>
<path d="M20.8472 101.193L34.1337 98.3291C33.8117 96.8378 33.5406 95.3295 33.3414 93.7873C33.1423 92.2451 33.0279 90.7199 32.9644 89.1946L19.4067 89.7708C19.4915 91.6731 19.6482 93.5839 19.894 95.5117C20.1397 97.4394 20.4532 99.3247 20.8472 101.193Z" fill="#D82444"/>
<path d="M29.4053 122.479L40.9759 115.352C40.1751 114.056 39.4167 112.721 38.7134 111.336C38.0101 109.951 37.4 108.544 36.8281 107.129L24.2195 112.209C24.9313 113.974 25.7221 115.725 26.5921 117.462C27.462 119.199 28.3998 120.871 29.4053 122.479Z" fill="#D82444"/>
<path d="M44.5603 139.701L53.0974 129.13C51.9111 128.173 50.7545 127.169 49.6317 126.093C48.509 125.016 47.4583 123.902 46.4499 122.758L36.2478 131.732C37.5104 133.164 38.8393 134.552 40.2346 135.896C41.6299 137.241 43.0718 138.509 44.5603 139.701Z" fill="#D82444"/>
<path d="M64.592 150.89L69.1211 138.083C67.6806 137.574 66.2528 137.011 64.8378 136.388C63.4227 135.765 62.0584 135.041 60.7281 134.299L54.1018 146.162C55.7626 147.089 57.4771 147.954 59.2452 148.759C61.0134 149.564 62.7956 150.275 64.592 150.89Z" fill="#D82444"/>
<path d="M87.2119 154.771V141.184C85.6866 141.184 84.1529 141.129 82.6065 141.002C81.0601 140.875 79.5391 140.659 78.0393 140.4L75.7387 153.793C77.617 154.115 79.5221 154.359 81.4541 154.525C83.3988 154.691 85.3053 154.767 87.2119 154.771Z" fill="#D82444"/>
<path d="M109.823 150.895L105.298 138.083C103.858 138.591 102.392 139.053 100.892 139.447C99.3923 139.841 97.8882 140.146 96.3842 140.4L98.6762 153.797C100.557 153.475 102.436 153.069 104.311 152.581C106.188 152.094 108.027 151.526 109.823 150.895Z" fill="#D82444"/>
<path d="M129.85 139.705L121.318 129.113C120.131 130.075 118.903 130.999 117.619 131.867C116.335 132.736 115.018 133.528 113.687 134.274L120.313 146.137C121.974 145.21 123.611 144.203 125.224 143.116C126.837 142.028 128.379 140.892 129.85 139.705Z" fill="#D82444"/>
<path d="M145.01 122.483L133.443 115.357C132.642 116.657 131.795 117.933 130.872 119.17C129.948 120.407 128.973 121.602 127.969 122.741L138.163 131.723C139.426 130.291 140.634 128.797 141.79 127.241C142.945 125.684 144.018 124.098 145.01 122.483Z" fill="#D82444"/>
<path d="M153.568 101.193L140.286 98.3249C139.964 99.8204 139.591 101.291 139.137 102.795C138.684 104.299 138.159 105.718 137.591 107.133L150.2 112.217C150.906 110.446 151.546 108.634 152.119 106.781C152.687 104.913 153.165 103.053 153.568 101.193Z" fill="#D82444"/>
<path d="M154.542 78.268L141.065 80.0093C141.256 81.5261 141.404 83.0513 141.468 84.602C141.531 86.1526 141.523 87.6906 141.468 89.2074L155.046 89.792C155.123 87.8855 155.127 85.9789 155.046 84.0258C154.966 82.0726 154.784 80.1576 154.542 78.268Z" fill="#D82444"/>
<path d="M147.823 56.3301L135.689 62.4437C136.379 63.8122 137.023 65.2019 137.604 66.6424C138.184 68.0829 138.68 69.5319 139.125 70.9893L152.119 67.0152C151.554 65.1934 150.914 63.3815 150.2 61.5795C149.492 59.7788 148.679 58.029 147.823 56.3301Z" fill="#D82444"/>
<path d="M134.181 37.8833L124.779 47.6914C125.881 48.7463 126.953 49.8436 127.982 51.0088C129.012 52.1739 129.957 53.3771 130.863 54.6015L141.79 46.539C140.66 45.0053 139.454 43.5097 138.172 42.0522C136.889 40.5948 135.559 39.2051 134.181 37.8833Z" fill="#D82444"/>
<path d="M115.174 25.0331L109.573 37.413C110.967 38.0442 112.34 38.7221 113.7 39.4763C115.06 40.2304 116.352 41.0481 117.615 41.9039L125.241 30.6468C123.659 29.5792 122.022 28.5723 120.33 27.626C118.639 26.6798 116.92 25.8155 115.174 25.0331Z" fill="#D82444"/>
<path d="M92.9695 19.25L91.8171 32.8076C93.3381 32.939 94.8591 33.1169 96.3928 33.3796C97.9265 33.6423 99.4179 33.977 100.892 34.3625L104.32 21.2286C102.473 20.7498 100.6 20.3431 98.6849 20.0126C96.7699 19.6821 94.8676 19.4237 92.9695 19.25Z" fill="#D82444"/>
<path d="M103.841 86.8898C103.842 90.179 102.867 93.3945 101.041 96.1297C99.2139 98.865 96.617 100.997 93.5785 102.256C90.54 103.516 87.1962 103.846 83.9702 103.204C80.7442 102.563 77.7807 100.98 75.4546 98.6543C73.1286 96.3288 71.5444 93.3657 70.9024 90.1399C70.2604 86.914 70.5894 83.5702 71.8479 80.5313C73.1065 77.4925 75.2379 74.8951 77.9726 73.0676C80.7074 71.2402 83.9227 70.2648 87.2118 70.2648C91.6214 70.2648 95.8505 72.0162 98.969 75.1339C102.087 78.2516 103.84 82.4802 103.841 86.8898Z" fill="url(#paint0_linear)"/>
<path d="M102.68 86.8899C102.679 89.949 101.771 92.9393 100.071 95.4825C98.3709 98.0257 95.9548 100.008 93.1282 101.178C90.3017 102.348 87.1916 102.654 84.1913 102.056C81.191 101.459 78.4352 99.9854 76.2723 97.8219C74.1095 95.6585 72.6367 92.9023 72.0401 89.9018C71.4436 86.9013 71.7502 83.7914 72.9211 80.9651C74.092 78.1389 76.0746 75.7233 78.6183 74.0238C81.162 72.3243 84.1525 71.4172 87.2116 71.4172C89.2433 71.4172 91.2551 71.8175 93.1321 72.5951C95.0091 73.3727 96.7145 74.5125 98.151 75.9493C99.5874 77.3861 100.727 79.0918 101.504 80.969C102.281 82.8462 102.681 84.8582 102.68 86.8899Z" fill="#FFBA53"/>
<path d="M87.2116 96.4564C85.3183 96.4573 83.4673 95.8966 81.8927 94.8452C80.3181 93.7939 79.0907 92.2992 78.3658 90.5502C77.6409 88.8011 77.451 86.8764 77.8202 85.0195C78.1893 83.1625 79.101 81.4568 80.4397 80.118C81.7785 78.7792 83.4842 77.8676 85.3412 77.4985C87.1981 77.1293 89.1229 77.3192 90.8719 78.0441C92.6209 78.769 94.1156 79.9964 95.167 81.571C96.2183 83.1455 96.779 84.9965 96.7782 86.8898C96.777 89.4267 95.7688 91.8594 93.9749 93.6532C92.1811 95.447 89.7484 96.4553 87.2116 96.4564Z" fill="#F7931A"/>
<path style="mix-blend-mode:multiply" d="M105.006 118.988C104.339 118.169 103.928 117.172 103.826 116.121C103.725 115.07 103.936 114.013 104.434 113.082L88.1946 93.3213L91.3044 90.7792L107.548 110.535C108.469 110.252 109.45 110.225 110.386 110.456C111.322 110.687 112.177 111.168 112.861 111.847C113.545 112.526 114.031 113.378 114.268 114.313C114.505 115.247 114.484 116.228 114.208 117.151C113.931 118.074 113.408 118.905 112.696 119.554C111.984 120.204 111.108 120.647 110.164 120.838C109.219 121.029 108.24 120.959 107.332 120.637C106.423 120.315 105.619 119.752 105.006 119.009V118.988Z" fill="url(#paint1_linear)"/>
<path style="mix-blend-mode:multiply" d="M89.1691 83.492L108.925 67.2525C108.563 66.0732 108.621 64.8046 109.09 63.6637C109.56 62.5227 110.411 61.5804 111.499 60.9978C112.586 60.4152 113.842 60.2286 115.052 60.4699C116.262 60.7113 117.351 61.3655 118.132 62.3207C118.912 63.2759 119.337 64.4727 119.333 65.7065C119.329 66.9402 118.896 68.1341 118.109 69.0841C117.322 70.034 116.229 70.6809 115.017 70.914C113.806 71.1472 112.551 70.9521 111.467 70.3622L91.7112 86.5975L89.1691 83.492Z" fill="url(#paint2_linear)"/>
<path style="mix-blend-mode:multiply" d="M55.0803 114.115C54.3028 113.161 53.8799 111.968 53.8836 110.737C53.8873 109.506 54.3174 108.315 55.1007 107.366C55.884 106.417 56.972 105.768 58.1796 105.531C59.3871 105.294 60.6395 105.483 61.7236 106.065L81.4754 89.8301L84.0174 92.9357L64.2614 109.175C64.6259 110.353 64.5699 111.621 64.103 112.763C63.6361 113.904 62.7873 114.848 61.7016 115.433C60.6159 116.018 59.3607 116.207 58.1507 115.969C56.9407 115.731 55.8509 115.08 55.0676 114.128L55.0803 114.115Z" fill="url(#paint3_linear)"/>
<path style="mix-blend-mode:multiply" d="M59.9607 64.1808C59.3487 63.4352 58.951 62.5372 58.8099 61.583C58.6688 60.6287 58.7898 59.6541 59.1599 58.7633C59.53 57.8725 60.1352 57.099 60.9109 56.5256C61.6866 55.9522 62.6036 55.6005 63.5638 55.508C64.5239 55.4155 65.4912 55.5857 66.3621 56.0004C67.233 56.4152 67.9748 57.0589 68.5081 57.8627C69.0414 58.6664 69.3463 59.6001 69.39 60.5637C69.4337 61.5273 69.2146 62.4847 68.7562 63.3335L84.9915 83.0895L81.886 85.6315L65.6465 65.8798C64.6368 66.188 63.5585 66.1913 62.547 65.889C61.5355 65.5868 60.6358 64.9925 59.9607 64.1808Z" fill="url(#paint4_linear)"/>
<path style="mix-blend-mode:multiply" d="M105.006 118.988C104.339 118.169 103.928 117.172 103.826 116.121C103.725 115.07 103.936 114.013 104.434 113.082L88.1946 93.3213L91.3044 90.7792L107.548 110.535C108.469 110.252 109.45 110.225 110.386 110.456C111.322 110.687 112.177 111.168 112.861 111.847C113.545 112.526 114.031 113.378 114.268 114.313C114.505 115.247 114.484 116.228 114.208 117.151C113.931 118.074 113.408 118.905 112.696 119.554C111.984 120.204 111.108 120.647 110.164 120.838C109.219 121.029 108.24 120.959 107.332 120.637C106.423 120.315 105.619 119.752 105.006 119.009V118.988Z" fill="url(#paint5_linear)"/>
<path style="mix-blend-mode:multiply" d="M89.1691 83.492L108.925 67.2525C108.563 66.0732 108.621 64.8046 109.09 63.6637C109.56 62.5227 110.411 61.5804 111.499 60.9978C112.586 60.4152 113.842 60.2286 115.052 60.4699C116.262 60.7113 117.351 61.3655 118.132 62.3207C118.912 63.2759 119.337 64.4727 119.333 65.7065C119.329 66.9402 118.896 68.1341 118.109 69.0841C117.322 70.034 116.229 70.6809 115.017 70.914C113.806 71.1472 112.551 70.9521 111.467 70.3622L91.7112 86.5975L89.1691 83.492Z" fill="url(#paint6_linear)"/>
<path style="mix-blend-mode:multiply" d="M55.0803 114.115C54.3028 113.161 53.8799 111.968 53.8836 110.737C53.8873 109.506 54.3174 108.315 55.1007 107.366C55.884 106.417 56.972 105.768 58.1796 105.531C59.3871 105.294 60.6395 105.483 61.7236 106.065L81.4754 89.8301L84.0174 92.9357L64.2614 109.175C64.6259 110.353 64.5699 111.621 64.103 112.763C63.6361 113.904 62.7873 114.848 61.7016 115.433C60.6159 116.018 59.3607 116.207 58.1507 115.969C56.9407 115.731 55.8509 115.08 55.0676 114.128L55.0803 114.115Z" fill="url(#paint7_linear)"/>
<path style="mix-blend-mode:multiply" d="M59.9607 64.1808C59.3487 63.4352 58.951 62.5372 58.8099 61.583C58.6688 60.6287 58.7898 59.6541 59.1599 58.7633C59.53 57.8725 60.1352 57.099 60.9109 56.5256C61.6866 55.9522 62.6036 55.6005 63.5638 55.508C64.5239 55.4155 65.4912 55.5857 66.3621 56.0004C67.233 56.4152 67.9748 57.0589 68.5081 57.8627C69.0414 58.6664 69.3463 59.6001 69.39 60.5637C69.4337 61.5273 69.2146 62.4847 68.7562 63.3335L84.9915 83.0895L81.886 85.6315L65.6465 65.8798C64.6368 66.188 63.5585 66.1913 62.547 65.889C61.5355 65.5868 60.6358 64.9925 59.9607 64.1808Z" fill="url(#paint8_linear)"/>
<path style="mix-blend-mode:multiply" d="M105.006 118.988C104.339 118.169 103.928 117.172 103.826 116.121C103.725 115.07 103.936 114.013 104.434 113.082L88.1946 93.3213L91.3044 90.7792L107.548 110.535C108.469 110.252 109.45 110.225 110.386 110.456C111.322 110.687 112.177 111.168 112.861 111.847C113.545 112.526 114.031 113.378 114.268 114.313C114.505 115.247 114.484 116.228 114.208 117.151C113.931 118.074 113.408 118.905 112.696 119.554C111.984 120.204 111.108 120.647 110.164 120.838C109.219 121.029 108.24 120.959 107.332 120.637C106.423 120.315 105.619 119.752 105.006 119.009V118.988Z" fill="url(#paint9_linear)"/>
<path style="mix-blend-mode:multiply" d="M89.1691 83.492L108.925 67.2525C108.563 66.0732 108.621 64.8046 109.09 63.6637C109.56 62.5227 110.411 61.5804 111.499 60.9978C112.586 60.4152 113.842 60.2286 115.052 60.4699C116.262 60.7113 117.351 61.3655 118.132 62.3207C118.912 63.2759 119.337 64.4727 119.333 65.7065C119.329 66.9402 118.896 68.1341 118.109 69.0841C117.322 70.034 116.229 70.6809 115.017 70.914C113.806 71.1472 112.551 70.9521 111.467 70.3622L91.7112 86.5975L89.1691 83.492Z" fill="url(#paint10_linear)"/>
<path style="mix-blend-mode:multiply" d="M55.0803 114.115C54.3028 113.161 53.8799 111.968 53.8836 110.737C53.8873 109.506 54.3174 108.315 55.1007 107.366C55.884 106.417 56.972 105.768 58.1796 105.531C59.3871 105.294 60.6395 105.483 61.7236 106.065L81.4754 89.8301L84.0174 92.9357L64.2614 109.175C64.6259 110.353 64.5699 111.621 64.103 112.763C63.6361 113.904 62.7873 114.848 61.7016 115.433C60.6159 116.018 59.3607 116.207 58.1507 115.969C56.9407 115.731 55.8509 115.08 55.0676 114.128L55.0803 114.115Z" fill="url(#paint11_linear)"/>
<path style="mix-blend-mode:multiply" d="M59.9607 64.1808C59.3487 63.4352 58.951 62.5372 58.8099 61.583C58.6688 60.6287 58.7898 59.6541 59.1599 58.7633C59.53 57.8725 60.1352 57.099 60.9109 56.5256C61.6866 55.9522 62.6036 55.6005 63.5638 55.508C64.5239 55.4155 65.4912 55.5857 66.3621 56.0004C67.233 56.4152 67.9748 57.0589 68.5081 57.8627C69.0414 58.6664 69.3463 59.6001 69.39 60.5637C69.4337 61.5273 69.2146 62.4847 68.7562 63.3335L84.9915 83.0895L81.886 85.6315L65.6465 65.8798C64.6368 66.188 63.5585 66.1913 62.547 65.889C61.5355 65.5868 60.6358 64.9925 59.9607 64.1808Z" fill="url(#paint12_linear)"/>
<path d="M91.6654 90.4462L89.6166 92.1304L106.006 112.069L108.055 110.385L91.6654 90.4462Z" fill="url(#paint13_linear)"/>
<path d="M105.989 117.293C105.407 116.585 105.048 115.72 104.957 114.808C104.866 113.896 105.048 112.977 105.479 112.168C105.91 111.359 106.572 110.696 107.38 110.263C108.188 109.83 109.106 109.647 110.018 109.736C110.931 109.825 111.796 110.182 112.505 110.763C113.215 111.343 113.736 112.122 114.003 112.998C114.27 113.875 114.271 114.812 114.006 115.689C113.741 116.567 113.222 117.346 112.514 117.928C112.043 118.315 111.502 118.605 110.919 118.783C110.337 118.96 109.726 119.021 109.12 118.962C108.514 118.903 107.925 118.725 107.388 118.439C106.851 118.152 106.376 117.763 105.989 117.293Z" fill="#E19A4A"/>
<path d="M106.629 110.743C105.939 111.312 105.427 112.068 105.155 112.921C105.271 113.977 105.748 114.96 106.504 115.707C107.26 116.454 108.25 116.917 109.307 117.021C110.365 117.124 111.426 116.861 112.312 116.274C113.198 115.688 113.856 114.815 114.175 113.802C114.082 112.973 113.767 112.185 113.263 111.52C112.759 110.856 112.085 110.339 111.313 110.026C110.54 109.713 109.697 109.614 108.872 109.74C108.048 109.866 107.273 110.213 106.629 110.743Z" fill="url(#paint14_linear)"/>
<path d="M108.984 111.387C108.95 111.073 109.344 110.772 109.865 110.717C110.387 110.662 110.836 110.87 110.87 111.188C110.903 111.505 110.509 111.802 109.988 111.857C109.467 111.912 109.014 111.705 108.984 111.387Z" fill="#252B3B"/>
<path d="M68.0846 61.7574L66.0358 63.4415L82.4253 83.3803L84.4742 81.6962L68.0846 61.7574Z" fill="url(#paint15_linear)"/>
<path d="M67.4599 63.0919C68.1678 62.5096 68.6871 61.7304 68.9522 60.8529C69.2173 59.9753 69.2163 59.0389 68.9492 58.162C68.6821 57.2851 68.161 56.5071 67.4517 55.9263C66.7425 55.3456 65.877 54.9881 64.9646 54.8993C64.0522 54.8104 63.134 54.9941 62.326 55.427C61.518 55.86 60.8566 56.5229 60.4253 57.3318C59.994 58.1406 59.8123 59.0593 59.903 59.9714C59.9938 60.8836 60.353 61.7484 60.9353 62.4564C61.3219 62.9266 61.7974 63.316 62.3346 63.6024C62.8717 63.8888 63.46 64.0666 64.0659 64.1256C64.6718 64.1847 65.2834 64.1237 65.8657 63.9464C66.4481 63.769 66.9898 63.4787 67.4599 63.0919Z" fill="#E19A4A"/>
<path d="M68.0956 56.5674C68.6661 57.2564 69.0225 58.0974 69.1209 58.9866C68.8037 60.0025 68.1463 60.8782 67.2593 61.4663C66.3722 62.0544 65.3096 62.319 64.2504 62.2156C63.1911 62.1122 62.1998 61.647 61.4432 60.8984C60.6867 60.1498 60.2111 59.1634 60.0966 58.1053C60.3473 57.3095 60.8085 56.5963 61.4315 56.0412C62.0545 55.4861 62.816 55.1099 63.6353 54.9523C64.4547 54.7946 65.3014 54.8615 66.0858 55.1459C66.8703 55.4302 67.5632 55.9214 68.0913 56.5674H68.0956Z" fill="url(#paint16_linear)"/>
<path d="M65.6634 56.7411C65.7566 56.4402 65.4262 56.0674 64.9262 55.8937C64.4263 55.72 63.9433 55.8598 63.8459 56.1606C63.7484 56.4614 64.0831 56.8343 64.5873 57.008C65.0915 57.1817 65.566 57.0461 65.6634 56.7411Z" fill="#252B3B"/>
<path d="M110.517 65.9066L90.5778 82.2961L92.2619 84.345L112.201 67.9554L110.517 65.9066Z" fill="url(#paint17_linear)"/>
<path d="M110.87 67.333C110.288 66.6246 109.93 65.7596 109.84 64.8473C109.749 63.9351 109.932 63.0167 110.364 62.2081C110.795 61.3995 111.457 60.7371 112.266 60.3047C113.074 59.8723 113.992 59.6892 114.904 59.7787C115.817 59.8681 116.682 60.2261 117.391 60.8072C118.1 61.3884 118.62 62.1668 118.887 63.0438C119.153 63.9209 119.154 64.8573 118.888 65.7346C118.623 66.6119 118.103 67.3908 117.395 67.9727C116.924 68.3592 116.382 68.6493 115.8 68.8263C115.217 69.0033 114.606 69.0638 114 69.0044C113.394 68.945 112.806 68.7668 112.269 68.48C111.732 68.1933 111.256 67.8035 110.87 67.333Z" fill="#CB8D3C"/>
<path d="M111.51 60.8084C110.819 61.3777 110.307 62.1337 110.035 62.9861C110.134 63.8752 110.49 64.7162 111.06 65.4053C111.589 66.0513 112.281 66.5424 113.066 66.8268C113.85 67.1111 114.697 67.178 115.516 67.0204C116.336 66.8627 117.097 66.4865 117.72 65.9314C118.343 65.3763 118.805 64.6631 119.055 63.8673C118.962 63.0385 118.647 62.2502 118.144 61.5857C117.64 60.9211 116.966 60.4049 116.193 60.0915C115.42 59.7782 114.577 59.6795 113.753 59.8056C112.928 59.9318 112.153 60.2782 111.51 60.8084Z" fill="#FFBA53"/>
<path d="M113.865 61.4523C113.831 61.1388 114.225 60.838 114.746 60.7829C115.268 60.7278 115.721 60.9354 115.751 61.2532C115.78 61.571 115.39 61.8675 114.869 61.9226C114.348 61.9777 113.903 61.7658 113.865 61.4523Z" fill="#252B3B"/>
<path d="M81.8284 89.4815L61.8864 105.874L63.5705 107.923L83.5126 91.5304L81.8284 89.4815Z" fill="url(#paint18_linear)"/>
<path d="M62.5794 113.026C63.2873 112.444 63.8067 111.665 64.0717 110.787C64.3368 109.91 64.3358 108.973 64.0687 108.096C63.8016 107.22 63.2805 106.442 62.5713 105.861C61.862 105.28 60.9965 104.923 60.0841 104.834C59.1717 104.745 58.2535 104.929 57.4455 105.362C56.6375 105.795 55.9761 106.457 55.5448 107.266C55.1135 108.075 54.9318 108.994 55.0225 109.906C55.1133 110.818 55.4725 111.683 56.0548 112.391C56.4414 112.861 56.9169 113.251 57.4541 113.537C57.9912 113.823 58.5796 114.001 59.1854 114.06C59.7913 114.119 60.4029 114.058 60.9852 113.881C61.5676 113.703 62.1093 113.413 62.5794 113.026Z" fill="#CB8D3C"/>
<path d="M63.2188 106.502C63.7873 107.193 64.1421 108.035 64.2399 108.925C63.921 109.939 63.2632 110.812 62.377 111.398C61.4907 111.984 60.4298 112.248 59.3723 112.144C58.3148 112.041 57.325 111.577 56.5689 110.83C55.8129 110.084 55.3365 109.1 55.2198 108.044C55.472 107.249 55.934 106.536 56.5571 105.982C57.1803 105.428 57.9416 105.052 58.7606 104.894C59.5797 104.736 60.4262 104.802 61.2108 105.085C61.9955 105.368 62.6892 105.857 63.2188 106.502Z" fill="url(#paint19_linear)"/>
<path d="M60.7827 106.676C60.8759 106.375 60.5455 106.002 60.0455 105.849C59.5456 105.697 59.0626 105.811 58.9694 106.116C58.8762 106.421 59.2024 106.786 59.7023 106.942C60.2023 107.099 60.6895 106.981 60.7827 106.676Z" fill="#252B3B"/>
<path d="M81.4497 91.5164C80.5406 90.41 79.9801 89.0589 79.8388 87.634C79.6975 86.2091 79.9819 84.7743 80.6561 83.5109C81.3302 82.2476 82.3638 81.2126 83.6261 80.5366C84.8884 79.8607 86.3228 79.5742 87.748 79.7134C89.1731 79.8526 90.525 80.4112 91.6326 81.3186C92.7403 82.2261 93.554 83.4416 93.971 84.8114C94.3879 86.1813 94.3893 87.6441 93.975 89.0147C93.5607 90.3854 92.7493 91.6024 91.6433 92.512C90.1593 93.7311 88.2519 94.311 86.3404 94.1243C84.4289 93.9376 82.6698 92.9996 81.4497 91.5164Z" fill="#CB8D3C"/>
<path d="M82.454 81.3227C81.3753 82.206 80.5761 83.3835 80.1534 84.7121C80.3398 86.3587 81.0856 87.8913 82.2663 89.054C83.4469 90.2168 84.9908 90.9391 86.6399 91.1003C88.2891 91.2615 89.9437 90.8518 91.3271 89.9397C92.7105 89.0276 93.739 87.6683 94.2407 86.0891C94.0948 84.7949 93.6024 83.5641 92.8153 82.5265C92.0283 81.4889 90.9758 80.6829 89.7689 80.1935C88.562 79.7042 87.2454 79.5496 85.958 79.7461C84.6705 79.9426 83.46 80.4829 82.454 81.31V81.3227Z" fill="url(#paint20_linear)"/>
<path d="M86.1274 82.3311C86.0723 81.8354 86.6909 81.3694 87.5043 81.2804C88.3178 81.1914 89.0211 81.5219 89.0762 82.0133C89.1312 82.5048 88.5127 82.9751 87.695 83.0641C86.8773 83.153 86.1782 82.8226 86.1274 82.3311Z" fill="#252B3B"/>
<path style="mix-blend-mode:multiply" d="M137 55C136.209 55 135.435 54.7654 134.778 54.3259C134.12 53.8864 133.607 53.2617 133.304 52.5308C133.002 51.7999 132.922 50.9956 133.077 50.2197C133.231 49.4438 133.612 48.731 134.171 48.1716C134.731 47.6122 135.444 47.2312 136.22 47.0769C136.995 46.9226 137.8 47.0018 138.531 47.3045C139.262 47.6073 139.886 48.12 140.326 48.7777C140.765 49.4355 141 50.2089 141 51C141 52.0609 140.578 53.0783 139.828 53.8285C139.078 54.5786 138.061 55 137 55Z" fill="url(#paint21_radial)"/>
<path d="M136.5 54C135.808 54 135.131 53.7948 134.555 53.4102C133.98 53.0256 133.531 52.479 133.266 51.8394C133.001 51.1999 132.932 50.4961 133.067 49.8172C133.202 49.1383 133.536 48.5146 134.025 48.0252C134.514 47.5357 135.138 47.2023 135.817 47.0673C136.496 46.9322 137.2 47.0015 137.839 47.2665C138.479 47.5314 139.025 47.98 139.41 48.5555C139.795 49.1311 140 49.8078 140 50.5C140.001 50.9599 139.911 51.4153 139.735 51.8403C139.559 52.2653 139.302 52.6514 138.976 52.9766C138.651 53.3018 138.265 53.5595 137.84 53.7352C137.415 53.9108 136.96 54.0008 136.5 54Z" fill="white"/>
<path d="M133 50.5031C133.005 51.1807 133.206 51.8423 133.58 52.4078C134.107 52.7625 134.722 52.966 135.357 52.9961C135.992 53.0262 136.624 52.8818 137.182 52.5786C137.741 52.2754 138.206 51.825 138.526 51.2763C138.847 50.7277 139.01 50.1018 138.999 49.4668C138.994 48.7894 138.792 48.1281 138.42 47.5621C137.89 47.2199 137.277 47.0266 136.646 47.0026C136.016 46.9786 135.39 47.1247 134.836 47.4257C134.281 47.7266 133.818 48.1712 133.495 48.7127C133.172 49.2543 133.001 49.8727 133 50.5031Z" fill="url(#paint22_linear)"/>
<path d="M134.247 50.0382C134.038 49.9801 133.989 49.6918 134.134 49.3959C134.279 49.0999 134.581 48.9017 134.763 48.9615C134.944 49.0212 135.021 49.3078 134.881 49.6025C134.742 49.8973 134.455 50.0874 134.247 50.0382Z" fill="#747474"/>
<defs>
<filter id="filter0_d" x="0" y="0" width="174" height="174" filterUnits="userSpaceOnUse" color-interpolation-filters="sRGB">
<feFlood flood-opacity="0" result="BackgroundImageFix"/>
<feColorMatrix in="SourceAlpha" type="matrix" values="0 0 0 0 0 0 0 0 0 0 0 0 0 0 0 0 0 0 127 0"/>
<feOffset/>
<feGaussianBlur stdDeviation="10"/>
<feColorMatrix type="matrix" values="0 0 0 0 0.847059 0 0 0 0 0.141176 0 0 0 0 0.266667 0 0 0 0.5 0"/>
<feBlend mode="normal" in2="BackgroundImageFix" result="effect1_dropShadow"/>
<feBlend mode="normal" in="SourceGraphic" in2="effect1_dropShadow" result="shape"/>
</filter>
<linearGradient id="paint0_linear" x1="87.2118" y1="103.519" x2="87.2118" y2="70.2563" gradientUnits="userSpaceOnUse">
<stop stop-color="#E9B26B"/>
<stop offset="1" stop-color="#E99D2D"/>
</linearGradient>
<linearGradient id="paint1_linear" x1="90.4729" y1="92.2819" x2="113.402" y2="119.868" gradientUnits="userSpaceOnUse">
<stop stop-color="#CCCCCC"/>
<stop offset="0.32" stop-color="#DEDEDE"/>
<stop offset="0.68" stop-color="#EBEBEC"/>
<stop offset="1" stop-color="#EFEFF0"/>
</linearGradient>
<linearGradient id="paint2_linear" x1="91.1262" y1="85.2632" x2="118.709" y2="62.3372" gradientUnits="userSpaceOnUse">
<stop stop-color="#CCCCCC"/>
<stop offset="0.13" stop-color="#D8D8D8"/>
<stop offset="0.44" stop-color="#EDEDED"/>
<stop offset="0.73" stop-color="#FBFBFB"/>
<stop offset="1" stop-color="white"/>
</linearGradient>
<linearGradient id="paint3_linear" x1="6520.92" y1="8432.37" x2="6520.92" y2="6213.57" gradientUnits="userSpaceOnUse">
<stop stop-color="#CCCCCC"/>
<stop offset="0.32" stop-color="#DEDEDE"/>
<stop offset="0.68" stop-color="#EBEBEC"/>
<stop offset="1" stop-color="#EFEFF0"/>
</linearGradient>
<linearGradient id="paint4_linear" x1="61.1781" y1="57.03" x2="84.104" y2="84.6128" gradientUnits="userSpaceOnUse">
<stop stop-color="#EFEFF0"/>
<stop offset="0.32" stop-color="#EBEBEC"/>
<stop offset="0.68" stop-color="#DEDEDE"/>
<stop offset="1" stop-color="#CCCCCC"/>
</linearGradient>
<linearGradient id="paint5_linear" x1="90.4729" y1="92.2819" x2="113.402" y2="119.868" gradientUnits="userSpaceOnUse">
<stop stop-color="#CCCCCC"/>
<stop offset="0.32" stop-color="#DEDEDE"/>
<stop offset="0.68" stop-color="#EBEBEC"/>
<stop offset="1" stop-color="#EFEFF0"/>
</linearGradient>
<linearGradient id="paint6_linear" x1="91.1262" y1="85.2632" x2="118.709" y2="62.3372" gradientUnits="userSpaceOnUse">
<stop stop-color="#CCCCCC"/>
<stop offset="0.13" stop-color="#D8D8D8"/>
<stop offset="0.44" stop-color="#EDEDED"/>
<stop offset="0.73" stop-color="#FBFBFB"/>
<stop offset="1" stop-color="white"/>
</linearGradient>
<linearGradient id="paint7_linear" x1="6520.92" y1="8432.37" x2="6520.92" y2="6213.57" gradientUnits="userSpaceOnUse">
<stop stop-color="#CCCCCC"/>
<stop offset="0.32" stop-color="#DEDEDE"/>
<stop offset="0.68" stop-color="#EBEBEC"/>
<stop offset="1" stop-color="#EFEFF0"/>
</linearGradient>
<linearGradient id="paint8_linear" x1="61.1781" y1="57.03" x2="84.104" y2="84.6128" gradientUnits="userSpaceOnUse">
<stop stop-color="#EFEFF0"/>
<stop offset="0.32" stop-color="#EBEBEC"/>
<stop offset="0.68" stop-color="#DEDEDE"/>
<stop offset="1" stop-color="#CCCCCC"/>
</linearGradient>
<linearGradient id="paint9_linear" x1="90.4729" y1="92.2819" x2="113.402" y2="119.868" gradientUnits="userSpaceOnUse">
<stop stop-color="#CCCCCC"/>
<stop offset="0.32" stop-color="#DEDEDE"/>
<stop offset="0.68" stop-color="#EBEBEC"/>
<stop offset="1" stop-color="#EFEFF0"/>
</linearGradient>
<linearGradient id="paint10_linear" x1="91.1262" y1="85.2632" x2="118.709" y2="62.3372" gradientUnits="userSpaceOnUse">
<stop stop-color="#CCCCCC"/>
<stop offset="0.13" stop-color="#D8D8D8"/>
<stop offset="0.44" stop-color="#EDEDED"/>
<stop offset="0.73" stop-color="#FBFBFB"/>
<stop offset="1" stop-color="white"/>
</linearGradient>
<linearGradient id="paint11_linear" x1="6520.92" y1="8432.37" x2="6520.92" y2="6213.57" gradientUnits="userSpaceOnUse">
<stop stop-color="#CCCCCC"/>
<stop offset="0.32" stop-color="#DEDEDE"/>
<stop offset="0.68" stop-color="#EBEBEC"/>
<stop offset="1" stop-color="#EFEFF0"/>
</linearGradient>
<linearGradient id="paint12_linear" x1="61.1781" y1="57.03" x2="84.104" y2="84.6128" gradientUnits="userSpaceOnUse">
<stop stop-color="#EFEFF0"/>
<stop offset="0.32" stop-color="#EBEBEC"/>
<stop offset="0.68" stop-color="#DEDEDE"/>
<stop offset="1" stop-color="#CCCCCC"/>
</linearGradient>
<linearGradient id="paint13_linear" x1="-3886.57" y1="4261.24" x2="-3761.75" y2="4158.64" gradientUnits="userSpaceOnUse">
<stop stop-color="#B5721D"/>
<stop offset="1" stop-color="#FAC77E"/>
</linearGradient>
<linearGradient id="paint14_linear" x1="106.005" y1="113.091" x2="115.04" y2="113.927" gradientUnits="userSpaceOnUse">
<stop stop-color="#E79A3B"/>
<stop offset="1" stop-color="#F9C67C"/>
</linearGradient>
<linearGradient id="paint15_linear" x1="-4706.82" y1="3186.15" x2="-4582" y2="3083.56" gradientUnits="userSpaceOnUse">
<stop stop-color="#B5721D"/>
<stop offset="1" stop-color="#FAC77E"/>
</linearGradient>
<linearGradient id="paint16_linear" x1="1862.43" y1="2557.62" x2="1692.73" y2="2524.58" gradientUnits="userSpaceOnUse">
<stop stop-color="#E79A3B"/>
<stop offset="1" stop-color="#F9C67C"/>
</linearGradient>
<linearGradient id="paint17_linear" x1="10426.5" y1="-6975.37" x2="10415.9" y2="-6988.19" gradientUnits="userSpaceOnUse">
<stop stop-color="#B5721D"/>
<stop offset="1" stop-color="#FAC77E"/>
</linearGradient>
<linearGradient id="paint18_linear" x1="370.443" y1="1318.82" x2="359.9" y2="1305.99" gradientUnits="userSpaceOnUse">
<stop stop-color="#B5721D"/>
<stop offset="1" stop-color="#FAC77E"/>
</linearGradient>
<linearGradient id="paint19_linear" x1="1820.13" y1="2985.73" x2="1650.74" y2="2952.59" gradientUnits="userSpaceOnUse">
<stop stop-color="#E79A3B"/>
<stop offset="1" stop-color="#F9C67C"/>
</linearGradient>
<linearGradient id="paint20_linear" x1="2909.85" y1="2692.95" x2="3175.3" y2="2366.97" gradientUnits="userSpaceOnUse">
<stop stop-color="#E79A3B"/>
<stop offset="1" stop-color="#F9C67C"/>
</linearGradient>
<radialGradient id="paint21_radial" cx="0" cy="0" r="1" gradientUnits="userSpaceOnUse" gradientTransform="translate(137 51) scale(4)">
<stop offset="0.32"/>
<stop offset="0.38" stop-color="#0D0D0D"/>
<stop offset="0.49" stop-color="#313131"/>
<stop offset="0.65" stop-color="#6A6A6A"/>
<stop offset="0.84" stop-color="#B7B7B7"/>
<stop offset="1" stop-color="white"/>
</radialGradient>
<linearGradient id="paint22_linear" x1="136" y1="47" x2="136" y2="53" gradientUnits="userSpaceOnUse">
<stop stop-color="white"/>
<stop offset="1" stop-color="#CDCDCD" stop-opacity="0"/>
</linearGradient>
</defs>
</svg>
