<svg width="224" height="174" viewBox="0 0 224 174" fill="none" xmlns="http://www.w3.org/2000/svg">
<path fill-rule="evenodd" clip-rule="evenodd" d="M125.416 51.5067C128.55 51.7474 131.156 52.873 131.31 53.9539C131.465 55.0347 129.225 55.7117 126.241 55.5078C123.258 55.3038 120.55 54.2842 120.246 53.1422C119.941 52.0002 122.282 51.262 125.416 51.5067Z" fill="white"/>
<path fill-rule="evenodd" clip-rule="evenodd" d="M150.391 61.5889C152.924 61.7398 154.83 62.5595 154.7 63.3875C154.57 64.2154 152.525 64.7497 150.095 64.611C147.664 64.4724 145.664 63.7179 145.696 62.8695C145.729 62.0212 147.855 61.438 150.391 61.5889Z" fill="#1D222E"/>
<g filter="url(#filter0_d)">
<path fill-rule="evenodd" clip-rule="evenodd" d="M94.783 38.3536C101.616 44.7814 109.649 57.18 108.12 67.1887C107.116 73.7592 100.673 84.2858 93.0188 91.4844C76.3932 107.125 65.6779 109.515 47.1499 88.9271C42.024 83.2172 26.4511 64.7497 30.9144 53.1994C32.638 48.713 36.0769 44.0921 39.6053 40.397C54.6741 24.6498 79.3484 23.8341 94.783 38.3536Z" fill="#4552BB"/>
</g>
<path fill-rule="evenodd" clip-rule="evenodd" d="M32.235 64.2644C34.617 72.3398 44.6859 86.1864 54.7182 95.1836C64.7505 104.181 70.9537 104.927 68.5716 96.8517C66.1895 88.7762 56.0962 74.9256 46.0558 65.9284C36.0154 56.9312 29.8285 56.1849 32.235 64.2644Z" fill="url(#paint0_radial)"/>
<path fill-rule="evenodd" clip-rule="evenodd" d="M100.685 61.7194C92.5953 64.7783 80.7419 76.2674 74.2177 87.3814C67.6934 98.4953 68.9617 105.029 77.0631 101.974C85.1646 98.9195 97.0058 87.4221 103.53 76.3082C110.054 65.1943 108.774 58.6646 100.685 61.7194Z" fill="url(#paint1_radial)"/>
<path fill-rule="evenodd" clip-rule="evenodd" d="M101.218 66.9561C101.092 68.6447 99.3521 71.5241 97.348 73.4818C95.344 75.4395 93.7343 75.8514 93.7302 74.2975C93.7262 72.7436 95.4335 69.7418 97.5635 67.6373C99.6935 65.5327 101.34 65.2717 101.218 66.9561Z" fill="white"/>
<path fill-rule="evenodd" clip-rule="evenodd" d="M94.6167 78.4128C94.4988 79.775 92.8566 82.324 90.9582 84.1635C89.0599 86.0029 87.5559 86.5331 87.5681 85.2891C87.5803 84.0452 89.194 81.4023 91.194 79.4487C93.194 77.4951 94.7346 77.0505 94.6167 78.4128Z" fill="white"/>
<path fill-rule="evenodd" clip-rule="evenodd" d="M86.9338 90.3138C87.0476 91.4313 85.6574 93.7193 83.8444 95.469C82.0314 97.2187 80.4177 97.8427 80.186 96.8312C79.9543 95.8197 81.3241 93.4583 83.2306 91.6026C85.1371 89.7468 86.8159 89.1962 86.9338 90.3138Z" fill="white"/>
<path fill-rule="evenodd" clip-rule="evenodd" d="M57.2352 30.4331C72.1942 25.9101 89.576 31.2774 96.0474 42.4158C102.519 53.5542 95.6409 66.2465 80.6778 70.7655C65.7147 75.2845 48.337 69.9213 41.8615 58.7828C35.386 47.6444 42.2761 34.9521 57.2352 30.4331Z" fill="#5664D2"/>
<path fill-rule="evenodd" clip-rule="evenodd" d="M40.7427 62.9878C42.4378 64.7253 43.8117 67.2784 43.7467 68.5713C43.6816 69.8642 42.2548 69.4156 40.6207 67.6904C38.9866 65.9651 37.7184 63.6118 37.7224 62.3026C37.7265 60.9934 39.0517 61.2626 40.7427 62.9878Z" fill="white"/>
<path fill-rule="evenodd" clip-rule="evenodd" d="M57.4623 80.138C59.4947 82.2262 61.0272 85.0322 60.7793 86.2557C60.5313 87.4793 58.6817 86.7003 56.7143 84.6243C54.7469 82.5484 53.3729 80.0115 53.5355 78.7513C53.6981 77.491 55.4054 78.0457 57.4623 80.138Z" fill="white"/>
<path fill-rule="evenodd" clip-rule="evenodd" d="M40.601 68.5713C42.227 70.2924 43.54 72.7436 43.4831 73.9345C43.4261 75.1255 42.0603 74.6238 40.4872 72.9149C38.914 71.206 37.6946 68.9343 37.6986 67.727C37.7027 66.5198 38.975 66.8542 40.601 68.5713Z" fill="white"/>
<path fill-rule="evenodd" clip-rule="evenodd" d="M40.4667 73.7265C42.0317 75.4273 43.3121 77.7846 43.243 78.8858C43.1739 79.987 41.8772 79.4323 40.365 77.7479C38.8529 76.0635 37.674 73.8693 37.6781 72.7477C37.6822 71.6261 38.9057 72.0217 40.4667 73.7265Z" fill="white"/>
<path fill-rule="evenodd" clip-rule="evenodd" d="M56.5842 85.4971C58.5273 87.5363 59.9866 90.2445 59.7589 91.3742C59.5313 92.504 57.7752 91.6719 55.9054 89.6449C54.0355 87.6179 52.6981 85.1341 52.8526 83.9758C53.0071 82.8175 54.6412 83.4374 56.5842 85.4971Z" fill="white"/>
<path fill-rule="evenodd" clip-rule="evenodd" d="M55.7792 90.4118C57.6369 92.451 59.0311 95.0164 58.8238 96.0524C58.6165 97.0883 56.9458 96.2196 55.1654 94.2293C53.3849 92.2389 52.0922 89.853 52.2305 88.7844C52.3687 87.7159 53.9255 88.3929 55.7792 90.4118Z" fill="white"/>
<path fill-rule="evenodd" clip-rule="evenodd" d="M74.1033 31.2733C76.1114 32.6885 76.0748 35.0908 73.8879 36.6896C71.7009 38.2883 68.14 38.4188 66.071 36.922C64.0019 35.4252 64.2702 32.9414 66.514 31.4242C68.7579 29.907 72.1115 29.8581 74.1033 31.2733Z" fill="white"/>
<path fill-rule="evenodd" clip-rule="evenodd" d="M92.7631 44.4102C94.9013 45.9152 95.1005 48.558 93.0761 50.3811C91.0518 52.2042 87.5112 52.4204 85.3039 50.8379C83.0967 49.2555 83.117 46.4902 85.2104 44.761C87.3039 43.0317 90.6249 42.9012 92.7631 44.4102Z" fill="white"/>
<path fill-rule="evenodd" clip-rule="evenodd" d="M54.2307 45.2626C56.3811 46.894 56.0762 49.749 53.3771 51.7108C50.6779 53.6725 46.552 53.9458 44.3366 52.2206C42.1212 50.4954 42.7106 47.5262 45.4829 45.6582C48.2552 43.7903 52.0844 43.6394 54.2307 45.2626Z" fill="white"/>
<path fill-rule="evenodd" clip-rule="evenodd" d="M74.1812 44.8221C76.3275 46.3842 76.2868 49.1249 73.9454 51.0174C71.604 52.9098 67.7911 53.1667 65.5797 51.5068C63.3684 49.8468 63.6529 46.9919 66.0594 45.1933C68.4658 43.3946 72.0349 43.26 74.1812 44.8221Z" fill="white"/>
<path fill-rule="evenodd" clip-rule="evenodd" d="M74.2512 60.3612C76.556 62.0946 76.5235 65.2554 74.0073 67.5231C71.4911 69.7908 67.3733 70.1904 64.9912 68.3388C62.6091 66.4872 62.9303 63.1673 65.5197 61.026C68.109 58.8848 71.9463 58.6238 74.2512 60.3612Z" fill="white"/>
<g filter="url(#filter1_d)">
<path fill-rule="evenodd" clip-rule="evenodd" d="M140.692 48.3256C128.026 48.6356 108.745 53.905 101.181 65.4145C96.2132 72.972 93.0832 89.4778 94.1848 103.675C96.579 134.558 105.107 146.683 142.314 142.641C152.606 141.524 184.951 136.931 190.984 121.209C193.317 115.127 194.101 107.317 193.931 100.38C193.207 70.7819 169.289 47.6241 140.692 48.3256Z" fill="#E9E9E9"/>
</g>
<path fill-rule="evenodd" clip-rule="evenodd" d="M179.634 131.221C169.919 137.237 147.273 142.111 129.094 142.135C110.916 142.16 104.03 137.282 113.745 131.27C123.46 125.258 146.098 120.372 164.289 120.356C182.479 120.34 189.353 125.21 179.634 131.221Z" fill="url(#paint2_radial)"/>
<path fill-rule="evenodd" clip-rule="evenodd" d="M113.571 66.6177C118.856 77.0383 120.266 99.4007 116.689 116.559C113.112 133.717 105.905 139.17 100.604 128.75C95.3033 118.329 93.909 95.9666 97.4862 78.8083C101.063 61.65 108.271 56.1971 113.571 66.6177Z" fill="url(#paint3_radial)"/>
<path fill-rule="evenodd" clip-rule="evenodd" d="M185.382 74.3302C174.549 56.2012 152.318 45.8825 135.737 51.2866C119.156 56.6906 114.498 75.7576 125.331 93.8988C136.164 112.04 158.395 122.342 174.976 116.938C191.557 111.534 196.215 92.4551 185.382 74.3302Z" fill="white"/>
<path fill-rule="evenodd" clip-rule="evenodd" d="M110.206 67.4742C108.706 69.4196 107.767 74.2241 107.999 78.2863C108.23 82.3485 109.559 84.3511 111.059 82.6911C112.559 81.0312 113.669 76.1084 113.433 71.7689C113.198 67.4293 111.71 65.5328 110.206 67.4742Z" fill="#1D222E"/>
<path fill-rule="evenodd" clip-rule="evenodd" d="M98.9011 81.7082C97.7832 83.1927 97.1043 87.259 97.3198 90.8399C97.5352 94.4209 98.5677 96.3133 99.6856 95.0449C100.803 93.7765 101.588 89.6409 101.373 85.8519C101.157 82.063 99.9986 80.2236 98.9011 81.7082Z" fill="#1D222E"/>
<path fill-rule="evenodd" clip-rule="evenodd" d="M111.742 99.519C110.27 100.898 109.303 105.188 109.522 109.165C109.742 113.141 111.01 115.495 112.485 114.381C113.961 113.268 115.063 108.92 114.863 104.674C114.664 100.429 113.217 98.1405 111.742 99.519Z" fill="#1D222E"/>
<path fill-rule="evenodd" clip-rule="evenodd" d="M100.404 109.768C99.2695 110.796 98.5826 114.369 98.8021 117.783C99.0216 121.196 100.066 123.293 101.2 122.465C102.335 121.637 103.131 118.019 102.912 114.41C102.692 110.8 101.534 108.745 100.404 109.768Z" fill="#1D222E"/>
<path fill-rule="evenodd" clip-rule="evenodd" d="M104.535 90.1303C103.193 91.9208 102.405 96.3052 102.677 100C102.949 103.695 104.181 105.494 105.522 103.965C106.864 102.435 107.807 97.9366 107.53 93.9886C107.254 90.0406 105.876 88.3398 104.535 90.1303Z" fill="#1D222E"/>
<path fill-rule="evenodd" clip-rule="evenodd" d="M136.058 54.8838C140.253 55.7199 144.188 59.7536 145.079 63.9707C145.973 68.2491 143.396 71.2386 139.192 70.6024C134.892 69.9539 130.636 65.7571 129.79 61.283C128.981 56.8701 131.859 54.0477 136.058 54.8838Z" fill="#1D222E"/>
<path fill-rule="evenodd" clip-rule="evenodd" d="M153.896 58.4321C157.64 59.1784 161.27 62.9755 162.201 66.9969C163.131 71.0183 160.981 73.9304 157.233 73.3553C153.404 72.7762 149.485 68.8323 148.575 64.6029C147.664 60.3734 150.156 57.6857 153.896 58.4321Z" fill="#1D222E"/>
<path fill-rule="evenodd" clip-rule="evenodd" d="M169.847 61.6093C173.209 62.2782 176.591 65.8714 177.571 69.6807C178.551 73.49 176.693 76.292 173.339 75.7985C169.913 75.2846 166.299 71.565 165.344 67.5476C164.388 63.5303 166.482 60.9486 169.847 61.6093Z" fill="#1D222E"/>
<path fill-rule="evenodd" clip-rule="evenodd" d="M143.208 90.0365C147.525 90.3954 151.631 94.4331 152.615 99.1152C153.606 103.867 151.013 107.652 146.696 107.529C142.265 107.403 137.814 103.218 136.871 98.2261C135.956 93.3115 138.899 89.6776 143.208 90.0365Z" fill="#1D222E"/>
<path fill-rule="evenodd" clip-rule="evenodd" d="M161.534 91.5659C165.367 91.8841 169.131 95.6771 170.159 100.102C171.188 104.527 169.033 108.161 165.225 108.051C161.298 107.941 157.221 104.009 156.217 99.3151C155.225 94.686 157.7 91.2437 161.534 91.5659Z" fill="#1D222E"/>
<path fill-rule="evenodd" clip-rule="evenodd" d="M177.813 92.9241C181.236 93.2096 184.724 96.7987 185.797 100.983C186.87 105.168 185.049 108.61 181.642 108.516C178.159 108.418 174.403 104.715 173.354 100.282C172.317 95.9096 174.39 92.6345 177.813 92.9241Z" fill="#1D222E"/>
<path fill-rule="evenodd" clip-rule="evenodd" d="M139.197 124.932C143.64 124.847 145.672 125.797 143.851 127.041C142.03 128.285 137.111 129.345 132.75 129.468C128.388 129.59 126.132 128.652 127.872 127.428C129.612 126.205 134.758 125.014 139.197 124.932Z" fill="#1D222E"/>
<path fill-rule="evenodd" clip-rule="evenodd" d="M177.151 124.206C181.155 124.129 182.748 125.022 180.809 126.225C178.87 127.428 174.191 128.419 170.24 128.517C166.289 128.615 164.488 127.738 166.358 126.543C168.228 125.348 173.147 124.28 177.151 124.206Z" fill="#1D222E"/>
<path fill-rule="evenodd" clip-rule="evenodd" d="M124.555 135.177C128.872 135.039 130.937 135.854 129.287 136.984C127.636 138.114 122.937 139.125 118.718 139.28C114.498 139.435 112.214 138.66 113.787 137.522C115.36 136.385 120.242 135.332 124.555 135.177Z" fill="#1D222E"/>
<path fill-rule="evenodd" clip-rule="evenodd" d="M161.501 134.007C165.408 133.88 167.07 134.668 165.306 135.748C163.542 136.829 159.062 137.788 155.221 137.939C151.38 138.089 149.53 137.327 151.225 136.238C152.92 135.149 157.587 134.133 161.501 134.007Z" fill="#1D222E"/>
<defs>
<filter id="filter0_d" x="0.120117" y="0" width="138.189" height="135.792" filterUnits="userSpaceOnUse" color-interpolation-filters="sRGB">
<feFlood flood-opacity="0" result="BackgroundImageFix"/>
<feColorMatrix in="SourceAlpha" type="matrix" values="0 0 0 0 0 0 0 0 0 0 0 0 0 0 0 0 0 0 127 0"/>
<feOffset dy="2"/>
<feGaussianBlur stdDeviation="15"/>
<feColorMatrix type="matrix" values="0 0 0 0 0.520347 0 0 0 0 0.57262 0 0 0 0 0.983333 0 0 0 0.5 0"/>
<feBlend mode="normal" in2="BackgroundImageFix" result="effect1_dropShadow"/>
<feBlend mode="normal" in="SourceGraphic" in2="effect1_dropShadow" result="shape"/>
</filter>
<filter id="filter1_d" x="63.9641" y="18.3101" width="159.989" height="155.084" filterUnits="userSpaceOnUse" color-interpolation-filters="sRGB">
<feFlood flood-opacity="0" result="BackgroundImageFix"/>
<feColorMatrix in="SourceAlpha" type="matrix" values="0 0 0 0 0 0 0 0 0 0 0 0 0 0 0 0 0 0 127 0"/>
<feOffset/>
<feGaussianBlur stdDeviation="15"/>
<feColorMatrix type="matrix" values="0 0 0 0 1 0 0 0 0 1 0 0 0 0 1 0 0 0 0.5 0"/>
<feBlend mode="normal" in2="BackgroundImageFix" result="effect1_dropShadow"/>
<feBlend mode="normal" in="SourceGraphic" in2="effect1_dropShadow" result="shape"/>
</filter>
<radialGradient id="paint0_radial" cx="0" cy="0" r="1" gradientUnits="userSpaceOnUse" gradientTransform="translate(35.8162 53.4074) scale(59.1126 59.3097)">
<stop stop-color="#5664D2"/>
<stop offset="0.36" stop-color="#5664D2"/>
<stop offset="0.72" stop-color="#5664D2"/>
<stop offset="1" stop-color="#4552BB"/>
</radialGradient>
<radialGradient id="paint1_radial" cx="0" cy="0" r="1" gradientUnits="userSpaceOnUse" gradientTransform="translate(4770.11 11023.3) scale(4963.98 5505.83)">
<stop stop-color="#5664D2"/>
<stop offset="0.4" stop-color="#5664D2"/>
<stop offset="1" stop-color="#5664D2"/>
</radialGradient>
<radialGradient id="paint2_radial" cx="0" cy="0" r="1" gradientUnits="userSpaceOnUse" gradientTransform="translate(87.6724 152.152) scale(101.449 101.787)">
<stop stop-color="white"/>
<stop offset="0.23" stop-color="white"/>
<stop offset="0.66" stop-color="#FEFEFE"/>
<stop offset="1" stop-color="#FBFBFB"/>
</radialGradient>
<radialGradient id="paint3_radial" cx="0" cy="0" r="1" gradientUnits="userSpaceOnUse" gradientTransform="translate(5164.21 15749) scale(2966.49 9311.12)">
<stop stop-color="white"/>
<stop offset="0.4" stop-color="white"/>
<stop offset="1" stop-color="white"/>
</radialGradient>
</defs>
</svg>
